%TF.GenerationSoftware,KiCad,Pcbnew,9.0.6*%
%TF.CreationDate,2026-07-17T22:43:22+05:00*%
%TF.ProjectId,NS FPGA V2 iCE,4e532046-5047-4412-9056-32206943452e,rev?*%
%TF.SameCoordinates,Original*%
%TF.FileFunction,Copper,L4,Bot*%
%TF.FilePolarity,Positive*%
%FSLAX46Y46*%
G04 Gerber Fmt 4.6, Leading zero omitted, Abs format (unit mm)*
G04 Created by KiCad (PCBNEW 9.0.6) date 2026-07-17 22:43:22*
%MOMM*%
%LPD*%
G01*
G04 APERTURE LIST*
%TA.AperFunction,ComponentPad*%
%ADD10R,0.850000X0.850000*%
%TD*%
%TA.AperFunction,ComponentPad*%
%ADD11C,0.850000*%
%TD*%
%TA.AperFunction,ComponentPad*%
%ADD12R,1.700000X1.700000*%
%TD*%
%TA.AperFunction,ComponentPad*%
%ADD13C,1.700000*%
%TD*%
%TA.AperFunction,HeatsinkPad*%
%ADD14O,1.000000X2.100000*%
%TD*%
%TA.AperFunction,HeatsinkPad*%
%ADD15O,1.000000X1.600000*%
%TD*%
%TA.AperFunction,ViaPad*%
%ADD16C,0.400000*%
%TD*%
%TA.AperFunction,Conductor*%
%ADD17C,0.200000*%
%TD*%
%TA.AperFunction,Conductor*%
%ADD18C,0.150000*%
%TD*%
G04 APERTURE END LIST*
D10*
%TO.P,J5,1,Pin_1*%
%TO.N,/VCCIO_2*%
X198500000Y-91500000D03*
D11*
%TO.P,J5,2,Pin_2*%
%TO.N,+1V8*%
X198500000Y-92500000D03*
%TO.P,J5,3,Pin_3*%
%TO.N,/VCCIO_2*%
X197500000Y-91500000D03*
%TO.P,J5,4,Pin_4*%
%TO.N,+2V5*%
X197500000Y-92500000D03*
%TO.P,J5,5,Pin_5*%
%TO.N,/VCCIO_2*%
X196500000Y-91500000D03*
%TO.P,J5,6,Pin_6*%
%TO.N,+3V3*%
X196500000Y-92500000D03*
%TD*%
D10*
%TO.P,J4,1,Pin_1*%
%TO.N,/VCCIO_0*%
X198500000Y-87250000D03*
D11*
%TO.P,J4,2,Pin_2*%
%TO.N,+1V8*%
X198500000Y-88250000D03*
%TO.P,J4,3,Pin_3*%
%TO.N,/VCCIO_0*%
X197500000Y-87250000D03*
%TO.P,J4,4,Pin_4*%
%TO.N,+2V5*%
X197500000Y-88250000D03*
%TO.P,J4,5,Pin_5*%
%TO.N,/VCCIO_0*%
X196500000Y-87250000D03*
%TO.P,J4,6,Pin_6*%
%TO.N,+3V3*%
X196500000Y-88250000D03*
%TD*%
D12*
%TO.P,J6,1,Pin_1*%
%TO.N,+3V3*%
X182760000Y-105750000D03*
D13*
%TO.P,J6,2,Pin_2*%
%TO.N,GND*%
X185300000Y-105750000D03*
%TO.P,J6,3,Pin_3*%
%TO.N,/SPI_SS*%
X187840000Y-105750000D03*
%TO.P,J6,4,Pin_4*%
%TO.N,/SPI_SCK*%
X190380000Y-105750000D03*
%TO.P,J6,5,Pin_5*%
%TO.N,/SPI_SO*%
X192920000Y-105750000D03*
%TO.P,J6,6,Pin_6*%
%TO.N,/SPI_SI*%
X195460000Y-105750000D03*
%TO.P,J6,7,Pin_7*%
%TO.N,/CRESET_B*%
X198000000Y-105750000D03*
%TD*%
D12*
%TO.P,J3,1,Pin_1*%
%TO.N,/IOB_22a*%
X202250000Y-53750000D03*
D13*
%TO.P,J3,2,Pin_2*%
%TO.N,GND*%
X202250000Y-56290000D03*
%TO.P,J3,3,Pin_3*%
%TO.N,/IOB_20a*%
X202250000Y-58830000D03*
%TO.P,J3,4,Pin_4*%
%TO.N,/1OB_18a*%
X202250000Y-61370000D03*
%TO.P,J3,5,Pin_5*%
%TO.N,/IOB_12a*%
X202250000Y-63910000D03*
%TO.P,J3,6,Pin_6*%
%TO.N,/IOB_8a*%
X202250000Y-66450000D03*
%TO.P,J3,7,Pin_7*%
%TO.N,/IOB_9b*%
X202250000Y-68990000D03*
%TO.P,J3,8,Pin_8*%
%TO.N,/IOB_6a*%
X202250000Y-71530000D03*
%TO.P,J3,9,Pin_9*%
%TO.N,/IOB_4a*%
X202250000Y-74070000D03*
%TO.P,J3,10,Pin_10*%
%TO.N,GND*%
X202250000Y-76610000D03*
%TO.P,J3,11,Pin_11*%
%TO.N,/IOB_2a*%
X202250000Y-79150000D03*
%TO.P,J3,12,Pin_12*%
%TO.N,/IOB_Oa*%
X202250000Y-81690000D03*
%TO.P,J3,13,Pin_13*%
%TO.N,/IOB_5b*%
X202250000Y-84230000D03*
%TO.P,J3,14,Pin_14*%
%TO.N,/IOB_3b_G6*%
X202250000Y-86770000D03*
%TO.P,J3,15,Pin_15*%
%TO.N,/IOT_49a*%
X202250000Y-89310000D03*
%TO.P,J3,16,Pin_16*%
%TO.N,/IOT_50b*%
X202250000Y-91850000D03*
%TO.P,J3,17,Pin_17*%
%TO.N,/IOT_45a_G1*%
X202250000Y-94390000D03*
%TO.P,J3,18,Pin_18*%
%TO.N,+3V3*%
X202250000Y-96930000D03*
%TO.P,J3,19,Pin_19*%
%TO.N,GND*%
X202250000Y-99470000D03*
%TO.P,J3,20,Pin_20*%
%TO.N,+5V*%
X202250000Y-102010000D03*
%TD*%
D14*
%TO.P,J1,S1,SHIELD*%
%TO.N,GND*%
X194930000Y-57530000D03*
D15*
X194930000Y-53350000D03*
D14*
X186290000Y-57530000D03*
D15*
X186290000Y-53350000D03*
%TD*%
D12*
%TO.P,J2,1,Pin_1*%
%TO.N,+5V*%
X178750000Y-53750000D03*
D13*
%TO.P,J2,2,Pin_2*%
%TO.N,GND*%
X178750000Y-56290000D03*
%TO.P,J2,3,Pin_3*%
%TO.N,+3V3*%
X178750000Y-58830000D03*
%TO.P,J2,4,Pin_4*%
%TO.N,+2V5*%
X178750000Y-61370000D03*
%TO.P,J2,5,Pin_5*%
%TO.N,+1V8*%
X178750000Y-63910000D03*
%TO.P,J2,6,Pin_6*%
%TO.N,/IOB_24a*%
X178750000Y-66450000D03*
%TO.P,J2,7,Pin_7*%
%TO.N,/IOB_29b*%
X178750000Y-68990000D03*
%TO.P,J2,8,Pin_8*%
%TO.N,/IOB_23b*%
X178750000Y-71530000D03*
%TO.P,J2,9,Pin_9*%
%TO.N,/IOT_37a*%
X178750000Y-74070000D03*
%TO.P,J2,10,Pin_10*%
%TO.N,GND*%
X178750000Y-76610000D03*
%TO.P,J2,11,Pin_11*%
%TO.N,/IOT_36b*%
X178750000Y-79150000D03*
%TO.P,J2,12,Pin_12*%
%TO.N,/IOT_39a*%
X178750000Y-81690000D03*
%TO.P,J2,13,Pin_13*%
%TO.N,/IOT_38b*%
X178750000Y-84230000D03*
%TO.P,J2,14,Pin_14*%
%TO.N,/IOT_41a*%
X178750000Y-86770000D03*
%TO.P,J2,15,Pin_15*%
%TO.N,/IOT_42b*%
X178750000Y-89310000D03*
%TO.P,J2,16,Pin_16*%
%TO.N,/IOT_43a*%
X178750000Y-91850000D03*
%TO.P,J2,17,Pin_17*%
%TO.N,/IOT_44b*%
X178750000Y-94390000D03*
%TO.P,J2,18,Pin_18*%
%TO.N,+3V3*%
X178750000Y-96930000D03*
%TO.P,J2,19,Pin_19*%
%TO.N,/IOT_46b_G0*%
X178750000Y-99470000D03*
%TO.P,J2,20,Pin_20*%
%TO.N,/IOT_48b*%
X178750000Y-102010000D03*
%TD*%
D16*
%TO.N,+3V3*%
X192700000Y-96700000D03*
%TO.N,Net-(D3-GK)*%
X192600000Y-100500000D03*
X188600000Y-96700000D03*
%TO.N,Net-(U1A-RGB2)*%
X187400000Y-96200000D03*
%TO.N,/D+*%
X190860000Y-58445000D03*
X189860000Y-58445000D03*
%TO.N,GND*%
X187360000Y-58445000D03*
%TO.N,Net-(U1D-VCCPLL)*%
X184610000Y-81449265D03*
X185416710Y-80790001D03*
%TO.N,+3V3*%
X186000000Y-76500000D03*
%TO.N,/IOB_23b*%
X186539124Y-75975000D03*
%TO.N,/IOT_37a*%
X185213341Y-77481671D03*
%TO.N,+2V5*%
X185750000Y-77750000D03*
%TO.N,/TXD*%
X193500000Y-66750000D03*
%TO.N,/IOB_29b*%
X187500000Y-75500000D03*
%TO.N,/SPI_SI*%
X188177148Y-74538051D03*
%TO.N,/SPI_SS*%
X188708977Y-74260274D03*
%TO.N,/SPI_SCK*%
X189169746Y-73799483D03*
%TO.N,/SPI_SO*%
X189644746Y-73403978D03*
%TO.N,/IOB_22a*%
X191615178Y-72933884D03*
%TO.N,/IOB_20a*%
X192153890Y-73198067D03*
%TO.N,/1OB_18a*%
X192721645Y-73392122D03*
%TO.N,/IOB_12a*%
X192800803Y-73986879D03*
%TO.N,Net-(U1B-~{CRESET})*%
X193162961Y-74465257D03*
%TO.N,Net-(D4-A)*%
X193720210Y-74687690D03*
%TO.N,/TXD*%
X193979009Y-75229009D03*
%TO.N,/VCCIO_2*%
X196750000Y-78500000D03*
%TO.N,/IOB_8a*%
X194651468Y-75901468D03*
%TO.N,/IOB_9b*%
X195075734Y-76325734D03*
%TO.N,/IOB_6a*%
X195500000Y-76750000D03*
%TO.N,/IOB_4a*%
X196000000Y-78750000D03*
%TO.N,/IOB_2a*%
X195848065Y-79342900D03*
%TO.N,/IOB_Oa*%
X195530351Y-79851880D03*
%TO.N,/IOB_5b*%
X195409908Y-80439669D03*
%TO.N,/IOB_3b_G6*%
X194848532Y-80651468D03*
%TO.N,Net-(U1A-RGB2)*%
X193731671Y-82036659D03*
%TO.N,/IOT_49a*%
X194424266Y-81075734D03*
%TO.N,Net-(U1A-RGB1)*%
X193074953Y-82175047D03*
%TO.N,Net-(U1A-RGB0)*%
X192866601Y-83500000D03*
%TO.N,/IOT_50b*%
X192268329Y-82713341D03*
%TO.N,/IOT_45a_G1*%
X192000000Y-83250000D03*
%TO.N,/IOT_48b*%
X189750000Y-83500000D03*
%TO.N,/IOT_46b_G0*%
X189268329Y-83036659D03*
%TO.N,/IOT_44b*%
X189000000Y-82500000D03*
%TO.N,/IOT_43a*%
X187851905Y-82103739D03*
%TO.N,/IOT_42b*%
X188031134Y-81531134D03*
%TO.N,Net-(U1D-VCCPLL)*%
X186962893Y-81119803D03*
%TO.N,/IOT_41a*%
X187022798Y-80522798D03*
%TO.N,/IOT_38b*%
X186598532Y-80098532D03*
%TO.N,/IOT_39a*%
X186174266Y-79674266D03*
%TO.N,/IOT_36b*%
X185750000Y-79250000D03*
%TO.N,+1V2*%
X193000000Y-70500000D03*
X189500000Y-71202603D03*
X183500000Y-68500000D03*
X182750000Y-83000000D03*
X196109611Y-72791860D03*
%TO.N,GND*%
X189000000Y-79250000D03*
X192500000Y-77000000D03*
X189000000Y-77250000D03*
X192500000Y-79500000D03*
X189000000Y-78250000D03*
X193250000Y-78250000D03*
%TO.N,+5V*%
X184750000Y-69750000D03*
%TO.N,GND*%
X182000000Y-81500000D03*
X198500000Y-63750000D03*
X196000000Y-66000000D03*
X200500000Y-72000000D03*
X184750000Y-91500000D03*
X190750000Y-69750000D03*
X198300000Y-53475000D03*
X182500000Y-62500000D03*
X189000000Y-62000000D03*
X185750000Y-65750000D03*
X191250000Y-63250000D03*
X192250000Y-60750000D03*
X194500000Y-59250000D03*
X183000000Y-54500000D03*
%TO.N,+2V5*%
X183250000Y-77500000D03*
X198250000Y-59500000D03*
%TO.N,/IOB_24a*%
X191052603Y-71802603D03*
%TO.N,/SPI_SS*%
X188750000Y-88500000D03*
%TO.N,+3V3*%
X182000000Y-88750000D03*
X184000000Y-78825000D03*
X186777372Y-74748080D03*
%TO.N,/CRESET_B*%
X195000000Y-67000000D03*
%TO.N,/SPI_SO*%
X184052649Y-88014771D03*
%TO.N,Net-(U1A-RGB1)*%
X194500000Y-98750000D03*
%TO.N,Net-(U1A-RGB0)*%
X192500000Y-95250000D03*
%TO.N,/SPI_SI*%
X190250000Y-90250000D03*
%TO.N,/SPI_SCK*%
X191000000Y-89250000D03*
%TO.N,/SPI_SO*%
X187250000Y-88000000D03*
%TO.N,Net-(U3-~{RST})*%
X187044153Y-63105030D03*
X187320000Y-66516418D03*
%TO.N,+5V*%
X193250000Y-63750000D03*
X188034360Y-60034012D03*
X186510613Y-61701453D03*
%TO.N,+5VP*%
X195250000Y-64500000D03*
X180250000Y-54000000D03*
X184750000Y-63500000D03*
%TO.N,+3V3*%
X187750000Y-61750000D03*
X196250000Y-60000000D03*
X195000000Y-62250000D03*
%TO.N,Net-(U3-VDD)*%
X189462500Y-63250000D03*
X191162500Y-62000000D03*
%TD*%
D17*
%TO.N,+3V3*%
X192700000Y-97587811D02*
X192700000Y-96700000D01*
X194313189Y-99201000D02*
X192700000Y-97587811D01*
X194686811Y-99201000D02*
X194313189Y-99201000D01*
X196500000Y-97387811D02*
X194686811Y-99201000D01*
X196500000Y-92500000D02*
X196500000Y-97387811D01*
%TO.N,Net-(D3-GK)*%
X192200000Y-100400000D02*
X192300000Y-100500000D01*
X188600000Y-96800000D02*
X192200000Y-100400000D01*
X188600000Y-96700000D02*
X188600000Y-96800000D01*
X192300000Y-100500000D02*
X192600000Y-100500000D01*
%TO.N,Net-(U1A-RGB2)*%
X192399943Y-96200000D02*
X187400000Y-96200000D01*
X193731671Y-94868272D02*
X192399943Y-96200000D01*
%TO.N,/D+*%
X189860000Y-58445000D02*
X190860000Y-58445000D01*
%TO.N,+1V2*%
X192297397Y-71202603D02*
X193000000Y-70500000D01*
X189500000Y-71202603D02*
X192297397Y-71202603D01*
%TO.N,Net-(U1A-RGB0)*%
X192866601Y-83500000D02*
X192866601Y-94883399D01*
X192866601Y-94883399D02*
X192500000Y-95250000D01*
D18*
%TO.N,Net-(U1D-VCCPLL)*%
X185269264Y-80790001D02*
X184610000Y-81449265D01*
X185416710Y-80790001D02*
X185269264Y-80790001D01*
D17*
%TO.N,+2V5*%
X183250000Y-77500000D02*
X182481000Y-76731000D01*
X182481000Y-76731000D02*
X182481000Y-65101000D01*
X195498943Y-65101000D02*
X182481000Y-65101000D01*
X198250000Y-62349943D02*
X195498943Y-65101000D01*
X198250000Y-59500000D02*
X198250000Y-62349943D01*
X182481000Y-65101000D02*
X178750000Y-61370000D01*
%TO.N,/SPI_SCK*%
X189000000Y-73629737D02*
X189169746Y-73799483D01*
X189840203Y-72500000D02*
X189000000Y-73340203D01*
X190713178Y-72963178D02*
X190250000Y-72500000D01*
X190713178Y-73307505D02*
X190713178Y-72963178D01*
X191000000Y-73594327D02*
X190713178Y-73307505D01*
%TO.N,/SPI_SS*%
X189400057Y-88500000D02*
X188750000Y-88500000D01*
X191498943Y-89851000D02*
X190751057Y-89851000D01*
X191601000Y-89748943D02*
X191498943Y-89851000D01*
X191601000Y-89001057D02*
X191601000Y-89748943D01*
%TO.N,/SPI_SCK*%
X190250000Y-72500000D02*
X189840203Y-72500000D01*
%TO.N,/SPI_SS*%
X191401000Y-88801057D02*
X191601000Y-89001057D01*
%TO.N,/SPI_SCK*%
X189000000Y-73340203D02*
X189000000Y-73629737D01*
%TO.N,/SPI_SS*%
X191401000Y-73428227D02*
X191401000Y-88801057D01*
X191114178Y-73141405D02*
X191401000Y-73428227D01*
X190751057Y-89851000D02*
X189400057Y-88500000D01*
X188599000Y-73174103D02*
X189674103Y-72099000D01*
X189674103Y-72099000D02*
X190416100Y-72099000D01*
X190416100Y-72099000D02*
X191114178Y-72797078D01*
%TO.N,/SPI_SCK*%
X191000000Y-89250000D02*
X191000000Y-73594327D01*
%TO.N,/SPI_SS*%
X188599000Y-74150297D02*
X188599000Y-73174103D01*
X191114178Y-72797078D02*
X191114178Y-73141405D01*
X188708977Y-74260274D02*
X188599000Y-74150297D01*
%TO.N,+3V3*%
X182000000Y-93680000D02*
X178750000Y-96930000D01*
X182000000Y-88750000D02*
X182000000Y-93680000D01*
X184000000Y-86750000D02*
X182000000Y-88750000D01*
X184000000Y-78825000D02*
X184000000Y-86750000D01*
X184000000Y-77986491D02*
X184000000Y-78825000D01*
X185486491Y-76500000D02*
X184000000Y-77986491D01*
X186000000Y-76500000D02*
X185486491Y-76500000D01*
X186777372Y-74748080D02*
X186000000Y-75525452D01*
X186000000Y-75525452D02*
X186000000Y-76500000D01*
%TO.N,/CRESET_B*%
X199577000Y-71577000D02*
X195000000Y-67000000D01*
X199577000Y-104173000D02*
X199577000Y-71577000D01*
X198000000Y-105750000D02*
X199577000Y-104173000D01*
%TO.N,/SPI_SO*%
X185001057Y-99351000D02*
X184052649Y-98402592D01*
X186521000Y-99351000D02*
X185001057Y-99351000D01*
X184052649Y-98402592D02*
X184052649Y-88014771D01*
X192920000Y-105750000D02*
X186521000Y-99351000D01*
%TO.N,Net-(U1A-RGB1)*%
X193074953Y-81842001D02*
X193074953Y-82175047D01*
X193381295Y-81535659D02*
X193074953Y-81842001D01*
X193939192Y-81535659D02*
X193381295Y-81535659D01*
X194500000Y-82096467D02*
X193939192Y-81535659D01*
X194500000Y-98750000D02*
X194500000Y-82096467D01*
%TO.N,Net-(U1A-RGB2)*%
X193731671Y-94868272D02*
X193731671Y-82036659D01*
%TO.N,/SPI_SI*%
X188177148Y-80676599D02*
X188177148Y-74538051D01*
X186649000Y-82204747D02*
X188177148Y-80676599D01*
X186649000Y-88248943D02*
X186649000Y-82204747D01*
X188650057Y-90250000D02*
X186649000Y-88248943D01*
X190250000Y-90250000D02*
X188650057Y-90250000D01*
%TO.N,/SPI_SO*%
X189670746Y-73429978D02*
X189644746Y-73403978D01*
X189670746Y-80829254D02*
X189670746Y-73429978D01*
X188352905Y-82147095D02*
X189670746Y-80829254D01*
X187250000Y-88000000D02*
X188352905Y-86897095D01*
X188352905Y-86897095D02*
X188352905Y-82147095D01*
%TO.N,+5V*%
X188660160Y-63851000D02*
X186510613Y-61701453D01*
X193149000Y-63851000D02*
X188660160Y-63851000D01*
X193250000Y-63750000D02*
X193149000Y-63851000D01*
X186510613Y-61557759D02*
X188034360Y-60034012D01*
X186510613Y-61701453D02*
X186510613Y-61557759D01*
%TO.N,+5VP*%
X185750000Y-64500000D02*
X195250000Y-64500000D01*
X184750000Y-63500000D02*
X185750000Y-64500000D01*
X180250000Y-59000000D02*
X180250000Y-54000000D01*
X184750000Y-63500000D02*
X180250000Y-59000000D01*
%TO.N,+3V3*%
X188101000Y-61399000D02*
X187750000Y-61750000D01*
X194149000Y-61399000D02*
X188101000Y-61399000D01*
X195000000Y-62250000D02*
X194149000Y-61399000D01*
X195000000Y-61250000D02*
X196250000Y-60000000D01*
X195000000Y-62250000D02*
X195000000Y-61250000D01*
%TO.N,Net-(U3-VDD)*%
X190712500Y-62000000D02*
X189462500Y-63250000D01*
X191162500Y-62000000D02*
X190712500Y-62000000D01*
D18*
%TO.N,/VCCIO_2*%
X198500000Y-91500000D02*
X197500000Y-91500000D01*
X197500000Y-91500000D02*
X197500000Y-91000000D01*
X197250000Y-90750000D02*
X199201000Y-88799000D01*
X197500000Y-91000000D02*
X197250000Y-90750000D01*
X199201000Y-80951000D02*
X196750000Y-78500000D01*
X199201000Y-88799000D02*
X199201000Y-80951000D01*
X196500000Y-91500000D02*
X197250000Y-90750000D01*
%TO.N,/TXD*%
X194196210Y-67446210D02*
X193500000Y-66750000D01*
X194196210Y-75011808D02*
X194196210Y-67446210D01*
X193979009Y-75229009D02*
X194196210Y-75011808D01*
%TD*%
%TA.AperFunction,Conductor*%
%TO.N,+3V3*%
G36*
X197012286Y-91920985D02*
G01*
X197031696Y-91922684D01*
X197039800Y-91928358D01*
X197043018Y-91929221D01*
X197053033Y-91937624D01*
X197062376Y-91946967D01*
X197084058Y-91993463D01*
X197070779Y-92043018D01*
X197062376Y-92053033D01*
X197014144Y-92101264D01*
X197014141Y-92101267D01*
X196945688Y-92203714D01*
X196945688Y-92203716D01*
X196907040Y-92297017D01*
X196900330Y-92307057D01*
X196899185Y-92311334D01*
X196895968Y-92313586D01*
X196890782Y-92321348D01*
X196750000Y-92462130D01*
X196750000Y-92450272D01*
X196711940Y-92358386D01*
X196641614Y-92288060D01*
X196549728Y-92250000D01*
X196537866Y-92250000D01*
X196678651Y-92109215D01*
X196688377Y-92104679D01*
X196702980Y-92092959D01*
X196796286Y-92054311D01*
X196898733Y-91985858D01*
X196946967Y-91937624D01*
X196964630Y-91929387D01*
X196980589Y-91918213D01*
X196987328Y-91918802D01*
X196993463Y-91915942D01*
X197012286Y-91920985D01*
G37*
%TD.AperFunction*%
%TA.AperFunction,Conductor*%
G36*
X197012286Y-87670985D02*
G01*
X197031696Y-87672684D01*
X197039800Y-87678358D01*
X197043018Y-87679221D01*
X197053033Y-87687624D01*
X197062376Y-87696967D01*
X197084058Y-87743463D01*
X197070779Y-87793018D01*
X197062376Y-87803033D01*
X197014144Y-87851264D01*
X197014141Y-87851267D01*
X196945688Y-87953714D01*
X196945688Y-87953716D01*
X196907040Y-88047017D01*
X196900330Y-88057057D01*
X196899185Y-88061334D01*
X196895968Y-88063586D01*
X196890782Y-88071348D01*
X196750000Y-88212130D01*
X196750000Y-88200272D01*
X196711940Y-88108386D01*
X196641614Y-88038060D01*
X196549728Y-88000000D01*
X196537866Y-88000000D01*
X196678651Y-87859215D01*
X196688377Y-87854679D01*
X196702980Y-87842959D01*
X196796286Y-87804311D01*
X196898733Y-87735858D01*
X196946967Y-87687624D01*
X196964630Y-87679387D01*
X196980589Y-87668213D01*
X196987328Y-87668802D01*
X196993463Y-87665942D01*
X197012286Y-87670985D01*
G37*
%TD.AperFunction*%
%TA.AperFunction,Conductor*%
G36*
X185722575Y-52518047D02*
G01*
X185748227Y-52562476D01*
X185739318Y-52613000D01*
X185736736Y-52617151D01*
X185689878Y-52687279D01*
X185669224Y-52718190D01*
X185616420Y-52845671D01*
X185609542Y-52880252D01*
X185589500Y-52981007D01*
X185589500Y-53718993D01*
X185616420Y-53854328D01*
X185669225Y-53981811D01*
X185745886Y-54096542D01*
X185843458Y-54194114D01*
X185958189Y-54270775D01*
X186085672Y-54323580D01*
X186194086Y-54345145D01*
X186221006Y-54350500D01*
X186221007Y-54350500D01*
X186358994Y-54350500D01*
X186384577Y-54345411D01*
X186494328Y-54323580D01*
X186621811Y-54270775D01*
X186736542Y-54194114D01*
X186834114Y-54096542D01*
X186910775Y-53981811D01*
X186963580Y-53854328D01*
X186990500Y-53718993D01*
X186990500Y-52981007D01*
X186963580Y-52845672D01*
X186910775Y-52718189D01*
X186843273Y-52617166D01*
X186831080Y-52567335D01*
X186853770Y-52521323D01*
X186900728Y-52500661D01*
X186905634Y-52500500D01*
X194314366Y-52500500D01*
X194362575Y-52518047D01*
X194388227Y-52562476D01*
X194379318Y-52613000D01*
X194376736Y-52617151D01*
X194329878Y-52687279D01*
X194309224Y-52718190D01*
X194256420Y-52845671D01*
X194249542Y-52880252D01*
X194229500Y-52981007D01*
X194229500Y-53718993D01*
X194256420Y-53854328D01*
X194309225Y-53981811D01*
X194385886Y-54096542D01*
X194483458Y-54194114D01*
X194598189Y-54270775D01*
X194725672Y-54323580D01*
X194834086Y-54345145D01*
X194861006Y-54350500D01*
X194861007Y-54350500D01*
X194998994Y-54350500D01*
X195024577Y-54345411D01*
X195134328Y-54323580D01*
X195261811Y-54270775D01*
X195376542Y-54194114D01*
X195474114Y-54096542D01*
X195550775Y-53981811D01*
X195603580Y-53854328D01*
X195630500Y-53718993D01*
X195630500Y-53422275D01*
X197899500Y-53422275D01*
X197899500Y-53527724D01*
X197899501Y-53527734D01*
X197926791Y-53629583D01*
X197926793Y-53629588D01*
X197955622Y-53679520D01*
X197979520Y-53720913D01*
X198054087Y-53795480D01*
X198120940Y-53834078D01*
X198140573Y-53845413D01*
X198145413Y-53848207D01*
X198145414Y-53848207D01*
X198145416Y-53848208D01*
X198247265Y-53875498D01*
X198247267Y-53875498D01*
X198247273Y-53875500D01*
X198247275Y-53875500D01*
X198352725Y-53875500D01*
X198352727Y-53875500D01*
X198454587Y-53848207D01*
X198545913Y-53795480D01*
X198620480Y-53720913D01*
X198673207Y-53629587D01*
X198700500Y-53527727D01*
X198700500Y-53422273D01*
X198673207Y-53320413D01*
X198620480Y-53229087D01*
X198545913Y-53154520D01*
X198454588Y-53101793D01*
X198454583Y-53101791D01*
X198352734Y-53074501D01*
X198352728Y-53074500D01*
X198352727Y-53074500D01*
X198247273Y-53074500D01*
X198247271Y-53074500D01*
X198247265Y-53074501D01*
X198145416Y-53101791D01*
X198145411Y-53101793D01*
X198054086Y-53154520D01*
X197979520Y-53229086D01*
X197926793Y-53320411D01*
X197926791Y-53320416D01*
X197899501Y-53422265D01*
X197899500Y-53422275D01*
X195630500Y-53422275D01*
X195630500Y-52981007D01*
X195610458Y-52880251D01*
X201199500Y-52880251D01*
X201199500Y-54619748D01*
X201211132Y-54678230D01*
X201255447Y-54744551D01*
X201255448Y-54744552D01*
X201321769Y-54788867D01*
X201380251Y-54800500D01*
X201380252Y-54800500D01*
X203119749Y-54800500D01*
X203148989Y-54794683D01*
X203178231Y-54788867D01*
X203244552Y-54744552D01*
X203288867Y-54678231D01*
X203300500Y-54619748D01*
X203300500Y-52880252D01*
X203288867Y-52821769D01*
X203244552Y-52755448D01*
X203188793Y-52718190D01*
X203178230Y-52711132D01*
X203119749Y-52699500D01*
X203119748Y-52699500D01*
X201380252Y-52699500D01*
X201380251Y-52699500D01*
X201321769Y-52711132D01*
X201255448Y-52755447D01*
X201255447Y-52755448D01*
X201211132Y-52821769D01*
X201199500Y-52880251D01*
X195610458Y-52880251D01*
X195603580Y-52845672D01*
X195550775Y-52718189D01*
X195483273Y-52617166D01*
X195471080Y-52567335D01*
X195493770Y-52521323D01*
X195540728Y-52500661D01*
X195545634Y-52500500D01*
X203424500Y-52500500D01*
X203472709Y-52518047D01*
X203498361Y-52562476D01*
X203499500Y-52575500D01*
X203499500Y-103490294D01*
X203481953Y-103538503D01*
X203474122Y-103546532D01*
X202632677Y-104288984D01*
X199786293Y-106800500D01*
X199582023Y-106980738D01*
X199534264Y-106999477D01*
X199532401Y-106999500D01*
X181227580Y-106999500D01*
X181179371Y-106981953D01*
X181176284Y-106979215D01*
X180050348Y-105923649D01*
X178991878Y-104931333D01*
X178937444Y-104880301D01*
X181710000Y-104880301D01*
X181710000Y-105600000D01*
X182282555Y-105600000D01*
X182260000Y-105684174D01*
X182260000Y-105815826D01*
X182282555Y-105900000D01*
X181710000Y-105900000D01*
X181710000Y-106619698D01*
X181721603Y-106678035D01*
X181765808Y-106744191D01*
X181831964Y-106788396D01*
X181890301Y-106800000D01*
X182610000Y-106800000D01*
X182610000Y-106227445D01*
X182694174Y-106250000D01*
X182825826Y-106250000D01*
X182910000Y-106227445D01*
X182910000Y-106800000D01*
X183629699Y-106800000D01*
X183688035Y-106788396D01*
X183754191Y-106744191D01*
X183798396Y-106678035D01*
X183810000Y-106619698D01*
X183810000Y-105900000D01*
X183237445Y-105900000D01*
X183260000Y-105815826D01*
X183260000Y-105684174D01*
X183249914Y-105646534D01*
X184249500Y-105646534D01*
X184249500Y-105853465D01*
X184289870Y-106056421D01*
X184369058Y-106247596D01*
X184369059Y-106247598D01*
X184484023Y-106419655D01*
X184630345Y-106565977D01*
X184802402Y-106680941D01*
X184993580Y-106760130D01*
X185135684Y-106788396D01*
X185196534Y-106800500D01*
X185196535Y-106800500D01*
X185403466Y-106800500D01*
X185464316Y-106788396D01*
X185606420Y-106760130D01*
X185797598Y-106680941D01*
X185969655Y-106565977D01*
X186115977Y-106419655D01*
X186230941Y-106247598D01*
X186310130Y-106056420D01*
X186350500Y-105853465D01*
X186350500Y-105646535D01*
X186350500Y-105646534D01*
X186789500Y-105646534D01*
X186789500Y-105853465D01*
X186829870Y-106056421D01*
X186909058Y-106247596D01*
X186909059Y-106247598D01*
X187024023Y-106419655D01*
X187170345Y-106565977D01*
X187342402Y-106680941D01*
X187533580Y-106760130D01*
X187675684Y-106788396D01*
X187736534Y-106800500D01*
X187736535Y-106800500D01*
X187943466Y-106800500D01*
X188004316Y-106788396D01*
X188146420Y-106760130D01*
X188337598Y-106680941D01*
X188509655Y-106565977D01*
X188655977Y-106419655D01*
X188770941Y-106247598D01*
X188850130Y-106056420D01*
X188890500Y-105853465D01*
X188890500Y-105646535D01*
X188890500Y-105646534D01*
X189329500Y-105646534D01*
X189329500Y-105853465D01*
X189369870Y-106056421D01*
X189449058Y-106247596D01*
X189449059Y-106247598D01*
X189564023Y-106419655D01*
X189710345Y-106565977D01*
X189882402Y-106680941D01*
X190073580Y-106760130D01*
X190215684Y-106788396D01*
X190276534Y-106800500D01*
X190276535Y-106800500D01*
X190483466Y-106800500D01*
X190544316Y-106788396D01*
X190686420Y-106760130D01*
X190877598Y-106680941D01*
X191049655Y-106565977D01*
X191195977Y-106419655D01*
X191310941Y-106247598D01*
X191390130Y-106056420D01*
X191430500Y-105853465D01*
X191430500Y-105646535D01*
X191390130Y-105443580D01*
X191310941Y-105252402D01*
X191195977Y-105080345D01*
X191049655Y-104934023D01*
X190877598Y-104819059D01*
X190850313Y-104807757D01*
X190686421Y-104739870D01*
X190483466Y-104699500D01*
X190483465Y-104699500D01*
X190276535Y-104699500D01*
X190276534Y-104699500D01*
X190073578Y-104739870D01*
X189882403Y-104819058D01*
X189710345Y-104934023D01*
X189710342Y-104934025D01*
X189564025Y-105080342D01*
X189564023Y-105080345D01*
X189449058Y-105252403D01*
X189369870Y-105443578D01*
X189329500Y-105646534D01*
X188890500Y-105646534D01*
X188850130Y-105443580D01*
X188770941Y-105252402D01*
X188655977Y-105080345D01*
X188509655Y-104934023D01*
X188337598Y-104819059D01*
X188310313Y-104807757D01*
X188146421Y-104739870D01*
X187943466Y-104699500D01*
X187943465Y-104699500D01*
X187736535Y-104699500D01*
X187736534Y-104699500D01*
X187533578Y-104739870D01*
X187342403Y-104819058D01*
X187170345Y-104934023D01*
X187170342Y-104934025D01*
X187024025Y-105080342D01*
X187024023Y-105080345D01*
X186909058Y-105252403D01*
X186829870Y-105443578D01*
X186789500Y-105646534D01*
X186350500Y-105646534D01*
X186310130Y-105443580D01*
X186230941Y-105252402D01*
X186115977Y-105080345D01*
X185969655Y-104934023D01*
X185797598Y-104819059D01*
X185770313Y-104807757D01*
X185606421Y-104739870D01*
X185403466Y-104699500D01*
X185403465Y-104699500D01*
X185196535Y-104699500D01*
X185196534Y-104699500D01*
X184993578Y-104739870D01*
X184802403Y-104819058D01*
X184630345Y-104934023D01*
X184630342Y-104934025D01*
X184484025Y-105080342D01*
X184484023Y-105080345D01*
X184369058Y-105252403D01*
X184289870Y-105443578D01*
X184249500Y-105646534D01*
X183249914Y-105646534D01*
X183237445Y-105600000D01*
X183810000Y-105600000D01*
X183810000Y-104880301D01*
X183798396Y-104821964D01*
X183754191Y-104755808D01*
X183688035Y-104711603D01*
X183629699Y-104700000D01*
X182910000Y-104700000D01*
X182910000Y-105272554D01*
X182825826Y-105250000D01*
X182694174Y-105250000D01*
X182610000Y-105272554D01*
X182610000Y-104700000D01*
X181890301Y-104700000D01*
X181831964Y-104711603D01*
X181765808Y-104755808D01*
X181721603Y-104821964D01*
X181710000Y-104880301D01*
X178937444Y-104880301D01*
X177524204Y-103555388D01*
X177501035Y-103509615D01*
X177500500Y-103500673D01*
X177500500Y-101906535D01*
X177699500Y-101906535D01*
X177699500Y-102113465D01*
X177739870Y-102316420D01*
X177819059Y-102507598D01*
X177934023Y-102679655D01*
X178080345Y-102825977D01*
X178252402Y-102940941D01*
X178443580Y-103020130D01*
X178596139Y-103050475D01*
X178646534Y-103060500D01*
X178646535Y-103060500D01*
X178853466Y-103060500D01*
X178893836Y-103052469D01*
X179056420Y-103020130D01*
X179247598Y-102940941D01*
X179419655Y-102825977D01*
X179565977Y-102679655D01*
X179680941Y-102507598D01*
X179760130Y-102316420D01*
X179800500Y-102113465D01*
X179800500Y-101906535D01*
X179760130Y-101703580D01*
X179680941Y-101512402D01*
X179565977Y-101340345D01*
X179419655Y-101194023D01*
X179247598Y-101079059D01*
X179247596Y-101079058D01*
X179056421Y-100999870D01*
X178853466Y-100959500D01*
X178853465Y-100959500D01*
X178646535Y-100959500D01*
X178646534Y-100959500D01*
X178443578Y-100999870D01*
X178252403Y-101079058D01*
X178080345Y-101194023D01*
X178080342Y-101194025D01*
X177934025Y-101340342D01*
X177934023Y-101340345D01*
X177819058Y-101512403D01*
X177739870Y-101703578D01*
X177739870Y-101703580D01*
X177699500Y-101906535D01*
X177500500Y-101906535D01*
X177500500Y-99366534D01*
X177699500Y-99366534D01*
X177699500Y-99573465D01*
X177719391Y-99673467D01*
X177739870Y-99776420D01*
X177819059Y-99967598D01*
X177934023Y-100139655D01*
X178080345Y-100285977D01*
X178252402Y-100400941D01*
X178443580Y-100480130D01*
X178596139Y-100510475D01*
X178646534Y-100520500D01*
X178646535Y-100520500D01*
X178853466Y-100520500D01*
X178893836Y-100512469D01*
X179056420Y-100480130D01*
X179247598Y-100400941D01*
X179419655Y-100285977D01*
X179565977Y-100139655D01*
X179680941Y-99967598D01*
X179760130Y-99776420D01*
X179800500Y-99573465D01*
X179800500Y-99366535D01*
X179760130Y-99163580D01*
X179680941Y-98972402D01*
X179565977Y-98800345D01*
X179419655Y-98654023D01*
X179247598Y-98539059D01*
X179247596Y-98539058D01*
X179056421Y-98459870D01*
X178853466Y-98419500D01*
X178853465Y-98419500D01*
X178646535Y-98419500D01*
X178646534Y-98419500D01*
X178443578Y-98459870D01*
X178252403Y-98539058D01*
X178080345Y-98654023D01*
X178080342Y-98654025D01*
X177934025Y-98800342D01*
X177934023Y-98800345D01*
X177819058Y-98972403D01*
X177739870Y-99163578D01*
X177699500Y-99366534D01*
X177500500Y-99366534D01*
X177500500Y-96826583D01*
X177700000Y-96826583D01*
X177700000Y-97033416D01*
X177740350Y-97236275D01*
X177819502Y-97427363D01*
X177908022Y-97559843D01*
X177908023Y-97559843D01*
X178306328Y-97161537D01*
X178349901Y-97237007D01*
X178442993Y-97330099D01*
X178518460Y-97373670D01*
X178120155Y-97771975D01*
X178120155Y-97771976D01*
X178252639Y-97860498D01*
X178443724Y-97939649D01*
X178646583Y-97980000D01*
X178853417Y-97980000D01*
X179056275Y-97939649D01*
X179247356Y-97860500D01*
X179247361Y-97860498D01*
X179379843Y-97771976D01*
X179379843Y-97771975D01*
X178981538Y-97373670D01*
X179057007Y-97330099D01*
X179150099Y-97237007D01*
X179193670Y-97161538D01*
X179591975Y-97559843D01*
X179591976Y-97559843D01*
X179680498Y-97427361D01*
X179680500Y-97427356D01*
X179759649Y-97236275D01*
X179800000Y-97033416D01*
X179800000Y-96826583D01*
X179759649Y-96623724D01*
X179680498Y-96432639D01*
X179591976Y-96300155D01*
X179591975Y-96300155D01*
X179193670Y-96698460D01*
X179150099Y-96622993D01*
X179057007Y-96529901D01*
X178981537Y-96486328D01*
X179379843Y-96088023D01*
X179379843Y-96088022D01*
X179247363Y-95999502D01*
X179056275Y-95920350D01*
X178853417Y-95880000D01*
X178646583Y-95880000D01*
X178443724Y-95920350D01*
X178252640Y-95999501D01*
X178120155Y-96088023D01*
X178518461Y-96486329D01*
X178442993Y-96529901D01*
X178349901Y-96622993D01*
X178306329Y-96698461D01*
X177908023Y-96300155D01*
X177819501Y-96432640D01*
X177740350Y-96623724D01*
X177700000Y-96826583D01*
X177500500Y-96826583D01*
X177500500Y-94286534D01*
X177699500Y-94286534D01*
X177699500Y-94493465D01*
X177739870Y-94696421D01*
X177814583Y-94876793D01*
X177819059Y-94887598D01*
X177934023Y-95059655D01*
X178080345Y-95205977D01*
X178252402Y-95320941D01*
X178443580Y-95400130D01*
X178596139Y-95430475D01*
X178646534Y-95440500D01*
X178646535Y-95440500D01*
X178853466Y-95440500D01*
X178893836Y-95432469D01*
X179056420Y-95400130D01*
X179247598Y-95320941D01*
X179419655Y-95205977D01*
X179565977Y-95059655D01*
X179680941Y-94887598D01*
X179760130Y-94696420D01*
X179800500Y-94493465D01*
X179800500Y-94286535D01*
X179760130Y-94083580D01*
X179680941Y-93892402D01*
X179565977Y-93720345D01*
X179419655Y-93574023D01*
X179247598Y-93459059D01*
X179247596Y-93459058D01*
X179056421Y-93379870D01*
X178853466Y-93339500D01*
X178853465Y-93339500D01*
X178646535Y-93339500D01*
X178646534Y-93339500D01*
X178443578Y-93379870D01*
X178252403Y-93459058D01*
X178080345Y-93574023D01*
X178080342Y-93574025D01*
X177934025Y-93720342D01*
X177934023Y-93720345D01*
X177819058Y-93892403D01*
X177739870Y-94083578D01*
X177699500Y-94286534D01*
X177500500Y-94286534D01*
X177500500Y-91746534D01*
X177699500Y-91746534D01*
X177699500Y-91953465D01*
X177739870Y-92156421D01*
X177806611Y-92317546D01*
X177819059Y-92347598D01*
X177934023Y-92519655D01*
X178080345Y-92665977D01*
X178252402Y-92780941D01*
X178443580Y-92860130D01*
X178596139Y-92890475D01*
X178646534Y-92900500D01*
X178646535Y-92900500D01*
X178853466Y-92900500D01*
X178893836Y-92892469D01*
X179056420Y-92860130D01*
X179247598Y-92780941D01*
X179419655Y-92665977D01*
X179565977Y-92519655D01*
X179680941Y-92347598D01*
X179760130Y-92156420D01*
X179800500Y-91953465D01*
X179800500Y-91746535D01*
X179760130Y-91543580D01*
X179680941Y-91352402D01*
X179565977Y-91180345D01*
X179419655Y-91034023D01*
X179247598Y-90919059D01*
X179198054Y-90898537D01*
X179056421Y-90839870D01*
X178853466Y-90799500D01*
X178853465Y-90799500D01*
X178646535Y-90799500D01*
X178646534Y-90799500D01*
X178443578Y-90839870D01*
X178252403Y-90919058D01*
X178080345Y-91034023D01*
X178080342Y-91034025D01*
X177934025Y-91180342D01*
X177934023Y-91180345D01*
X177819058Y-91352403D01*
X177739870Y-91543578D01*
X177699500Y-91746534D01*
X177500500Y-91746534D01*
X177500500Y-89206534D01*
X177699500Y-89206534D01*
X177699500Y-89413465D01*
X177739870Y-89616421D01*
X177806482Y-89777235D01*
X177819059Y-89807598D01*
X177934023Y-89979655D01*
X178080345Y-90125977D01*
X178252402Y-90240941D01*
X178443580Y-90320130D01*
X178596139Y-90350475D01*
X178646534Y-90360500D01*
X178646535Y-90360500D01*
X178853466Y-90360500D01*
X178893836Y-90352469D01*
X179056420Y-90320130D01*
X179247598Y-90240941D01*
X179419655Y-90125977D01*
X179565977Y-89979655D01*
X179680941Y-89807598D01*
X179760130Y-89616420D01*
X179800500Y-89413465D01*
X179800500Y-89206535D01*
X179760130Y-89003580D01*
X179680941Y-88812402D01*
X179565977Y-88640345D01*
X179419655Y-88494023D01*
X179247598Y-88379059D01*
X179247596Y-88379058D01*
X179056421Y-88299870D01*
X178853466Y-88259500D01*
X178853465Y-88259500D01*
X178646535Y-88259500D01*
X178646534Y-88259500D01*
X178443578Y-88299870D01*
X178252403Y-88379058D01*
X178080345Y-88494023D01*
X178080342Y-88494025D01*
X177934025Y-88640342D01*
X177934023Y-88640345D01*
X177819058Y-88812403D01*
X177739870Y-89003578D01*
X177699500Y-89206534D01*
X177500500Y-89206534D01*
X177500500Y-87962046D01*
X183652149Y-87962046D01*
X183652149Y-88067495D01*
X183652150Y-88067505D01*
X183679440Y-88169354D01*
X183679442Y-88169359D01*
X183732170Y-88260686D01*
X183735162Y-88264585D01*
X183733516Y-88265847D01*
X183751864Y-88305193D01*
X183752149Y-88311730D01*
X183752149Y-98442151D01*
X183752150Y-98442159D01*
X183767813Y-98500614D01*
X183772628Y-98518581D01*
X183784451Y-98539059D01*
X183812189Y-98587103D01*
X184760597Y-99535511D01*
X184816546Y-99591460D01*
X184885068Y-99631021D01*
X184961495Y-99651500D01*
X186365463Y-99651500D01*
X186413672Y-99669047D01*
X186418496Y-99673467D01*
X191956075Y-105211046D01*
X191977757Y-105257542D01*
X191972333Y-105292780D01*
X191909870Y-105443578D01*
X191869500Y-105646534D01*
X191869500Y-105853465D01*
X191909870Y-106056421D01*
X191989058Y-106247596D01*
X191989059Y-106247598D01*
X192104023Y-106419655D01*
X192250345Y-106565977D01*
X192422402Y-106680941D01*
X192613580Y-106760130D01*
X192755684Y-106788396D01*
X192816534Y-106800500D01*
X192816535Y-106800500D01*
X193023466Y-106800500D01*
X193084316Y-106788396D01*
X193226420Y-106760130D01*
X193417598Y-106680941D01*
X193589655Y-106565977D01*
X193735977Y-106419655D01*
X193850941Y-106247598D01*
X193930130Y-106056420D01*
X193970500Y-105853465D01*
X193970500Y-105646535D01*
X193970500Y-105646534D01*
X194409500Y-105646534D01*
X194409500Y-105853465D01*
X194449870Y-106056421D01*
X194529058Y-106247596D01*
X194529059Y-106247598D01*
X194644023Y-106419655D01*
X194790345Y-106565977D01*
X194962402Y-106680941D01*
X195153580Y-106760130D01*
X195295684Y-106788396D01*
X195356534Y-106800500D01*
X195356535Y-106800500D01*
X195563466Y-106800500D01*
X195624316Y-106788396D01*
X195766420Y-106760130D01*
X195957598Y-106680941D01*
X196129655Y-106565977D01*
X196275977Y-106419655D01*
X196390941Y-106247598D01*
X196470130Y-106056420D01*
X196510500Y-105853465D01*
X196510500Y-105646535D01*
X196470130Y-105443580D01*
X196390941Y-105252402D01*
X196275977Y-105080345D01*
X196129655Y-104934023D01*
X195957598Y-104819059D01*
X195930313Y-104807757D01*
X195766421Y-104739870D01*
X195563466Y-104699500D01*
X195563465Y-104699500D01*
X195356535Y-104699500D01*
X195356534Y-104699500D01*
X195153578Y-104739870D01*
X194962403Y-104819058D01*
X194790345Y-104934023D01*
X194790342Y-104934025D01*
X194644025Y-105080342D01*
X194644023Y-105080345D01*
X194529058Y-105252403D01*
X194449870Y-105443578D01*
X194409500Y-105646534D01*
X193970500Y-105646534D01*
X193930130Y-105443580D01*
X193850941Y-105252402D01*
X193735977Y-105080345D01*
X193589655Y-104934023D01*
X193417598Y-104819059D01*
X193390313Y-104807757D01*
X193226421Y-104739870D01*
X193023466Y-104699500D01*
X193023465Y-104699500D01*
X192816535Y-104699500D01*
X192816534Y-104699500D01*
X192613578Y-104739870D01*
X192462780Y-104802333D01*
X192411526Y-104804571D01*
X192381046Y-104786075D01*
X186705511Y-99110540D01*
X186688121Y-99100500D01*
X186636990Y-99070979D01*
X186636987Y-99070978D01*
X186560567Y-99050501D01*
X186560564Y-99050500D01*
X186560562Y-99050500D01*
X186560560Y-99050500D01*
X185156594Y-99050500D01*
X185108385Y-99032953D01*
X185103561Y-99028533D01*
X184375116Y-98300088D01*
X184353434Y-98253592D01*
X184353149Y-98247055D01*
X184353149Y-91850608D01*
X184370696Y-91802399D01*
X184415125Y-91776747D01*
X184465649Y-91785656D01*
X184481182Y-91797575D01*
X184504087Y-91820480D01*
X184595413Y-91873207D01*
X184595414Y-91873207D01*
X184595416Y-91873208D01*
X184697265Y-91900498D01*
X184697267Y-91900498D01*
X184697273Y-91900500D01*
X184697275Y-91900500D01*
X184802725Y-91900500D01*
X184802727Y-91900500D01*
X184904587Y-91873207D01*
X184995913Y-91820480D01*
X185070480Y-91745913D01*
X185123207Y-91654587D01*
X185150500Y-91552727D01*
X185150500Y-91447273D01*
X185123207Y-91345413D01*
X185070480Y-91254087D01*
X184995913Y-91179520D01*
X184943730Y-91149392D01*
X184904588Y-91126793D01*
X184904583Y-91126791D01*
X184802734Y-91099501D01*
X184802728Y-91099500D01*
X184802727Y-91099500D01*
X184697273Y-91099500D01*
X184697271Y-91099500D01*
X184697265Y-91099501D01*
X184595416Y-91126791D01*
X184595411Y-91126793D01*
X184504086Y-91179520D01*
X184481182Y-91202425D01*
X184434686Y-91224107D01*
X184385131Y-91210828D01*
X184355705Y-91168803D01*
X184353149Y-91149392D01*
X184353149Y-88311730D01*
X184370271Y-88264688D01*
X184370136Y-88264585D01*
X184370464Y-88264156D01*
X184370696Y-88263521D01*
X184372273Y-88261799D01*
X184373127Y-88260686D01*
X184373129Y-88260684D01*
X184425856Y-88169358D01*
X184453149Y-88067498D01*
X184453149Y-87962044D01*
X184425856Y-87860184D01*
X184373129Y-87768858D01*
X184298562Y-87694291D01*
X184207237Y-87641564D01*
X184207232Y-87641562D01*
X184105383Y-87614272D01*
X184105377Y-87614271D01*
X184105376Y-87614271D01*
X183999922Y-87614271D01*
X183999920Y-87614271D01*
X183999914Y-87614272D01*
X183898065Y-87641562D01*
X183898060Y-87641564D01*
X183806735Y-87694291D01*
X183732169Y-87768857D01*
X183679442Y-87860182D01*
X183679440Y-87860187D01*
X183652150Y-87962036D01*
X183652149Y-87962046D01*
X177500500Y-87962046D01*
X177500500Y-86666534D01*
X177699500Y-86666534D01*
X177699500Y-86873465D01*
X177738104Y-87067545D01*
X177739870Y-87076420D01*
X177819059Y-87267598D01*
X177934023Y-87439655D01*
X178080345Y-87585977D01*
X178252402Y-87700941D01*
X178443580Y-87780130D01*
X178596139Y-87810475D01*
X178646534Y-87820500D01*
X178646535Y-87820500D01*
X178853466Y-87820500D01*
X178893836Y-87812469D01*
X179056420Y-87780130D01*
X179247598Y-87700941D01*
X179419655Y-87585977D01*
X179565977Y-87439655D01*
X179680941Y-87267598D01*
X179760130Y-87076420D01*
X179800500Y-86873465D01*
X179800500Y-86666535D01*
X179760130Y-86463580D01*
X179680941Y-86272402D01*
X179565977Y-86100345D01*
X179419655Y-85954023D01*
X179247598Y-85839059D01*
X179247596Y-85839058D01*
X179056421Y-85759870D01*
X178853466Y-85719500D01*
X178853465Y-85719500D01*
X178646535Y-85719500D01*
X178646534Y-85719500D01*
X178443578Y-85759870D01*
X178252403Y-85839058D01*
X178080345Y-85954023D01*
X178080342Y-85954025D01*
X177934025Y-86100342D01*
X177934023Y-86100345D01*
X177819058Y-86272403D01*
X177739870Y-86463578D01*
X177699500Y-86666534D01*
X177500500Y-86666534D01*
X177500500Y-84126535D01*
X177699500Y-84126535D01*
X177699500Y-84333465D01*
X177739870Y-84536420D01*
X177819059Y-84727598D01*
X177934023Y-84899655D01*
X178080345Y-85045977D01*
X178252402Y-85160941D01*
X178443580Y-85240130D01*
X178596139Y-85270475D01*
X178646534Y-85280500D01*
X178646535Y-85280500D01*
X178853466Y-85280500D01*
X178893836Y-85272469D01*
X179056420Y-85240130D01*
X179247598Y-85160941D01*
X179419655Y-85045977D01*
X179565977Y-84899655D01*
X179680941Y-84727598D01*
X179760130Y-84536420D01*
X179800500Y-84333465D01*
X179800500Y-84126535D01*
X179760130Y-83923580D01*
X179680941Y-83732402D01*
X179565977Y-83560345D01*
X179419655Y-83414023D01*
X179247598Y-83299059D01*
X179239595Y-83295744D01*
X179056421Y-83219870D01*
X178853466Y-83179500D01*
X178853465Y-83179500D01*
X178646535Y-83179500D01*
X178646534Y-83179500D01*
X178443578Y-83219870D01*
X178252403Y-83299058D01*
X178080345Y-83414023D01*
X178080342Y-83414025D01*
X177934025Y-83560342D01*
X177934023Y-83560345D01*
X177819058Y-83732403D01*
X177739870Y-83923578D01*
X177739870Y-83923580D01*
X177699500Y-84126535D01*
X177500500Y-84126535D01*
X177500500Y-82947275D01*
X182349500Y-82947275D01*
X182349500Y-83052724D01*
X182349501Y-83052734D01*
X182376791Y-83154583D01*
X182376793Y-83154588D01*
X182414484Y-83219870D01*
X182429520Y-83245913D01*
X182504087Y-83320480D01*
X182595413Y-83373207D01*
X182595414Y-83373207D01*
X182595416Y-83373208D01*
X182697265Y-83400498D01*
X182697267Y-83400498D01*
X182697273Y-83400500D01*
X182697275Y-83400500D01*
X182802725Y-83400500D01*
X182802727Y-83400500D01*
X182904587Y-83373207D01*
X182995913Y-83320480D01*
X183070480Y-83245913D01*
X183123207Y-83154587D01*
X183150500Y-83052727D01*
X183150500Y-82947273D01*
X183138862Y-82903838D01*
X183123208Y-82845416D01*
X183123206Y-82845411D01*
X183070479Y-82754086D01*
X182995913Y-82679520D01*
X182904588Y-82626793D01*
X182904583Y-82626791D01*
X182802734Y-82599501D01*
X182802728Y-82599500D01*
X182802727Y-82599500D01*
X182697273Y-82599500D01*
X182697271Y-82599500D01*
X182697265Y-82599501D01*
X182595416Y-82626791D01*
X182595411Y-82626793D01*
X182504086Y-82679520D01*
X182429520Y-82754086D01*
X182376793Y-82845411D01*
X182376791Y-82845416D01*
X182349501Y-82947265D01*
X182349500Y-82947275D01*
X177500500Y-82947275D01*
X177500500Y-81586534D01*
X177699500Y-81586534D01*
X177699500Y-81793465D01*
X177739870Y-81996421D01*
X177809775Y-82165185D01*
X177819059Y-82187598D01*
X177934023Y-82359655D01*
X178080345Y-82505977D01*
X178252402Y-82620941D01*
X178443580Y-82700130D01*
X178596139Y-82730475D01*
X178646534Y-82740500D01*
X178646535Y-82740500D01*
X178853466Y-82740500D01*
X178893836Y-82732469D01*
X179056420Y-82700130D01*
X179247598Y-82620941D01*
X179419655Y-82505977D01*
X179565977Y-82359655D01*
X179680941Y-82187598D01*
X179760130Y-81996420D01*
X179800500Y-81793465D01*
X179800500Y-81586535D01*
X179786603Y-81516672D01*
X179774732Y-81456989D01*
X179772800Y-81447275D01*
X181599500Y-81447275D01*
X181599500Y-81552724D01*
X181599501Y-81552734D01*
X181626791Y-81654583D01*
X181626793Y-81654588D01*
X181644768Y-81685721D01*
X181679520Y-81745913D01*
X181754087Y-81820480D01*
X181845413Y-81873207D01*
X181845414Y-81873207D01*
X181845416Y-81873208D01*
X181947265Y-81900498D01*
X181947267Y-81900498D01*
X181947273Y-81900500D01*
X181947275Y-81900500D01*
X182052725Y-81900500D01*
X182052727Y-81900500D01*
X182154587Y-81873207D01*
X182245913Y-81820480D01*
X182320480Y-81745913D01*
X182373207Y-81654587D01*
X182400500Y-81552727D01*
X182400500Y-81447273D01*
X182386906Y-81396540D01*
X184209500Y-81396540D01*
X184209500Y-81501989D01*
X184209501Y-81501999D01*
X184236791Y-81603848D01*
X184236793Y-81603853D01*
X184284060Y-81685721D01*
X184289520Y-81695178D01*
X184364087Y-81769745D01*
X184455413Y-81822472D01*
X184455414Y-81822472D01*
X184455416Y-81822473D01*
X184557265Y-81849763D01*
X184557267Y-81849763D01*
X184557273Y-81849765D01*
X184557275Y-81849765D01*
X184662725Y-81849765D01*
X184662727Y-81849765D01*
X184764587Y-81822472D01*
X184855913Y-81769745D01*
X184930480Y-81695178D01*
X184983207Y-81603852D01*
X185010500Y-81501992D01*
X185010500Y-81469446D01*
X185028047Y-81421237D01*
X185032467Y-81416413D01*
X185127233Y-81321647D01*
X185250078Y-81198801D01*
X185296573Y-81177120D01*
X185322519Y-81179390D01*
X185359962Y-81189423D01*
X185363975Y-81190499D01*
X185363983Y-81190501D01*
X185363985Y-81190501D01*
X185469435Y-81190501D01*
X185469437Y-81190501D01*
X185571297Y-81163208D01*
X185662623Y-81110481D01*
X185737190Y-81035914D01*
X185789917Y-80944588D01*
X185817210Y-80842728D01*
X185817210Y-80737274D01*
X185800587Y-80675234D01*
X185789918Y-80635417D01*
X185789916Y-80635412D01*
X185751729Y-80569270D01*
X185737190Y-80544088D01*
X185662623Y-80469521D01*
X185638889Y-80455818D01*
X185571298Y-80416794D01*
X185571293Y-80416792D01*
X185469444Y-80389502D01*
X185469438Y-80389501D01*
X185469437Y-80389501D01*
X185363983Y-80389501D01*
X185363981Y-80389501D01*
X185363975Y-80389502D01*
X185262126Y-80416792D01*
X185262121Y-80416794D01*
X185170796Y-80469521D01*
X185096231Y-80544086D01*
X185096230Y-80544088D01*
X185061097Y-80604938D01*
X185049181Y-80620467D01*
X184642852Y-81026798D01*
X184596356Y-81048480D01*
X184589819Y-81048765D01*
X184557273Y-81048765D01*
X184557271Y-81048765D01*
X184557265Y-81048766D01*
X184455416Y-81076056D01*
X184455411Y-81076058D01*
X184364086Y-81128785D01*
X184289520Y-81203351D01*
X184236793Y-81294676D01*
X184236791Y-81294681D01*
X184209501Y-81396530D01*
X184209500Y-81396540D01*
X182386906Y-81396540D01*
X182373207Y-81345413D01*
X182320480Y-81254087D01*
X182245913Y-81179520D01*
X182233801Y-81172527D01*
X182154588Y-81126793D01*
X182154583Y-81126791D01*
X182052734Y-81099501D01*
X182052728Y-81099500D01*
X182052727Y-81099500D01*
X181947273Y-81099500D01*
X181947271Y-81099500D01*
X181947265Y-81099501D01*
X181845416Y-81126791D01*
X181845411Y-81126793D01*
X181754086Y-81179520D01*
X181679520Y-81254086D01*
X181626793Y-81345411D01*
X181626791Y-81345416D01*
X181599501Y-81447265D01*
X181599500Y-81447275D01*
X179772800Y-81447275D01*
X179765591Y-81411034D01*
X179760130Y-81383580D01*
X179680941Y-81192402D01*
X179565977Y-81020345D01*
X179419655Y-80874023D01*
X179247598Y-80759059D01*
X179195005Y-80737274D01*
X179056421Y-80679870D01*
X178853466Y-80639500D01*
X178853465Y-80639500D01*
X178646535Y-80639500D01*
X178646534Y-80639500D01*
X178443578Y-80679870D01*
X178252403Y-80759058D01*
X178080345Y-80874023D01*
X178080342Y-80874025D01*
X177934025Y-81020342D01*
X177934023Y-81020345D01*
X177819058Y-81192403D01*
X177739870Y-81383578D01*
X177699500Y-81586534D01*
X177500500Y-81586534D01*
X177500500Y-79046534D01*
X177699500Y-79046534D01*
X177699500Y-79253465D01*
X177739870Y-79456421D01*
X177808265Y-79621539D01*
X177819059Y-79647598D01*
X177934023Y-79819655D01*
X178080345Y-79965977D01*
X178252402Y-80080941D01*
X178443580Y-80160130D01*
X178596139Y-80190475D01*
X178646534Y-80200500D01*
X178646535Y-80200500D01*
X178853466Y-80200500D01*
X178893836Y-80192469D01*
X179056420Y-80160130D01*
X179247598Y-80080941D01*
X179419655Y-79965977D01*
X179565977Y-79819655D01*
X179680941Y-79647598D01*
X179760130Y-79456420D01*
X179800500Y-79253465D01*
X179800500Y-79197275D01*
X185349500Y-79197275D01*
X185349500Y-79302724D01*
X185349501Y-79302734D01*
X185376791Y-79404583D01*
X185376793Y-79404588D01*
X185406719Y-79456421D01*
X185429520Y-79495913D01*
X185504087Y-79570480D01*
X185595413Y-79623207D01*
X185595414Y-79623207D01*
X185595416Y-79623208D01*
X185697265Y-79650498D01*
X185697267Y-79650498D01*
X185697273Y-79650500D01*
X185698766Y-79650500D01*
X185699610Y-79650807D01*
X185702145Y-79651141D01*
X185702071Y-79651702D01*
X185746975Y-79668047D01*
X185772627Y-79712476D01*
X185773766Y-79725500D01*
X185773766Y-79726990D01*
X185773767Y-79727000D01*
X185801057Y-79828849D01*
X185801059Y-79828854D01*
X185853786Y-79920179D01*
X185928353Y-79994746D01*
X186019679Y-80047473D01*
X186019680Y-80047473D01*
X186019682Y-80047474D01*
X186121531Y-80074764D01*
X186121533Y-80074764D01*
X186121539Y-80074766D01*
X186123032Y-80074766D01*
X186123876Y-80075073D01*
X186126411Y-80075407D01*
X186126337Y-80075968D01*
X186171241Y-80092313D01*
X186196893Y-80136742D01*
X186198032Y-80149766D01*
X186198032Y-80151256D01*
X186198033Y-80151266D01*
X186225323Y-80253115D01*
X186225325Y-80253120D01*
X186243780Y-80285084D01*
X186278052Y-80344445D01*
X186352619Y-80419012D01*
X186443945Y-80471739D01*
X186443946Y-80471739D01*
X186443948Y-80471740D01*
X186545797Y-80499030D01*
X186545799Y-80499030D01*
X186545805Y-80499032D01*
X186547298Y-80499032D01*
X186548142Y-80499339D01*
X186550677Y-80499673D01*
X186550603Y-80500234D01*
X186595507Y-80516579D01*
X186621159Y-80561008D01*
X186622298Y-80574032D01*
X186622298Y-80575522D01*
X186622299Y-80575532D01*
X186649589Y-80677381D01*
X186649591Y-80677386D01*
X186690114Y-80747574D01*
X186699023Y-80798098D01*
X186678196Y-80838106D01*
X186642413Y-80873889D01*
X186589686Y-80965214D01*
X186589684Y-80965219D01*
X186562394Y-81067068D01*
X186562393Y-81067078D01*
X186562393Y-81172527D01*
X186562394Y-81172537D01*
X186589684Y-81274386D01*
X186589686Y-81274391D01*
X186616970Y-81321647D01*
X186642413Y-81365716D01*
X186716980Y-81440283D01*
X186731978Y-81448942D01*
X186804464Y-81490792D01*
X186837441Y-81530093D01*
X186837441Y-81581396D01*
X186819997Y-81608777D01*
X186464489Y-81964287D01*
X186408540Y-82020235D01*
X186368979Y-82088756D01*
X186368978Y-82088759D01*
X186348501Y-82165179D01*
X186348500Y-82165187D01*
X186348500Y-88288502D01*
X186348501Y-88288510D01*
X186368978Y-88364930D01*
X186368979Y-88364933D01*
X186389514Y-88400500D01*
X186408540Y-88433454D01*
X188409597Y-90434511D01*
X188465546Y-90490460D01*
X188534068Y-90530021D01*
X188610495Y-90550500D01*
X189953041Y-90550500D01*
X190000082Y-90567622D01*
X190000186Y-90567487D01*
X190000614Y-90567815D01*
X190001250Y-90568047D01*
X190002971Y-90569624D01*
X190004084Y-90570478D01*
X190004086Y-90570479D01*
X190004087Y-90570480D01*
X190095413Y-90623207D01*
X190095414Y-90623207D01*
X190095416Y-90623208D01*
X190197265Y-90650498D01*
X190197267Y-90650498D01*
X190197273Y-90650500D01*
X190197275Y-90650500D01*
X190302725Y-90650500D01*
X190302727Y-90650500D01*
X190404587Y-90623207D01*
X190495913Y-90570480D01*
X190570480Y-90495913D01*
X190623207Y-90404587D01*
X190650500Y-90302727D01*
X190650500Y-90226500D01*
X190668047Y-90178291D01*
X190712476Y-90152639D01*
X190725500Y-90151500D01*
X191538503Y-90151500D01*
X191538505Y-90151500D01*
X191614932Y-90131021D01*
X191683454Y-90091460D01*
X191739403Y-90035511D01*
X191841460Y-89933454D01*
X191864844Y-89892951D01*
X191881021Y-89864932D01*
X191901500Y-89788505D01*
X191901500Y-88961495D01*
X191889590Y-88917046D01*
X191889590Y-88917044D01*
X191885156Y-88900498D01*
X191881022Y-88885069D01*
X191875497Y-88875500D01*
X191861341Y-88850980D01*
X191841460Y-88816546D01*
X191723467Y-88698553D01*
X191701785Y-88652057D01*
X191701500Y-88645520D01*
X191701500Y-83670022D01*
X191719047Y-83621813D01*
X191763476Y-83596161D01*
X191813998Y-83605069D01*
X191829580Y-83614066D01*
X191845409Y-83623205D01*
X191845411Y-83623205D01*
X191845413Y-83623207D01*
X191845414Y-83623207D01*
X191845416Y-83623208D01*
X191947265Y-83650498D01*
X191947267Y-83650498D01*
X191947273Y-83650500D01*
X191947275Y-83650500D01*
X192052725Y-83650500D01*
X192052727Y-83650500D01*
X192154587Y-83623207D01*
X192245913Y-83570480D01*
X192320480Y-83495913D01*
X192326149Y-83486092D01*
X192365448Y-83453117D01*
X192416751Y-83453116D01*
X192456052Y-83486092D01*
X192466101Y-83523593D01*
X192466101Y-83552724D01*
X192466102Y-83552734D01*
X192493392Y-83654583D01*
X192493394Y-83654588D01*
X192546122Y-83745915D01*
X192549114Y-83749814D01*
X192547468Y-83751076D01*
X192565816Y-83790422D01*
X192566101Y-83796959D01*
X192566101Y-94727862D01*
X192560500Y-94743247D01*
X192559074Y-94759558D01*
X192549682Y-94772970D01*
X192548554Y-94776071D01*
X192544134Y-94780895D01*
X192497496Y-94827533D01*
X192452122Y-94848691D01*
X192452145Y-94848859D01*
X192451613Y-94848928D01*
X192451000Y-94849215D01*
X192448668Y-94849316D01*
X192447265Y-94849501D01*
X192345416Y-94876791D01*
X192345411Y-94876793D01*
X192254086Y-94929520D01*
X192179520Y-95004086D01*
X192126793Y-95095411D01*
X192126791Y-95095416D01*
X192099501Y-95197265D01*
X192099500Y-95197275D01*
X192099500Y-95302724D01*
X192099501Y-95302734D01*
X192126791Y-95404583D01*
X192126793Y-95404588D01*
X192147527Y-95440500D01*
X192179520Y-95495913D01*
X192254087Y-95570480D01*
X192345413Y-95623207D01*
X192359342Y-95626939D01*
X192382680Y-95633193D01*
X192424705Y-95662619D01*
X192437983Y-95712174D01*
X192416301Y-95758670D01*
X192297439Y-95877533D01*
X192250943Y-95899215D01*
X192244406Y-95899500D01*
X187696959Y-95899500D01*
X187649917Y-95882377D01*
X187649814Y-95882513D01*
X187649385Y-95882184D01*
X187648750Y-95881953D01*
X187647028Y-95880375D01*
X187645915Y-95879521D01*
X187554588Y-95826793D01*
X187554583Y-95826791D01*
X187452734Y-95799501D01*
X187452728Y-95799500D01*
X187452727Y-95799500D01*
X187347273Y-95799500D01*
X187347271Y-95799500D01*
X187347265Y-95799501D01*
X187245416Y-95826791D01*
X187245411Y-95826793D01*
X187154086Y-95879520D01*
X187079520Y-95954086D01*
X187026793Y-96045411D01*
X187026791Y-96045416D01*
X186999501Y-96147265D01*
X186999500Y-96147275D01*
X186999500Y-96252724D01*
X186999501Y-96252734D01*
X187026791Y-96354583D01*
X187026793Y-96354588D01*
X187070333Y-96430000D01*
X187079520Y-96445913D01*
X187154087Y-96520480D01*
X187245413Y-96573207D01*
X187245414Y-96573207D01*
X187245416Y-96573208D01*
X187347265Y-96600498D01*
X187347267Y-96600498D01*
X187347273Y-96600500D01*
X187347275Y-96600500D01*
X187452725Y-96600500D01*
X187452727Y-96600500D01*
X187554587Y-96573207D01*
X187645913Y-96520480D01*
X187645915Y-96520478D01*
X187649814Y-96517487D01*
X187651076Y-96519132D01*
X187690422Y-96500785D01*
X187696959Y-96500500D01*
X188141086Y-96500500D01*
X188189295Y-96518047D01*
X188214947Y-96562476D01*
X188213530Y-96594912D01*
X188199501Y-96647267D01*
X188199500Y-96647275D01*
X188199500Y-96752724D01*
X188199501Y-96752734D01*
X188226791Y-96854583D01*
X188226793Y-96854588D01*
X188232328Y-96864174D01*
X188279520Y-96945913D01*
X188354087Y-97020480D01*
X188443543Y-97072127D01*
X188459073Y-97084044D01*
X191959540Y-100584511D01*
X192059540Y-100684511D01*
X192115489Y-100740460D01*
X192184011Y-100780021D01*
X192260438Y-100800500D01*
X192303041Y-100800500D01*
X192350082Y-100817622D01*
X192350186Y-100817487D01*
X192350614Y-100817815D01*
X192351250Y-100818047D01*
X192352971Y-100819624D01*
X192354084Y-100820478D01*
X192354086Y-100820479D01*
X192354087Y-100820480D01*
X192445413Y-100873207D01*
X192445414Y-100873207D01*
X192445416Y-100873208D01*
X192547265Y-100900498D01*
X192547267Y-100900498D01*
X192547273Y-100900500D01*
X192547275Y-100900500D01*
X192652725Y-100900500D01*
X192652727Y-100900500D01*
X192754587Y-100873207D01*
X192845913Y-100820480D01*
X192920480Y-100745913D01*
X192973207Y-100654587D01*
X193000500Y-100552727D01*
X193000500Y-100447273D01*
X192973207Y-100345413D01*
X192920480Y-100254087D01*
X192845913Y-100179520D01*
X192779548Y-100141204D01*
X192754588Y-100126793D01*
X192754583Y-100126791D01*
X192652734Y-100099501D01*
X192652728Y-100099500D01*
X192652727Y-100099500D01*
X192547273Y-100099500D01*
X192547271Y-100099500D01*
X192547267Y-100099501D01*
X192445415Y-100126792D01*
X192445410Y-100126794D01*
X192435879Y-100132297D01*
X192385355Y-100141204D01*
X192345348Y-100120377D01*
X189022467Y-96797496D01*
X189000785Y-96751000D01*
X189000500Y-96744463D01*
X189000500Y-96647275D01*
X189000498Y-96647267D01*
X188986470Y-96594912D01*
X188990941Y-96543804D01*
X189027217Y-96507527D01*
X189058914Y-96500500D01*
X192439503Y-96500500D01*
X192439505Y-96500500D01*
X192515932Y-96480021D01*
X192584454Y-96440460D01*
X192640403Y-96384511D01*
X193972131Y-95052783D01*
X193982520Y-95034788D01*
X194011692Y-94984261D01*
X194032171Y-94907834D01*
X194032171Y-82333618D01*
X194044501Y-82292417D01*
X194048713Y-82286009D01*
X194052151Y-82282572D01*
X194060642Y-82267864D01*
X194061830Y-82266058D01*
X194080761Y-82251958D01*
X194098847Y-82236782D01*
X194101138Y-82236782D01*
X194102975Y-82235414D01*
X194126542Y-82236782D01*
X194150150Y-82236782D01*
X194151904Y-82238254D01*
X194154192Y-82238387D01*
X194171369Y-82254586D01*
X194189451Y-82269758D01*
X194190125Y-82272274D01*
X194191516Y-82273586D01*
X194192322Y-82280473D01*
X194199500Y-82307259D01*
X194199500Y-98453041D01*
X194182377Y-98500082D01*
X194182513Y-98500186D01*
X194182184Y-98500614D01*
X194181953Y-98501250D01*
X194180375Y-98502971D01*
X194179521Y-98504084D01*
X194126793Y-98595411D01*
X194126791Y-98595416D01*
X194099501Y-98697265D01*
X194099500Y-98697275D01*
X194099500Y-98802724D01*
X194099501Y-98802734D01*
X194126791Y-98904583D01*
X194126793Y-98904588D01*
X194179520Y-98995913D01*
X194254087Y-99070480D01*
X194345413Y-99123207D01*
X194345414Y-99123207D01*
X194345416Y-99123208D01*
X194447265Y-99150498D01*
X194447267Y-99150498D01*
X194447273Y-99150500D01*
X194447275Y-99150500D01*
X194552725Y-99150500D01*
X194552727Y-99150500D01*
X194654587Y-99123207D01*
X194745913Y-99070480D01*
X194820480Y-98995913D01*
X194873207Y-98904587D01*
X194900500Y-98802727D01*
X194900500Y-98697273D01*
X194873207Y-98595413D01*
X194820480Y-98504087D01*
X194820479Y-98504086D01*
X194820478Y-98504084D01*
X194817487Y-98500186D01*
X194819132Y-98498923D01*
X194800785Y-98459578D01*
X194800500Y-98453041D01*
X194800500Y-82056907D01*
X194800498Y-82056899D01*
X194798919Y-82051008D01*
X194780021Y-81980478D01*
X194740460Y-81911956D01*
X194684511Y-81856007D01*
X194432317Y-81603813D01*
X194410635Y-81557317D01*
X194423914Y-81507762D01*
X194465939Y-81478336D01*
X194475574Y-81476420D01*
X194476987Y-81476234D01*
X194476993Y-81476234D01*
X194476998Y-81476232D01*
X194477002Y-81476232D01*
X194578849Y-81448942D01*
X194578848Y-81448942D01*
X194578853Y-81448941D01*
X194670179Y-81396214D01*
X194744746Y-81321647D01*
X194797473Y-81230321D01*
X194824766Y-81128461D01*
X194824766Y-81126968D01*
X194825073Y-81126123D01*
X194825407Y-81123589D01*
X194825968Y-81123662D01*
X194842313Y-81078759D01*
X194886742Y-81053107D01*
X194899766Y-81051968D01*
X194901257Y-81051968D01*
X194901259Y-81051968D01*
X195003119Y-81024675D01*
X195094445Y-80971948D01*
X195169012Y-80897381D01*
X195194054Y-80854006D01*
X195233351Y-80821032D01*
X195278415Y-80819064D01*
X195357181Y-80840169D01*
X195357183Y-80840169D01*
X195462633Y-80840169D01*
X195462635Y-80840169D01*
X195564495Y-80812876D01*
X195655821Y-80760149D01*
X195730388Y-80685582D01*
X195783115Y-80594256D01*
X195810408Y-80492396D01*
X195810408Y-80386942D01*
X195783115Y-80285082D01*
X195783112Y-80285077D01*
X195783111Y-80285074D01*
X195768123Y-80259113D01*
X195759215Y-80208590D01*
X195780040Y-80168583D01*
X195850831Y-80097793D01*
X195903558Y-80006467D01*
X195930851Y-79904607D01*
X195930851Y-79799153D01*
X195930851Y-79794237D01*
X195933207Y-79794237D01*
X195942418Y-79752654D01*
X195983114Y-79721415D01*
X195986239Y-79720504D01*
X196002652Y-79716107D01*
X196093978Y-79663380D01*
X196168545Y-79588813D01*
X196221272Y-79497487D01*
X196248565Y-79395627D01*
X196248565Y-79290173D01*
X196243997Y-79273125D01*
X196221273Y-79188316D01*
X196221269Y-79188307D01*
X196213909Y-79175558D01*
X196205001Y-79125034D01*
X196230653Y-79080605D01*
X196241356Y-79073110D01*
X196245913Y-79070480D01*
X196320480Y-78995913D01*
X196373207Y-78904587D01*
X196385169Y-78859941D01*
X196414594Y-78817919D01*
X196464149Y-78804640D01*
X196499597Y-78818424D01*
X196499830Y-78818022D01*
X196502444Y-78819531D01*
X196503266Y-78819851D01*
X196504081Y-78820476D01*
X196504085Y-78820478D01*
X196504087Y-78820480D01*
X196554351Y-78849500D01*
X196594775Y-78872839D01*
X196595413Y-78873207D01*
X196595414Y-78873207D01*
X196595416Y-78873208D01*
X196697265Y-78900498D01*
X196697267Y-78900498D01*
X196697273Y-78900500D01*
X196729819Y-78900500D01*
X196778028Y-78918047D01*
X196782852Y-78922467D01*
X198903533Y-81043148D01*
X198925215Y-81089644D01*
X198925500Y-81096181D01*
X198925500Y-86549500D01*
X198907953Y-86597709D01*
X198863524Y-86623361D01*
X198850500Y-86624500D01*
X198055251Y-86624500D01*
X197996769Y-86636132D01*
X197930448Y-86680447D01*
X197930446Y-86680449D01*
X197923662Y-86690602D01*
X197882287Y-86720936D01*
X197831094Y-86717578D01*
X197819637Y-86711292D01*
X197796286Y-86695689D01*
X197725903Y-86666535D01*
X197682453Y-86648537D01*
X197561607Y-86624500D01*
X197561606Y-86624500D01*
X197438394Y-86624500D01*
X197438393Y-86624500D01*
X197317546Y-86648537D01*
X197203715Y-86695688D01*
X197101267Y-86764141D01*
X197101264Y-86764144D01*
X197053033Y-86812376D01*
X197006537Y-86834058D01*
X196956982Y-86820779D01*
X196946967Y-86812376D01*
X196898732Y-86764141D01*
X196829045Y-86717578D01*
X196796286Y-86695689D01*
X196759494Y-86680449D01*
X196682453Y-86648537D01*
X196561607Y-86624500D01*
X196561606Y-86624500D01*
X196438394Y-86624500D01*
X196438393Y-86624500D01*
X196317546Y-86648537D01*
X196203715Y-86695688D01*
X196101267Y-86764141D01*
X196014141Y-86851267D01*
X195945688Y-86953715D01*
X195898538Y-87067545D01*
X195898537Y-87067548D01*
X195895741Y-87081606D01*
X195874500Y-87188393D01*
X195874500Y-87311606D01*
X195898537Y-87432453D01*
X195901521Y-87439657D01*
X195945689Y-87546286D01*
X196014142Y-87648733D01*
X196101267Y-87735858D01*
X196203714Y-87804311D01*
X196297018Y-87842959D01*
X196321347Y-87859215D01*
X196462132Y-88000000D01*
X196450272Y-88000000D01*
X196358386Y-88038060D01*
X196288060Y-88108386D01*
X196250000Y-88200272D01*
X196250000Y-88212132D01*
X195964432Y-87926564D01*
X195946131Y-87953954D01*
X195899019Y-88067693D01*
X195875000Y-88188442D01*
X195875000Y-88311557D01*
X195899019Y-88432306D01*
X195946133Y-88546050D01*
X195964431Y-88573434D01*
X195964432Y-88573434D01*
X196250000Y-88287866D01*
X196250000Y-88299728D01*
X196288060Y-88391614D01*
X196358386Y-88461940D01*
X196450272Y-88500000D01*
X196462132Y-88500000D01*
X196176564Y-88785567D01*
X196203951Y-88803868D01*
X196317693Y-88850980D01*
X196438442Y-88875000D01*
X196561558Y-88875000D01*
X196682306Y-88850980D01*
X196796047Y-88803868D01*
X196796049Y-88803867D01*
X196823434Y-88785567D01*
X196823434Y-88785566D01*
X196537868Y-88500000D01*
X196549728Y-88500000D01*
X196641614Y-88461940D01*
X196711940Y-88391614D01*
X196750000Y-88299728D01*
X196750000Y-88287868D01*
X196890782Y-88428650D01*
X196907040Y-88452981D01*
X196945688Y-88546284D01*
X196945688Y-88546285D01*
X196963829Y-88573434D01*
X197014142Y-88648733D01*
X197101267Y-88735858D01*
X197203714Y-88804311D01*
X197317548Y-88851463D01*
X197408387Y-88869531D01*
X197438393Y-88875500D01*
X197438394Y-88875500D01*
X197561607Y-88875500D01*
X197585644Y-88870718D01*
X197682452Y-88851463D01*
X197796286Y-88804311D01*
X197898733Y-88735858D01*
X197946967Y-88687624D01*
X197993463Y-88665942D01*
X198043018Y-88679221D01*
X198053033Y-88687624D01*
X198101267Y-88735858D01*
X198203714Y-88804311D01*
X198317548Y-88851463D01*
X198408387Y-88869531D01*
X198438393Y-88875500D01*
X198553817Y-88875500D01*
X198602026Y-88893047D01*
X198627678Y-88937476D01*
X198618769Y-88988000D01*
X198606850Y-89003533D01*
X197093942Y-90516442D01*
X197093941Y-90516443D01*
X196735315Y-90875067D01*
X196688818Y-90896749D01*
X196667651Y-90895593D01*
X196613534Y-90884828D01*
X196561607Y-90874500D01*
X196561606Y-90874500D01*
X196438394Y-90874500D01*
X196438393Y-90874500D01*
X196317546Y-90898537D01*
X196203715Y-90945688D01*
X196101267Y-91014141D01*
X196014141Y-91101267D01*
X195945688Y-91203715D01*
X195898537Y-91317546D01*
X195874500Y-91438393D01*
X195874500Y-91561606D01*
X195898537Y-91682453D01*
X195941286Y-91785656D01*
X195945689Y-91796286D01*
X196014142Y-91898733D01*
X196101267Y-91985858D01*
X196203714Y-92054311D01*
X196297018Y-92092959D01*
X196321347Y-92109215D01*
X196462132Y-92250000D01*
X196450272Y-92250000D01*
X196358386Y-92288060D01*
X196288060Y-92358386D01*
X196250000Y-92450272D01*
X196250000Y-92462132D01*
X195964432Y-92176564D01*
X195946131Y-92203954D01*
X195899019Y-92317693D01*
X195875000Y-92438442D01*
X195875000Y-92561557D01*
X195899019Y-92682306D01*
X195946133Y-92796050D01*
X195964431Y-92823434D01*
X195964432Y-92823434D01*
X196250000Y-92537866D01*
X196250000Y-92549728D01*
X196288060Y-92641614D01*
X196358386Y-92711940D01*
X196450272Y-92750000D01*
X196462132Y-92750000D01*
X196176564Y-93035567D01*
X196203951Y-93053868D01*
X196317693Y-93100980D01*
X196438442Y-93125000D01*
X196561558Y-93125000D01*
X196682306Y-93100980D01*
X196796047Y-93053868D01*
X196796049Y-93053867D01*
X196823434Y-93035567D01*
X196823434Y-93035566D01*
X196537868Y-92750000D01*
X196549728Y-92750000D01*
X196641614Y-92711940D01*
X196711940Y-92641614D01*
X196750000Y-92549728D01*
X196750000Y-92537868D01*
X196890782Y-92678650D01*
X196907040Y-92702981D01*
X196945688Y-92796284D01*
X196945688Y-92796285D01*
X196988348Y-92860129D01*
X197014142Y-92898733D01*
X197101267Y-92985858D01*
X197203714Y-93054311D01*
X197317548Y-93101463D01*
X197408387Y-93119531D01*
X197438393Y-93125500D01*
X197438394Y-93125500D01*
X197561607Y-93125500D01*
X197585644Y-93120718D01*
X197682452Y-93101463D01*
X197796286Y-93054311D01*
X197898733Y-92985858D01*
X197946967Y-92937624D01*
X197993463Y-92915942D01*
X198043018Y-92929221D01*
X198053033Y-92937624D01*
X198101267Y-92985858D01*
X198203714Y-93054311D01*
X198317548Y-93101463D01*
X198408387Y-93119531D01*
X198438393Y-93125500D01*
X198438394Y-93125500D01*
X198561607Y-93125500D01*
X198585644Y-93120718D01*
X198682452Y-93101463D01*
X198796286Y-93054311D01*
X198898733Y-92985858D01*
X198985858Y-92898733D01*
X199054311Y-92796286D01*
X199101463Y-92682452D01*
X199125500Y-92561606D01*
X199125500Y-92438394D01*
X199101463Y-92317548D01*
X199054311Y-92203714D01*
X199038707Y-92180362D01*
X199026514Y-92130530D01*
X199049204Y-92084518D01*
X199059395Y-92076338D01*
X199069552Y-92069552D01*
X199113867Y-92003231D01*
X199125500Y-91944748D01*
X199125500Y-91055252D01*
X199113867Y-90996769D01*
X199069552Y-90930448D01*
X199052508Y-90919059D01*
X199003230Y-90886132D01*
X198944749Y-90874500D01*
X198944748Y-90874500D01*
X198055252Y-90874500D01*
X198055251Y-90874500D01*
X197996769Y-90886132D01*
X197930448Y-90930447D01*
X197930446Y-90930449D01*
X197923662Y-90940602D01*
X197908446Y-90951757D01*
X197895638Y-90965611D01*
X197888273Y-90966547D01*
X197882287Y-90970936D01*
X197863460Y-90969701D01*
X197844744Y-90972080D01*
X197834838Y-90967823D01*
X197831094Y-90967578D01*
X197820724Y-90962005D01*
X197820199Y-90961667D01*
X197796286Y-90945689D01*
X197793696Y-90944616D01*
X197788290Y-90941138D01*
X197775582Y-90924422D01*
X197759579Y-90906765D01*
X197754951Y-90895593D01*
X197733557Y-90843942D01*
X197733557Y-90843941D01*
X197692648Y-90803032D01*
X197670966Y-90756536D01*
X197684245Y-90706981D01*
X197692648Y-90696966D01*
X198457661Y-89931953D01*
X199148468Y-89241146D01*
X199194963Y-89219465D01*
X199244518Y-89232744D01*
X199273944Y-89274769D01*
X199276500Y-89294180D01*
X199276500Y-104017462D01*
X199258953Y-104065671D01*
X199254533Y-104070495D01*
X198538952Y-104786075D01*
X198492456Y-104807757D01*
X198457218Y-104802333D01*
X198306421Y-104739870D01*
X198103466Y-104699500D01*
X198103465Y-104699500D01*
X197896535Y-104699500D01*
X197896534Y-104699500D01*
X197693578Y-104739870D01*
X197502403Y-104819058D01*
X197330345Y-104934023D01*
X197330342Y-104934025D01*
X197184025Y-105080342D01*
X197184023Y-105080345D01*
X197069058Y-105252403D01*
X196989870Y-105443578D01*
X196949500Y-105646534D01*
X196949500Y-105853465D01*
X196989870Y-106056421D01*
X197069058Y-106247596D01*
X197069059Y-106247598D01*
X197184023Y-106419655D01*
X197330345Y-106565977D01*
X197502402Y-106680941D01*
X197693580Y-106760130D01*
X197835684Y-106788396D01*
X197896534Y-106800500D01*
X197896535Y-106800500D01*
X198103466Y-106800500D01*
X198164316Y-106788396D01*
X198306420Y-106760130D01*
X198497598Y-106680941D01*
X198669655Y-106565977D01*
X198815977Y-106419655D01*
X198930941Y-106247598D01*
X199010130Y-106056420D01*
X199050500Y-105853465D01*
X199050500Y-105646535D01*
X199010130Y-105443580D01*
X198947666Y-105292779D01*
X198945428Y-105241525D01*
X198963922Y-105211047D01*
X199817460Y-104357511D01*
X199857022Y-104288988D01*
X199877500Y-104212562D01*
X199877500Y-104133438D01*
X199877500Y-101906535D01*
X201199500Y-101906535D01*
X201199500Y-102113465D01*
X201239870Y-102316420D01*
X201319059Y-102507598D01*
X201434023Y-102679655D01*
X201580345Y-102825977D01*
X201752402Y-102940941D01*
X201943580Y-103020130D01*
X202096139Y-103050475D01*
X202146534Y-103060500D01*
X202146535Y-103060500D01*
X202353466Y-103060500D01*
X202393836Y-103052469D01*
X202556420Y-103020130D01*
X202747598Y-102940941D01*
X202919655Y-102825977D01*
X203065977Y-102679655D01*
X203180941Y-102507598D01*
X203260130Y-102316420D01*
X203300500Y-102113465D01*
X203300500Y-101906535D01*
X203260130Y-101703580D01*
X203180941Y-101512402D01*
X203065977Y-101340345D01*
X202919655Y-101194023D01*
X202747598Y-101079059D01*
X202747596Y-101079058D01*
X202556421Y-100999870D01*
X202353466Y-100959500D01*
X202353465Y-100959500D01*
X202146535Y-100959500D01*
X202146534Y-100959500D01*
X201943578Y-100999870D01*
X201752403Y-101079058D01*
X201580345Y-101194023D01*
X201580342Y-101194025D01*
X201434025Y-101340342D01*
X201434023Y-101340345D01*
X201319058Y-101512403D01*
X201239870Y-101703578D01*
X201239870Y-101703580D01*
X201199500Y-101906535D01*
X199877500Y-101906535D01*
X199877500Y-99366534D01*
X201199500Y-99366534D01*
X201199500Y-99573465D01*
X201219391Y-99673467D01*
X201239870Y-99776420D01*
X201319059Y-99967598D01*
X201434023Y-100139655D01*
X201580345Y-100285977D01*
X201752402Y-100400941D01*
X201943580Y-100480130D01*
X202096139Y-100510475D01*
X202146534Y-100520500D01*
X202146535Y-100520500D01*
X202353466Y-100520500D01*
X202393836Y-100512469D01*
X202556420Y-100480130D01*
X202747598Y-100400941D01*
X202919655Y-100285977D01*
X203065977Y-100139655D01*
X203180941Y-99967598D01*
X203260130Y-99776420D01*
X203300500Y-99573465D01*
X203300500Y-99366535D01*
X203260130Y-99163580D01*
X203180941Y-98972402D01*
X203065977Y-98800345D01*
X202919655Y-98654023D01*
X202747598Y-98539059D01*
X202747596Y-98539058D01*
X202556421Y-98459870D01*
X202353466Y-98419500D01*
X202353465Y-98419500D01*
X202146535Y-98419500D01*
X202146534Y-98419500D01*
X201943578Y-98459870D01*
X201752403Y-98539058D01*
X201580345Y-98654023D01*
X201580342Y-98654025D01*
X201434025Y-98800342D01*
X201434023Y-98800345D01*
X201319058Y-98972403D01*
X201239870Y-99163578D01*
X201199500Y-99366534D01*
X199877500Y-99366534D01*
X199877500Y-96826583D01*
X201200000Y-96826583D01*
X201200000Y-97033416D01*
X201240350Y-97236275D01*
X201319502Y-97427363D01*
X201408022Y-97559843D01*
X201408023Y-97559843D01*
X201806328Y-97161537D01*
X201849901Y-97237007D01*
X201942993Y-97330099D01*
X202018460Y-97373670D01*
X201620155Y-97771975D01*
X201620155Y-97771976D01*
X201752639Y-97860498D01*
X201943724Y-97939649D01*
X202146583Y-97980000D01*
X202353417Y-97980000D01*
X202556275Y-97939649D01*
X202747356Y-97860500D01*
X202747361Y-97860498D01*
X202879843Y-97771976D01*
X202879843Y-97771975D01*
X202481538Y-97373670D01*
X202557007Y-97330099D01*
X202650099Y-97237007D01*
X202693670Y-97161538D01*
X203091975Y-97559843D01*
X203091976Y-97559843D01*
X203180498Y-97427361D01*
X203180500Y-97427356D01*
X203259649Y-97236275D01*
X203300000Y-97033416D01*
X203300000Y-96826583D01*
X203259649Y-96623724D01*
X203180498Y-96432639D01*
X203091976Y-96300155D01*
X203091975Y-96300155D01*
X202693670Y-96698460D01*
X202650099Y-96622993D01*
X202557007Y-96529901D01*
X202481537Y-96486328D01*
X202879843Y-96088023D01*
X202879843Y-96088022D01*
X202747363Y-95999502D01*
X202556275Y-95920350D01*
X202353417Y-95880000D01*
X202146583Y-95880000D01*
X201943724Y-95920350D01*
X201752640Y-95999501D01*
X201620155Y-96088023D01*
X202018461Y-96486329D01*
X201942993Y-96529901D01*
X201849901Y-96622993D01*
X201806329Y-96698461D01*
X201408023Y-96300155D01*
X201319501Y-96432640D01*
X201240350Y-96623724D01*
X201200000Y-96826583D01*
X199877500Y-96826583D01*
X199877500Y-94286534D01*
X201199500Y-94286534D01*
X201199500Y-94493465D01*
X201239870Y-94696421D01*
X201314583Y-94876793D01*
X201319059Y-94887598D01*
X201434023Y-95059655D01*
X201580345Y-95205977D01*
X201752402Y-95320941D01*
X201943580Y-95400130D01*
X202096139Y-95430475D01*
X202146534Y-95440500D01*
X202146535Y-95440500D01*
X202353466Y-95440500D01*
X202393836Y-95432469D01*
X202556420Y-95400130D01*
X202747598Y-95320941D01*
X202919655Y-95205977D01*
X203065977Y-95059655D01*
X203180941Y-94887598D01*
X203260130Y-94696420D01*
X203300500Y-94493465D01*
X203300500Y-94286535D01*
X203260130Y-94083580D01*
X203180941Y-93892402D01*
X203065977Y-93720345D01*
X202919655Y-93574023D01*
X202747598Y-93459059D01*
X202747596Y-93459058D01*
X202556421Y-93379870D01*
X202353466Y-93339500D01*
X202353465Y-93339500D01*
X202146535Y-93339500D01*
X202146534Y-93339500D01*
X201943578Y-93379870D01*
X201752403Y-93459058D01*
X201580345Y-93574023D01*
X201580342Y-93574025D01*
X201434025Y-93720342D01*
X201434023Y-93720345D01*
X201319058Y-93892403D01*
X201239870Y-94083578D01*
X201199500Y-94286534D01*
X199877500Y-94286534D01*
X199877500Y-91746534D01*
X201199500Y-91746534D01*
X201199500Y-91953465D01*
X201239870Y-92156421D01*
X201306611Y-92317546D01*
X201319059Y-92347598D01*
X201434023Y-92519655D01*
X201580345Y-92665977D01*
X201752402Y-92780941D01*
X201943580Y-92860130D01*
X202096139Y-92890475D01*
X202146534Y-92900500D01*
X202146535Y-92900500D01*
X202353466Y-92900500D01*
X202393836Y-92892469D01*
X202556420Y-92860130D01*
X202747598Y-92780941D01*
X202919655Y-92665977D01*
X203065977Y-92519655D01*
X203180941Y-92347598D01*
X203260130Y-92156420D01*
X203300500Y-91953465D01*
X203300500Y-91746535D01*
X203260130Y-91543580D01*
X203180941Y-91352402D01*
X203065977Y-91180345D01*
X202919655Y-91034023D01*
X202747598Y-90919059D01*
X202698054Y-90898537D01*
X202556421Y-90839870D01*
X202353466Y-90799500D01*
X202353465Y-90799500D01*
X202146535Y-90799500D01*
X202146534Y-90799500D01*
X201943578Y-90839870D01*
X201752403Y-90919058D01*
X201580345Y-91034023D01*
X201580342Y-91034025D01*
X201434025Y-91180342D01*
X201434023Y-91180345D01*
X201319058Y-91352403D01*
X201239870Y-91543578D01*
X201199500Y-91746534D01*
X199877500Y-91746534D01*
X199877500Y-89206534D01*
X201199500Y-89206534D01*
X201199500Y-89413465D01*
X201239870Y-89616421D01*
X201306482Y-89777235D01*
X201319059Y-89807598D01*
X201434023Y-89979655D01*
X201580345Y-90125977D01*
X201752402Y-90240941D01*
X201943580Y-90320130D01*
X202096139Y-90350475D01*
X202146534Y-90360500D01*
X202146535Y-90360500D01*
X202353466Y-90360500D01*
X202393836Y-90352469D01*
X202556420Y-90320130D01*
X202747598Y-90240941D01*
X202919655Y-90125977D01*
X203065977Y-89979655D01*
X203180941Y-89807598D01*
X203260130Y-89616420D01*
X203300500Y-89413465D01*
X203300500Y-89206535D01*
X203260130Y-89003580D01*
X203180941Y-88812402D01*
X203065977Y-88640345D01*
X202919655Y-88494023D01*
X202747598Y-88379059D01*
X202747596Y-88379058D01*
X202556421Y-88299870D01*
X202353466Y-88259500D01*
X202353465Y-88259500D01*
X202146535Y-88259500D01*
X202146534Y-88259500D01*
X201943578Y-88299870D01*
X201752403Y-88379058D01*
X201580345Y-88494023D01*
X201580342Y-88494025D01*
X201434025Y-88640342D01*
X201434023Y-88640345D01*
X201319058Y-88812403D01*
X201239870Y-89003578D01*
X201199500Y-89206534D01*
X199877500Y-89206534D01*
X199877500Y-86666534D01*
X201199500Y-86666534D01*
X201199500Y-86873465D01*
X201238104Y-87067545D01*
X201239870Y-87076420D01*
X201319059Y-87267598D01*
X201434023Y-87439655D01*
X201580345Y-87585977D01*
X201752402Y-87700941D01*
X201943580Y-87780130D01*
X202096139Y-87810475D01*
X202146534Y-87820500D01*
X202146535Y-87820500D01*
X202353466Y-87820500D01*
X202393836Y-87812469D01*
X202556420Y-87780130D01*
X202747598Y-87700941D01*
X202919655Y-87585977D01*
X203065977Y-87439655D01*
X203180941Y-87267598D01*
X203260130Y-87076420D01*
X203300500Y-86873465D01*
X203300500Y-86666535D01*
X203260130Y-86463580D01*
X203180941Y-86272402D01*
X203065977Y-86100345D01*
X202919655Y-85954023D01*
X202747598Y-85839059D01*
X202747596Y-85839058D01*
X202556421Y-85759870D01*
X202353466Y-85719500D01*
X202353465Y-85719500D01*
X202146535Y-85719500D01*
X202146534Y-85719500D01*
X201943578Y-85759870D01*
X201752403Y-85839058D01*
X201580345Y-85954023D01*
X201580342Y-85954025D01*
X201434025Y-86100342D01*
X201434023Y-86100345D01*
X201319058Y-86272403D01*
X201239870Y-86463578D01*
X201199500Y-86666534D01*
X199877500Y-86666534D01*
X199877500Y-84126535D01*
X201199500Y-84126535D01*
X201199500Y-84333465D01*
X201239870Y-84536420D01*
X201319059Y-84727598D01*
X201434023Y-84899655D01*
X201580345Y-85045977D01*
X201752402Y-85160941D01*
X201943580Y-85240130D01*
X202096139Y-85270475D01*
X202146534Y-85280500D01*
X202146535Y-85280500D01*
X202353466Y-85280500D01*
X202393836Y-85272469D01*
X202556420Y-85240130D01*
X202747598Y-85160941D01*
X202919655Y-85045977D01*
X203065977Y-84899655D01*
X203180941Y-84727598D01*
X203260130Y-84536420D01*
X203300500Y-84333465D01*
X203300500Y-84126535D01*
X203260130Y-83923580D01*
X203180941Y-83732402D01*
X203065977Y-83560345D01*
X202919655Y-83414023D01*
X202747598Y-83299059D01*
X202739595Y-83295744D01*
X202556421Y-83219870D01*
X202353466Y-83179500D01*
X202353465Y-83179500D01*
X202146535Y-83179500D01*
X202146534Y-83179500D01*
X201943578Y-83219870D01*
X201752403Y-83299058D01*
X201580345Y-83414023D01*
X201580342Y-83414025D01*
X201434025Y-83560342D01*
X201434023Y-83560345D01*
X201319058Y-83732403D01*
X201239870Y-83923578D01*
X201239870Y-83923580D01*
X201199500Y-84126535D01*
X199877500Y-84126535D01*
X199877500Y-81586534D01*
X201199500Y-81586534D01*
X201199500Y-81793465D01*
X201239870Y-81996421D01*
X201309775Y-82165185D01*
X201319059Y-82187598D01*
X201434023Y-82359655D01*
X201580345Y-82505977D01*
X201752402Y-82620941D01*
X201943580Y-82700130D01*
X202096139Y-82730475D01*
X202146534Y-82740500D01*
X202146535Y-82740500D01*
X202353466Y-82740500D01*
X202393836Y-82732469D01*
X202556420Y-82700130D01*
X202747598Y-82620941D01*
X202919655Y-82505977D01*
X203065977Y-82359655D01*
X203180941Y-82187598D01*
X203260130Y-81996420D01*
X203300500Y-81793465D01*
X203300500Y-81586535D01*
X203260130Y-81383580D01*
X203180941Y-81192402D01*
X203065977Y-81020345D01*
X202919655Y-80874023D01*
X202747598Y-80759059D01*
X202695005Y-80737274D01*
X202556421Y-80679870D01*
X202353466Y-80639500D01*
X202353465Y-80639500D01*
X202146535Y-80639500D01*
X202146534Y-80639500D01*
X201943578Y-80679870D01*
X201752403Y-80759058D01*
X201580345Y-80874023D01*
X201580342Y-80874025D01*
X201434025Y-81020342D01*
X201434023Y-81020345D01*
X201319058Y-81192403D01*
X201239870Y-81383578D01*
X201199500Y-81586534D01*
X199877500Y-81586534D01*
X199877500Y-79046534D01*
X201199500Y-79046534D01*
X201199500Y-79253465D01*
X201239870Y-79456421D01*
X201308265Y-79621539D01*
X201319059Y-79647598D01*
X201434023Y-79819655D01*
X201580345Y-79965977D01*
X201752402Y-80080941D01*
X201943580Y-80160130D01*
X202096139Y-80190475D01*
X202146534Y-80200500D01*
X202146535Y-80200500D01*
X202353466Y-80200500D01*
X202393836Y-80192469D01*
X202556420Y-80160130D01*
X202747598Y-80080941D01*
X202919655Y-79965977D01*
X203065977Y-79819655D01*
X203180941Y-79647598D01*
X203260130Y-79456420D01*
X203300500Y-79253465D01*
X203300500Y-79046535D01*
X203260130Y-78843580D01*
X203180941Y-78652402D01*
X203065977Y-78480345D01*
X202919655Y-78334023D01*
X202747598Y-78219059D01*
X202747596Y-78219058D01*
X202556421Y-78139870D01*
X202353466Y-78099500D01*
X202353465Y-78099500D01*
X202146535Y-78099500D01*
X202146534Y-78099500D01*
X201943578Y-78139870D01*
X201752403Y-78219058D01*
X201580345Y-78334023D01*
X201580342Y-78334025D01*
X201434025Y-78480342D01*
X201434023Y-78480345D01*
X201319058Y-78652403D01*
X201239870Y-78843578D01*
X201199500Y-79046534D01*
X199877500Y-79046534D01*
X199877500Y-76506534D01*
X201199500Y-76506534D01*
X201199500Y-76713465D01*
X201239870Y-76916421D01*
X201315705Y-77099501D01*
X201319059Y-77107598D01*
X201434023Y-77279655D01*
X201580345Y-77425977D01*
X201752402Y-77540941D01*
X201943580Y-77620130D01*
X202096139Y-77650475D01*
X202146534Y-77660500D01*
X202146535Y-77660500D01*
X202353466Y-77660500D01*
X202393836Y-77652469D01*
X202556420Y-77620130D01*
X202747598Y-77540941D01*
X202919655Y-77425977D01*
X203065977Y-77279655D01*
X203180941Y-77107598D01*
X203260130Y-76916420D01*
X203300500Y-76713465D01*
X203300500Y-76506535D01*
X203260130Y-76303580D01*
X203180941Y-76112402D01*
X203065977Y-75940345D01*
X202919655Y-75794023D01*
X202747598Y-75679059D01*
X202690855Y-75655555D01*
X202556421Y-75599870D01*
X202353466Y-75559500D01*
X202353465Y-75559500D01*
X202146535Y-75559500D01*
X202146534Y-75559500D01*
X201943578Y-75599870D01*
X201752403Y-75679058D01*
X201580345Y-75794023D01*
X201580342Y-75794025D01*
X201434025Y-75940342D01*
X201434023Y-75940345D01*
X201319058Y-76112403D01*
X201239870Y-76303578D01*
X201199500Y-76506534D01*
X199877500Y-76506534D01*
X199877500Y-73966534D01*
X201199500Y-73966534D01*
X201199500Y-74173465D01*
X201239870Y-74376421D01*
X201298507Y-74517981D01*
X201319059Y-74567598D01*
X201434023Y-74739655D01*
X201580345Y-74885977D01*
X201752402Y-75000941D01*
X201943580Y-75080130D01*
X202096139Y-75110475D01*
X202146534Y-75120500D01*
X202146535Y-75120500D01*
X202353466Y-75120500D01*
X202393836Y-75112469D01*
X202556420Y-75080130D01*
X202747598Y-75000941D01*
X202919655Y-74885977D01*
X203065977Y-74739655D01*
X203180941Y-74567598D01*
X203260130Y-74376420D01*
X203300500Y-74173465D01*
X203300500Y-73966535D01*
X203260130Y-73763580D01*
X203180941Y-73572402D01*
X203065977Y-73400345D01*
X202919655Y-73254023D01*
X202747598Y-73139059D01*
X202747596Y-73139058D01*
X202556421Y-73059870D01*
X202353466Y-73019500D01*
X202353465Y-73019500D01*
X202146535Y-73019500D01*
X202146534Y-73019500D01*
X201943578Y-73059870D01*
X201752403Y-73139058D01*
X201580345Y-73254023D01*
X201580342Y-73254025D01*
X201434025Y-73400342D01*
X201434023Y-73400345D01*
X201319058Y-73572403D01*
X201239870Y-73763578D01*
X201199500Y-73966534D01*
X199877500Y-73966534D01*
X199877500Y-71947275D01*
X200099500Y-71947275D01*
X200099500Y-72052724D01*
X200099501Y-72052734D01*
X200126791Y-72154583D01*
X200126793Y-72154588D01*
X200179520Y-72245913D01*
X200254087Y-72320480D01*
X200345413Y-72373207D01*
X200345414Y-72373207D01*
X200345416Y-72373208D01*
X200447265Y-72400498D01*
X200447267Y-72400498D01*
X200447273Y-72400500D01*
X200447275Y-72400500D01*
X200552725Y-72400500D01*
X200552727Y-72400500D01*
X200654587Y-72373207D01*
X200745913Y-72320480D01*
X200820480Y-72245913D01*
X200873207Y-72154587D01*
X200900500Y-72052727D01*
X200900500Y-71947273D01*
X200873207Y-71845413D01*
X200868015Y-71836421D01*
X200820479Y-71754086D01*
X200745913Y-71679520D01*
X200654588Y-71626793D01*
X200654583Y-71626791D01*
X200552734Y-71599501D01*
X200552728Y-71599500D01*
X200552727Y-71599500D01*
X200447273Y-71599500D01*
X200447271Y-71599500D01*
X200447265Y-71599501D01*
X200345416Y-71626791D01*
X200345411Y-71626793D01*
X200254086Y-71679520D01*
X200179520Y-71754086D01*
X200126793Y-71845411D01*
X200126793Y-71845413D01*
X200099501Y-71947265D01*
X200099500Y-71947275D01*
X199877500Y-71947275D01*
X199877500Y-71537438D01*
X199857021Y-71461011D01*
X199837116Y-71426534D01*
X201199500Y-71426534D01*
X201199500Y-71633465D01*
X201239870Y-71836421D01*
X201285784Y-71947265D01*
X201319059Y-72027598D01*
X201434023Y-72199655D01*
X201580345Y-72345977D01*
X201752402Y-72460941D01*
X201943580Y-72540130D01*
X202096139Y-72570475D01*
X202146534Y-72580500D01*
X202146535Y-72580500D01*
X202353466Y-72580500D01*
X202393836Y-72572469D01*
X202556420Y-72540130D01*
X202747598Y-72460941D01*
X202919655Y-72345977D01*
X203065977Y-72199655D01*
X203180941Y-72027598D01*
X203260130Y-71836420D01*
X203300500Y-71633465D01*
X203300500Y-71426535D01*
X203260130Y-71223580D01*
X203180941Y-71032402D01*
X203065977Y-70860345D01*
X202919655Y-70714023D01*
X202747598Y-70599059D01*
X202747596Y-70599058D01*
X202556421Y-70519870D01*
X202353466Y-70479500D01*
X202353465Y-70479500D01*
X202146535Y-70479500D01*
X202146534Y-70479500D01*
X201943578Y-70519870D01*
X201752403Y-70599058D01*
X201580345Y-70714023D01*
X201580342Y-70714025D01*
X201434025Y-70860342D01*
X201434023Y-70860345D01*
X201319058Y-71032403D01*
X201239870Y-71223578D01*
X201199500Y-71426534D01*
X199837116Y-71426534D01*
X199817460Y-71392489D01*
X199761511Y-71336540D01*
X197311505Y-68886534D01*
X201199500Y-68886534D01*
X201199500Y-69093465D01*
X201239870Y-69296421D01*
X201295002Y-69429520D01*
X201319059Y-69487598D01*
X201434023Y-69659655D01*
X201580345Y-69805977D01*
X201752402Y-69920941D01*
X201943580Y-70000130D01*
X202096139Y-70030475D01*
X202146534Y-70040500D01*
X202146535Y-70040500D01*
X202353466Y-70040500D01*
X202393836Y-70032469D01*
X202556420Y-70000130D01*
X202747598Y-69920941D01*
X202919655Y-69805977D01*
X203065977Y-69659655D01*
X203180941Y-69487598D01*
X203260130Y-69296420D01*
X203300500Y-69093465D01*
X203300500Y-68886535D01*
X203260130Y-68683580D01*
X203180941Y-68492402D01*
X203065977Y-68320345D01*
X202919655Y-68174023D01*
X202747598Y-68059059D01*
X202747596Y-68059058D01*
X202556421Y-67979870D01*
X202353466Y-67939500D01*
X202353465Y-67939500D01*
X202146535Y-67939500D01*
X202146534Y-67939500D01*
X201943578Y-67979870D01*
X201752403Y-68059058D01*
X201580345Y-68174023D01*
X201580342Y-68174025D01*
X201434025Y-68320342D01*
X201434023Y-68320345D01*
X201319058Y-68492403D01*
X201239870Y-68683578D01*
X201199500Y-68886534D01*
X197311505Y-68886534D01*
X195422467Y-66997496D01*
X195401308Y-66952122D01*
X195401141Y-66952145D01*
X195401071Y-66951613D01*
X195400785Y-66951000D01*
X195400683Y-66948668D01*
X195400500Y-66947280D01*
X195400500Y-66947273D01*
X195400498Y-66947265D01*
X195373208Y-66845416D01*
X195373206Y-66845411D01*
X195348562Y-66802727D01*
X195320480Y-66754087D01*
X195245913Y-66679520D01*
X195231158Y-66671001D01*
X195154588Y-66626793D01*
X195154583Y-66626791D01*
X195052734Y-66599501D01*
X195052728Y-66599500D01*
X195052727Y-66599500D01*
X194947273Y-66599500D01*
X194947271Y-66599500D01*
X194947265Y-66599501D01*
X194845416Y-66626791D01*
X194845411Y-66626793D01*
X194754086Y-66679520D01*
X194679520Y-66754086D01*
X194626793Y-66845411D01*
X194626791Y-66845416D01*
X194599501Y-66947265D01*
X194599500Y-66947275D01*
X194599500Y-67052724D01*
X194599501Y-67052734D01*
X194626791Y-67154583D01*
X194626793Y-67154588D01*
X194634564Y-67168047D01*
X194679520Y-67245913D01*
X194754087Y-67320480D01*
X194845413Y-67373207D01*
X194845414Y-67373207D01*
X194845416Y-67373208D01*
X194947265Y-67400498D01*
X194947266Y-67400498D01*
X194947273Y-67400500D01*
X194947280Y-67400500D01*
X194952145Y-67401141D01*
X194951874Y-67403197D01*
X194992672Y-67418047D01*
X194997496Y-67422467D01*
X199254533Y-71679504D01*
X199276215Y-71726000D01*
X199276500Y-71732537D01*
X199276500Y-80455818D01*
X199258953Y-80504027D01*
X199214524Y-80529679D01*
X199164000Y-80520770D01*
X199148467Y-80508851D01*
X197172467Y-78532851D01*
X197150785Y-78486355D01*
X197150500Y-78479818D01*
X197150500Y-78447275D01*
X197150498Y-78447265D01*
X197123208Y-78345416D01*
X197123206Y-78345411D01*
X197098562Y-78302727D01*
X197070480Y-78254087D01*
X196995913Y-78179520D01*
X196904588Y-78126793D01*
X196904583Y-78126791D01*
X196802734Y-78099501D01*
X196802728Y-78099500D01*
X196802727Y-78099500D01*
X196697273Y-78099500D01*
X196697271Y-78099500D01*
X196697265Y-78099501D01*
X196595416Y-78126791D01*
X196595411Y-78126793D01*
X196504086Y-78179520D01*
X196429520Y-78254086D01*
X196376793Y-78345411D01*
X196376792Y-78345414D01*
X196364830Y-78390056D01*
X196335403Y-78432081D01*
X196285848Y-78445359D01*
X196250402Y-78431575D01*
X196250170Y-78431978D01*
X196247558Y-78430470D01*
X196246735Y-78430150D01*
X196245917Y-78429522D01*
X196154588Y-78376793D01*
X196154583Y-78376791D01*
X196052734Y-78349501D01*
X196052728Y-78349500D01*
X196052727Y-78349500D01*
X195947273Y-78349500D01*
X195947271Y-78349500D01*
X195947265Y-78349501D01*
X195845416Y-78376791D01*
X195845411Y-78376793D01*
X195754086Y-78429520D01*
X195679520Y-78504086D01*
X195626793Y-78595411D01*
X195626791Y-78595416D01*
X195599501Y-78697265D01*
X195599500Y-78697275D01*
X195599500Y-78802724D01*
X195599501Y-78802732D01*
X195626792Y-78904584D01*
X195626794Y-78904590D01*
X195634155Y-78917339D01*
X195643063Y-78967863D01*
X195617412Y-79012293D01*
X195606709Y-79019787D01*
X195602156Y-79022415D01*
X195527585Y-79096986D01*
X195474858Y-79188311D01*
X195474856Y-79188316D01*
X195447566Y-79290165D01*
X195447565Y-79290175D01*
X195447565Y-79400543D01*
X195445217Y-79400543D01*
X195435974Y-79442159D01*
X195395261Y-79473375D01*
X195392150Y-79474282D01*
X195375762Y-79478673D01*
X195284437Y-79531400D01*
X195209871Y-79605966D01*
X195157144Y-79697291D01*
X195157142Y-79697296D01*
X195129852Y-79799145D01*
X195129851Y-79799155D01*
X195129851Y-79904604D01*
X195129852Y-79904612D01*
X195146295Y-79965977D01*
X195157144Y-80006467D01*
X195172136Y-80032434D01*
X195181045Y-80082956D01*
X195160217Y-80122966D01*
X195089428Y-80193755D01*
X195064387Y-80237128D01*
X195025086Y-80270105D01*
X194980024Y-80272072D01*
X194901267Y-80250969D01*
X194901260Y-80250968D01*
X194901259Y-80250968D01*
X194795805Y-80250968D01*
X194795803Y-80250968D01*
X194795797Y-80250969D01*
X194693948Y-80278259D01*
X194693943Y-80278261D01*
X194602618Y-80330988D01*
X194528052Y-80405554D01*
X194475325Y-80496879D01*
X194475323Y-80496884D01*
X194448033Y-80598733D01*
X194448032Y-80598743D01*
X194448032Y-80600234D01*
X194447724Y-80601078D01*
X194447391Y-80603613D01*
X194446829Y-80603539D01*
X194430485Y-80648443D01*
X194386056Y-80674095D01*
X194373032Y-80675234D01*
X194371539Y-80675234D01*
X194371537Y-80675234D01*
X194371531Y-80675235D01*
X194269682Y-80702525D01*
X194269677Y-80702527D01*
X194178352Y-80755254D01*
X194103786Y-80829820D01*
X194051059Y-80921145D01*
X194051057Y-80921150D01*
X194023767Y-81022999D01*
X194023766Y-81023009D01*
X194023766Y-81128463D01*
X194027058Y-81140746D01*
X194022588Y-81191854D01*
X193986312Y-81228131D01*
X193954614Y-81235159D01*
X193341733Y-81235159D01*
X193341731Y-81235159D01*
X193341727Y-81235160D01*
X193265307Y-81255637D01*
X193265304Y-81255638D01*
X193217668Y-81283140D01*
X193200234Y-81293207D01*
X193197681Y-81294681D01*
X193196782Y-81295200D01*
X192834493Y-81657489D01*
X192794932Y-81726010D01*
X192794931Y-81726013D01*
X192774454Y-81802433D01*
X192774453Y-81802441D01*
X192774453Y-81878088D01*
X192757330Y-81925129D01*
X192757466Y-81925233D01*
X192757137Y-81925661D01*
X192756906Y-81926297D01*
X192755328Y-81928018D01*
X192754474Y-81929131D01*
X192701746Y-82020458D01*
X192701744Y-82020463D01*
X192674454Y-82122312D01*
X192674453Y-82122322D01*
X192674453Y-82227771D01*
X192674454Y-82227781D01*
X192701744Y-82329630D01*
X192701746Y-82329635D01*
X192719441Y-82360283D01*
X192754473Y-82420960D01*
X192829040Y-82495527D01*
X192920366Y-82548254D01*
X192920367Y-82548254D01*
X192920369Y-82548255D01*
X193022218Y-82575545D01*
X193022220Y-82575545D01*
X193022226Y-82575547D01*
X193022228Y-82575547D01*
X193127678Y-82575547D01*
X193127680Y-82575547D01*
X193229540Y-82548254D01*
X193318671Y-82496793D01*
X193369194Y-82487885D01*
X193413624Y-82513537D01*
X193431171Y-82561746D01*
X193431171Y-94712735D01*
X193413624Y-94760944D01*
X193409204Y-94765768D01*
X193295134Y-94879838D01*
X193248638Y-94901520D01*
X193199083Y-94888241D01*
X193169657Y-94846216D01*
X193167101Y-94826805D01*
X193167101Y-83796959D01*
X193184223Y-83749917D01*
X193184088Y-83749814D01*
X193184416Y-83749385D01*
X193184648Y-83748750D01*
X193186225Y-83747028D01*
X193187079Y-83745915D01*
X193187081Y-83745913D01*
X193239808Y-83654587D01*
X193267101Y-83552727D01*
X193267101Y-83447273D01*
X193264391Y-83437159D01*
X193239809Y-83345416D01*
X193239807Y-83345411D01*
X193215163Y-83302727D01*
X193187081Y-83254087D01*
X193112514Y-83179520D01*
X193112479Y-83179500D01*
X193021189Y-83126793D01*
X193021184Y-83126791D01*
X192919335Y-83099501D01*
X192919329Y-83099500D01*
X192919328Y-83099500D01*
X192813874Y-83099500D01*
X192813872Y-83099500D01*
X192813866Y-83099501D01*
X192712017Y-83126791D01*
X192712012Y-83126793D01*
X192620687Y-83179520D01*
X192546120Y-83254087D01*
X192540451Y-83263907D01*
X192539178Y-83264974D01*
X192538821Y-83266599D01*
X192519668Y-83281345D01*
X192501151Y-83296883D01*
X192499488Y-83296883D01*
X192498171Y-83297897D01*
X192474030Y-83296883D01*
X192449848Y-83296883D01*
X192448573Y-83295813D01*
X192446913Y-83295744D01*
X192429064Y-83279442D01*
X192410548Y-83263905D01*
X192409869Y-83261912D01*
X192409032Y-83261147D01*
X192407536Y-83255057D01*
X192401158Y-83236318D01*
X192400500Y-83231383D01*
X192400500Y-83197273D01*
X192391447Y-83163487D01*
X192390806Y-83158679D01*
X192395336Y-83138082D01*
X192397174Y-83117072D01*
X192400837Y-83113074D01*
X192401827Y-83108574D01*
X192412468Y-83100380D01*
X192427646Y-83083817D01*
X192514242Y-83033821D01*
X192588809Y-82959254D01*
X192641536Y-82867928D01*
X192668829Y-82766068D01*
X192668829Y-82660614D01*
X192641536Y-82558754D01*
X192588809Y-82467428D01*
X192514242Y-82392861D01*
X192422917Y-82340134D01*
X192422912Y-82340132D01*
X192321063Y-82312842D01*
X192321057Y-82312841D01*
X192321056Y-82312841D01*
X192215602Y-82312841D01*
X192215600Y-82312841D01*
X192215594Y-82312842D01*
X192113745Y-82340132D01*
X192113740Y-82340134D01*
X192022415Y-82392861D01*
X191947849Y-82467427D01*
X191895122Y-82558752D01*
X191895120Y-82558757D01*
X191867830Y-82660606D01*
X191867829Y-82660616D01*
X191867829Y-82766071D01*
X191875624Y-82795163D01*
X191871151Y-82846271D01*
X191840681Y-82879524D01*
X191814002Y-82894928D01*
X191763478Y-82903838D01*
X191719048Y-82878187D01*
X191701500Y-82829979D01*
X191701500Y-79447275D01*
X192099500Y-79447275D01*
X192099500Y-79552724D01*
X192099501Y-79552734D01*
X192126791Y-79654583D01*
X192126793Y-79654588D01*
X192175886Y-79739619D01*
X192179520Y-79745913D01*
X192254087Y-79820480D01*
X192345413Y-79873207D01*
X192345414Y-79873207D01*
X192345416Y-79873208D01*
X192447265Y-79900498D01*
X192447267Y-79900498D01*
X192447273Y-79900500D01*
X192447275Y-79900500D01*
X192552725Y-79900500D01*
X192552727Y-79900500D01*
X192654587Y-79873207D01*
X192745913Y-79820480D01*
X192820480Y-79745913D01*
X192873207Y-79654587D01*
X192900500Y-79552727D01*
X192900500Y-79447273D01*
X192899130Y-79442159D01*
X192873208Y-79345416D01*
X192873206Y-79345411D01*
X192848562Y-79302727D01*
X192820480Y-79254087D01*
X192745913Y-79179520D01*
X192739051Y-79175558D01*
X192654588Y-79126793D01*
X192654583Y-79126791D01*
X192552734Y-79099501D01*
X192552728Y-79099500D01*
X192552727Y-79099500D01*
X192447273Y-79099500D01*
X192447271Y-79099500D01*
X192447265Y-79099501D01*
X192345416Y-79126791D01*
X192345411Y-79126793D01*
X192254086Y-79179520D01*
X192179520Y-79254086D01*
X192126793Y-79345411D01*
X192126791Y-79345416D01*
X192099501Y-79447265D01*
X192099500Y-79447275D01*
X191701500Y-79447275D01*
X191701500Y-78197275D01*
X192849500Y-78197275D01*
X192849500Y-78302724D01*
X192849501Y-78302734D01*
X192876791Y-78404583D01*
X192876793Y-78404588D01*
X192920530Y-78480342D01*
X192929520Y-78495913D01*
X193004087Y-78570480D01*
X193095413Y-78623207D01*
X193095414Y-78623207D01*
X193095416Y-78623208D01*
X193197265Y-78650498D01*
X193197267Y-78650498D01*
X193197273Y-78650500D01*
X193197275Y-78650500D01*
X193302725Y-78650500D01*
X193302727Y-78650500D01*
X193404587Y-78623207D01*
X193495913Y-78570480D01*
X193570480Y-78495913D01*
X193623207Y-78404587D01*
X193650500Y-78302727D01*
X193650500Y-78197273D01*
X193639726Y-78157063D01*
X193623208Y-78095416D01*
X193623206Y-78095411D01*
X193570479Y-78004086D01*
X193495913Y-77929520D01*
X193404588Y-77876793D01*
X193404583Y-77876791D01*
X193302734Y-77849501D01*
X193302728Y-77849500D01*
X193302727Y-77849500D01*
X193197273Y-77849500D01*
X193197271Y-77849500D01*
X193197265Y-77849501D01*
X193095416Y-77876791D01*
X193095411Y-77876793D01*
X193004086Y-77929520D01*
X192929520Y-78004086D01*
X192876793Y-78095411D01*
X192876791Y-78095416D01*
X192849501Y-78197265D01*
X192849500Y-78197275D01*
X191701500Y-78197275D01*
X191701500Y-76947275D01*
X192099500Y-76947275D01*
X192099500Y-77052724D01*
X192099501Y-77052734D01*
X192126791Y-77154583D01*
X192126793Y-77154588D01*
X192173656Y-77235757D01*
X192179520Y-77245913D01*
X192254087Y-77320480D01*
X192345413Y-77373207D01*
X192345414Y-77373207D01*
X192345416Y-77373208D01*
X192447265Y-77400498D01*
X192447267Y-77400498D01*
X192447273Y-77400500D01*
X192447275Y-77400500D01*
X192552725Y-77400500D01*
X192552727Y-77400500D01*
X192654587Y-77373207D01*
X192745913Y-77320480D01*
X192820480Y-77245913D01*
X192873207Y-77154587D01*
X192900500Y-77052727D01*
X192900500Y-76947273D01*
X192900498Y-76947265D01*
X192873208Y-76845416D01*
X192873206Y-76845411D01*
X192848562Y-76802727D01*
X192820480Y-76754087D01*
X192745913Y-76679520D01*
X192654588Y-76626793D01*
X192654583Y-76626791D01*
X192552734Y-76599501D01*
X192552728Y-76599500D01*
X192552727Y-76599500D01*
X192447273Y-76599500D01*
X192447271Y-76599500D01*
X192447265Y-76599501D01*
X192345416Y-76626791D01*
X192345411Y-76626793D01*
X192254086Y-76679520D01*
X192179520Y-76754086D01*
X192126793Y-76845411D01*
X192126791Y-76845416D01*
X192099501Y-76947265D01*
X192099500Y-76947275D01*
X191701500Y-76947275D01*
X191701500Y-75848743D01*
X194250968Y-75848743D01*
X194250968Y-75954192D01*
X194250969Y-75954202D01*
X194278259Y-76056051D01*
X194278261Y-76056056D01*
X194291982Y-76079821D01*
X194330988Y-76147381D01*
X194405555Y-76221948D01*
X194496881Y-76274675D01*
X194496882Y-76274675D01*
X194496884Y-76274676D01*
X194598733Y-76301966D01*
X194598735Y-76301966D01*
X194598741Y-76301968D01*
X194600234Y-76301968D01*
X194601078Y-76302275D01*
X194603613Y-76302609D01*
X194603539Y-76303170D01*
X194648443Y-76319515D01*
X194674095Y-76363944D01*
X194675234Y-76376968D01*
X194675234Y-76378458D01*
X194675235Y-76378468D01*
X194702525Y-76480317D01*
X194702527Y-76480322D01*
X194755254Y-76571647D01*
X194829821Y-76646214D01*
X194921147Y-76698941D01*
X194921148Y-76698941D01*
X194921150Y-76698942D01*
X195022999Y-76726232D01*
X195023001Y-76726232D01*
X195023007Y-76726234D01*
X195024500Y-76726234D01*
X195025344Y-76726541D01*
X195027879Y-76726875D01*
X195027805Y-76727436D01*
X195072709Y-76743781D01*
X195098361Y-76788210D01*
X195099500Y-76801234D01*
X195099500Y-76802724D01*
X195099501Y-76802734D01*
X195126791Y-76904583D01*
X195126793Y-76904588D01*
X195151439Y-76947275D01*
X195179520Y-76995913D01*
X195254087Y-77070480D01*
X195345413Y-77123207D01*
X195345414Y-77123207D01*
X195345416Y-77123208D01*
X195447265Y-77150498D01*
X195447267Y-77150498D01*
X195447273Y-77150500D01*
X195447275Y-77150500D01*
X195552725Y-77150500D01*
X195552727Y-77150500D01*
X195654587Y-77123207D01*
X195745913Y-77070480D01*
X195820480Y-76995913D01*
X195873207Y-76904587D01*
X195900500Y-76802727D01*
X195900500Y-76697273D01*
X195886819Y-76646213D01*
X195873208Y-76595416D01*
X195873206Y-76595411D01*
X195821893Y-76506535D01*
X195820480Y-76504087D01*
X195745913Y-76429520D01*
X195654588Y-76376793D01*
X195654583Y-76376791D01*
X195552734Y-76349501D01*
X195552728Y-76349500D01*
X195552727Y-76349500D01*
X195552725Y-76349500D01*
X195551234Y-76349500D01*
X195550389Y-76349192D01*
X195547855Y-76348859D01*
X195547928Y-76348297D01*
X195503025Y-76331953D01*
X195477373Y-76287524D01*
X195476234Y-76274500D01*
X195476234Y-76273009D01*
X195476232Y-76272999D01*
X195448942Y-76171150D01*
X195448940Y-76171145D01*
X195415025Y-76112403D01*
X195396214Y-76079821D01*
X195321647Y-76005254D01*
X195230322Y-75952527D01*
X195230317Y-75952525D01*
X195128468Y-75925235D01*
X195128462Y-75925234D01*
X195128461Y-75925234D01*
X195128459Y-75925234D01*
X195126968Y-75925234D01*
X195126123Y-75924926D01*
X195123589Y-75924593D01*
X195123662Y-75924031D01*
X195078759Y-75907687D01*
X195053107Y-75863258D01*
X195051968Y-75850234D01*
X195051968Y-75848743D01*
X195051966Y-75848733D01*
X195024676Y-75746884D01*
X195024674Y-75746879D01*
X194971947Y-75655554D01*
X194897381Y-75580988D01*
X194806056Y-75528261D01*
X194806051Y-75528259D01*
X194704202Y-75500969D01*
X194704196Y-75500968D01*
X194704195Y-75500968D01*
X194598741Y-75500968D01*
X194598739Y-75500968D01*
X194598733Y-75500969D01*
X194496884Y-75528259D01*
X194496879Y-75528261D01*
X194405554Y-75580988D01*
X194330988Y-75655554D01*
X194278261Y-75746879D01*
X194278259Y-75746884D01*
X194250969Y-75848733D01*
X194250968Y-75848743D01*
X191701500Y-75848743D01*
X191701500Y-73493014D01*
X191719047Y-73444805D01*
X191763476Y-73419153D01*
X191814000Y-73428062D01*
X191829115Y-73441322D01*
X191829934Y-73440504D01*
X191833410Y-73443980D01*
X191907977Y-73518547D01*
X191999303Y-73571274D01*
X191999304Y-73571274D01*
X191999306Y-73571275D01*
X192101155Y-73598565D01*
X192101157Y-73598565D01*
X192101163Y-73598567D01*
X192101165Y-73598567D01*
X192206615Y-73598567D01*
X192206617Y-73598567D01*
X192299777Y-73573605D01*
X192350885Y-73578076D01*
X192377025Y-73598299D01*
X192381009Y-73603125D01*
X192401165Y-73638035D01*
X192450860Y-73687730D01*
X192453133Y-73690483D01*
X192460590Y-73711492D01*
X192470012Y-73731696D01*
X192469147Y-73735597D01*
X192470295Y-73738831D01*
X192465698Y-73751153D01*
X192460249Y-73775732D01*
X192427598Y-73832286D01*
X192427594Y-73832295D01*
X192400304Y-73934144D01*
X192400303Y-73934154D01*
X192400303Y-74039603D01*
X192400304Y-74039613D01*
X192427594Y-74141462D01*
X192427596Y-74141467D01*
X192479726Y-74231758D01*
X192480323Y-74232792D01*
X192554890Y-74307359D01*
X192646216Y-74360086D01*
X192646217Y-74360086D01*
X192646219Y-74360087D01*
X192706872Y-74376339D01*
X192748897Y-74405765D01*
X192762461Y-74448783D01*
X192762461Y-74517981D01*
X192762462Y-74517991D01*
X192789752Y-74619840D01*
X192789754Y-74619845D01*
X192831782Y-74692639D01*
X192842481Y-74711170D01*
X192917048Y-74785737D01*
X193008374Y-74838464D01*
X193008375Y-74838464D01*
X193008377Y-74838465D01*
X193110226Y-74865755D01*
X193110228Y-74865755D01*
X193110234Y-74865757D01*
X193110236Y-74865757D01*
X193215686Y-74865757D01*
X193215688Y-74865757D01*
X193285560Y-74847035D01*
X193336668Y-74851506D01*
X193369923Y-74881978D01*
X193399729Y-74933602D01*
X193399730Y-74933603D01*
X193474297Y-75008170D01*
X193553717Y-75054023D01*
X193586694Y-75093324D01*
X193588662Y-75138384D01*
X193578510Y-75176276D01*
X193578509Y-75176284D01*
X193578509Y-75281733D01*
X193578510Y-75281743D01*
X193605800Y-75383592D01*
X193605802Y-75383597D01*
X193642561Y-75447265D01*
X193658529Y-75474922D01*
X193733096Y-75549489D01*
X193776418Y-75574501D01*
X193820358Y-75599870D01*
X193824422Y-75602216D01*
X193824423Y-75602216D01*
X193824425Y-75602217D01*
X193926274Y-75629507D01*
X193926276Y-75629507D01*
X193926282Y-75629509D01*
X193926284Y-75629509D01*
X194031734Y-75629509D01*
X194031736Y-75629509D01*
X194133596Y-75602216D01*
X194224922Y-75549489D01*
X194299489Y-75474922D01*
X194352216Y-75383596D01*
X194379509Y-75281736D01*
X194379509Y-75249190D01*
X194397056Y-75200981D01*
X194401477Y-75196156D01*
X194403492Y-75194141D01*
X194429768Y-75167866D01*
X194471710Y-75066608D01*
X194471710Y-74957008D01*
X194471710Y-72739135D01*
X195709111Y-72739135D01*
X195709111Y-72844584D01*
X195709112Y-72844594D01*
X195736402Y-72946443D01*
X195736404Y-72946448D01*
X195777166Y-73017049D01*
X195789131Y-73037773D01*
X195863698Y-73112340D01*
X195955024Y-73165067D01*
X195955025Y-73165067D01*
X195955027Y-73165068D01*
X196056876Y-73192358D01*
X196056878Y-73192358D01*
X196056884Y-73192360D01*
X196056886Y-73192360D01*
X196162336Y-73192360D01*
X196162338Y-73192360D01*
X196264198Y-73165067D01*
X196355524Y-73112340D01*
X196430091Y-73037773D01*
X196482818Y-72946447D01*
X196510111Y-72844587D01*
X196510111Y-72739133D01*
X196510109Y-72739125D01*
X196482819Y-72637276D01*
X196482817Y-72637271D01*
X196448456Y-72577757D01*
X196430091Y-72545947D01*
X196355524Y-72471380D01*
X196337443Y-72460941D01*
X196264199Y-72418653D01*
X196264194Y-72418651D01*
X196162345Y-72391361D01*
X196162339Y-72391360D01*
X196162338Y-72391360D01*
X196056884Y-72391360D01*
X196056882Y-72391360D01*
X196056876Y-72391361D01*
X195955027Y-72418651D01*
X195955022Y-72418653D01*
X195863697Y-72471380D01*
X195789131Y-72545946D01*
X195736404Y-72637271D01*
X195736402Y-72637276D01*
X195709112Y-72739125D01*
X195709111Y-72739135D01*
X194471710Y-72739135D01*
X194471710Y-67391410D01*
X194471710Y-67391409D01*
X194471709Y-67391406D01*
X194464171Y-67373208D01*
X194464170Y-67373207D01*
X194442330Y-67320480D01*
X194429768Y-67290152D01*
X193922467Y-66782851D01*
X193900785Y-66736355D01*
X193900500Y-66729818D01*
X193900500Y-66697275D01*
X193900498Y-66697265D01*
X193873208Y-66595416D01*
X193873206Y-66595411D01*
X193820479Y-66504086D01*
X193745913Y-66429520D01*
X193654588Y-66376793D01*
X193654583Y-66376791D01*
X193552734Y-66349501D01*
X193552728Y-66349500D01*
X193552727Y-66349500D01*
X193447273Y-66349500D01*
X193447271Y-66349500D01*
X193447265Y-66349501D01*
X193345416Y-66376791D01*
X193345411Y-66376793D01*
X193254086Y-66429520D01*
X193179520Y-66504086D01*
X193126793Y-66595411D01*
X193126791Y-66595416D01*
X193099501Y-66697265D01*
X193099500Y-66697275D01*
X193099500Y-66802724D01*
X193099501Y-66802734D01*
X193126791Y-66904583D01*
X193126793Y-66904588D01*
X193167751Y-66975529D01*
X193179520Y-66995913D01*
X193254087Y-67070480D01*
X193345413Y-67123207D01*
X193345414Y-67123207D01*
X193345416Y-67123208D01*
X193447265Y-67150498D01*
X193447267Y-67150498D01*
X193447273Y-67150500D01*
X193479819Y-67150500D01*
X193528028Y-67168047D01*
X193532852Y-67172467D01*
X193898743Y-67538358D01*
X193920425Y-67584854D01*
X193920710Y-67591391D01*
X193920710Y-74229043D01*
X193903163Y-74277252D01*
X193858734Y-74302904D01*
X193826299Y-74301488D01*
X193772937Y-74287190D01*
X193667483Y-74287190D01*
X193667481Y-74287190D01*
X193667474Y-74287191D01*
X193597608Y-74305912D01*
X193546500Y-74301441D01*
X193513246Y-74270967D01*
X193483441Y-74219344D01*
X193408874Y-74144777D01*
X193396358Y-74137551D01*
X193317549Y-74092050D01*
X193317546Y-74092049D01*
X193256891Y-74075796D01*
X193214866Y-74046370D01*
X193201303Y-74003352D01*
X193201303Y-73934154D01*
X193201301Y-73934144D01*
X193174011Y-73832295D01*
X193174009Y-73832290D01*
X193121282Y-73740965D01*
X193074117Y-73693800D01*
X193052435Y-73647304D01*
X193062198Y-73603267D01*
X193094852Y-73546709D01*
X193122145Y-73444849D01*
X193122145Y-73339395D01*
X193113576Y-73307413D01*
X193094853Y-73237538D01*
X193094851Y-73237533D01*
X193053013Y-73165068D01*
X193042125Y-73146209D01*
X192967558Y-73071642D01*
X192944127Y-73058114D01*
X192876233Y-73018915D01*
X192876228Y-73018913D01*
X192774379Y-72991623D01*
X192774373Y-72991622D01*
X192774372Y-72991622D01*
X192668918Y-72991622D01*
X192668917Y-72991622D01*
X192575756Y-73016584D01*
X192524648Y-73012112D01*
X192491393Y-72981639D01*
X192474369Y-72952153D01*
X192399803Y-72877587D01*
X192308478Y-72824860D01*
X192308473Y-72824858D01*
X192206624Y-72797568D01*
X192206618Y-72797567D01*
X192206617Y-72797567D01*
X192101163Y-72797567D01*
X192101161Y-72797567D01*
X192101157Y-72797568D01*
X192068215Y-72806394D01*
X192017108Y-72801921D01*
X191983854Y-72771449D01*
X191935657Y-72687970D01*
X191861091Y-72613404D01*
X191769766Y-72560677D01*
X191769761Y-72560675D01*
X191667912Y-72533385D01*
X191667906Y-72533384D01*
X191667905Y-72533384D01*
X191562451Y-72533384D01*
X191562449Y-72533384D01*
X191562443Y-72533385D01*
X191460594Y-72560675D01*
X191460585Y-72560679D01*
X191410360Y-72589676D01*
X191359836Y-72598584D01*
X191319828Y-72577757D01*
X191070874Y-72328803D01*
X191049192Y-72282307D01*
X191062471Y-72232752D01*
X191104496Y-72203326D01*
X191104496Y-72203325D01*
X191105325Y-72203103D01*
X191105330Y-72203103D01*
X191207190Y-72175810D01*
X191298516Y-72123083D01*
X191373083Y-72048516D01*
X191425810Y-71957190D01*
X191453103Y-71855330D01*
X191453103Y-71749876D01*
X191440133Y-71701471D01*
X191425811Y-71648019D01*
X191425808Y-71648012D01*
X191407097Y-71615604D01*
X191398187Y-71565080D01*
X191423838Y-71520650D01*
X191472047Y-71503103D01*
X192336957Y-71503103D01*
X192336959Y-71503103D01*
X192413386Y-71482624D01*
X192481908Y-71443063D01*
X192537857Y-71387114D01*
X193002504Y-70922467D01*
X193047877Y-70901308D01*
X193047855Y-70901141D01*
X193048386Y-70901071D01*
X193049000Y-70900785D01*
X193051331Y-70900683D01*
X193052719Y-70900500D01*
X193052727Y-70900500D01*
X193154587Y-70873207D01*
X193245913Y-70820480D01*
X193320480Y-70745913D01*
X193373207Y-70654587D01*
X193400500Y-70552727D01*
X193400500Y-70447273D01*
X193373207Y-70345413D01*
X193320480Y-70254087D01*
X193245913Y-70179520D01*
X193195649Y-70150500D01*
X193154588Y-70126793D01*
X193154583Y-70126791D01*
X193052734Y-70099501D01*
X193052728Y-70099500D01*
X193052727Y-70099500D01*
X192947273Y-70099500D01*
X192947271Y-70099500D01*
X192947265Y-70099501D01*
X192845416Y-70126791D01*
X192845411Y-70126793D01*
X192754086Y-70179520D01*
X192679520Y-70254086D01*
X192626793Y-70345411D01*
X192626791Y-70345416D01*
X192599501Y-70447265D01*
X192598859Y-70452145D01*
X192596802Y-70451874D01*
X192581953Y-70492672D01*
X192577533Y-70497496D01*
X192194893Y-70880136D01*
X192148397Y-70901818D01*
X192141860Y-70902103D01*
X189796959Y-70902103D01*
X189749917Y-70884980D01*
X189749814Y-70885116D01*
X189749385Y-70884787D01*
X189748750Y-70884556D01*
X189747028Y-70882978D01*
X189745915Y-70882124D01*
X189654588Y-70829396D01*
X189654583Y-70829394D01*
X189552734Y-70802104D01*
X189552728Y-70802103D01*
X189552727Y-70802103D01*
X189447273Y-70802103D01*
X189447271Y-70802103D01*
X189447265Y-70802104D01*
X189345416Y-70829394D01*
X189345411Y-70829396D01*
X189254086Y-70882123D01*
X189179520Y-70956689D01*
X189126793Y-71048014D01*
X189126791Y-71048019D01*
X189099501Y-71149868D01*
X189099500Y-71149878D01*
X189099500Y-71255327D01*
X189099501Y-71255337D01*
X189126791Y-71357186D01*
X189126793Y-71357191D01*
X189166829Y-71426534D01*
X189179520Y-71448516D01*
X189254087Y-71523083D01*
X189345413Y-71575810D01*
X189345414Y-71575810D01*
X189345416Y-71575811D01*
X189447265Y-71603101D01*
X189447267Y-71603101D01*
X189447273Y-71603103D01*
X189447275Y-71603103D01*
X189552725Y-71603103D01*
X189552727Y-71603103D01*
X189654587Y-71575810D01*
X189745913Y-71523083D01*
X189745915Y-71523081D01*
X189749814Y-71520090D01*
X189751076Y-71521735D01*
X189790422Y-71503388D01*
X189796959Y-71503103D01*
X190633158Y-71503103D01*
X190681367Y-71520650D01*
X190707019Y-71565079D01*
X190698110Y-71615603D01*
X190698109Y-71615604D01*
X190679397Y-71648012D01*
X190679394Y-71648019D01*
X190652104Y-71749868D01*
X190652103Y-71749878D01*
X190652103Y-71758365D01*
X190634556Y-71806574D01*
X190590127Y-71832226D01*
X190539603Y-71823317D01*
X190532090Y-71818979D01*
X190532087Y-71818978D01*
X190455667Y-71798501D01*
X190455664Y-71798500D01*
X190455662Y-71798500D01*
X189634541Y-71798500D01*
X189634539Y-71798500D01*
X189634535Y-71798501D01*
X189558115Y-71818978D01*
X189558112Y-71818979D01*
X189512329Y-71845413D01*
X189489591Y-71858540D01*
X188358540Y-72989591D01*
X188318979Y-73058112D01*
X188318978Y-73058115D01*
X188298501Y-73134535D01*
X188298500Y-73134543D01*
X188298500Y-74062551D01*
X188280953Y-74110760D01*
X188236524Y-74136412D01*
X188223500Y-74137551D01*
X188124421Y-74137551D01*
X188124419Y-74137551D01*
X188124413Y-74137552D01*
X188022564Y-74164842D01*
X188022559Y-74164844D01*
X187931234Y-74217571D01*
X187856668Y-74292137D01*
X187803941Y-74383462D01*
X187803939Y-74383467D01*
X187776649Y-74485316D01*
X187776648Y-74485326D01*
X187776648Y-74590775D01*
X187776649Y-74590785D01*
X187803939Y-74692634D01*
X187803941Y-74692639D01*
X187856669Y-74783966D01*
X187859661Y-74787865D01*
X187858015Y-74789127D01*
X187876363Y-74828473D01*
X187876648Y-74835010D01*
X187876648Y-75129189D01*
X187859101Y-75177398D01*
X187814672Y-75203050D01*
X187764148Y-75194141D01*
X187748615Y-75182222D01*
X187745913Y-75179520D01*
X187654588Y-75126793D01*
X187654583Y-75126791D01*
X187552734Y-75099501D01*
X187552728Y-75099500D01*
X187552727Y-75099500D01*
X187447273Y-75099500D01*
X187447271Y-75099500D01*
X187447265Y-75099501D01*
X187345416Y-75126791D01*
X187345411Y-75126793D01*
X187254086Y-75179520D01*
X187179520Y-75254086D01*
X187126793Y-75345411D01*
X187126791Y-75345416D01*
X187099501Y-75447265D01*
X187099500Y-75447275D01*
X187099500Y-75552724D01*
X187099501Y-75552734D01*
X187126791Y-75654583D01*
X187126793Y-75654588D01*
X187179520Y-75745913D01*
X187254087Y-75820480D01*
X187345413Y-75873207D01*
X187345414Y-75873207D01*
X187345416Y-75873208D01*
X187447265Y-75900498D01*
X187447267Y-75900498D01*
X187447273Y-75900500D01*
X187447275Y-75900500D01*
X187552725Y-75900500D01*
X187552727Y-75900500D01*
X187654587Y-75873207D01*
X187745913Y-75820480D01*
X187748615Y-75817778D01*
X187795111Y-75796096D01*
X187844666Y-75809375D01*
X187874092Y-75851400D01*
X187876648Y-75870811D01*
X187876648Y-80521061D01*
X187859101Y-80569270D01*
X187854681Y-80574094D01*
X187451867Y-80976907D01*
X187448757Y-80978356D01*
X187447043Y-80981327D01*
X187425834Y-80989046D01*
X187405371Y-80998589D01*
X187402056Y-80997700D01*
X187398834Y-80998874D01*
X187377621Y-80991153D01*
X187355816Y-80985310D01*
X187352937Y-80982168D01*
X187350625Y-80981327D01*
X187333882Y-80961374D01*
X187295576Y-80895026D01*
X187286667Y-80844502D01*
X187307494Y-80804494D01*
X187343278Y-80768711D01*
X187396005Y-80677385D01*
X187423298Y-80575525D01*
X187423298Y-80470071D01*
X187401710Y-80389501D01*
X187396006Y-80368214D01*
X187396004Y-80368209D01*
X187354294Y-80295965D01*
X187343278Y-80276885D01*
X187268711Y-80202318D01*
X187253881Y-80193756D01*
X187177386Y-80149591D01*
X187177381Y-80149589D01*
X187075532Y-80122299D01*
X187075526Y-80122298D01*
X187075525Y-80122298D01*
X187075523Y-80122298D01*
X187074032Y-80122298D01*
X187073187Y-80121990D01*
X187070653Y-80121657D01*
X187070726Y-80121095D01*
X187025823Y-80104751D01*
X187000171Y-80060322D01*
X186999032Y-80047298D01*
X186999032Y-80045807D01*
X186999030Y-80045797D01*
X186971740Y-79943948D01*
X186971738Y-79943943D01*
X186949027Y-79904607D01*
X186919012Y-79852619D01*
X186844445Y-79778052D01*
X186753120Y-79725325D01*
X186753115Y-79725323D01*
X186651266Y-79698033D01*
X186651260Y-79698032D01*
X186651259Y-79698032D01*
X186651257Y-79698032D01*
X186649766Y-79698032D01*
X186648921Y-79697724D01*
X186646387Y-79697391D01*
X186646460Y-79696829D01*
X186601557Y-79680485D01*
X186575905Y-79636056D01*
X186574766Y-79623032D01*
X186574766Y-79621541D01*
X186574764Y-79621531D01*
X186547474Y-79519682D01*
X186547472Y-79519677D01*
X186510223Y-79455160D01*
X186494746Y-79428353D01*
X186420179Y-79353786D01*
X186405320Y-79345207D01*
X186328854Y-79301059D01*
X186328849Y-79301057D01*
X186227000Y-79273767D01*
X186226994Y-79273766D01*
X186226993Y-79273766D01*
X186226991Y-79273766D01*
X186225500Y-79273766D01*
X186224655Y-79273458D01*
X186222121Y-79273125D01*
X186222194Y-79272563D01*
X186177291Y-79256219D01*
X186151639Y-79211790D01*
X186150500Y-79198766D01*
X186150500Y-79197275D01*
X186150498Y-79197265D01*
X186123208Y-79095416D01*
X186123206Y-79095411D01*
X186094987Y-79046534D01*
X186070480Y-79004087D01*
X185995913Y-78929520D01*
X185952733Y-78904590D01*
X185904588Y-78876793D01*
X185904583Y-78876791D01*
X185802734Y-78849501D01*
X185802728Y-78849500D01*
X185802727Y-78849500D01*
X185697273Y-78849500D01*
X185697271Y-78849500D01*
X185697265Y-78849501D01*
X185595416Y-78876791D01*
X185595411Y-78876793D01*
X185504086Y-78929520D01*
X185429520Y-79004086D01*
X185376793Y-79095411D01*
X185376791Y-79095416D01*
X185349501Y-79197265D01*
X185349500Y-79197275D01*
X179800500Y-79197275D01*
X179800500Y-79046535D01*
X179760130Y-78843580D01*
X179680941Y-78652402D01*
X179565977Y-78480345D01*
X179419655Y-78334023D01*
X179247598Y-78219059D01*
X179247596Y-78219058D01*
X179056421Y-78139870D01*
X178853466Y-78099500D01*
X178853465Y-78099500D01*
X178646535Y-78099500D01*
X178646534Y-78099500D01*
X178443578Y-78139870D01*
X178252403Y-78219058D01*
X178080345Y-78334023D01*
X178080342Y-78334025D01*
X177934025Y-78480342D01*
X177934023Y-78480345D01*
X177819058Y-78652403D01*
X177739870Y-78843578D01*
X177699500Y-79046534D01*
X177500500Y-79046534D01*
X177500500Y-76506534D01*
X177699500Y-76506534D01*
X177699500Y-76713465D01*
X177739870Y-76916421D01*
X177815705Y-77099501D01*
X177819059Y-77107598D01*
X177934023Y-77279655D01*
X178080345Y-77425977D01*
X178252402Y-77540941D01*
X178443580Y-77620130D01*
X178596139Y-77650475D01*
X178646534Y-77660500D01*
X178646535Y-77660500D01*
X178853466Y-77660500D01*
X178893836Y-77652469D01*
X179056420Y-77620130D01*
X179247598Y-77540941D01*
X179419655Y-77425977D01*
X179565977Y-77279655D01*
X179680941Y-77107598D01*
X179760130Y-76916420D01*
X179800500Y-76713465D01*
X179800500Y-76506535D01*
X179760130Y-76303580D01*
X179680941Y-76112402D01*
X179565977Y-75940345D01*
X179419655Y-75794023D01*
X179247598Y-75679059D01*
X179190855Y-75655555D01*
X179056421Y-75599870D01*
X178853466Y-75559500D01*
X178853465Y-75559500D01*
X178646535Y-75559500D01*
X178646534Y-75559500D01*
X178443578Y-75599870D01*
X178252403Y-75679058D01*
X178080345Y-75794023D01*
X178080342Y-75794025D01*
X177934025Y-75940342D01*
X177934023Y-75940345D01*
X177819058Y-76112403D01*
X177739870Y-76303578D01*
X177699500Y-76506534D01*
X177500500Y-76506534D01*
X177500500Y-73966534D01*
X177699500Y-73966534D01*
X177699500Y-74173465D01*
X177739870Y-74376421D01*
X177798507Y-74517981D01*
X177819059Y-74567598D01*
X177934023Y-74739655D01*
X178080345Y-74885977D01*
X178252402Y-75000941D01*
X178443580Y-75080130D01*
X178596139Y-75110475D01*
X178646534Y-75120500D01*
X178646535Y-75120500D01*
X178853466Y-75120500D01*
X178893836Y-75112469D01*
X179056420Y-75080130D01*
X179247598Y-75000941D01*
X179419655Y-74885977D01*
X179565977Y-74739655D01*
X179680941Y-74567598D01*
X179760130Y-74376420D01*
X179800500Y-74173465D01*
X179800500Y-73966535D01*
X179760130Y-73763580D01*
X179680941Y-73572402D01*
X179565977Y-73400345D01*
X179419655Y-73254023D01*
X179247598Y-73139059D01*
X179247596Y-73139058D01*
X179056421Y-73059870D01*
X178853466Y-73019500D01*
X178853465Y-73019500D01*
X178646535Y-73019500D01*
X178646534Y-73019500D01*
X178443578Y-73059870D01*
X178252403Y-73139058D01*
X178080345Y-73254023D01*
X178080342Y-73254025D01*
X177934025Y-73400342D01*
X177934023Y-73400345D01*
X177819058Y-73572403D01*
X177739870Y-73763578D01*
X177699500Y-73966534D01*
X177500500Y-73966534D01*
X177500500Y-71426534D01*
X177699500Y-71426534D01*
X177699500Y-71633465D01*
X177739870Y-71836421D01*
X177785784Y-71947265D01*
X177819059Y-72027598D01*
X177934023Y-72199655D01*
X178080345Y-72345977D01*
X178252402Y-72460941D01*
X178443580Y-72540130D01*
X178596139Y-72570475D01*
X178646534Y-72580500D01*
X178646535Y-72580500D01*
X178853466Y-72580500D01*
X178893836Y-72572469D01*
X179056420Y-72540130D01*
X179247598Y-72460941D01*
X179419655Y-72345977D01*
X179565977Y-72199655D01*
X179680941Y-72027598D01*
X179760130Y-71836420D01*
X179800500Y-71633465D01*
X179800500Y-71426535D01*
X179760130Y-71223580D01*
X179680941Y-71032402D01*
X179565977Y-70860345D01*
X179419655Y-70714023D01*
X179247598Y-70599059D01*
X179247596Y-70599058D01*
X179056421Y-70519870D01*
X178853466Y-70479500D01*
X178853465Y-70479500D01*
X178646535Y-70479500D01*
X178646534Y-70479500D01*
X178443578Y-70519870D01*
X178252403Y-70599058D01*
X178080345Y-70714023D01*
X178080342Y-70714025D01*
X177934025Y-70860342D01*
X177934023Y-70860345D01*
X177819058Y-71032403D01*
X177739870Y-71223578D01*
X177699500Y-71426534D01*
X177500500Y-71426534D01*
X177500500Y-68886534D01*
X177699500Y-68886534D01*
X177699500Y-69093465D01*
X177739870Y-69296421D01*
X177795002Y-69429520D01*
X177819059Y-69487598D01*
X177934023Y-69659655D01*
X178080345Y-69805977D01*
X178252402Y-69920941D01*
X178443580Y-70000130D01*
X178596139Y-70030475D01*
X178646534Y-70040500D01*
X178646535Y-70040500D01*
X178853466Y-70040500D01*
X178893836Y-70032469D01*
X179056420Y-70000130D01*
X179247598Y-69920941D01*
X179419655Y-69805977D01*
X179565977Y-69659655D01*
X179680941Y-69487598D01*
X179760130Y-69296420D01*
X179800500Y-69093465D01*
X179800500Y-68886535D01*
X179760130Y-68683580D01*
X179680941Y-68492402D01*
X179565977Y-68320345D01*
X179419655Y-68174023D01*
X179247598Y-68059059D01*
X179247596Y-68059058D01*
X179056421Y-67979870D01*
X178853466Y-67939500D01*
X178853465Y-67939500D01*
X178646535Y-67939500D01*
X178646534Y-67939500D01*
X178443578Y-67979870D01*
X178252403Y-68059058D01*
X178080345Y-68174023D01*
X178080342Y-68174025D01*
X177934025Y-68320342D01*
X177934023Y-68320345D01*
X177819058Y-68492403D01*
X177739870Y-68683578D01*
X177699500Y-68886534D01*
X177500500Y-68886534D01*
X177500500Y-66346534D01*
X177699500Y-66346534D01*
X177699500Y-66553465D01*
X177739870Y-66756421D01*
X177806350Y-66916916D01*
X177819059Y-66947598D01*
X177934023Y-67119655D01*
X178080345Y-67265977D01*
X178252402Y-67380941D01*
X178443580Y-67460130D01*
X178596139Y-67490475D01*
X178646534Y-67500500D01*
X178646535Y-67500500D01*
X178853466Y-67500500D01*
X178893836Y-67492469D01*
X179056420Y-67460130D01*
X179247598Y-67380941D01*
X179419655Y-67265977D01*
X179565977Y-67119655D01*
X179680941Y-66947598D01*
X179760130Y-66756420D01*
X179800500Y-66553465D01*
X179800500Y-66346535D01*
X179760130Y-66143580D01*
X179680941Y-65952402D01*
X179565977Y-65780345D01*
X179419655Y-65634023D01*
X179247598Y-65519059D01*
X179211453Y-65504087D01*
X179056421Y-65439870D01*
X178853466Y-65399500D01*
X178853465Y-65399500D01*
X178646535Y-65399500D01*
X178646534Y-65399500D01*
X178443578Y-65439870D01*
X178252403Y-65519058D01*
X178080345Y-65634023D01*
X178080342Y-65634025D01*
X177934025Y-65780342D01*
X177934023Y-65780345D01*
X177819058Y-65952403D01*
X177739870Y-66143578D01*
X177699500Y-66346534D01*
X177500500Y-66346534D01*
X177500500Y-63806534D01*
X177699500Y-63806534D01*
X177699500Y-64013465D01*
X177739870Y-64216421D01*
X177819058Y-64407596D01*
X177819059Y-64407598D01*
X177934023Y-64579655D01*
X178080345Y-64725977D01*
X178252402Y-64840941D01*
X178443580Y-64920130D01*
X178596139Y-64950475D01*
X178646534Y-64960500D01*
X178646535Y-64960500D01*
X178853466Y-64960500D01*
X178893836Y-64952469D01*
X179056420Y-64920130D01*
X179247598Y-64840941D01*
X179419655Y-64725977D01*
X179565977Y-64579655D01*
X179680941Y-64407598D01*
X179760130Y-64216420D01*
X179800500Y-64013465D01*
X179800500Y-63806535D01*
X179760130Y-63603580D01*
X179680941Y-63412402D01*
X179565977Y-63240345D01*
X179419655Y-63094023D01*
X179247598Y-62979059D01*
X179178521Y-62950446D01*
X179056421Y-62899870D01*
X178853466Y-62859500D01*
X178853465Y-62859500D01*
X178646535Y-62859500D01*
X178646534Y-62859500D01*
X178443578Y-62899870D01*
X178252403Y-62979058D01*
X178080345Y-63094023D01*
X178080342Y-63094025D01*
X177934025Y-63240342D01*
X177934023Y-63240345D01*
X177819058Y-63412403D01*
X177739870Y-63603578D01*
X177699500Y-63806534D01*
X177500500Y-63806534D01*
X177500500Y-52880251D01*
X177699500Y-52880251D01*
X177699500Y-54619748D01*
X177711132Y-54678230D01*
X177755447Y-54744551D01*
X177755448Y-54744552D01*
X177821769Y-54788867D01*
X177880251Y-54800500D01*
X177880252Y-54800500D01*
X179619749Y-54800500D01*
X179648989Y-54794683D01*
X179678231Y-54788867D01*
X179744552Y-54744552D01*
X179788867Y-54678231D01*
X179800500Y-54619748D01*
X179800941Y-54617531D01*
X179827556Y-54573672D01*
X179876136Y-54557181D01*
X179923951Y-54575775D01*
X179948627Y-54620754D01*
X179949500Y-54632163D01*
X179949500Y-56174119D01*
X179931953Y-56222328D01*
X179887524Y-56247980D01*
X179837000Y-56239071D01*
X179804023Y-56199771D01*
X179800941Y-56188751D01*
X179790276Y-56135135D01*
X179760130Y-55983580D01*
X179680941Y-55792402D01*
X179565977Y-55620345D01*
X179419655Y-55474023D01*
X179247598Y-55359059D01*
X179247596Y-55359058D01*
X179056421Y-55279870D01*
X178853466Y-55239500D01*
X178853465Y-55239500D01*
X178646535Y-55239500D01*
X178646534Y-55239500D01*
X178443578Y-55279870D01*
X178252403Y-55359058D01*
X178080345Y-55474023D01*
X178080342Y-55474025D01*
X177934025Y-55620342D01*
X177934023Y-55620345D01*
X177819058Y-55792403D01*
X177739870Y-55983578D01*
X177699500Y-56186534D01*
X177699500Y-56393465D01*
X177739870Y-56596421D01*
X177819058Y-56787596D01*
X177819059Y-56787598D01*
X177934023Y-56959655D01*
X178080345Y-57105977D01*
X178252402Y-57220941D01*
X178443580Y-57300130D01*
X178596139Y-57330475D01*
X178646534Y-57340500D01*
X178646535Y-57340500D01*
X178853466Y-57340500D01*
X178893836Y-57332469D01*
X179056420Y-57300130D01*
X179247598Y-57220941D01*
X179419655Y-57105977D01*
X179565977Y-56959655D01*
X179680941Y-56787598D01*
X179760130Y-56596420D01*
X179800500Y-56393465D01*
X179800941Y-56391248D01*
X179827556Y-56347389D01*
X179876136Y-56330898D01*
X179923951Y-56349492D01*
X179948627Y-56394471D01*
X179949500Y-56405880D01*
X179949500Y-58717821D01*
X179931953Y-58766030D01*
X179887524Y-58791682D01*
X179837000Y-58782773D01*
X179804023Y-58743473D01*
X179800992Y-58730143D01*
X179800719Y-58730198D01*
X179759649Y-58523724D01*
X179680498Y-58332639D01*
X179591976Y-58200155D01*
X179591975Y-58200155D01*
X179193670Y-58598460D01*
X179150099Y-58522993D01*
X179057007Y-58429901D01*
X178981537Y-58386328D01*
X179379843Y-57988023D01*
X179379843Y-57988022D01*
X179247363Y-57899502D01*
X179056275Y-57820350D01*
X178853417Y-57780000D01*
X178646583Y-57780000D01*
X178443724Y-57820350D01*
X178252640Y-57899501D01*
X178120155Y-57988023D01*
X178518461Y-58386329D01*
X178442993Y-58429901D01*
X178349901Y-58522993D01*
X178306329Y-58598461D01*
X177908023Y-58200155D01*
X177819501Y-58332640D01*
X177740350Y-58523724D01*
X177700000Y-58726583D01*
X177700000Y-58933416D01*
X177740350Y-59136275D01*
X177819502Y-59327363D01*
X177908022Y-59459843D01*
X177908023Y-59459843D01*
X178306328Y-59061537D01*
X178349901Y-59137007D01*
X178442993Y-59230099D01*
X178518460Y-59273670D01*
X178120155Y-59671975D01*
X178120155Y-59671976D01*
X178252639Y-59760498D01*
X178443724Y-59839649D01*
X178646583Y-59880000D01*
X178853417Y-59880000D01*
X179056275Y-59839649D01*
X179247356Y-59760500D01*
X179247361Y-59760498D01*
X179379843Y-59671976D01*
X179379843Y-59671975D01*
X178981538Y-59273670D01*
X179057007Y-59230099D01*
X179150099Y-59137007D01*
X179193670Y-59061538D01*
X179591975Y-59459843D01*
X179591976Y-59459843D01*
X179680498Y-59327361D01*
X179680500Y-59327356D01*
X179759649Y-59136275D01*
X179800719Y-58929802D01*
X179802138Y-58930084D01*
X179822044Y-58888574D01*
X179868772Y-58867397D01*
X179918181Y-58881211D01*
X179947150Y-58923552D01*
X179949500Y-58942178D01*
X179949500Y-59039559D01*
X179949501Y-59039567D01*
X179969978Y-59115987D01*
X179969979Y-59115990D01*
X180009540Y-59184511D01*
X184327533Y-63502504D01*
X184348691Y-63547877D01*
X184348859Y-63547855D01*
X184348928Y-63548386D01*
X184349215Y-63549000D01*
X184349316Y-63551331D01*
X184349501Y-63552734D01*
X184376791Y-63654583D01*
X184376793Y-63654588D01*
X184401439Y-63697275D01*
X184429520Y-63745913D01*
X184504087Y-63820480D01*
X184595413Y-63873207D01*
X184595414Y-63873207D01*
X184595416Y-63873208D01*
X184697265Y-63900498D01*
X184697266Y-63900498D01*
X184697273Y-63900500D01*
X184697280Y-63900500D01*
X184702145Y-63901141D01*
X184701874Y-63903197D01*
X184742672Y-63918047D01*
X184747496Y-63922467D01*
X185497496Y-64672467D01*
X185519178Y-64718963D01*
X185505899Y-64768518D01*
X185463874Y-64797944D01*
X185444463Y-64800500D01*
X182636537Y-64800500D01*
X182588328Y-64782953D01*
X182583504Y-64778533D01*
X180252246Y-62447275D01*
X182099500Y-62447275D01*
X182099500Y-62552724D01*
X182099501Y-62552734D01*
X182126791Y-62654583D01*
X182126793Y-62654588D01*
X182171385Y-62731823D01*
X182179520Y-62745913D01*
X182254087Y-62820480D01*
X182345413Y-62873207D01*
X182345414Y-62873207D01*
X182345416Y-62873208D01*
X182447265Y-62900498D01*
X182447267Y-62900498D01*
X182447273Y-62900500D01*
X182447275Y-62900500D01*
X182552725Y-62900500D01*
X182552727Y-62900500D01*
X182654587Y-62873207D01*
X182745913Y-62820480D01*
X182820480Y-62745913D01*
X182873207Y-62654587D01*
X182900500Y-62552727D01*
X182900500Y-62447273D01*
X182893326Y-62420500D01*
X182873208Y-62345416D01*
X182873206Y-62345411D01*
X182855828Y-62315312D01*
X182820480Y-62254087D01*
X182745913Y-62179520D01*
X182654588Y-62126793D01*
X182654583Y-62126791D01*
X182552734Y-62099501D01*
X182552728Y-62099500D01*
X182552727Y-62099500D01*
X182447273Y-62099500D01*
X182447271Y-62099500D01*
X182447265Y-62099501D01*
X182345416Y-62126791D01*
X182345411Y-62126793D01*
X182254086Y-62179520D01*
X182179520Y-62254086D01*
X182126793Y-62345411D01*
X182126791Y-62345416D01*
X182099501Y-62447265D01*
X182099500Y-62447275D01*
X180252246Y-62447275D01*
X179713924Y-61908953D01*
X179692242Y-61862457D01*
X179697665Y-61827222D01*
X179760130Y-61676420D01*
X179800500Y-61473465D01*
X179800500Y-61266535D01*
X179760130Y-61063580D01*
X179680941Y-60872402D01*
X179565977Y-60700345D01*
X179419655Y-60554023D01*
X179247598Y-60439059D01*
X179247596Y-60439058D01*
X179056421Y-60359870D01*
X178853466Y-60319500D01*
X178853465Y-60319500D01*
X178646535Y-60319500D01*
X178646534Y-60319500D01*
X178443578Y-60359870D01*
X178252403Y-60439058D01*
X178080345Y-60554023D01*
X178080342Y-60554025D01*
X177934025Y-60700342D01*
X177934023Y-60700345D01*
X177819058Y-60872403D01*
X177739870Y-61063578D01*
X177699500Y-61266534D01*
X177699500Y-61473465D01*
X177739870Y-61676421D01*
X177819058Y-61867596D01*
X177819059Y-61867598D01*
X177934023Y-62039655D01*
X178080345Y-62185977D01*
X178252402Y-62300941D01*
X178443580Y-62380130D01*
X178596139Y-62410475D01*
X178646534Y-62420500D01*
X178646535Y-62420500D01*
X178853466Y-62420500D01*
X178882346Y-62414755D01*
X179056420Y-62380130D01*
X179207220Y-62317665D01*
X179258473Y-62315428D01*
X179288953Y-62333924D01*
X182158533Y-65203504D01*
X182180215Y-65250000D01*
X182180500Y-65256537D01*
X182180500Y-76770559D01*
X182180501Y-76770567D01*
X182200978Y-76846987D01*
X182200979Y-76846989D01*
X182223091Y-76885288D01*
X182240540Y-76915511D01*
X182827533Y-77502504D01*
X182848691Y-77547877D01*
X182848859Y-77547855D01*
X182848928Y-77548386D01*
X182849215Y-77549000D01*
X182849316Y-77551331D01*
X182849501Y-77552734D01*
X182876791Y-77654583D01*
X182876793Y-77654588D01*
X182901439Y-77697275D01*
X182929520Y-77745913D01*
X183004087Y-77820480D01*
X183063666Y-77854878D01*
X183094775Y-77872839D01*
X183095413Y-77873207D01*
X183095414Y-77873207D01*
X183095416Y-77873208D01*
X183197265Y-77900498D01*
X183197267Y-77900498D01*
X183197273Y-77900500D01*
X183197275Y-77900500D01*
X183302725Y-77900500D01*
X183302727Y-77900500D01*
X183404587Y-77873207D01*
X183495913Y-77820480D01*
X183570480Y-77745913D01*
X183623207Y-77654587D01*
X183650500Y-77552727D01*
X183650500Y-77447273D01*
X183649474Y-77443443D01*
X183649474Y-77443442D01*
X183649473Y-77443440D01*
X183645589Y-77428946D01*
X184812841Y-77428946D01*
X184812841Y-77534395D01*
X184812842Y-77534405D01*
X184840132Y-77636254D01*
X184840134Y-77636259D01*
X184854130Y-77660500D01*
X184892861Y-77727584D01*
X184967428Y-77802151D01*
X185058754Y-77854878D01*
X185058755Y-77854878D01*
X185058757Y-77854879D01*
X185160606Y-77882169D01*
X185160608Y-77882169D01*
X185160614Y-77882171D01*
X185160616Y-77882171D01*
X185266066Y-77882171D01*
X185266068Y-77882171D01*
X185295161Y-77874375D01*
X185346267Y-77878845D01*
X185379525Y-77909319D01*
X185429520Y-77995913D01*
X185504087Y-78070480D01*
X185595413Y-78123207D01*
X185595414Y-78123207D01*
X185595416Y-78123208D01*
X185697265Y-78150498D01*
X185697267Y-78150498D01*
X185697273Y-78150500D01*
X185697275Y-78150500D01*
X185802725Y-78150500D01*
X185802727Y-78150500D01*
X185904587Y-78123207D01*
X185995913Y-78070480D01*
X186070480Y-77995913D01*
X186123207Y-77904587D01*
X186150500Y-77802727D01*
X186150500Y-77697273D01*
X186139063Y-77654588D01*
X186123208Y-77595416D01*
X186123206Y-77595411D01*
X186098562Y-77552727D01*
X186070480Y-77504087D01*
X185995913Y-77429520D01*
X185961610Y-77409715D01*
X185904588Y-77376793D01*
X185904583Y-77376791D01*
X185802734Y-77349501D01*
X185802728Y-77349500D01*
X185802727Y-77349500D01*
X185697273Y-77349500D01*
X185697271Y-77349500D01*
X185697265Y-77349501D01*
X185668174Y-77357295D01*
X185617067Y-77352822D01*
X185583815Y-77322351D01*
X185533821Y-77235758D01*
X185459254Y-77161191D01*
X185399675Y-77126793D01*
X185367929Y-77108464D01*
X185367924Y-77108462D01*
X185266075Y-77081172D01*
X185266069Y-77081171D01*
X185266068Y-77081171D01*
X185160614Y-77081171D01*
X185160612Y-77081171D01*
X185160606Y-77081172D01*
X185058757Y-77108462D01*
X185058752Y-77108464D01*
X184967427Y-77161191D01*
X184892861Y-77235757D01*
X184840134Y-77327082D01*
X184840132Y-77327087D01*
X184812842Y-77428936D01*
X184812841Y-77428946D01*
X183645589Y-77428946D01*
X183623207Y-77345413D01*
X183570480Y-77254087D01*
X183495913Y-77179520D01*
X183404588Y-77126793D01*
X183404583Y-77126791D01*
X183302734Y-77099501D01*
X183302727Y-77099500D01*
X183302726Y-77099500D01*
X183297855Y-77098859D01*
X183298125Y-77096802D01*
X183257328Y-77081953D01*
X183252504Y-77077533D01*
X182803467Y-76628496D01*
X182781785Y-76582000D01*
X182781500Y-76575463D01*
X182781500Y-75922275D01*
X186138624Y-75922275D01*
X186138624Y-76027724D01*
X186138625Y-76027734D01*
X186165915Y-76129583D01*
X186165917Y-76129588D01*
X186189913Y-76171150D01*
X186218644Y-76220913D01*
X186293211Y-76295480D01*
X186384537Y-76348207D01*
X186384538Y-76348207D01*
X186384540Y-76348208D01*
X186486389Y-76375498D01*
X186486391Y-76375498D01*
X186486397Y-76375500D01*
X186486399Y-76375500D01*
X186591849Y-76375500D01*
X186591851Y-76375500D01*
X186693711Y-76348207D01*
X186785037Y-76295480D01*
X186859604Y-76220913D01*
X186912331Y-76129587D01*
X186939624Y-76027727D01*
X186939624Y-75922273D01*
X186933790Y-75900500D01*
X186912332Y-75820416D01*
X186912330Y-75820411D01*
X186859603Y-75729086D01*
X186785037Y-75654520D01*
X186693712Y-75601793D01*
X186693707Y-75601791D01*
X186591858Y-75574501D01*
X186591852Y-75574500D01*
X186591851Y-75574500D01*
X186486397Y-75574500D01*
X186486395Y-75574500D01*
X186486389Y-75574501D01*
X186384540Y-75601791D01*
X186384535Y-75601793D01*
X186293210Y-75654520D01*
X186218644Y-75729086D01*
X186165917Y-75820411D01*
X186165915Y-75820416D01*
X186138625Y-75922265D01*
X186138624Y-75922275D01*
X182781500Y-75922275D01*
X182781500Y-69697275D01*
X184349500Y-69697275D01*
X184349500Y-69802724D01*
X184349501Y-69802734D01*
X184376791Y-69904583D01*
X184376793Y-69904588D01*
X184429520Y-69995913D01*
X184504087Y-70070480D01*
X184595413Y-70123207D01*
X184595414Y-70123207D01*
X184595416Y-70123208D01*
X184697265Y-70150498D01*
X184697267Y-70150498D01*
X184697273Y-70150500D01*
X184697275Y-70150500D01*
X184802725Y-70150500D01*
X184802727Y-70150500D01*
X184904587Y-70123207D01*
X184995913Y-70070480D01*
X185070480Y-69995913D01*
X185123207Y-69904587D01*
X185150500Y-69802727D01*
X185150500Y-69697275D01*
X190349500Y-69697275D01*
X190349500Y-69802724D01*
X190349501Y-69802734D01*
X190376791Y-69904583D01*
X190376793Y-69904588D01*
X190429520Y-69995913D01*
X190504087Y-70070480D01*
X190595413Y-70123207D01*
X190595414Y-70123207D01*
X190595416Y-70123208D01*
X190697265Y-70150498D01*
X190697267Y-70150498D01*
X190697273Y-70150500D01*
X190697275Y-70150500D01*
X190802725Y-70150500D01*
X190802727Y-70150500D01*
X190904587Y-70123207D01*
X190995913Y-70070480D01*
X191070480Y-69995913D01*
X191123207Y-69904587D01*
X191150500Y-69802727D01*
X191150500Y-69697273D01*
X191140421Y-69659657D01*
X191123208Y-69595416D01*
X191123206Y-69595411D01*
X191070479Y-69504086D01*
X190995913Y-69429520D01*
X190904588Y-69376793D01*
X190904583Y-69376791D01*
X190802734Y-69349501D01*
X190802728Y-69349500D01*
X190802727Y-69349500D01*
X190697273Y-69349500D01*
X190697271Y-69349500D01*
X190697265Y-69349501D01*
X190595416Y-69376791D01*
X190595411Y-69376793D01*
X190504086Y-69429520D01*
X190429520Y-69504086D01*
X190376793Y-69595411D01*
X190376791Y-69595416D01*
X190349501Y-69697265D01*
X190349500Y-69697275D01*
X185150500Y-69697275D01*
X185150500Y-69697273D01*
X185140421Y-69659657D01*
X185123208Y-69595416D01*
X185123206Y-69595411D01*
X185070479Y-69504086D01*
X184995913Y-69429520D01*
X184904588Y-69376793D01*
X184904583Y-69376791D01*
X184802734Y-69349501D01*
X184802728Y-69349500D01*
X184802727Y-69349500D01*
X184697273Y-69349500D01*
X184697271Y-69349500D01*
X184697265Y-69349501D01*
X184595416Y-69376791D01*
X184595411Y-69376793D01*
X184504086Y-69429520D01*
X184429520Y-69504086D01*
X184376793Y-69595411D01*
X184376791Y-69595416D01*
X184349501Y-69697265D01*
X184349500Y-69697275D01*
X182781500Y-69697275D01*
X182781500Y-68447275D01*
X183099500Y-68447275D01*
X183099500Y-68552724D01*
X183099501Y-68552734D01*
X183126791Y-68654583D01*
X183126793Y-68654588D01*
X183143531Y-68683578D01*
X183179520Y-68745913D01*
X183254087Y-68820480D01*
X183345413Y-68873207D01*
X183345414Y-68873207D01*
X183345416Y-68873208D01*
X183447265Y-68900498D01*
X183447267Y-68900498D01*
X183447273Y-68900500D01*
X183447275Y-68900500D01*
X183552725Y-68900500D01*
X183552727Y-68900500D01*
X183654587Y-68873207D01*
X183745913Y-68820480D01*
X183820480Y-68745913D01*
X183873207Y-68654587D01*
X183900500Y-68552727D01*
X183900500Y-68447273D01*
X183873207Y-68345413D01*
X183820480Y-68254087D01*
X183745913Y-68179520D01*
X183736392Y-68174023D01*
X183654588Y-68126793D01*
X183654583Y-68126791D01*
X183552734Y-68099501D01*
X183552728Y-68099500D01*
X183552727Y-68099500D01*
X183447273Y-68099500D01*
X183447271Y-68099500D01*
X183447265Y-68099501D01*
X183345416Y-68126791D01*
X183345411Y-68126793D01*
X183254086Y-68179520D01*
X183179520Y-68254086D01*
X183126793Y-68345411D01*
X183126791Y-68345416D01*
X183099501Y-68447265D01*
X183099500Y-68447275D01*
X182781500Y-68447275D01*
X182781500Y-66463693D01*
X186919500Y-66463693D01*
X186919500Y-66569142D01*
X186919501Y-66569152D01*
X186946791Y-66671001D01*
X186946793Y-66671006D01*
X186984523Y-66736355D01*
X186999520Y-66762331D01*
X187074087Y-66836898D01*
X187165413Y-66889625D01*
X187165414Y-66889625D01*
X187165416Y-66889626D01*
X187267265Y-66916916D01*
X187267267Y-66916916D01*
X187267273Y-66916918D01*
X187267275Y-66916918D01*
X187372725Y-66916918D01*
X187372727Y-66916918D01*
X187474587Y-66889625D01*
X187565913Y-66836898D01*
X187640480Y-66762331D01*
X187693207Y-66671005D01*
X187720500Y-66569145D01*
X187720500Y-66463691D01*
X187697216Y-66376793D01*
X187693208Y-66361834D01*
X187693206Y-66361829D01*
X187640479Y-66270504D01*
X187565913Y-66195938D01*
X187474588Y-66143211D01*
X187474583Y-66143209D01*
X187372734Y-66115919D01*
X187372728Y-66115918D01*
X187372727Y-66115918D01*
X187267273Y-66115918D01*
X187267271Y-66115918D01*
X187267265Y-66115919D01*
X187165416Y-66143209D01*
X187165411Y-66143211D01*
X187074086Y-66195938D01*
X186999520Y-66270504D01*
X186946793Y-66361829D01*
X186946791Y-66361834D01*
X186919501Y-66463683D01*
X186919500Y-66463693D01*
X182781500Y-66463693D01*
X182781500Y-65476500D01*
X182799047Y-65428291D01*
X182843476Y-65402639D01*
X182856500Y-65401500D01*
X185358845Y-65401500D01*
X185407054Y-65419047D01*
X185432706Y-65463476D01*
X185423797Y-65514000D01*
X185376793Y-65595411D01*
X185376791Y-65595416D01*
X185349501Y-65697265D01*
X185349500Y-65697275D01*
X185349500Y-65802724D01*
X185349501Y-65802734D01*
X185376791Y-65904583D01*
X185376793Y-65904588D01*
X185429520Y-65995913D01*
X185504087Y-66070480D01*
X185595413Y-66123207D01*
X185595414Y-66123207D01*
X185595416Y-66123208D01*
X185697265Y-66150498D01*
X185697267Y-66150498D01*
X185697273Y-66150500D01*
X185697275Y-66150500D01*
X185802725Y-66150500D01*
X185802727Y-66150500D01*
X185904587Y-66123207D01*
X185995913Y-66070480D01*
X186070480Y-65995913D01*
X186098561Y-65947275D01*
X195599500Y-65947275D01*
X195599500Y-66052724D01*
X195599501Y-66052734D01*
X195626791Y-66154583D01*
X195626793Y-66154588D01*
X195650667Y-66195938D01*
X195679520Y-66245913D01*
X195754087Y-66320480D01*
X195845413Y-66373207D01*
X195845414Y-66373207D01*
X195845416Y-66373208D01*
X195947265Y-66400498D01*
X195947267Y-66400498D01*
X195947273Y-66400500D01*
X195947275Y-66400500D01*
X196052725Y-66400500D01*
X196052727Y-66400500D01*
X196154587Y-66373207D01*
X196200786Y-66346534D01*
X201199500Y-66346534D01*
X201199500Y-66553465D01*
X201239870Y-66756421D01*
X201306350Y-66916916D01*
X201319059Y-66947598D01*
X201434023Y-67119655D01*
X201580345Y-67265977D01*
X201752402Y-67380941D01*
X201943580Y-67460130D01*
X202096139Y-67490475D01*
X202146534Y-67500500D01*
X202146535Y-67500500D01*
X202353466Y-67500500D01*
X202393836Y-67492469D01*
X202556420Y-67460130D01*
X202747598Y-67380941D01*
X202919655Y-67265977D01*
X203065977Y-67119655D01*
X203180941Y-66947598D01*
X203260130Y-66756420D01*
X203300500Y-66553465D01*
X203300500Y-66346535D01*
X203260130Y-66143580D01*
X203180941Y-65952402D01*
X203065977Y-65780345D01*
X202919655Y-65634023D01*
X202747598Y-65519059D01*
X202711453Y-65504087D01*
X202556421Y-65439870D01*
X202353466Y-65399500D01*
X202353465Y-65399500D01*
X202146535Y-65399500D01*
X202146534Y-65399500D01*
X201943578Y-65439870D01*
X201752403Y-65519058D01*
X201580345Y-65634023D01*
X201580342Y-65634025D01*
X201434025Y-65780342D01*
X201434023Y-65780345D01*
X201319058Y-65952403D01*
X201239870Y-66143578D01*
X201199500Y-66346534D01*
X196200786Y-66346534D01*
X196245913Y-66320480D01*
X196320480Y-66245913D01*
X196373207Y-66154587D01*
X196400500Y-66052727D01*
X196400500Y-65947273D01*
X196389063Y-65904588D01*
X196373208Y-65845416D01*
X196373206Y-65845411D01*
X196348562Y-65802727D01*
X196320480Y-65754087D01*
X196245913Y-65679520D01*
X196154588Y-65626793D01*
X196154583Y-65626791D01*
X196052734Y-65599501D01*
X196052728Y-65599500D01*
X196052727Y-65599500D01*
X195947273Y-65599500D01*
X195947271Y-65599500D01*
X195947265Y-65599501D01*
X195845416Y-65626791D01*
X195845411Y-65626793D01*
X195754086Y-65679520D01*
X195679520Y-65754086D01*
X195626793Y-65845411D01*
X195626791Y-65845416D01*
X195599501Y-65947265D01*
X195599500Y-65947275D01*
X186098561Y-65947275D01*
X186123207Y-65904587D01*
X186150500Y-65802727D01*
X186150500Y-65697273D01*
X186133553Y-65634025D01*
X186123208Y-65595416D01*
X186123206Y-65595411D01*
X186076203Y-65514000D01*
X186067294Y-65463477D01*
X186092946Y-65419047D01*
X186141155Y-65401500D01*
X195538503Y-65401500D01*
X195538505Y-65401500D01*
X195614932Y-65381021D01*
X195683454Y-65341460D01*
X195739403Y-65285511D01*
X197327639Y-63697275D01*
X198099500Y-63697275D01*
X198099500Y-63802724D01*
X198099501Y-63802734D01*
X198126791Y-63904583D01*
X198126793Y-63904588D01*
X198134564Y-63918047D01*
X198179520Y-63995913D01*
X198254087Y-64070480D01*
X198345413Y-64123207D01*
X198345414Y-64123207D01*
X198345416Y-64123208D01*
X198447265Y-64150498D01*
X198447267Y-64150498D01*
X198447273Y-64150500D01*
X198447275Y-64150500D01*
X198552725Y-64150500D01*
X198552727Y-64150500D01*
X198654587Y-64123207D01*
X198745913Y-64070480D01*
X198820480Y-63995913D01*
X198873207Y-63904587D01*
X198899480Y-63806534D01*
X201199500Y-63806534D01*
X201199500Y-64013465D01*
X201239870Y-64216421D01*
X201319058Y-64407596D01*
X201319059Y-64407598D01*
X201434023Y-64579655D01*
X201580345Y-64725977D01*
X201752402Y-64840941D01*
X201943580Y-64920130D01*
X202096139Y-64950475D01*
X202146534Y-64960500D01*
X202146535Y-64960500D01*
X202353466Y-64960500D01*
X202393836Y-64952469D01*
X202556420Y-64920130D01*
X202747598Y-64840941D01*
X202919655Y-64725977D01*
X203065977Y-64579655D01*
X203180941Y-64407598D01*
X203260130Y-64216420D01*
X203300500Y-64013465D01*
X203300500Y-63806535D01*
X203260130Y-63603580D01*
X203180941Y-63412402D01*
X203065977Y-63240345D01*
X202919655Y-63094023D01*
X202747598Y-62979059D01*
X202678521Y-62950446D01*
X202556421Y-62899870D01*
X202353466Y-62859500D01*
X202353465Y-62859500D01*
X202146535Y-62859500D01*
X202146534Y-62859500D01*
X201943578Y-62899870D01*
X201752403Y-62979058D01*
X201580345Y-63094023D01*
X201580342Y-63094025D01*
X201434025Y-63240342D01*
X201434023Y-63240345D01*
X201319058Y-63412403D01*
X201239870Y-63603578D01*
X201199500Y-63806534D01*
X198899480Y-63806534D01*
X198900500Y-63802727D01*
X198900500Y-63697273D01*
X198889063Y-63654588D01*
X198873208Y-63595416D01*
X198873206Y-63595411D01*
X198847756Y-63551331D01*
X198820480Y-63504087D01*
X198745913Y-63429520D01*
X198654588Y-63376793D01*
X198654583Y-63376791D01*
X198552734Y-63349501D01*
X198552728Y-63349500D01*
X198552727Y-63349500D01*
X198447273Y-63349500D01*
X198447271Y-63349500D01*
X198447265Y-63349501D01*
X198345416Y-63376791D01*
X198345411Y-63376793D01*
X198254086Y-63429520D01*
X198179520Y-63504086D01*
X198126793Y-63595411D01*
X198126791Y-63595416D01*
X198099501Y-63697265D01*
X198099500Y-63697275D01*
X197327639Y-63697275D01*
X198490460Y-62534454D01*
X198530021Y-62465932D01*
X198550500Y-62389505D01*
X198550500Y-61266534D01*
X201199500Y-61266534D01*
X201199500Y-61473465D01*
X201239870Y-61676421D01*
X201319058Y-61867596D01*
X201319059Y-61867598D01*
X201434023Y-62039655D01*
X201580345Y-62185977D01*
X201752402Y-62300941D01*
X201943580Y-62380130D01*
X202096139Y-62410475D01*
X202146534Y-62420500D01*
X202146535Y-62420500D01*
X202353466Y-62420500D01*
X202393836Y-62412469D01*
X202556420Y-62380130D01*
X202747598Y-62300941D01*
X202919655Y-62185977D01*
X203065977Y-62039655D01*
X203180941Y-61867598D01*
X203260130Y-61676420D01*
X203300500Y-61473465D01*
X203300500Y-61266535D01*
X203260130Y-61063580D01*
X203180941Y-60872402D01*
X203065977Y-60700345D01*
X202919655Y-60554023D01*
X202747598Y-60439059D01*
X202747596Y-60439058D01*
X202556421Y-60359870D01*
X202353466Y-60319500D01*
X202353465Y-60319500D01*
X202146535Y-60319500D01*
X202146534Y-60319500D01*
X201943578Y-60359870D01*
X201752403Y-60439058D01*
X201580345Y-60554023D01*
X201580342Y-60554025D01*
X201434025Y-60700342D01*
X201434023Y-60700345D01*
X201319058Y-60872403D01*
X201239870Y-61063578D01*
X201199500Y-61266534D01*
X198550500Y-61266534D01*
X198550500Y-59796959D01*
X198567622Y-59749917D01*
X198567487Y-59749814D01*
X198567815Y-59749385D01*
X198568047Y-59748750D01*
X198569624Y-59747028D01*
X198570478Y-59745915D01*
X198570480Y-59745913D01*
X198623207Y-59654587D01*
X198650500Y-59552727D01*
X198650500Y-59447273D01*
X198639063Y-59404588D01*
X198623208Y-59345416D01*
X198623206Y-59345411D01*
X198598562Y-59302727D01*
X198570480Y-59254087D01*
X198495913Y-59179520D01*
X198404588Y-59126793D01*
X198404583Y-59126791D01*
X198302734Y-59099501D01*
X198302728Y-59099500D01*
X198302727Y-59099500D01*
X198197273Y-59099500D01*
X198197271Y-59099500D01*
X198197265Y-59099501D01*
X198095416Y-59126791D01*
X198095411Y-59126793D01*
X198004086Y-59179520D01*
X197929520Y-59254086D01*
X197876793Y-59345411D01*
X197876791Y-59345416D01*
X197849501Y-59447265D01*
X197849500Y-59447275D01*
X197849500Y-59552724D01*
X197849501Y-59552734D01*
X197876791Y-59654583D01*
X197876793Y-59654588D01*
X197929521Y-59745915D01*
X197932513Y-59749814D01*
X197930867Y-59751076D01*
X197949215Y-59790422D01*
X197949500Y-59796959D01*
X197949500Y-62194406D01*
X197931953Y-62242615D01*
X197927533Y-62247439D01*
X195758670Y-64416301D01*
X195712174Y-64437983D01*
X195662619Y-64424704D01*
X195633193Y-64382680D01*
X195623207Y-64345414D01*
X195623206Y-64345411D01*
X195570479Y-64254086D01*
X195495913Y-64179520D01*
X195404588Y-64126793D01*
X195404583Y-64126791D01*
X195302734Y-64099501D01*
X195302728Y-64099500D01*
X195302727Y-64099500D01*
X195197273Y-64099500D01*
X195197271Y-64099500D01*
X195197265Y-64099501D01*
X195095416Y-64126791D01*
X195095411Y-64126793D01*
X195004084Y-64179521D01*
X195000186Y-64182513D01*
X194998923Y-64180867D01*
X194959578Y-64199215D01*
X194953041Y-64199500D01*
X193547959Y-64199500D01*
X193499750Y-64181953D01*
X193474098Y-64137524D01*
X193483007Y-64087000D01*
X193494926Y-64071467D01*
X193495914Y-64070479D01*
X193570480Y-63995913D01*
X193623207Y-63904587D01*
X193650500Y-63802727D01*
X193650500Y-63697273D01*
X193639063Y-63654588D01*
X193623208Y-63595416D01*
X193623206Y-63595411D01*
X193597756Y-63551331D01*
X193570480Y-63504087D01*
X193495913Y-63429520D01*
X193404588Y-63376793D01*
X193404583Y-63376791D01*
X193302734Y-63349501D01*
X193302728Y-63349500D01*
X193302727Y-63349500D01*
X193197273Y-63349500D01*
X193197271Y-63349500D01*
X193197265Y-63349501D01*
X193095416Y-63376791D01*
X193095411Y-63376793D01*
X193004086Y-63429520D01*
X192929520Y-63504086D01*
X192924375Y-63512999D01*
X192885075Y-63545977D01*
X192859422Y-63550500D01*
X191668868Y-63550500D01*
X191620659Y-63532953D01*
X191595007Y-63488524D01*
X191603916Y-63438000D01*
X191611127Y-63425510D01*
X191623207Y-63404587D01*
X191650500Y-63302727D01*
X191650500Y-63197273D01*
X191643964Y-63172879D01*
X191623208Y-63095416D01*
X191623206Y-63095411D01*
X191570479Y-63004086D01*
X191495913Y-62929520D01*
X191404588Y-62876793D01*
X191404583Y-62876791D01*
X191302734Y-62849501D01*
X191302728Y-62849500D01*
X191302727Y-62849500D01*
X191197273Y-62849500D01*
X191197271Y-62849500D01*
X191197265Y-62849501D01*
X191095416Y-62876791D01*
X191095411Y-62876793D01*
X191004086Y-62929520D01*
X190929520Y-63004086D01*
X190876793Y-63095411D01*
X190876791Y-63095416D01*
X190849501Y-63197265D01*
X190849500Y-63197275D01*
X190849500Y-63302724D01*
X190849501Y-63302734D01*
X190876791Y-63404583D01*
X190876793Y-63404587D01*
X190896084Y-63438000D01*
X190904993Y-63488523D01*
X190879341Y-63532953D01*
X190831132Y-63550500D01*
X189881368Y-63550500D01*
X189833159Y-63532953D01*
X189807507Y-63488524D01*
X189816416Y-63438000D01*
X189823627Y-63425510D01*
X189835707Y-63404587D01*
X189863000Y-63302727D01*
X189863000Y-63302718D01*
X189863641Y-63297855D01*
X189865697Y-63298125D01*
X189880547Y-63257328D01*
X189884967Y-63252504D01*
X190813756Y-62323715D01*
X190860252Y-62302033D01*
X190909807Y-62315312D01*
X190912573Y-62317633D01*
X190912686Y-62317487D01*
X190916584Y-62320478D01*
X190916586Y-62320479D01*
X190916587Y-62320480D01*
X191007913Y-62373207D01*
X191007914Y-62373207D01*
X191007916Y-62373208D01*
X191109765Y-62400498D01*
X191109767Y-62400498D01*
X191109773Y-62400500D01*
X191109775Y-62400500D01*
X191215225Y-62400500D01*
X191215227Y-62400500D01*
X191317087Y-62373207D01*
X191408413Y-62320480D01*
X191482980Y-62245913D01*
X191535707Y-62154587D01*
X191563000Y-62052727D01*
X191563000Y-61947273D01*
X191542996Y-61872616D01*
X191535708Y-61845416D01*
X191535706Y-61845411D01*
X191486128Y-61759540D01*
X191482980Y-61754087D01*
X191408413Y-61679520D01*
X191355080Y-61648728D01*
X191317088Y-61626793D01*
X191317083Y-61626791D01*
X191215234Y-61599501D01*
X191215228Y-61599500D01*
X191215227Y-61599500D01*
X191109773Y-61599500D01*
X191109771Y-61599500D01*
X191109765Y-61599501D01*
X191007916Y-61626791D01*
X191007911Y-61626793D01*
X190916584Y-61679521D01*
X190912686Y-61682513D01*
X190911423Y-61680867D01*
X190872078Y-61699215D01*
X190865541Y-61699500D01*
X190672938Y-61699500D01*
X190672936Y-61699500D01*
X190672932Y-61699501D01*
X190596512Y-61719978D01*
X190596510Y-61719979D01*
X190557902Y-61742270D01*
X190527988Y-61759540D01*
X189459996Y-62827533D01*
X189414622Y-62848691D01*
X189414645Y-62848859D01*
X189414113Y-62848928D01*
X189413500Y-62849215D01*
X189411168Y-62849316D01*
X189409765Y-62849501D01*
X189307916Y-62876791D01*
X189307911Y-62876793D01*
X189216586Y-62929520D01*
X189142020Y-63004086D01*
X189089293Y-63095411D01*
X189089291Y-63095416D01*
X189062001Y-63197265D01*
X189062000Y-63197275D01*
X189062000Y-63302724D01*
X189062001Y-63302734D01*
X189089291Y-63404583D01*
X189089293Y-63404587D01*
X189108584Y-63438000D01*
X189117493Y-63488523D01*
X189091841Y-63532953D01*
X189043632Y-63550500D01*
X188815697Y-63550500D01*
X188767488Y-63532953D01*
X188762664Y-63528533D01*
X187181406Y-61947275D01*
X188599500Y-61947275D01*
X188599500Y-62052724D01*
X188599501Y-62052734D01*
X188626791Y-62154583D01*
X188626793Y-62154588D01*
X188641188Y-62179520D01*
X188679520Y-62245913D01*
X188754087Y-62320480D01*
X188845413Y-62373207D01*
X188845414Y-62373207D01*
X188845416Y-62373208D01*
X188947265Y-62400498D01*
X188947267Y-62400498D01*
X188947273Y-62400500D01*
X188947275Y-62400500D01*
X189052725Y-62400500D01*
X189052727Y-62400500D01*
X189154587Y-62373207D01*
X189245913Y-62320480D01*
X189320480Y-62245913D01*
X189373207Y-62154587D01*
X189400500Y-62052727D01*
X189400500Y-61947273D01*
X189380496Y-61872616D01*
X189373208Y-61845416D01*
X189373206Y-61845411D01*
X189323628Y-61759540D01*
X189320480Y-61754087D01*
X189245913Y-61679520D01*
X189192580Y-61648728D01*
X189154588Y-61626793D01*
X189154583Y-61626791D01*
X189052734Y-61599501D01*
X189052728Y-61599500D01*
X189052727Y-61599500D01*
X188947273Y-61599500D01*
X188947271Y-61599500D01*
X188947265Y-61599501D01*
X188845416Y-61626791D01*
X188845411Y-61626793D01*
X188754086Y-61679520D01*
X188679520Y-61754086D01*
X188626793Y-61845411D01*
X188626791Y-61845416D01*
X188599501Y-61947265D01*
X188599500Y-61947275D01*
X187181406Y-61947275D01*
X186933080Y-61698949D01*
X186912547Y-61660512D01*
X186911113Y-61653284D01*
X186911113Y-61648726D01*
X186907628Y-61635720D01*
X186907146Y-61633291D01*
X186910705Y-61610239D01*
X186912738Y-61587000D01*
X186914734Y-61584149D01*
X186914975Y-61582589D01*
X186917178Y-61580658D01*
X186927676Y-61565665D01*
X187796068Y-60697275D01*
X191849500Y-60697275D01*
X191849500Y-60802724D01*
X191849501Y-60802734D01*
X191876791Y-60904583D01*
X191876793Y-60904588D01*
X191929520Y-60995913D01*
X192004087Y-61070480D01*
X192095413Y-61123207D01*
X192095414Y-61123207D01*
X192095416Y-61123208D01*
X192197265Y-61150498D01*
X192197267Y-61150498D01*
X192197273Y-61150500D01*
X192197275Y-61150500D01*
X192302725Y-61150500D01*
X192302727Y-61150500D01*
X192404587Y-61123207D01*
X192495913Y-61070480D01*
X192570480Y-60995913D01*
X192623207Y-60904587D01*
X192650500Y-60802727D01*
X192650500Y-60697273D01*
X192623207Y-60595413D01*
X192570480Y-60504087D01*
X192495913Y-60429520D01*
X192404588Y-60376793D01*
X192404583Y-60376791D01*
X192302734Y-60349501D01*
X192302728Y-60349500D01*
X192302727Y-60349500D01*
X192197273Y-60349500D01*
X192197271Y-60349500D01*
X192197265Y-60349501D01*
X192095416Y-60376791D01*
X192095411Y-60376793D01*
X192004086Y-60429520D01*
X191929520Y-60504086D01*
X191876793Y-60595411D01*
X191876791Y-60595416D01*
X191849501Y-60697265D01*
X191849500Y-60697275D01*
X187796068Y-60697275D01*
X188036864Y-60456479D01*
X188082237Y-60435320D01*
X188082215Y-60435153D01*
X188082746Y-60435083D01*
X188083360Y-60434797D01*
X188085691Y-60434695D01*
X188087079Y-60434512D01*
X188087087Y-60434512D01*
X188188947Y-60407219D01*
X188280273Y-60354492D01*
X188354840Y-60279925D01*
X188407567Y-60188599D01*
X188434860Y-60086739D01*
X188434860Y-59981285D01*
X188407567Y-59879425D01*
X188354840Y-59788099D01*
X188280273Y-59713532D01*
X188188948Y-59660805D01*
X188188943Y-59660803D01*
X188087094Y-59633513D01*
X188087088Y-59633512D01*
X188087087Y-59633512D01*
X187981633Y-59633512D01*
X187981631Y-59633512D01*
X187981625Y-59633513D01*
X187879776Y-59660803D01*
X187879771Y-59660805D01*
X187788446Y-59713532D01*
X187713880Y-59788098D01*
X187661153Y-59879423D01*
X187661151Y-59879428D01*
X187633861Y-59981277D01*
X187633219Y-59986157D01*
X187631162Y-59985886D01*
X187616313Y-60026684D01*
X187611893Y-60031508D01*
X186270153Y-61373248D01*
X186267161Y-61377147D01*
X186266783Y-61376857D01*
X186260068Y-61385604D01*
X186190133Y-61455539D01*
X186137406Y-61546864D01*
X186137404Y-61546869D01*
X186110114Y-61648718D01*
X186110113Y-61648728D01*
X186110113Y-61754177D01*
X186110114Y-61754187D01*
X186137404Y-61856036D01*
X186137406Y-61856041D01*
X186146976Y-61872616D01*
X186190133Y-61947366D01*
X186264700Y-62021933D01*
X186356026Y-62074660D01*
X186356027Y-62074660D01*
X186356029Y-62074661D01*
X186457878Y-62101951D01*
X186457879Y-62101951D01*
X186457886Y-62101953D01*
X186457893Y-62101953D01*
X186462758Y-62102594D01*
X186462487Y-62104650D01*
X186503285Y-62119500D01*
X186508109Y-62123920D01*
X186976302Y-62592113D01*
X186997984Y-62638609D01*
X186984705Y-62688164D01*
X186942681Y-62717590D01*
X186889567Y-62731822D01*
X186889564Y-62731823D01*
X186798239Y-62784550D01*
X186723673Y-62859116D01*
X186670946Y-62950441D01*
X186670944Y-62950446D01*
X186643654Y-63052295D01*
X186643653Y-63052305D01*
X186643653Y-63157754D01*
X186643654Y-63157764D01*
X186670944Y-63259613D01*
X186670946Y-63259618D01*
X186720479Y-63345411D01*
X186723673Y-63350943D01*
X186798240Y-63425510D01*
X186844373Y-63452145D01*
X186884875Y-63475529D01*
X186889566Y-63478237D01*
X186889567Y-63478237D01*
X186889569Y-63478238D01*
X186991418Y-63505528D01*
X186991420Y-63505528D01*
X186991426Y-63505530D01*
X186991428Y-63505530D01*
X187096878Y-63505530D01*
X187096880Y-63505530D01*
X187198740Y-63478237D01*
X187290066Y-63425510D01*
X187364633Y-63350943D01*
X187417360Y-63259617D01*
X187431592Y-63206499D01*
X187461017Y-63164477D01*
X187510572Y-63151198D01*
X187557068Y-63172879D01*
X188455656Y-64071467D01*
X188477338Y-64117963D01*
X188464059Y-64167518D01*
X188422034Y-64196944D01*
X188402623Y-64199500D01*
X185905537Y-64199500D01*
X185857328Y-64181953D01*
X185852504Y-64177533D01*
X185172467Y-63497496D01*
X185151308Y-63452122D01*
X185151141Y-63452145D01*
X185151071Y-63451613D01*
X185150785Y-63451000D01*
X185150683Y-63448668D01*
X185150500Y-63447280D01*
X185150500Y-63447273D01*
X185144669Y-63425510D01*
X185123208Y-63345416D01*
X185123206Y-63345411D01*
X185098562Y-63302727D01*
X185070480Y-63254087D01*
X184995913Y-63179520D01*
X184904588Y-63126793D01*
X184904583Y-63126791D01*
X184802734Y-63099501D01*
X184802727Y-63099500D01*
X184802726Y-63099500D01*
X184797855Y-63098859D01*
X184798125Y-63096802D01*
X184757328Y-63081953D01*
X184752504Y-63077533D01*
X180872246Y-59197275D01*
X194099500Y-59197275D01*
X194099500Y-59302724D01*
X194099501Y-59302734D01*
X194126791Y-59404583D01*
X194126793Y-59404588D01*
X194151439Y-59447275D01*
X194179520Y-59495913D01*
X194254087Y-59570480D01*
X194345413Y-59623207D01*
X194345414Y-59623207D01*
X194345416Y-59623208D01*
X194447265Y-59650498D01*
X194447267Y-59650498D01*
X194447273Y-59650500D01*
X194447275Y-59650500D01*
X194552725Y-59650500D01*
X194552727Y-59650500D01*
X194654587Y-59623207D01*
X194745913Y-59570480D01*
X194820480Y-59495913D01*
X194873207Y-59404587D01*
X194900500Y-59302727D01*
X194900500Y-59197273D01*
X194900498Y-59197265D01*
X194873208Y-59095416D01*
X194873206Y-59095411D01*
X194820479Y-59004086D01*
X194745913Y-58929520D01*
X194690341Y-58897435D01*
X194690338Y-58897433D01*
X194654587Y-58876793D01*
X194589414Y-58859330D01*
X194589411Y-58859329D01*
X194552727Y-58849500D01*
X194447273Y-58849500D01*
X194447271Y-58849500D01*
X194447265Y-58849501D01*
X194345416Y-58876791D01*
X194345411Y-58876793D01*
X194254086Y-58929520D01*
X194179520Y-59004086D01*
X194126793Y-59095411D01*
X194126791Y-59095416D01*
X194099501Y-59197265D01*
X194099500Y-59197275D01*
X180872246Y-59197275D01*
X180572467Y-58897496D01*
X180550785Y-58851000D01*
X180550500Y-58844463D01*
X180550500Y-56911007D01*
X185589500Y-56911007D01*
X185589500Y-58148993D01*
X185616420Y-58284328D01*
X185669225Y-58411811D01*
X185707815Y-58469564D01*
X185743905Y-58523578D01*
X185745886Y-58526542D01*
X185843458Y-58624114D01*
X185958189Y-58700775D01*
X186085672Y-58753580D01*
X186194086Y-58775145D01*
X186221006Y-58780500D01*
X186221007Y-58780500D01*
X186358994Y-58780500D01*
X186381447Y-58776033D01*
X186494328Y-58753580D01*
X186621811Y-58700775D01*
X186736542Y-58624114D01*
X186834114Y-58526542D01*
X186837156Y-58521988D01*
X186878523Y-58491651D01*
X186929717Y-58495000D01*
X186966780Y-58530473D01*
X186971962Y-58544240D01*
X186986792Y-58599585D01*
X186986793Y-58599588D01*
X187008397Y-58637007D01*
X187039520Y-58690913D01*
X187114087Y-58765480D01*
X187205413Y-58818207D01*
X187205414Y-58818207D01*
X187205416Y-58818208D01*
X187307265Y-58845498D01*
X187307267Y-58845498D01*
X187307273Y-58845500D01*
X187307275Y-58845500D01*
X187412725Y-58845500D01*
X187412727Y-58845500D01*
X187514587Y-58818207D01*
X187605913Y-58765480D01*
X187680480Y-58690913D01*
X187733207Y-58599587D01*
X187760500Y-58497727D01*
X187760500Y-58392275D01*
X189459500Y-58392275D01*
X189459500Y-58497724D01*
X189459501Y-58497734D01*
X189486791Y-58599583D01*
X189486793Y-58599588D01*
X189508397Y-58637007D01*
X189539520Y-58690913D01*
X189614087Y-58765480D01*
X189705413Y-58818207D01*
X189705414Y-58818207D01*
X189705416Y-58818208D01*
X189807265Y-58845498D01*
X189807267Y-58845498D01*
X189807273Y-58845500D01*
X189807275Y-58845500D01*
X189912725Y-58845500D01*
X189912727Y-58845500D01*
X190014587Y-58818207D01*
X190105913Y-58765480D01*
X190105915Y-58765478D01*
X190109814Y-58762487D01*
X190111076Y-58764132D01*
X190150422Y-58745785D01*
X190156959Y-58745500D01*
X190563041Y-58745500D01*
X190610082Y-58762622D01*
X190610186Y-58762487D01*
X190610614Y-58762815D01*
X190611250Y-58763047D01*
X190612971Y-58764624D01*
X190614084Y-58765478D01*
X190614086Y-58765479D01*
X190614087Y-58765480D01*
X190705413Y-58818207D01*
X190705414Y-58818207D01*
X190705416Y-58818208D01*
X190807265Y-58845498D01*
X190807267Y-58845498D01*
X190807273Y-58845500D01*
X190807275Y-58845500D01*
X190912725Y-58845500D01*
X190912727Y-58845500D01*
X191014587Y-58818207D01*
X191105913Y-58765480D01*
X191180480Y-58690913D01*
X191233207Y-58599587D01*
X191260500Y-58497727D01*
X191260500Y-58392273D01*
X191260498Y-58392265D01*
X191233208Y-58290416D01*
X191233206Y-58290411D01*
X191219078Y-58265940D01*
X191180480Y-58199087D01*
X191105913Y-58124520D01*
X191102515Y-58122558D01*
X191014588Y-58071793D01*
X191014583Y-58071791D01*
X190912734Y-58044501D01*
X190912728Y-58044500D01*
X190912727Y-58044500D01*
X190807273Y-58044500D01*
X190807271Y-58044500D01*
X190807265Y-58044501D01*
X190705416Y-58071791D01*
X190705411Y-58071793D01*
X190614084Y-58124521D01*
X190610186Y-58127513D01*
X190608923Y-58125867D01*
X190569578Y-58144215D01*
X190563041Y-58144500D01*
X190156959Y-58144500D01*
X190109917Y-58127377D01*
X190109814Y-58127513D01*
X190109385Y-58127184D01*
X190108750Y-58126953D01*
X190107028Y-58125375D01*
X190105915Y-58124521D01*
X190014588Y-58071793D01*
X190014583Y-58071791D01*
X189912734Y-58044501D01*
X189912728Y-58044500D01*
X189912727Y-58044500D01*
X189807273Y-58044500D01*
X189807271Y-58044500D01*
X189807265Y-58044501D01*
X189705416Y-58071791D01*
X189705411Y-58071793D01*
X189614086Y-58124520D01*
X189539520Y-58199086D01*
X189486793Y-58290411D01*
X189486791Y-58290416D01*
X189459501Y-58392265D01*
X189459500Y-58392275D01*
X187760500Y-58392275D01*
X187760500Y-58392273D01*
X187760498Y-58392265D01*
X187733208Y-58290416D01*
X187733206Y-58290411D01*
X187719078Y-58265940D01*
X187680480Y-58199087D01*
X187605913Y-58124520D01*
X187602515Y-58122558D01*
X187514588Y-58071793D01*
X187514583Y-58071791D01*
X187412734Y-58044501D01*
X187412728Y-58044500D01*
X187412727Y-58044500D01*
X187307273Y-58044500D01*
X187307271Y-58044500D01*
X187307265Y-58044501D01*
X187205416Y-58071791D01*
X187205411Y-58071793D01*
X187114082Y-58124523D01*
X187111152Y-58126771D01*
X187062223Y-58142194D01*
X187014826Y-58122558D01*
X186991141Y-58077050D01*
X186990500Y-58067266D01*
X186990500Y-56924236D01*
X187144500Y-56924236D01*
X187144500Y-57075763D01*
X187144501Y-57075773D01*
X187183717Y-57222131D01*
X187183719Y-57222135D01*
X187259485Y-57353365D01*
X187366635Y-57460515D01*
X187497865Y-57536281D01*
X187497867Y-57536281D01*
X187497868Y-57536282D01*
X187644226Y-57575498D01*
X187644228Y-57575498D01*
X187644234Y-57575500D01*
X187644236Y-57575500D01*
X187795764Y-57575500D01*
X187795766Y-57575500D01*
X187942135Y-57536281D01*
X188073365Y-57460515D01*
X188180515Y-57353365D01*
X188256281Y-57222135D01*
X188295500Y-57075766D01*
X188295500Y-56924236D01*
X192924500Y-56924236D01*
X192924500Y-57075763D01*
X192924501Y-57075773D01*
X192963717Y-57222131D01*
X192963719Y-57222135D01*
X193039485Y-57353365D01*
X193146635Y-57460515D01*
X193277865Y-57536281D01*
X193277867Y-57536281D01*
X193277868Y-57536282D01*
X193424226Y-57575498D01*
X193424228Y-57575498D01*
X193424234Y-57575500D01*
X193424236Y-57575500D01*
X193575764Y-57575500D01*
X193575766Y-57575500D01*
X193722135Y-57536281D01*
X193853365Y-57460515D01*
X193960515Y-57353365D01*
X194036281Y-57222135D01*
X194075500Y-57075766D01*
X194075500Y-56924234D01*
X194071956Y-56911007D01*
X194229500Y-56911007D01*
X194229500Y-58148993D01*
X194256420Y-58284328D01*
X194309225Y-58411811D01*
X194347815Y-58469564D01*
X194383905Y-58523578D01*
X194385886Y-58526542D01*
X194483458Y-58624114D01*
X194598189Y-58700775D01*
X194725672Y-58753580D01*
X194835116Y-58775349D01*
X194861006Y-58780500D01*
X194861007Y-58780500D01*
X194998994Y-58780500D01*
X195021447Y-58776033D01*
X195134328Y-58753580D01*
X195199623Y-58726534D01*
X201199500Y-58726534D01*
X201199500Y-58933465D01*
X201239870Y-59136421D01*
X201319058Y-59327596D01*
X201319059Y-59327598D01*
X201434023Y-59499655D01*
X201580345Y-59645977D01*
X201752402Y-59760941D01*
X201943580Y-59840130D01*
X202096139Y-59870475D01*
X202146534Y-59880500D01*
X202146535Y-59880500D01*
X202353466Y-59880500D01*
X202393836Y-59872469D01*
X202556420Y-59840130D01*
X202747598Y-59760941D01*
X202919655Y-59645977D01*
X203065977Y-59499655D01*
X203180941Y-59327598D01*
X203260130Y-59136420D01*
X203300500Y-58933465D01*
X203300500Y-58726535D01*
X203260130Y-58523580D01*
X203180941Y-58332402D01*
X203065977Y-58160345D01*
X202919655Y-58014023D01*
X202747598Y-57899059D01*
X202747596Y-57899058D01*
X202556421Y-57819870D01*
X202353466Y-57779500D01*
X202353465Y-57779500D01*
X202146535Y-57779500D01*
X202146534Y-57779500D01*
X201943578Y-57819870D01*
X201752403Y-57899058D01*
X201580345Y-58014023D01*
X201580342Y-58014025D01*
X201434025Y-58160342D01*
X201434023Y-58160345D01*
X201319058Y-58332403D01*
X201239870Y-58523578D01*
X201199500Y-58726534D01*
X195199623Y-58726534D01*
X195261811Y-58700775D01*
X195376542Y-58624114D01*
X195474114Y-58526542D01*
X195550775Y-58411811D01*
X195603580Y-58284328D01*
X195630500Y-58148993D01*
X195630500Y-56911007D01*
X195603580Y-56775672D01*
X195550775Y-56648189D01*
X195474114Y-56533458D01*
X195376542Y-56435886D01*
X195359503Y-56424501D01*
X195309737Y-56391248D01*
X195261811Y-56359225D01*
X195238313Y-56349492D01*
X195134328Y-56306420D01*
X194998994Y-56279500D01*
X194998993Y-56279500D01*
X194861007Y-56279500D01*
X194861006Y-56279500D01*
X194725671Y-56306420D01*
X194598190Y-56359224D01*
X194483458Y-56435885D01*
X194385885Y-56533458D01*
X194309224Y-56648190D01*
X194256420Y-56775671D01*
X194256420Y-56775672D01*
X194229500Y-56911007D01*
X194071956Y-56911007D01*
X194038889Y-56787598D01*
X194036282Y-56777868D01*
X194036281Y-56777867D01*
X194036281Y-56777865D01*
X193960515Y-56646635D01*
X193853365Y-56539485D01*
X193722135Y-56463719D01*
X193722131Y-56463717D01*
X193575773Y-56424501D01*
X193575767Y-56424500D01*
X193575766Y-56424500D01*
X193424234Y-56424500D01*
X193424232Y-56424500D01*
X193424226Y-56424501D01*
X193277868Y-56463717D01*
X193277864Y-56463719D01*
X193146634Y-56539485D01*
X193039485Y-56646634D01*
X192963719Y-56777864D01*
X192963717Y-56777868D01*
X192924501Y-56924226D01*
X192924500Y-56924236D01*
X188295500Y-56924236D01*
X188295500Y-56924234D01*
X188258889Y-56787598D01*
X188256282Y-56777868D01*
X188256281Y-56777867D01*
X188256281Y-56777865D01*
X188180515Y-56646635D01*
X188073365Y-56539485D01*
X187942135Y-56463719D01*
X187942131Y-56463717D01*
X187795773Y-56424501D01*
X187795767Y-56424500D01*
X187795766Y-56424500D01*
X187644234Y-56424500D01*
X187644232Y-56424500D01*
X187644226Y-56424501D01*
X187497868Y-56463717D01*
X187497864Y-56463719D01*
X187366634Y-56539485D01*
X187259485Y-56646634D01*
X187183719Y-56777864D01*
X187183717Y-56777868D01*
X187144501Y-56924226D01*
X187144500Y-56924236D01*
X186990500Y-56924236D01*
X186990500Y-56911006D01*
X186965952Y-56787598D01*
X186963580Y-56775672D01*
X186910775Y-56648189D01*
X186834114Y-56533458D01*
X186736542Y-56435886D01*
X186719503Y-56424501D01*
X186669737Y-56391248D01*
X186621811Y-56359225D01*
X186598313Y-56349492D01*
X186494328Y-56306420D01*
X186358994Y-56279500D01*
X186358993Y-56279500D01*
X186221007Y-56279500D01*
X186221006Y-56279500D01*
X186085671Y-56306420D01*
X185958190Y-56359224D01*
X185843458Y-56435885D01*
X185745885Y-56533458D01*
X185669224Y-56648190D01*
X185616420Y-56775671D01*
X185616420Y-56775672D01*
X185589500Y-56911007D01*
X180550500Y-56911007D01*
X180550500Y-56186534D01*
X201199500Y-56186534D01*
X201199500Y-56393465D01*
X201239870Y-56596421D01*
X201319058Y-56787596D01*
X201319059Y-56787598D01*
X201434023Y-56959655D01*
X201580345Y-57105977D01*
X201752402Y-57220941D01*
X201943580Y-57300130D01*
X202096139Y-57330475D01*
X202146534Y-57340500D01*
X202146535Y-57340500D01*
X202353466Y-57340500D01*
X202393836Y-57332469D01*
X202556420Y-57300130D01*
X202747598Y-57220941D01*
X202919655Y-57105977D01*
X203065977Y-56959655D01*
X203180941Y-56787598D01*
X203260130Y-56596420D01*
X203300500Y-56393465D01*
X203300500Y-56186535D01*
X203260130Y-55983580D01*
X203180941Y-55792402D01*
X203065977Y-55620345D01*
X202919655Y-55474023D01*
X202747598Y-55359059D01*
X202747596Y-55359058D01*
X202556421Y-55279870D01*
X202353466Y-55239500D01*
X202353465Y-55239500D01*
X202146535Y-55239500D01*
X202146534Y-55239500D01*
X201943578Y-55279870D01*
X201752403Y-55359058D01*
X201580345Y-55474023D01*
X201580342Y-55474025D01*
X201434025Y-55620342D01*
X201434023Y-55620345D01*
X201319058Y-55792403D01*
X201239870Y-55983578D01*
X201199500Y-56186534D01*
X180550500Y-56186534D01*
X180550500Y-54447275D01*
X182599500Y-54447275D01*
X182599500Y-54552724D01*
X182599501Y-54552734D01*
X182626791Y-54654583D01*
X182626793Y-54654588D01*
X182678734Y-54744551D01*
X182679520Y-54745913D01*
X182754087Y-54820480D01*
X182845413Y-54873207D01*
X182845414Y-54873207D01*
X182845416Y-54873208D01*
X182947265Y-54900498D01*
X182947267Y-54900498D01*
X182947273Y-54900500D01*
X182947275Y-54900500D01*
X183052725Y-54900500D01*
X183052727Y-54900500D01*
X183154587Y-54873207D01*
X183245913Y-54820480D01*
X183320480Y-54745913D01*
X183373207Y-54654587D01*
X183400500Y-54552727D01*
X183400500Y-54447273D01*
X183373207Y-54345413D01*
X183320480Y-54254087D01*
X183245913Y-54179520D01*
X183154588Y-54126793D01*
X183154583Y-54126791D01*
X183052734Y-54099501D01*
X183052728Y-54099500D01*
X183052727Y-54099500D01*
X182947273Y-54099500D01*
X182947271Y-54099500D01*
X182947265Y-54099501D01*
X182845416Y-54126791D01*
X182845411Y-54126793D01*
X182754086Y-54179520D01*
X182679520Y-54254086D01*
X182626793Y-54345411D01*
X182626791Y-54345416D01*
X182599501Y-54447265D01*
X182599500Y-54447275D01*
X180550500Y-54447275D01*
X180550500Y-54296959D01*
X180567622Y-54249917D01*
X180567487Y-54249814D01*
X180567815Y-54249385D01*
X180568047Y-54248750D01*
X180569624Y-54247028D01*
X180570478Y-54245915D01*
X180570480Y-54245913D01*
X180623207Y-54154587D01*
X180650500Y-54052727D01*
X180650500Y-53947273D01*
X180623956Y-53848207D01*
X180623208Y-53845416D01*
X180623206Y-53845411D01*
X180594378Y-53795480D01*
X180570480Y-53754087D01*
X180495913Y-53679520D01*
X180404588Y-53626793D01*
X180404583Y-53626791D01*
X180302734Y-53599501D01*
X180302728Y-53599500D01*
X180302727Y-53599500D01*
X180197273Y-53599500D01*
X180197271Y-53599500D01*
X180197265Y-53599501D01*
X180095416Y-53626791D01*
X180095411Y-53626793D01*
X180004086Y-53679520D01*
X179928533Y-53755074D01*
X179882037Y-53776756D01*
X179832482Y-53763477D01*
X179803056Y-53721452D01*
X179800500Y-53702041D01*
X179800500Y-52880251D01*
X179788867Y-52821769D01*
X179744552Y-52755448D01*
X179744551Y-52755447D01*
X179678230Y-52711132D01*
X179619749Y-52699500D01*
X179619748Y-52699500D01*
X177880252Y-52699500D01*
X177880251Y-52699500D01*
X177821769Y-52711132D01*
X177755448Y-52755447D01*
X177755447Y-52755448D01*
X177711132Y-52821769D01*
X177699500Y-52880251D01*
X177500500Y-52880251D01*
X177500500Y-52575500D01*
X177518047Y-52527291D01*
X177562476Y-52501639D01*
X177575500Y-52500500D01*
X185674366Y-52500500D01*
X185722575Y-52518047D01*
G37*
%TD.AperFunction*%
%TD*%
M02*
