M48
; DRILL file {KiCad 9.0.6} date 2026-07-17T22:43:22+0500
; FORMAT={-:-/ absolute / inch / decimal}
; #@! TF.CreationDate,2026-07-17T22:43:22+05:00
; #@! TF.GenerationSoftware,Kicad,Pcbnew,9.0.6
; #@! TF.FileFunction,Plated,1,4,PTH
FMAT,2
INCH
; #@! TA.AperFunction,Plated,PTH,ViaDrill
T1C0.0079
; #@! TA.AperFunction,Plated,PTH,ComponentDrill
T2C0.0197
; #@! TA.AperFunction,Plated,PTH,ComponentDrill
T3C0.0236
; #@! TA.AperFunction,Plated,PTH,ComponentDrill
T4C0.0394
%
G90
G05
T1
X7.0965Y-2.126
X7.1654Y-3.2087
X7.1654Y-3.4941
X7.185Y-2.4606
X7.1949Y-3.2677
X7.2047Y-2.1457
X7.2146Y-3.0512
X7.2244Y-2.6969
X7.2441Y-3.1033
X7.2462Y-3.4651
X7.2681Y-3.2067
X7.2736Y-2.5
X7.2736Y-2.7461
X7.2736Y-3.6024
X7.2919Y-3.0505
X7.2999Y-3.1807
X7.313Y-2.5886
X7.313Y-3.061
X7.313Y-3.1201
X7.3228Y-3.0118
X7.3297Y-3.1368
X7.3429Y-2.4292
X7.3441Y-2.9911
X7.3464Y-3.1535
X7.3534Y-2.9428
X7.3607Y-3.1937
X7.3631Y-3.1702
X7.3639Y-2.4844
X7.372Y-3.4646
X7.3748Y-2.6188
X7.3764Y-2.301
X7.378Y-3.7874
X7.3819Y-2.9724
X7.3917Y-2.4311
X7.3957Y-3.2324
X7.4028Y-3.2099
X7.4029Y-2.3635
X7.4085Y-2.9346
X7.4252Y-3.8071
X7.4295Y-2.9236
X7.4311Y-3.4843
X7.4409Y-2.4409
X7.4409Y-3.0413
X7.4409Y-3.0807
X7.4409Y-3.1201
X7.4409Y-3.248
X7.4476Y-2.9055
X7.4515Y-3.2692
X7.4592Y-2.4902
X7.4606Y-2.8033
X7.4663Y-2.8899
X7.4705Y-3.2874
X7.4748Y-2.301
X7.4902Y-3.5531
X7.5098Y-2.7461
X7.5142Y-2.301
X7.5197Y-3.5138
X7.5218Y-2.8269
X7.5261Y-2.4409
X7.5295Y-2.4902
X7.5439Y-2.8714
X7.5591Y-3.2776
X7.5651Y-2.8818
X7.5689Y-2.3917
X7.5696Y-3.2564
X7.5787Y-3.0315
X7.5787Y-3.1299
X7.5787Y-3.75
X7.5827Y-3.9567
X7.5866Y-3.8071
X7.5875Y-2.8895
X7.5906Y-2.9129
X7.5932Y-3.2874
X7.5984Y-2.7756
X7.6014Y-3.2352
X7.6048Y-2.9317
X7.6083Y-2.5098
X7.6083Y-3.0807
X7.6181Y-2.628
X7.6268Y-2.9405
X7.6272Y-3.2298
X7.637Y-2.9618
X7.6545Y-3.192
X7.6575Y-2.3327
X7.6575Y-3.8878
X7.6634Y-2.9882
X7.6712Y-3.1753
X7.6772Y-2.4508
X7.6772Y-2.6378
X7.6801Y-3.005
X7.687Y-2.5394
X7.6933Y-3.1669
X7.6969Y-3.0217
X7.698Y-3.1438
X7.7106Y-3.1237
X7.7165Y-2.5984
X7.7165Y-3.1004
X7.7209Y-2.8658
X7.7264Y-2.3622
X7.7461Y-3.0906
X7.8051Y-2.3425
X7.8071Y-2.1053
X7.815Y-2.5098
X7.8937Y-2.8346
T2
X7.7362Y-3.435
X7.7362Y-3.4744
X7.7362Y-3.6024
X7.7362Y-3.6417
X7.7756Y-3.435
X7.7756Y-3.4744
X7.7756Y-3.6024
X7.7756Y-3.6417
X7.815Y-3.435
X7.815Y-3.4744
X7.815Y-3.6024
X7.815Y-3.6417
T4
X7.0374Y-2.1161
X7.0374Y-2.2161
X7.0374Y-2.3161
X7.0374Y-2.4161
X7.0374Y-2.5161
X7.0374Y-2.6161
X7.0374Y-2.7161
X7.0374Y-2.8161
X7.0374Y-2.9161
X7.0374Y-3.0161
X7.0374Y-3.1161
X7.0374Y-3.2161
X7.0374Y-3.3161
X7.0374Y-3.4161
X7.0374Y-3.5161
X7.0374Y-3.6161
X7.0374Y-3.7161
X7.0374Y-3.8161
X7.0374Y-3.9161
X7.0374Y-4.0161
X7.1953Y-4.1634
X7.2953Y-4.1634
X7.3953Y-4.1634
X7.4953Y-4.1634
X7.5953Y-4.1634
X7.6953Y-4.1634
X7.7953Y-4.1634
X7.9626Y-2.1161
X7.9626Y-2.2161
X7.9626Y-2.3161
X7.9626Y-2.4161
X7.9626Y-2.5161
X7.9626Y-2.6161
X7.9626Y-2.7161
X7.9626Y-2.8161
X7.9626Y-2.9161
X7.9626Y-3.0161
X7.9626Y-3.1161
X7.9626Y-3.2161
X7.9626Y-3.3161
X7.9626Y-3.4161
X7.9626Y-3.5161
X7.9626Y-3.6161
X7.9626Y-3.7161
X7.9626Y-3.8161
X7.9626Y-3.9161
X7.9626Y-4.0161
T3
G00X7.3343Y-2.1122
M15
G01X7.3343Y-2.0886
M16
G05
G00X7.3343Y-2.2866
M15
G01X7.3343Y-2.2433
M16
G05
G00X7.6744Y-2.1122
M15
G01X7.6744Y-2.0886
M16
G05
G00X7.6744Y-2.2866
M15
G01X7.6744Y-2.2433
M16
G05
M30
