%TF.GenerationSoftware,KiCad,Pcbnew,9.0.6*%
%TF.CreationDate,2026-07-17T22:43:22+05:00*%
%TF.ProjectId,NS FPGA V2 iCE,4e532046-5047-4412-9056-32206943452e,rev?*%
%TF.SameCoordinates,Original*%
%TF.FileFunction,Copper,L3,Inr*%
%TF.FilePolarity,Positive*%
%FSLAX46Y46*%
G04 Gerber Fmt 4.6, Leading zero omitted, Abs format (unit mm)*
G04 Created by KiCad (PCBNEW 9.0.6) date 2026-07-17 22:43:22*
%MOMM*%
%LPD*%
G01*
G04 APERTURE LIST*
%TA.AperFunction,ComponentPad*%
%ADD10R,0.850000X0.850000*%
%TD*%
%TA.AperFunction,ComponentPad*%
%ADD11C,0.850000*%
%TD*%
%TA.AperFunction,ComponentPad*%
%ADD12R,1.700000X1.700000*%
%TD*%
%TA.AperFunction,ComponentPad*%
%ADD13C,1.700000*%
%TD*%
%TA.AperFunction,HeatsinkPad*%
%ADD14O,1.000000X2.100000*%
%TD*%
%TA.AperFunction,HeatsinkPad*%
%ADD15O,1.000000X1.600000*%
%TD*%
%TA.AperFunction,ViaPad*%
%ADD16C,0.400000*%
%TD*%
%TA.AperFunction,Conductor*%
%ADD17C,0.200000*%
%TD*%
G04 APERTURE END LIST*
D10*
%TO.N,/VCCIO_2*%
%TO.C,J5*%
X198500000Y-91500000D03*
D11*
%TO.N,+1V8*%
X198500000Y-92500000D03*
%TO.N,/VCCIO_2*%
X197500000Y-91500000D03*
%TO.N,+2V5*%
X197500000Y-92500000D03*
%TO.N,/VCCIO_2*%
X196500000Y-91500000D03*
%TO.N,+3V3*%
X196500000Y-92500000D03*
%TD*%
D10*
%TO.N,/VCCIO_0*%
%TO.C,J4*%
X198500000Y-87250000D03*
D11*
%TO.N,+1V8*%
X198500000Y-88250000D03*
%TO.N,/VCCIO_0*%
X197500000Y-87250000D03*
%TO.N,+2V5*%
X197500000Y-88250000D03*
%TO.N,/VCCIO_0*%
X196500000Y-87250000D03*
%TO.N,+3V3*%
X196500000Y-88250000D03*
%TD*%
D12*
%TO.N,+3V3*%
%TO.C,J6*%
X182760000Y-105750000D03*
D13*
%TO.N,GND*%
X185300000Y-105750000D03*
%TO.N,/SPI_SS*%
X187840000Y-105750000D03*
%TO.N,/SPI_SCK*%
X190380000Y-105750000D03*
%TO.N,/SPI_SO*%
X192920000Y-105750000D03*
%TO.N,/SPI_SI*%
X195460000Y-105750000D03*
%TO.N,/CRESET_B*%
X198000000Y-105750000D03*
%TD*%
D12*
%TO.N,/IOB_22a*%
%TO.C,J3*%
X202250000Y-53750000D03*
D13*
%TO.N,GND*%
X202250000Y-56290000D03*
%TO.N,/IOB_20a*%
X202250000Y-58830000D03*
%TO.N,/1OB_18a*%
X202250000Y-61370000D03*
%TO.N,/IOB_12a*%
X202250000Y-63910000D03*
%TO.N,/IOB_8a*%
X202250000Y-66450000D03*
%TO.N,/IOB_9b*%
X202250000Y-68990000D03*
%TO.N,/IOB_6a*%
X202250000Y-71530000D03*
%TO.N,/IOB_4a*%
X202250000Y-74070000D03*
%TO.N,GND*%
X202250000Y-76610000D03*
%TO.N,/IOB_2a*%
X202250000Y-79150000D03*
%TO.N,/IOB_Oa*%
X202250000Y-81690000D03*
%TO.N,/IOB_5b*%
X202250000Y-84230000D03*
%TO.N,/IOB_3b_G6*%
X202250000Y-86770000D03*
%TO.N,/IOT_49a*%
X202250000Y-89310000D03*
%TO.N,/IOT_50b*%
X202250000Y-91850000D03*
%TO.N,/IOT_45a_G1*%
X202250000Y-94390000D03*
%TO.N,+3V3*%
X202250000Y-96930000D03*
%TO.N,GND*%
X202250000Y-99470000D03*
%TO.N,+5V*%
X202250000Y-102010000D03*
%TD*%
D14*
%TO.N,GND*%
%TO.C,J1*%
X194930000Y-57530000D03*
D15*
X194930000Y-53350000D03*
D14*
X186290000Y-57530000D03*
D15*
X186290000Y-53350000D03*
%TD*%
D12*
%TO.N,+5V*%
%TO.C,J2*%
X178750000Y-53750000D03*
D13*
%TO.N,GND*%
X178750000Y-56290000D03*
%TO.N,+3V3*%
X178750000Y-58830000D03*
%TO.N,+2V5*%
X178750000Y-61370000D03*
%TO.N,+1V8*%
X178750000Y-63910000D03*
%TO.N,/IOB_24a*%
X178750000Y-66450000D03*
%TO.N,/IOB_29b*%
X178750000Y-68990000D03*
%TO.N,/IOB_23b*%
X178750000Y-71530000D03*
%TO.N,/IOT_37a*%
X178750000Y-74070000D03*
%TO.N,GND*%
X178750000Y-76610000D03*
%TO.N,/IOT_36b*%
X178750000Y-79150000D03*
%TO.N,/IOT_39a*%
X178750000Y-81690000D03*
%TO.N,/IOT_38b*%
X178750000Y-84230000D03*
%TO.N,/IOT_41a*%
X178750000Y-86770000D03*
%TO.N,/IOT_42b*%
X178750000Y-89310000D03*
%TO.N,/IOT_43a*%
X178750000Y-91850000D03*
%TO.N,/IOT_44b*%
X178750000Y-94390000D03*
%TO.N,+3V3*%
X178750000Y-96930000D03*
%TO.N,/IOT_46b_G0*%
X178750000Y-99470000D03*
%TO.N,/IOT_48b*%
X178750000Y-102010000D03*
%TD*%
D16*
%TO.N,+3V3*%
X192700000Y-96700000D03*
%TO.N,Net-(D3-GK)*%
X192600000Y-100500000D03*
X188600000Y-96700000D03*
%TO.N,Net-(U1A-RGB2)*%
X187400000Y-96200000D03*
%TO.N,/D+*%
X190860000Y-58445000D03*
X189860000Y-58445000D03*
%TO.N,GND*%
X187360000Y-58445000D03*
%TO.N,Net-(U1D-VCCPLL)*%
X184610000Y-81449265D03*
X185416710Y-80790001D03*
%TO.N,+3V3*%
X186000000Y-76500000D03*
%TO.N,/IOB_23b*%
X186539124Y-75975000D03*
%TO.N,/IOT_37a*%
X185213341Y-77481671D03*
%TO.N,+2V5*%
X185750000Y-77750000D03*
%TO.N,/TXD*%
X193500000Y-66750000D03*
%TO.N,/IOB_29b*%
X187500000Y-75500000D03*
%TO.N,/SPI_SI*%
X188177148Y-74538051D03*
%TO.N,/SPI_SS*%
X188708977Y-74260274D03*
%TO.N,/SPI_SCK*%
X189169746Y-73799483D03*
%TO.N,/SPI_SO*%
X189644746Y-73403978D03*
%TO.N,/IOB_22a*%
X191615178Y-72933884D03*
%TO.N,/IOB_20a*%
X192153890Y-73198067D03*
%TO.N,/1OB_18a*%
X192721645Y-73392122D03*
%TO.N,/IOB_12a*%
X192800803Y-73986879D03*
%TO.N,Net-(U1B-~{CRESET})*%
X193162961Y-74465257D03*
%TO.N,Net-(D4-A)*%
X193720210Y-74687690D03*
%TO.N,/TXD*%
X193979009Y-75229009D03*
%TO.N,/VCCIO_2*%
X196750000Y-78500000D03*
%TO.N,/IOB_8a*%
X194651468Y-75901468D03*
%TO.N,/IOB_9b*%
X195075734Y-76325734D03*
%TO.N,/IOB_6a*%
X195500000Y-76750000D03*
%TO.N,/IOB_4a*%
X196000000Y-78750000D03*
%TO.N,/IOB_2a*%
X195848065Y-79342900D03*
%TO.N,/IOB_Oa*%
X195530351Y-79851880D03*
%TO.N,/IOB_5b*%
X195409908Y-80439669D03*
%TO.N,/IOB_3b_G6*%
X194848532Y-80651468D03*
%TO.N,Net-(U1A-RGB2)*%
X193731671Y-82036659D03*
%TO.N,/IOT_49a*%
X194424266Y-81075734D03*
%TO.N,Net-(U1A-RGB1)*%
X193074953Y-82175047D03*
%TO.N,Net-(U1A-RGB0)*%
X192866601Y-83500000D03*
%TO.N,/IOT_50b*%
X192268329Y-82713341D03*
%TO.N,/IOT_45a_G1*%
X192000000Y-83250000D03*
%TO.N,/IOT_48b*%
X189750000Y-83500000D03*
%TO.N,/IOT_46b_G0*%
X189268329Y-83036659D03*
%TO.N,/IOT_44b*%
X189000000Y-82500000D03*
%TO.N,/IOT_43a*%
X187851905Y-82103739D03*
%TO.N,/IOT_42b*%
X188031134Y-81531134D03*
%TO.N,Net-(U1D-VCCPLL)*%
X186962893Y-81119803D03*
%TO.N,/IOT_41a*%
X187022798Y-80522798D03*
%TO.N,/IOT_38b*%
X186598532Y-80098532D03*
%TO.N,/IOT_39a*%
X186174266Y-79674266D03*
%TO.N,/IOT_36b*%
X185750000Y-79250000D03*
%TO.N,+1V2*%
X193000000Y-70500000D03*
X189500000Y-71202603D03*
X183500000Y-68500000D03*
X182750000Y-83000000D03*
X196109611Y-72791860D03*
%TO.N,GND*%
X189000000Y-79250000D03*
X192500000Y-77000000D03*
X189000000Y-77250000D03*
X192500000Y-79500000D03*
X189000000Y-78250000D03*
X193250000Y-78250000D03*
%TO.N,+5V*%
X184750000Y-69750000D03*
%TO.N,GND*%
X182000000Y-81500000D03*
X198500000Y-63750000D03*
X196000000Y-66000000D03*
X200500000Y-72000000D03*
X184750000Y-91500000D03*
X190750000Y-69750000D03*
X198300000Y-53475000D03*
X182500000Y-62500000D03*
X189000000Y-62000000D03*
X185750000Y-65750000D03*
X191250000Y-63250000D03*
X192250000Y-60750000D03*
X194500000Y-59250000D03*
X183000000Y-54500000D03*
%TO.N,+2V5*%
X183250000Y-77500000D03*
X198250000Y-59500000D03*
%TO.N,/IOB_24a*%
X191052603Y-71802603D03*
%TO.N,/SPI_SS*%
X188750000Y-88500000D03*
%TO.N,+3V3*%
X182000000Y-88750000D03*
X184000000Y-78825000D03*
X186777372Y-74748080D03*
%TO.N,/CRESET_B*%
X195000000Y-67000000D03*
%TO.N,/SPI_SO*%
X184052649Y-88014771D03*
%TO.N,Net-(U1A-RGB1)*%
X194500000Y-98750000D03*
%TO.N,Net-(U1A-RGB0)*%
X192500000Y-95250000D03*
%TO.N,/SPI_SI*%
X190250000Y-90250000D03*
%TO.N,/SPI_SCK*%
X191000000Y-89250000D03*
%TO.N,/SPI_SO*%
X187250000Y-88000000D03*
%TO.N,Net-(U3-~{RST})*%
X187044153Y-63105030D03*
X187320000Y-66516418D03*
%TO.N,+5V*%
X193250000Y-63750000D03*
X188034360Y-60034012D03*
X186510613Y-61701453D03*
%TO.N,+5VP*%
X195250000Y-64500000D03*
X180250000Y-54000000D03*
X184750000Y-63500000D03*
%TO.N,+3V3*%
X187750000Y-61750000D03*
X196250000Y-60000000D03*
X195000000Y-62250000D03*
%TO.N,Net-(U3-VDD)*%
X189462500Y-63250000D03*
X191162500Y-62000000D03*
%TD*%
D17*
%TO.N,/1OB_18a*%
X201000000Y-62620000D02*
X202250000Y-61370000D01*
X200532240Y-64000000D02*
X201000000Y-64000000D01*
X192721645Y-71810595D02*
X200532240Y-64000000D01*
X192721645Y-73392122D02*
X192721645Y-71810595D01*
X201000000Y-64000000D02*
X201000000Y-62620000D01*
%TO.N,/IOB_Oa*%
X202190000Y-81750000D02*
X202250000Y-81690000D01*
X197428471Y-81750000D02*
X202190000Y-81750000D01*
X195530351Y-79851880D02*
X197428471Y-81750000D01*
%TO.N,/IOB_5b*%
X202020000Y-84000000D02*
X202250000Y-84230000D01*
X198970239Y-84000000D02*
X202020000Y-84000000D01*
X195409908Y-80439669D02*
X198970239Y-84000000D01*
%TO.N,/IOB_23b*%
X181780000Y-71530000D02*
X178750000Y-71530000D01*
X182500000Y-72250000D02*
X181780000Y-71530000D01*
X182814124Y-72250000D02*
X182500000Y-72250000D01*
X186539124Y-75975000D02*
X182814124Y-72250000D01*
%TO.N,/IOT_37a*%
X182320000Y-74070000D02*
X178750000Y-74070000D01*
X182500000Y-74250000D02*
X182320000Y-74070000D01*
X182500000Y-74768330D02*
X182500000Y-74250000D01*
X185213341Y-77481671D02*
X182500000Y-74768330D01*
%TO.N,/IOB_22a*%
X201099000Y-54901000D02*
X202250000Y-53750000D01*
X201099000Y-57500943D02*
X201099000Y-54901000D01*
X191653603Y-66946340D02*
X201099000Y-57500943D01*
X191653603Y-72895459D02*
X191653603Y-66946340D01*
X191615178Y-72933884D02*
X191653603Y-72895459D01*
%TO.N,/IOB_12a*%
X202250000Y-64750000D02*
X202250000Y-63910000D01*
X193013121Y-73986879D02*
X202250000Y-64750000D01*
X192800803Y-73986879D02*
X193013121Y-73986879D01*
%TO.N,/IOB_8a*%
X194651468Y-75098532D02*
X200750000Y-69000000D01*
X200750000Y-69000000D02*
X200750000Y-67950000D01*
X194651468Y-75901468D02*
X194651468Y-75098532D01*
X200750000Y-67950000D02*
X202250000Y-66450000D01*
%TO.N,/IOB_9b*%
X202250000Y-69151468D02*
X202250000Y-68990000D01*
X195075734Y-76325734D02*
X202250000Y-69151468D01*
%TO.N,/IOB_6a*%
X197030000Y-76750000D02*
X202250000Y-71530000D01*
X195500000Y-76750000D02*
X197030000Y-76750000D01*
%TO.N,/IOB_4a*%
X200471479Y-74070000D02*
X202250000Y-74070000D01*
X196000000Y-78541479D02*
X200471479Y-74070000D01*
X196000000Y-78750000D02*
X196000000Y-78541479D01*
%TO.N,/IOB_2a*%
X202057100Y-79342900D02*
X202250000Y-79150000D01*
X195848065Y-79342900D02*
X202057100Y-79342900D01*
%TO.N,/IOB_3b_G6*%
X200967064Y-86770000D02*
X202250000Y-86770000D01*
X194848532Y-80651468D02*
X200967064Y-86770000D01*
%TO.N,/IOT_49a*%
X194424266Y-81484266D02*
X202250000Y-89310000D01*
X194424266Y-81075734D02*
X194424266Y-81484266D01*
%TO.N,/IOT_50b*%
X201174000Y-90774000D02*
X202250000Y-91850000D01*
X197750000Y-90774000D02*
X201174000Y-90774000D01*
X195774000Y-88798000D02*
X197750000Y-90774000D01*
X195774000Y-85698878D02*
X195774000Y-88798000D01*
X192788463Y-82713341D02*
X195774000Y-85698878D01*
X192268329Y-82713341D02*
X192788463Y-82713341D01*
%TO.N,/IOT_45a_G1*%
X197363280Y-94390000D02*
X202250000Y-94390000D01*
X192000000Y-89026720D02*
X197363280Y-94390000D01*
X192000000Y-83250000D02*
X192000000Y-89026720D01*
%TO.N,/IOT_48b*%
X189649000Y-91111000D02*
X178750000Y-102010000D01*
X189649000Y-83601000D02*
X189649000Y-91111000D01*
X189750000Y-83500000D02*
X189649000Y-83601000D01*
%TO.N,/IOT_46b_G0*%
X186649000Y-91571000D02*
X178750000Y-99470000D01*
X186649000Y-85655988D02*
X186649000Y-91571000D01*
X189268329Y-83036659D02*
X186649000Y-85655988D01*
%TO.N,/IOT_44b*%
X182601000Y-90539000D02*
X178750000Y-94390000D01*
X182601000Y-88501057D02*
X182601000Y-90539000D01*
X188602057Y-82500000D02*
X182601000Y-88501057D01*
X189000000Y-82500000D02*
X188602057Y-82500000D01*
%TO.N,/IOT_43a*%
X178750000Y-91150057D02*
X178750000Y-91850000D01*
X187796318Y-82103739D02*
X178750000Y-91150057D01*
X187851905Y-82103739D02*
X187796318Y-82103739D01*
%TO.N,/IOT_42b*%
X179690000Y-89310000D02*
X178750000Y-89310000D01*
X187468866Y-81531134D02*
X179690000Y-89310000D01*
X188031134Y-81531134D02*
X187468866Y-81531134D01*
%TO.N,/IOT_41a*%
X180712332Y-86770000D02*
X178750000Y-86770000D01*
X186461893Y-81020439D02*
X180712332Y-86770000D01*
X186926793Y-80618803D02*
X186755372Y-80618803D01*
X186755372Y-80618803D02*
X186461893Y-80912282D01*
X186461893Y-80912282D02*
X186461893Y-81020439D01*
X187022798Y-80522798D02*
X186926793Y-80618803D01*
%TO.N,/IOT_38b*%
X185917710Y-80779354D02*
X185917710Y-80997522D01*
X185917710Y-80997522D02*
X182685232Y-84230000D01*
X186598532Y-80098532D02*
X185917710Y-80779354D01*
X182685232Y-84230000D02*
X178750000Y-84230000D01*
%TO.N,/IOT_39a*%
X180150999Y-80289001D02*
X178750000Y-81690000D01*
X185559531Y-80289001D02*
X180150999Y-80289001D01*
X186174266Y-79674266D02*
X185559531Y-80289001D01*
%TO.N,/IOT_36b*%
X179100000Y-79500000D02*
X178750000Y-79150000D01*
X185345459Y-79500000D02*
X179100000Y-79500000D01*
X185595459Y-79250000D02*
X185345459Y-79500000D01*
X185750000Y-79250000D02*
X185595459Y-79250000D01*
%TO.N,/IOB_29b*%
X187500000Y-73750000D02*
X182740000Y-68990000D01*
X187500000Y-75500000D02*
X187500000Y-73750000D01*
X182740000Y-68990000D02*
X178750000Y-68990000D01*
%TO.N,/IOB_24a*%
X188552603Y-71802603D02*
X183200000Y-66450000D01*
X183200000Y-66450000D02*
X178750000Y-66450000D01*
X191052603Y-71802603D02*
X188552603Y-71802603D01*
%TO.N,/IOB_20a*%
X192153890Y-68926110D02*
X202250000Y-58830000D01*
X192153890Y-73198067D02*
X192153890Y-68926110D01*
%TD*%
M02*
