%TF.GenerationSoftware,KiCad,Pcbnew,9.0.6*%
%TF.CreationDate,2026-07-17T22:43:22+05:00*%
%TF.ProjectId,NS FPGA V2 iCE,4e532046-5047-4412-9056-32206943452e,rev?*%
%TF.SameCoordinates,Original*%
%TF.FileFunction,Soldermask,Top*%
%TF.FilePolarity,Negative*%
%FSLAX46Y46*%
G04 Gerber Fmt 4.6, Leading zero omitted, Abs format (unit mm)*
G04 Created by KiCad (PCBNEW 9.0.6) date 2026-07-17 22:43:22*
%MOMM*%
%LPD*%
G01*
G04 APERTURE LIST*
G04 Aperture macros list*
%AMRoundRect*
0 Rectangle with rounded corners*
0 $1 Rounding radius*
0 $2 $3 $4 $5 $6 $7 $8 $9 X,Y pos of 4 corners*
0 Add a 4 corners polygon primitive as box body*
4,1,4,$2,$3,$4,$5,$6,$7,$8,$9,$2,$3,0*
0 Add four circle primitives for the rounded corners*
1,1,$1+$1,$2,$3*
1,1,$1+$1,$4,$5*
1,1,$1+$1,$6,$7*
1,1,$1+$1,$8,$9*
0 Add four rect primitives between the rounded corners*
20,1,$1+$1,$2,$3,$4,$5,0*
20,1,$1+$1,$4,$5,$6,$7,0*
20,1,$1+$1,$6,$7,$8,$9,0*
20,1,$1+$1,$8,$9,$2,$3,0*%
%AMRotRect*
0 Rectangle, with rotation*
0 The origin of the aperture is its center*
0 $1 length*
0 $2 width*
0 $3 Rotation angle, in degrees counterclockwise*
0 Add horizontal line*
21,1,$1,$2,0,0,$3*%
G04 Aperture macros list end*
%ADD10RoundRect,0.135000X-0.185000X0.135000X-0.185000X-0.135000X0.185000X-0.135000X0.185000X0.135000X0*%
%ADD11R,1.500000X0.900000*%
%ADD12RoundRect,0.135000X0.226274X0.035355X0.035355X0.226274X-0.226274X-0.035355X-0.035355X-0.226274X0*%
%ADD13RoundRect,0.150000X-0.150000X0.512500X-0.150000X-0.512500X0.150000X-0.512500X0.150000X0.512500X0*%
%ADD14R,0.850000X0.850000*%
%ADD15C,0.850000*%
%ADD16RoundRect,0.225000X0.070711X0.388909X-0.388909X-0.070711X-0.070711X-0.388909X0.388909X0.070711X0*%
%ADD17RoundRect,0.062500X-0.062500X0.350000X-0.062500X-0.350000X0.062500X-0.350000X0.062500X0.350000X0*%
%ADD18RoundRect,0.062500X-0.350000X0.062500X-0.350000X-0.062500X0.350000X-0.062500X0.350000X0.062500X0*%
%ADD19R,2.600000X2.600000*%
%ADD20RoundRect,0.162500X-0.650000X-0.162500X0.650000X-0.162500X0.650000X0.162500X-0.650000X0.162500X0*%
%ADD21RoundRect,0.062500X0.194454X0.282843X-0.282843X-0.194454X-0.194454X-0.282843X0.282843X0.194454X0*%
%ADD22RoundRect,0.062500X-0.194454X0.282843X-0.282843X0.194454X0.194454X-0.282843X0.282843X-0.194454X0*%
%ADD23RotRect,5.100000X5.100000X225.000000*%
%ADD24C,1.000000*%
%ADD25R,1.000000X0.900000*%
%ADD26RoundRect,0.135000X-0.135000X-0.185000X0.135000X-0.185000X0.135000X0.185000X-0.135000X0.185000X0*%
%ADD27RoundRect,0.135000X0.135000X0.185000X-0.135000X0.185000X-0.135000X-0.185000X0.135000X-0.185000X0*%
%ADD28RoundRect,0.135000X-0.226274X-0.035355X-0.035355X-0.226274X0.226274X0.035355X0.035355X0.226274X0*%
%ADD29RoundRect,0.200000X-0.200000X-0.275000X0.200000X-0.275000X0.200000X0.275000X-0.200000X0.275000X0*%
%ADD30RoundRect,0.135000X0.185000X-0.135000X0.185000X0.135000X-0.185000X0.135000X-0.185000X-0.135000X0*%
%ADD31RoundRect,0.200000X-0.275000X0.200000X-0.275000X-0.200000X0.275000X-0.200000X0.275000X0.200000X0*%
%ADD32R,1.700000X1.700000*%
%ADD33C,1.700000*%
%ADD34R,0.600000X1.450000*%
%ADD35R,0.300000X1.450000*%
%ADD36O,1.000000X2.100000*%
%ADD37O,1.000000X1.600000*%
%ADD38RoundRect,0.147500X-0.172500X0.147500X-0.172500X-0.147500X0.172500X-0.147500X0.172500X0.147500X0*%
%ADD39RoundRect,0.147500X0.147500X0.172500X-0.147500X0.172500X-0.147500X-0.172500X0.147500X-0.172500X0*%
%ADD40RoundRect,0.218750X0.218750X0.256250X-0.218750X0.256250X-0.218750X-0.256250X0.218750X-0.256250X0*%
%ADD41RoundRect,0.140000X-0.140000X-0.170000X0.140000X-0.170000X0.140000X0.170000X-0.140000X0.170000X0*%
%ADD42RoundRect,0.140000X0.140000X0.170000X-0.140000X0.170000X-0.140000X-0.170000X0.140000X-0.170000X0*%
%ADD43RoundRect,0.140000X-0.170000X0.140000X-0.170000X-0.140000X0.170000X-0.140000X0.170000X0.140000X0*%
%ADD44RoundRect,0.140000X0.021213X-0.219203X0.219203X-0.021213X-0.021213X0.219203X-0.219203X0.021213X0*%
%ADD45RoundRect,0.140000X0.170000X-0.140000X0.170000X0.140000X-0.170000X0.140000X-0.170000X-0.140000X0*%
%ADD46RoundRect,0.225000X-0.225000X-0.250000X0.225000X-0.250000X0.225000X0.250000X-0.225000X0.250000X0*%
%ADD47RoundRect,0.225000X0.225000X0.250000X-0.225000X0.250000X-0.225000X-0.250000X0.225000X-0.250000X0*%
%ADD48RoundRect,0.225000X0.250000X-0.225000X0.250000X0.225000X-0.250000X0.225000X-0.250000X-0.225000X0*%
G04 APERTURE END LIST*
D10*
%TO.C,R14*%
X187000000Y-98820000D03*
X187000000Y-97800000D03*
%TD*%
D11*
%TO.C,D3*%
X191600000Y-97500000D03*
X191600000Y-98900000D03*
X188500000Y-97500000D03*
X188500000Y-98900000D03*
%TD*%
D12*
%TO.C,R10*%
X187028752Y-71778752D03*
X187750000Y-72500000D03*
%TD*%
D13*
%TO.C,U4*%
X184250000Y-55775000D03*
X182350000Y-55775000D03*
X182350000Y-53500000D03*
X183300000Y-53500000D03*
X184250000Y-53500000D03*
%TD*%
D14*
%TO.C,J5*%
X198500000Y-91500000D03*
D15*
X198500000Y-92500000D03*
X197500000Y-91500000D03*
X197500000Y-92500000D03*
X196500000Y-91500000D03*
X196500000Y-92500000D03*
%TD*%
D14*
%TO.C,J4*%
X198500000Y-87250000D03*
D15*
X198500000Y-88250000D03*
X197500000Y-87250000D03*
X197500000Y-88250000D03*
X196500000Y-87250000D03*
X196500000Y-88250000D03*
%TD*%
D16*
%TO.C,Y1*%
X185952081Y-72797919D03*
X184750000Y-74000000D03*
X185669239Y-74919239D03*
X186871320Y-73717158D03*
%TD*%
D13*
%TO.C,U7*%
X183500000Y-61500000D03*
X182550000Y-61500000D03*
X181600000Y-61500000D03*
X181600000Y-63775000D03*
X183500000Y-63775000D03*
%TD*%
%TO.C,U6*%
X199250000Y-53475000D03*
X198300000Y-53475000D03*
X197350000Y-53475000D03*
X197350000Y-55750000D03*
X199250000Y-55750000D03*
%TD*%
%TO.C,U5*%
X199500000Y-61475000D03*
X198550000Y-61475000D03*
X197600000Y-61475000D03*
X197600000Y-63750000D03*
X199500000Y-63750000D03*
%TD*%
D17*
%TO.C,U3*%
X191562500Y-64562500D03*
X191062500Y-64562500D03*
X190562500Y-64562500D03*
X190062500Y-64562500D03*
X189562500Y-64562500D03*
X189062500Y-64562500D03*
D18*
X188375000Y-65250000D03*
X188375000Y-65750000D03*
X188375000Y-66250000D03*
X188375000Y-66750000D03*
X188375000Y-67250000D03*
X188375000Y-67750000D03*
D17*
X189062500Y-68437500D03*
X189562500Y-68437500D03*
X190062500Y-68437500D03*
X190562500Y-68437500D03*
X191062500Y-68437500D03*
X191562500Y-68437500D03*
D18*
X192250000Y-67750000D03*
X192250000Y-67250000D03*
X192250000Y-66750000D03*
X192250000Y-66250000D03*
X192250000Y-65750000D03*
X192250000Y-65250000D03*
D19*
X190312500Y-66500000D03*
%TD*%
D20*
%TO.C,U2*%
X185412500Y-86845000D03*
X185412500Y-88115000D03*
X185412500Y-89385000D03*
X185412500Y-90655000D03*
X192587500Y-90655000D03*
X192587500Y-89385000D03*
X192587500Y-88115000D03*
X192587500Y-86845000D03*
%TD*%
D21*
%TO.C,U1*%
X195184062Y-77755025D03*
X194830509Y-77401472D03*
X194476955Y-77047918D03*
X194123402Y-76694365D03*
X193769848Y-76340812D03*
X193416295Y-75987258D03*
X193062742Y-75633705D03*
X192709188Y-75280152D03*
X192355635Y-74926598D03*
X192002082Y-74573045D03*
X191648528Y-74219491D03*
X191294975Y-73865938D03*
D22*
X190305025Y-73865938D03*
X189951472Y-74219491D03*
X189597918Y-74573045D03*
X189244365Y-74926598D03*
X188890812Y-75280152D03*
X188537258Y-75633705D03*
X188183705Y-75987258D03*
X187830152Y-76340812D03*
X187476598Y-76694365D03*
X187123045Y-77047918D03*
X186769491Y-77401472D03*
X186415938Y-77755025D03*
D21*
X186415938Y-78744975D03*
X186769491Y-79098528D03*
X187123045Y-79452082D03*
X187476598Y-79805635D03*
X187830152Y-80159188D03*
X188183705Y-80512742D03*
X188537258Y-80866295D03*
X188890812Y-81219848D03*
X189244365Y-81573402D03*
X189597918Y-81926955D03*
X189951472Y-82280509D03*
X190305025Y-82634062D03*
D22*
X191294975Y-82634062D03*
X191648528Y-82280509D03*
X192002082Y-81926955D03*
X192355635Y-81573402D03*
X192709188Y-81219848D03*
X193062742Y-80866295D03*
X193416295Y-80512742D03*
X193769848Y-80159188D03*
X194123402Y-79805635D03*
X194476955Y-79452082D03*
X194830509Y-79098528D03*
X195184062Y-78744975D03*
D23*
X190800000Y-78250000D03*
%TD*%
D24*
%TO.C,TP4*%
X194000000Y-93250000D03*
%TD*%
%TO.C,TP3*%
X182500000Y-84250000D03*
%TD*%
%TO.C,TP2*%
X197500000Y-96000000D03*
%TD*%
%TO.C,TP1*%
X182500000Y-97250000D03*
%TD*%
D25*
%TO.C,SW1*%
X197700000Y-73300000D03*
X197700000Y-69200000D03*
X199300000Y-73300000D03*
X199300000Y-69200000D03*
%TD*%
D10*
%TO.C,R17*%
X195500000Y-68480000D03*
X195500000Y-69500000D03*
%TD*%
D26*
%TO.C,R16*%
X193480000Y-72500000D03*
X194500000Y-72500000D03*
%TD*%
D10*
%TO.C,R15*%
X196500000Y-84480000D03*
X196500000Y-85500000D03*
%TD*%
D27*
%TO.C,R13*%
X194270000Y-100000000D03*
X193250000Y-100000000D03*
%TD*%
D10*
%TO.C,R12*%
X193200000Y-97780000D03*
X193200000Y-98800000D03*
%TD*%
%TO.C,R11*%
X183250000Y-87730000D03*
X183250000Y-88750000D03*
%TD*%
D28*
%TO.C,R9*%
X184278752Y-75528752D03*
X185000000Y-76250000D03*
%TD*%
D29*
%TO.C,R8*%
X184350000Y-83000000D03*
X186000000Y-83000000D03*
%TD*%
D30*
%TO.C,R7*%
X181000000Y-54520000D03*
X181000000Y-53500000D03*
%TD*%
D26*
%TO.C,R6*%
X187730000Y-63250000D03*
X188750000Y-63250000D03*
%TD*%
D30*
%TO.C,R5*%
X186500000Y-67520000D03*
X186500000Y-66500000D03*
%TD*%
%TO.C,R4*%
X186500000Y-65270000D03*
X186500000Y-64250000D03*
%TD*%
D31*
%TO.C,R3*%
X189000000Y-60350000D03*
X189000000Y-62000000D03*
%TD*%
D29*
%TO.C,R2*%
X191350000Y-60500000D03*
X193000000Y-60500000D03*
%TD*%
D27*
%TO.C,R1*%
X187520000Y-69250000D03*
X186500000Y-69250000D03*
%TD*%
D32*
%TO.C,J6*%
X182760000Y-105750000D03*
D33*
X185300000Y-105750000D03*
X187840000Y-105750000D03*
X190380000Y-105750000D03*
X192920000Y-105750000D03*
X195460000Y-105750000D03*
X198000000Y-105750000D03*
%TD*%
D32*
%TO.C,J3*%
X202250000Y-53750000D03*
D33*
X202250000Y-56290000D03*
X202250000Y-58830000D03*
X202250000Y-61370000D03*
X202250000Y-63910000D03*
X202250000Y-66450000D03*
X202250000Y-68990000D03*
X202250000Y-71530000D03*
X202250000Y-74070000D03*
X202250000Y-76610000D03*
X202250000Y-79150000D03*
X202250000Y-81690000D03*
X202250000Y-84230000D03*
X202250000Y-86770000D03*
X202250000Y-89310000D03*
X202250000Y-91850000D03*
X202250000Y-94390000D03*
X202250000Y-96930000D03*
X202250000Y-99470000D03*
X202250000Y-102010000D03*
%TD*%
D34*
%TO.C,J1*%
X193860000Y-58445000D03*
X193060000Y-58445000D03*
D35*
X191860000Y-58445000D03*
X190860000Y-58445000D03*
X190360000Y-58445000D03*
X189360000Y-58445000D03*
D34*
X188160000Y-58445000D03*
X187360000Y-58445000D03*
X187360000Y-58445000D03*
X188160000Y-58445000D03*
D35*
X188860000Y-58445000D03*
X189860000Y-58445000D03*
X191360000Y-58445000D03*
X192360000Y-58445000D03*
D34*
X193060000Y-58445000D03*
X193860000Y-58445000D03*
D36*
X194930000Y-57530000D03*
D37*
X194930000Y-53350000D03*
D36*
X186290000Y-57530000D03*
D37*
X186290000Y-53350000D03*
%TD*%
D38*
%TO.C,D4*%
X195500000Y-70530000D03*
X195500000Y-71500000D03*
%TD*%
D39*
%TO.C,D2*%
X189720000Y-70000000D03*
X188750000Y-70000000D03*
%TD*%
D40*
%TO.C,D1*%
X195825000Y-63250000D03*
X194250000Y-63250000D03*
%TD*%
D41*
%TO.C,C26*%
X182290000Y-78250000D03*
X183250000Y-78250000D03*
%TD*%
%TO.C,C25*%
X184040000Y-84750000D03*
X185000000Y-84750000D03*
%TD*%
%TO.C,C24*%
X186040000Y-84750000D03*
X187000000Y-84750000D03*
%TD*%
%TO.C,C23*%
X196540000Y-77750000D03*
X197500000Y-77750000D03*
%TD*%
D42*
%TO.C,C22*%
X188250000Y-82750000D03*
X187290000Y-82750000D03*
%TD*%
D43*
%TO.C,C21*%
X185000000Y-78540000D03*
X185000000Y-79500000D03*
%TD*%
D42*
%TO.C,C20*%
X186250000Y-81500000D03*
X185290000Y-81500000D03*
%TD*%
D43*
%TO.C,C19*%
X185250000Y-92540000D03*
X185250000Y-93500000D03*
%TD*%
D44*
%TO.C,C18*%
X184071178Y-72678822D03*
X184750000Y-72000000D03*
%TD*%
D42*
%TO.C,C17*%
X185710000Y-80500000D03*
X184750000Y-80500000D03*
%TD*%
%TO.C,C16*%
X183960000Y-81750000D03*
X183000000Y-81750000D03*
%TD*%
D45*
%TO.C,C15*%
X181000000Y-56460000D03*
X181000000Y-55500000D03*
%TD*%
D43*
%TO.C,C14*%
X192750000Y-61790000D03*
X192750000Y-62750000D03*
%TD*%
%TO.C,C13*%
X191750000Y-61790000D03*
X191750000Y-62750000D03*
%TD*%
D41*
%TO.C,C12*%
X184500000Y-66500000D03*
X185460000Y-66500000D03*
%TD*%
D43*
%TO.C,C11*%
X185250000Y-64250000D03*
X185250000Y-65210000D03*
%TD*%
D41*
%TO.C,C10*%
X185290000Y-62500000D03*
X186250000Y-62500000D03*
%TD*%
%TO.C,C9*%
X194290000Y-60250000D03*
X195250000Y-60250000D03*
%TD*%
D46*
%TO.C,C8*%
X181700000Y-65750000D03*
X183250000Y-65750000D03*
%TD*%
D47*
%TO.C,C7*%
X187250000Y-60750000D03*
X185700000Y-60750000D03*
%TD*%
D48*
%TO.C,C6*%
X199500000Y-59050000D03*
X199500000Y-57500000D03*
%TD*%
%TO.C,C5*%
X197250000Y-59025000D03*
X197250000Y-57475000D03*
%TD*%
D46*
%TO.C,C4*%
X197700000Y-65500000D03*
X199250000Y-65500000D03*
%TD*%
%TO.C,C3*%
X194475000Y-61500000D03*
X196025000Y-61500000D03*
%TD*%
D48*
%TO.C,C2*%
X183750000Y-59275000D03*
X183750000Y-57725000D03*
%TD*%
%TO.C,C1*%
X181750000Y-59275000D03*
X181750000Y-57725000D03*
%TD*%
D32*
%TO.C,J2*%
X178750000Y-53750000D03*
D33*
X178750000Y-56290000D03*
X178750000Y-58830000D03*
X178750000Y-61370000D03*
X178750000Y-63910000D03*
X178750000Y-66450000D03*
X178750000Y-68990000D03*
X178750000Y-71530000D03*
X178750000Y-74070000D03*
X178750000Y-76610000D03*
X178750000Y-79150000D03*
X178750000Y-81690000D03*
X178750000Y-84230000D03*
X178750000Y-86770000D03*
X178750000Y-89310000D03*
X178750000Y-91850000D03*
X178750000Y-94390000D03*
X178750000Y-96930000D03*
X178750000Y-99470000D03*
X178750000Y-102010000D03*
%TD*%
M02*
