%TF.GenerationSoftware,KiCad,Pcbnew,9.0.6*%
%TF.CreationDate,2026-07-17T22:43:22+05:00*%
%TF.ProjectId,NS FPGA V2 iCE,4e532046-5047-4412-9056-32206943452e,rev?*%
%TF.SameCoordinates,Original*%
%TF.FileFunction,Copper,L2,Inr*%
%TF.FilePolarity,Positive*%
%FSLAX46Y46*%
G04 Gerber Fmt 4.6, Leading zero omitted, Abs format (unit mm)*
G04 Created by KiCad (PCBNEW 9.0.6) date 2026-07-17 22:43:22*
%MOMM*%
%LPD*%
G01*
G04 APERTURE LIST*
%TA.AperFunction,ComponentPad*%
%ADD10R,0.850000X0.850000*%
%TD*%
%TA.AperFunction,ComponentPad*%
%ADD11C,0.850000*%
%TD*%
%TA.AperFunction,ComponentPad*%
%ADD12R,1.700000X1.700000*%
%TD*%
%TA.AperFunction,ComponentPad*%
%ADD13C,1.700000*%
%TD*%
%TA.AperFunction,HeatsinkPad*%
%ADD14O,1.000000X2.100000*%
%TD*%
%TA.AperFunction,HeatsinkPad*%
%ADD15O,1.000000X1.600000*%
%TD*%
%TA.AperFunction,ViaPad*%
%ADD16C,0.400000*%
%TD*%
%TA.AperFunction,Conductor*%
%ADD17C,0.200000*%
%TD*%
G04 APERTURE END LIST*
D10*
%TO.N,/VCCIO_2*%
%TO.C,J5*%
X198500000Y-91500000D03*
D11*
%TO.N,+1V8*%
X198500000Y-92500000D03*
%TO.N,/VCCIO_2*%
X197500000Y-91500000D03*
%TO.N,+2V5*%
X197500000Y-92500000D03*
%TO.N,/VCCIO_2*%
X196500000Y-91500000D03*
%TO.N,+3V3*%
X196500000Y-92500000D03*
%TD*%
D10*
%TO.N,/VCCIO_0*%
%TO.C,J4*%
X198500000Y-87250000D03*
D11*
%TO.N,+1V8*%
X198500000Y-88250000D03*
%TO.N,/VCCIO_0*%
X197500000Y-87250000D03*
%TO.N,+2V5*%
X197500000Y-88250000D03*
%TO.N,/VCCIO_0*%
X196500000Y-87250000D03*
%TO.N,+3V3*%
X196500000Y-88250000D03*
%TD*%
D12*
%TO.N,+3V3*%
%TO.C,J6*%
X182760000Y-105750000D03*
D13*
%TO.N,GND*%
X185300000Y-105750000D03*
%TO.N,/SPI_SS*%
X187840000Y-105750000D03*
%TO.N,/SPI_SCK*%
X190380000Y-105750000D03*
%TO.N,/SPI_SO*%
X192920000Y-105750000D03*
%TO.N,/SPI_SI*%
X195460000Y-105750000D03*
%TO.N,/CRESET_B*%
X198000000Y-105750000D03*
%TD*%
D12*
%TO.N,/IOB_22a*%
%TO.C,J3*%
X202250000Y-53750000D03*
D13*
%TO.N,GND*%
X202250000Y-56290000D03*
%TO.N,/IOB_20a*%
X202250000Y-58830000D03*
%TO.N,/1OB_18a*%
X202250000Y-61370000D03*
%TO.N,/IOB_12a*%
X202250000Y-63910000D03*
%TO.N,/IOB_8a*%
X202250000Y-66450000D03*
%TO.N,/IOB_9b*%
X202250000Y-68990000D03*
%TO.N,/IOB_6a*%
X202250000Y-71530000D03*
%TO.N,/IOB_4a*%
X202250000Y-74070000D03*
%TO.N,GND*%
X202250000Y-76610000D03*
%TO.N,/IOB_2a*%
X202250000Y-79150000D03*
%TO.N,/IOB_Oa*%
X202250000Y-81690000D03*
%TO.N,/IOB_5b*%
X202250000Y-84230000D03*
%TO.N,/IOB_3b_G6*%
X202250000Y-86770000D03*
%TO.N,/IOT_49a*%
X202250000Y-89310000D03*
%TO.N,/IOT_50b*%
X202250000Y-91850000D03*
%TO.N,/IOT_45a_G1*%
X202250000Y-94390000D03*
%TO.N,+3V3*%
X202250000Y-96930000D03*
%TO.N,GND*%
X202250000Y-99470000D03*
%TO.N,+5V*%
X202250000Y-102010000D03*
%TD*%
D14*
%TO.N,GND*%
%TO.C,J1*%
X194930000Y-57530000D03*
D15*
X194930000Y-53350000D03*
D14*
X186290000Y-57530000D03*
D15*
X186290000Y-53350000D03*
%TD*%
D12*
%TO.N,+5V*%
%TO.C,J2*%
X178750000Y-53750000D03*
D13*
%TO.N,GND*%
X178750000Y-56290000D03*
%TO.N,+3V3*%
X178750000Y-58830000D03*
%TO.N,+2V5*%
X178750000Y-61370000D03*
%TO.N,+1V8*%
X178750000Y-63910000D03*
%TO.N,/IOB_24a*%
X178750000Y-66450000D03*
%TO.N,/IOB_29b*%
X178750000Y-68990000D03*
%TO.N,/IOB_23b*%
X178750000Y-71530000D03*
%TO.N,/IOT_37a*%
X178750000Y-74070000D03*
%TO.N,GND*%
X178750000Y-76610000D03*
%TO.N,/IOT_36b*%
X178750000Y-79150000D03*
%TO.N,/IOT_39a*%
X178750000Y-81690000D03*
%TO.N,/IOT_38b*%
X178750000Y-84230000D03*
%TO.N,/IOT_41a*%
X178750000Y-86770000D03*
%TO.N,/IOT_42b*%
X178750000Y-89310000D03*
%TO.N,/IOT_43a*%
X178750000Y-91850000D03*
%TO.N,/IOT_44b*%
X178750000Y-94390000D03*
%TO.N,+3V3*%
X178750000Y-96930000D03*
%TO.N,/IOT_46b_G0*%
X178750000Y-99470000D03*
%TO.N,/IOT_48b*%
X178750000Y-102010000D03*
%TD*%
D16*
%TO.N,+3V3*%
X192700000Y-96700000D03*
%TO.N,Net-(D3-GK)*%
X192600000Y-100500000D03*
X188600000Y-96700000D03*
%TO.N,Net-(U1A-RGB2)*%
X187400000Y-96200000D03*
%TO.N,/D+*%
X190860000Y-58445000D03*
X189860000Y-58445000D03*
%TO.N,GND*%
X187360000Y-58445000D03*
%TO.N,Net-(U1D-VCCPLL)*%
X184610000Y-81449265D03*
X185416710Y-80790001D03*
%TO.N,+3V3*%
X186000000Y-76500000D03*
%TO.N,/IOB_23b*%
X186539124Y-75975000D03*
%TO.N,/IOT_37a*%
X185213341Y-77481671D03*
%TO.N,+2V5*%
X185750000Y-77750000D03*
%TO.N,/TXD*%
X193500000Y-66750000D03*
%TO.N,/IOB_29b*%
X187500000Y-75500000D03*
%TO.N,/SPI_SI*%
X188177148Y-74538051D03*
%TO.N,/SPI_SS*%
X188708977Y-74260274D03*
%TO.N,/SPI_SCK*%
X189169746Y-73799483D03*
%TO.N,/SPI_SO*%
X189644746Y-73403978D03*
%TO.N,/IOB_22a*%
X191615178Y-72933884D03*
%TO.N,/IOB_20a*%
X192153890Y-73198067D03*
%TO.N,/1OB_18a*%
X192721645Y-73392122D03*
%TO.N,/IOB_12a*%
X192800803Y-73986879D03*
%TO.N,Net-(U1B-~{CRESET})*%
X193162961Y-74465257D03*
%TO.N,Net-(D4-A)*%
X193720210Y-74687690D03*
%TO.N,/TXD*%
X193979009Y-75229009D03*
%TO.N,/VCCIO_2*%
X196750000Y-78500000D03*
%TO.N,/IOB_8a*%
X194651468Y-75901468D03*
%TO.N,/IOB_9b*%
X195075734Y-76325734D03*
%TO.N,/IOB_6a*%
X195500000Y-76750000D03*
%TO.N,/IOB_4a*%
X196000000Y-78750000D03*
%TO.N,/IOB_2a*%
X195848065Y-79342900D03*
%TO.N,/IOB_Oa*%
X195530351Y-79851880D03*
%TO.N,/IOB_5b*%
X195409908Y-80439669D03*
%TO.N,/IOB_3b_G6*%
X194848532Y-80651468D03*
%TO.N,Net-(U1A-RGB2)*%
X193731671Y-82036659D03*
%TO.N,/IOT_49a*%
X194424266Y-81075734D03*
%TO.N,Net-(U1A-RGB1)*%
X193074953Y-82175047D03*
%TO.N,Net-(U1A-RGB0)*%
X192866601Y-83500000D03*
%TO.N,/IOT_50b*%
X192268329Y-82713341D03*
%TO.N,/IOT_45a_G1*%
X192000000Y-83250000D03*
%TO.N,/IOT_48b*%
X189750000Y-83500000D03*
%TO.N,/IOT_46b_G0*%
X189268329Y-83036659D03*
%TO.N,/IOT_44b*%
X189000000Y-82500000D03*
%TO.N,/IOT_43a*%
X187851905Y-82103739D03*
%TO.N,/IOT_42b*%
X188031134Y-81531134D03*
%TO.N,Net-(U1D-VCCPLL)*%
X186962893Y-81119803D03*
%TO.N,/IOT_41a*%
X187022798Y-80522798D03*
%TO.N,/IOT_38b*%
X186598532Y-80098532D03*
%TO.N,/IOT_39a*%
X186174266Y-79674266D03*
%TO.N,/IOT_36b*%
X185750000Y-79250000D03*
%TO.N,+1V2*%
X193000000Y-70500000D03*
X189500000Y-71202603D03*
X183500000Y-68500000D03*
X182750000Y-83000000D03*
X196109611Y-72791860D03*
%TO.N,GND*%
X189000000Y-79250000D03*
X192500000Y-77000000D03*
X189000000Y-77250000D03*
X192500000Y-79500000D03*
X189000000Y-78250000D03*
X193250000Y-78250000D03*
%TO.N,+5V*%
X184750000Y-69750000D03*
%TO.N,GND*%
X182000000Y-81500000D03*
X198500000Y-63750000D03*
X196000000Y-66000000D03*
X200500000Y-72000000D03*
X184750000Y-91500000D03*
X190750000Y-69750000D03*
X198300000Y-53475000D03*
X182500000Y-62500000D03*
X189000000Y-62000000D03*
X185750000Y-65750000D03*
X191250000Y-63250000D03*
X192250000Y-60750000D03*
X194500000Y-59250000D03*
X183000000Y-54500000D03*
%TO.N,+2V5*%
X183250000Y-77500000D03*
X198250000Y-59500000D03*
%TO.N,/IOB_24a*%
X191052603Y-71802603D03*
%TO.N,/SPI_SS*%
X188750000Y-88500000D03*
%TO.N,+3V3*%
X182000000Y-88750000D03*
X184000000Y-78825000D03*
X186777372Y-74748080D03*
%TO.N,/CRESET_B*%
X195000000Y-67000000D03*
%TO.N,/SPI_SO*%
X184052649Y-88014771D03*
%TO.N,Net-(U1A-RGB1)*%
X194500000Y-98750000D03*
%TO.N,Net-(U1A-RGB0)*%
X192500000Y-95250000D03*
%TO.N,/SPI_SI*%
X190250000Y-90250000D03*
%TO.N,/SPI_SCK*%
X191000000Y-89250000D03*
%TO.N,/SPI_SO*%
X187250000Y-88000000D03*
%TO.N,Net-(U3-~{RST})*%
X187044153Y-63105030D03*
X187320000Y-66516418D03*
%TO.N,+5V*%
X193250000Y-63750000D03*
X188034360Y-60034012D03*
X186510613Y-61701453D03*
%TO.N,+5VP*%
X195250000Y-64500000D03*
X180250000Y-54000000D03*
X184750000Y-63500000D03*
%TO.N,+3V3*%
X187750000Y-61750000D03*
X196250000Y-60000000D03*
X195000000Y-62250000D03*
%TO.N,Net-(U3-VDD)*%
X189462500Y-63250000D03*
X191162500Y-62000000D03*
%TD*%
D17*
%TO.N,+1V2*%
X195291860Y-72791860D02*
X193000000Y-70500000D01*
X196109611Y-72791860D02*
X195291860Y-72791860D01*
X181399000Y-70601000D02*
X183500000Y-68500000D01*
X181399000Y-81748943D02*
X181399000Y-70601000D01*
X182650057Y-83000000D02*
X181399000Y-81748943D01*
X182750000Y-83000000D02*
X182650057Y-83000000D01*
%TO.N,+5V*%
X182649000Y-71851000D02*
X184750000Y-69750000D01*
X182649000Y-81251057D02*
X182649000Y-71851000D01*
X190399000Y-89001057D02*
X182649000Y-81251057D01*
X202250000Y-101349943D02*
X190399000Y-89498943D01*
X190399000Y-89498943D02*
X190399000Y-89001057D01*
X202250000Y-102010000D02*
X202250000Y-101349943D01*
%TO.N,+3V3*%
X195774000Y-91800720D02*
X196473280Y-92500000D01*
X196199280Y-90774000D02*
X195774000Y-91199280D01*
X195774000Y-91199280D02*
X195774000Y-91800720D01*
X199226000Y-90774000D02*
X196199280Y-90774000D01*
X196473280Y-92500000D02*
X196500000Y-92500000D01*
X199226000Y-93906000D02*
X199226000Y-90774000D01*
X202250000Y-96930000D02*
X199226000Y-93906000D01*
%TO.N,+2V5*%
X183524943Y-77500000D02*
X183250000Y-77500000D01*
X184601000Y-78576057D02*
X183524943Y-77500000D01*
X184601000Y-79073943D02*
X184601000Y-78576057D01*
X185966745Y-80439688D02*
X184601000Y-79073943D01*
X185966745Y-83134885D02*
X185966745Y-80439688D01*
X196057860Y-93226000D02*
X185966745Y-83134885D01*
X197375040Y-93226000D02*
X196057860Y-93226000D01*
X197500000Y-93101040D02*
X197375040Y-93226000D01*
X197500000Y-92500000D02*
X197500000Y-93101040D01*
%TO.N,+3V3*%
X195774000Y-88976000D02*
X195774000Y-92375040D01*
X195774000Y-92375040D02*
X195898960Y-92500000D01*
X196500000Y-88250000D02*
X195774000Y-88976000D01*
X195898960Y-92500000D02*
X196500000Y-92500000D01*
%TO.N,+1V8*%
X199000000Y-88250000D02*
X198500000Y-88250000D01*
X199226000Y-88024000D02*
X199000000Y-88250000D01*
X199226000Y-86524000D02*
X199226000Y-88024000D01*
X199000000Y-86524000D02*
X199226000Y-86524000D01*
X193923266Y-81447266D02*
X199000000Y-86524000D01*
X193923266Y-76973977D02*
X193923266Y-81447266D01*
X188351000Y-71401711D02*
X193923266Y-76973977D01*
X188351000Y-61501057D02*
X188351000Y-71401711D01*
X187950396Y-61100453D02*
X188351000Y-61501057D01*
X181559547Y-61100453D02*
X187950396Y-61100453D01*
X178750000Y-63910000D02*
X181559547Y-61100453D01*
%TO.N,+3V3*%
X186443153Y-74413861D02*
X186777372Y-74748080D01*
X186443153Y-62856087D02*
X186443153Y-74413861D01*
X187549240Y-61750000D02*
X186443153Y-62856087D01*
X187750000Y-61750000D02*
X187549240Y-61750000D01*
%TO.N,Net-(U3-~{RST})*%
X187320000Y-63380877D02*
X187044153Y-63105030D01*
X187320000Y-66516418D02*
X187320000Y-63380877D01*
%TD*%
%TA.AperFunction,Conductor*%
%TO.N,GND*%
G36*
X185658230Y-52518047D02*
G01*
X185683882Y-52562476D01*
X185674973Y-52613000D01*
X185672381Y-52617168D01*
X185621813Y-52692848D01*
X185564976Y-52830065D01*
X185536000Y-52975737D01*
X185536000Y-53200000D01*
X185990000Y-53200000D01*
X185990000Y-53500000D01*
X185536000Y-53500000D01*
X185536000Y-53724262D01*
X185564976Y-53869934D01*
X185621813Y-54007151D01*
X185704330Y-54130646D01*
X185704332Y-54130649D01*
X185809350Y-54235667D01*
X185809353Y-54235669D01*
X185932848Y-54318186D01*
X186070065Y-54375023D01*
X186140000Y-54388933D01*
X186140000Y-53909808D01*
X186174204Y-53929556D01*
X186250504Y-53950000D01*
X186329496Y-53950000D01*
X186405796Y-53929556D01*
X186440000Y-53909808D01*
X186440000Y-54388933D01*
X186509934Y-54375023D01*
X186647151Y-54318186D01*
X186770646Y-54235669D01*
X186770649Y-54235667D01*
X186875667Y-54130649D01*
X186875669Y-54130646D01*
X186958186Y-54007151D01*
X187015023Y-53869934D01*
X187044000Y-53724262D01*
X187044000Y-53500000D01*
X186590000Y-53500000D01*
X186590000Y-53200000D01*
X187044000Y-53200000D01*
X187044000Y-52975737D01*
X187015023Y-52830065D01*
X186958186Y-52692848D01*
X186907619Y-52617168D01*
X186895425Y-52567335D01*
X186918116Y-52521323D01*
X186965074Y-52500661D01*
X186969979Y-52500500D01*
X194250021Y-52500500D01*
X194298230Y-52518047D01*
X194323882Y-52562476D01*
X194314973Y-52613000D01*
X194312381Y-52617168D01*
X194261813Y-52692848D01*
X194204976Y-52830065D01*
X194176000Y-52975737D01*
X194176000Y-53200000D01*
X194630000Y-53200000D01*
X194630000Y-53500000D01*
X194176000Y-53500000D01*
X194176000Y-53724262D01*
X194204976Y-53869934D01*
X194261813Y-54007151D01*
X194344330Y-54130646D01*
X194344332Y-54130649D01*
X194449350Y-54235667D01*
X194449353Y-54235669D01*
X194572848Y-54318186D01*
X194710065Y-54375023D01*
X194780000Y-54388933D01*
X194780000Y-53909808D01*
X194814204Y-53929556D01*
X194890504Y-53950000D01*
X194969496Y-53950000D01*
X195045796Y-53929556D01*
X195080000Y-53909808D01*
X195080000Y-54388933D01*
X195149934Y-54375023D01*
X195287151Y-54318186D01*
X195410646Y-54235669D01*
X195410649Y-54235667D01*
X195515667Y-54130649D01*
X195515669Y-54130646D01*
X195598186Y-54007151D01*
X195655023Y-53869934D01*
X195684000Y-53724262D01*
X195684000Y-53500000D01*
X195230000Y-53500000D01*
X195230000Y-53200000D01*
X195684000Y-53200000D01*
X195684000Y-52975737D01*
X195667184Y-52891199D01*
X195665006Y-52880251D01*
X201199500Y-52880251D01*
X201199500Y-54619748D01*
X201211132Y-54678230D01*
X201255447Y-54744551D01*
X201255448Y-54744552D01*
X201321769Y-54788867D01*
X201380251Y-54800500D01*
X201380252Y-54800500D01*
X203119749Y-54800500D01*
X203148989Y-54794683D01*
X203178231Y-54788867D01*
X203244552Y-54744552D01*
X203288867Y-54678231D01*
X203300500Y-54619748D01*
X203300500Y-52880252D01*
X203288867Y-52821769D01*
X203244552Y-52755448D01*
X203178231Y-52711133D01*
X203178230Y-52711132D01*
X203119749Y-52699500D01*
X203119748Y-52699500D01*
X201380252Y-52699500D01*
X201380251Y-52699500D01*
X201321769Y-52711132D01*
X201255448Y-52755447D01*
X201255447Y-52755448D01*
X201211132Y-52821769D01*
X201199500Y-52880251D01*
X195665006Y-52880251D01*
X195655023Y-52830065D01*
X195598186Y-52692848D01*
X195547619Y-52617168D01*
X195535425Y-52567335D01*
X195558116Y-52521323D01*
X195605074Y-52500661D01*
X195609979Y-52500500D01*
X203424500Y-52500500D01*
X203472709Y-52518047D01*
X203498361Y-52562476D01*
X203499500Y-52575500D01*
X203499500Y-56168795D01*
X203481953Y-56217004D01*
X203437524Y-56242656D01*
X203387000Y-56233747D01*
X203354023Y-56194447D01*
X203350423Y-56180528D01*
X203326815Y-56031474D01*
X203273119Y-55866217D01*
X203194226Y-55711378D01*
X203129643Y-55622488D01*
X203129642Y-55622488D01*
X202693670Y-56058460D01*
X202650099Y-55982993D01*
X202557007Y-55889901D01*
X202481537Y-55846328D01*
X202917510Y-55410356D01*
X202828621Y-55345773D01*
X202673782Y-55266880D01*
X202508525Y-55213184D01*
X202336887Y-55186000D01*
X202163113Y-55186000D01*
X201991474Y-55213184D01*
X201826217Y-55266880D01*
X201671378Y-55345773D01*
X201582488Y-55410356D01*
X202018461Y-55846329D01*
X201942993Y-55889901D01*
X201849901Y-55982993D01*
X201806329Y-56058461D01*
X201370356Y-55622488D01*
X201305773Y-55711378D01*
X201226880Y-55866217D01*
X201173184Y-56031474D01*
X201146000Y-56203113D01*
X201146000Y-56376886D01*
X201173184Y-56548525D01*
X201226880Y-56713782D01*
X201305773Y-56868621D01*
X201370356Y-56957510D01*
X201806328Y-56521537D01*
X201849901Y-56597007D01*
X201942993Y-56690099D01*
X202018460Y-56733670D01*
X201582488Y-57169642D01*
X201582488Y-57169643D01*
X201671378Y-57234226D01*
X201826217Y-57313119D01*
X201991474Y-57366815D01*
X202163113Y-57394000D01*
X202336887Y-57394000D01*
X202508525Y-57366815D01*
X202673782Y-57313119D01*
X202828621Y-57234226D01*
X202917510Y-57169643D01*
X202917510Y-57169642D01*
X202481538Y-56733670D01*
X202557007Y-56690099D01*
X202650099Y-56597007D01*
X202693670Y-56521538D01*
X203129642Y-56957510D01*
X203129643Y-56957510D01*
X203194226Y-56868621D01*
X203273119Y-56713782D01*
X203326815Y-56548525D01*
X203350423Y-56399471D01*
X203375296Y-56354601D01*
X203423191Y-56336215D01*
X203471699Y-56352918D01*
X203498122Y-56396893D01*
X203499500Y-56411204D01*
X203499500Y-76488795D01*
X203481953Y-76537004D01*
X203437524Y-76562656D01*
X203387000Y-76553747D01*
X203354023Y-76514447D01*
X203350423Y-76500528D01*
X203326815Y-76351474D01*
X203273119Y-76186217D01*
X203194226Y-76031378D01*
X203129643Y-75942488D01*
X203129642Y-75942488D01*
X202693670Y-76378460D01*
X202650099Y-76302993D01*
X202557007Y-76209901D01*
X202481537Y-76166328D01*
X202917510Y-75730356D01*
X202828621Y-75665773D01*
X202673782Y-75586880D01*
X202508525Y-75533184D01*
X202336887Y-75506000D01*
X202163113Y-75506000D01*
X201991474Y-75533184D01*
X201826217Y-75586880D01*
X201671378Y-75665773D01*
X201582488Y-75730356D01*
X202018461Y-76166329D01*
X201942993Y-76209901D01*
X201849901Y-76302993D01*
X201806329Y-76378461D01*
X201370356Y-75942488D01*
X201305773Y-76031378D01*
X201226880Y-76186217D01*
X201173184Y-76351474D01*
X201146000Y-76523113D01*
X201146000Y-76696886D01*
X201173184Y-76868525D01*
X201226880Y-77033782D01*
X201305773Y-77188621D01*
X201370356Y-77277510D01*
X201806328Y-76841537D01*
X201849901Y-76917007D01*
X201942993Y-77010099D01*
X202018460Y-77053670D01*
X201582488Y-77489642D01*
X201582488Y-77489643D01*
X201671378Y-77554226D01*
X201826217Y-77633119D01*
X201991474Y-77686815D01*
X202163113Y-77714000D01*
X202336887Y-77714000D01*
X202508525Y-77686815D01*
X202673782Y-77633119D01*
X202828621Y-77554226D01*
X202917510Y-77489643D01*
X202917510Y-77489642D01*
X202481538Y-77053670D01*
X202557007Y-77010099D01*
X202650099Y-76917007D01*
X202693670Y-76841538D01*
X203129642Y-77277510D01*
X203129643Y-77277510D01*
X203194226Y-77188621D01*
X203273119Y-77033782D01*
X203326815Y-76868525D01*
X203350423Y-76719471D01*
X203375296Y-76674601D01*
X203423191Y-76656215D01*
X203471699Y-76672918D01*
X203498122Y-76716893D01*
X203499500Y-76731204D01*
X203499500Y-99348795D01*
X203481953Y-99397004D01*
X203437524Y-99422656D01*
X203387000Y-99413747D01*
X203354023Y-99374447D01*
X203350423Y-99360528D01*
X203326815Y-99211474D01*
X203273119Y-99046217D01*
X203194226Y-98891378D01*
X203129643Y-98802488D01*
X203129642Y-98802488D01*
X202693670Y-99238460D01*
X202650099Y-99162993D01*
X202557007Y-99069901D01*
X202481537Y-99026328D01*
X202917510Y-98590356D01*
X202828621Y-98525773D01*
X202673782Y-98446880D01*
X202508525Y-98393184D01*
X202336887Y-98366000D01*
X202163113Y-98366000D01*
X201991474Y-98393184D01*
X201826217Y-98446880D01*
X201671378Y-98525773D01*
X201582488Y-98590356D01*
X202018461Y-99026329D01*
X201942993Y-99069901D01*
X201849901Y-99162993D01*
X201806329Y-99238461D01*
X201370356Y-98802488D01*
X201305773Y-98891378D01*
X201226880Y-99046217D01*
X201173184Y-99211474D01*
X201146000Y-99383113D01*
X201146000Y-99556887D01*
X201159589Y-99642686D01*
X201149799Y-99693046D01*
X201109930Y-99725332D01*
X201058634Y-99724436D01*
X201032479Y-99707451D01*
X191083698Y-89758670D01*
X191062016Y-89712174D01*
X191075295Y-89662619D01*
X191117320Y-89633193D01*
X191117320Y-89633192D01*
X191154587Y-89623207D01*
X191245913Y-89570480D01*
X191320480Y-89495913D01*
X191373207Y-89404587D01*
X191400500Y-89302727D01*
X191400500Y-89197273D01*
X191398399Y-89189432D01*
X191402869Y-89138326D01*
X191439144Y-89102048D01*
X191490252Y-89097575D01*
X191523876Y-89116987D01*
X195873349Y-93466460D01*
X195941872Y-93506022D01*
X195941874Y-93506022D01*
X195941875Y-93506023D01*
X196018290Y-93526498D01*
X196018292Y-93526498D01*
X196018298Y-93526500D01*
X196018300Y-93526500D01*
X197414600Y-93526500D01*
X197414602Y-93526500D01*
X197491029Y-93506021D01*
X197559551Y-93466460D01*
X197615500Y-93410511D01*
X197740460Y-93285551D01*
X197780021Y-93217029D01*
X197800500Y-93140602D01*
X197800500Y-93091583D01*
X197818047Y-93043374D01*
X197833830Y-93029224D01*
X197898733Y-92985858D01*
X197946967Y-92937624D01*
X197993463Y-92915942D01*
X198043018Y-92929221D01*
X198053033Y-92937624D01*
X198101267Y-92985858D01*
X198203714Y-93054311D01*
X198317548Y-93101463D01*
X198408387Y-93119531D01*
X198438393Y-93125500D01*
X198438394Y-93125500D01*
X198561607Y-93125500D01*
X198585644Y-93120718D01*
X198682452Y-93101463D01*
X198796286Y-93054311D01*
X198808833Y-93045927D01*
X198858663Y-93033733D01*
X198904676Y-93056422D01*
X198925339Y-93103379D01*
X198925500Y-93108287D01*
X198925500Y-93945559D01*
X198925501Y-93945567D01*
X198945978Y-94021987D01*
X198945979Y-94021990D01*
X198981539Y-94083581D01*
X198985540Y-94090511D01*
X201286075Y-96391046D01*
X201307757Y-96437542D01*
X201302333Y-96472780D01*
X201239870Y-96623578D01*
X201214182Y-96752724D01*
X201199500Y-96826535D01*
X201199500Y-97033465D01*
X201239870Y-97236420D01*
X201319059Y-97427598D01*
X201434023Y-97599655D01*
X201580345Y-97745977D01*
X201752402Y-97860941D01*
X201943580Y-97940130D01*
X202096139Y-97970475D01*
X202146534Y-97980500D01*
X202146535Y-97980500D01*
X202353466Y-97980500D01*
X202393836Y-97972469D01*
X202556420Y-97940130D01*
X202747598Y-97860941D01*
X202919655Y-97745977D01*
X203065977Y-97599655D01*
X203180941Y-97427598D01*
X203260130Y-97236420D01*
X203300500Y-97033465D01*
X203300500Y-96826535D01*
X203260130Y-96623580D01*
X203180941Y-96432402D01*
X203065977Y-96260345D01*
X202919655Y-96114023D01*
X202747598Y-95999059D01*
X202747596Y-95999058D01*
X202556421Y-95919870D01*
X202353466Y-95879500D01*
X202353465Y-95879500D01*
X202146535Y-95879500D01*
X202146534Y-95879500D01*
X201943578Y-95919870D01*
X201792780Y-95982333D01*
X201741526Y-95984571D01*
X201711046Y-95966075D01*
X200031505Y-94286534D01*
X201199500Y-94286534D01*
X201199500Y-94493465D01*
X201239870Y-94696421D01*
X201314583Y-94876793D01*
X201319059Y-94887598D01*
X201434023Y-95059655D01*
X201580345Y-95205977D01*
X201752402Y-95320941D01*
X201943580Y-95400130D01*
X202096139Y-95430475D01*
X202146534Y-95440500D01*
X202146535Y-95440500D01*
X202353466Y-95440500D01*
X202393836Y-95432469D01*
X202556420Y-95400130D01*
X202747598Y-95320941D01*
X202919655Y-95205977D01*
X203065977Y-95059655D01*
X203180941Y-94887598D01*
X203260130Y-94696420D01*
X203300500Y-94493465D01*
X203300500Y-94286535D01*
X203260130Y-94083580D01*
X203180941Y-93892402D01*
X203065977Y-93720345D01*
X202919655Y-93574023D01*
X202747598Y-93459059D01*
X202747596Y-93459058D01*
X202556421Y-93379870D01*
X202353466Y-93339500D01*
X202353465Y-93339500D01*
X202146535Y-93339500D01*
X202146534Y-93339500D01*
X201943578Y-93379870D01*
X201752403Y-93459058D01*
X201580345Y-93574023D01*
X201580342Y-93574025D01*
X201434025Y-93720342D01*
X201434023Y-93720345D01*
X201319058Y-93892403D01*
X201239870Y-94083578D01*
X201199500Y-94286534D01*
X200031505Y-94286534D01*
X199548467Y-93803496D01*
X199526785Y-93757000D01*
X199526500Y-93750463D01*
X199526500Y-91746535D01*
X201199500Y-91746535D01*
X201199500Y-91953465D01*
X201239870Y-92156420D01*
X201319059Y-92347598D01*
X201434023Y-92519655D01*
X201580345Y-92665977D01*
X201752402Y-92780941D01*
X201943580Y-92860130D01*
X202096139Y-92890475D01*
X202146534Y-92900500D01*
X202146535Y-92900500D01*
X202353466Y-92900500D01*
X202393836Y-92892469D01*
X202556420Y-92860130D01*
X202747598Y-92780941D01*
X202919655Y-92665977D01*
X203065977Y-92519655D01*
X203180941Y-92347598D01*
X203260130Y-92156420D01*
X203300500Y-91953465D01*
X203300500Y-91746535D01*
X203260130Y-91543580D01*
X203180941Y-91352402D01*
X203065977Y-91180345D01*
X202919655Y-91034023D01*
X202747598Y-90919059D01*
X202747596Y-90919058D01*
X202556421Y-90839870D01*
X202353466Y-90799500D01*
X202353465Y-90799500D01*
X202146535Y-90799500D01*
X202146534Y-90799500D01*
X201943578Y-90839870D01*
X201752403Y-90919058D01*
X201580345Y-91034023D01*
X201580342Y-91034025D01*
X201434025Y-91180342D01*
X201434023Y-91180345D01*
X201319058Y-91352403D01*
X201239870Y-91543578D01*
X201239870Y-91543580D01*
X201199500Y-91746535D01*
X199526500Y-91746535D01*
X199526500Y-90734440D01*
X199526498Y-90734432D01*
X199506021Y-90658012D01*
X199506020Y-90658009D01*
X199495420Y-90639649D01*
X199466460Y-90589489D01*
X199410511Y-90533540D01*
X199341990Y-90493979D01*
X199341987Y-90493978D01*
X199265567Y-90473501D01*
X199265564Y-90473500D01*
X199265562Y-90473500D01*
X196238842Y-90473500D01*
X196159718Y-90473500D01*
X196159709Y-90473500D01*
X196159275Y-90473557D01*
X196159018Y-90473500D01*
X196154802Y-90473500D01*
X196154802Y-90472564D01*
X196109191Y-90462444D01*
X196077967Y-90421736D01*
X196074500Y-90399197D01*
X196074500Y-89206534D01*
X201199500Y-89206534D01*
X201199500Y-89413465D01*
X201239870Y-89616421D01*
X201298792Y-89758670D01*
X201319059Y-89807598D01*
X201434023Y-89979655D01*
X201580345Y-90125977D01*
X201752402Y-90240941D01*
X201943580Y-90320130D01*
X202096139Y-90350475D01*
X202146534Y-90360500D01*
X202146535Y-90360500D01*
X202353466Y-90360500D01*
X202393836Y-90352469D01*
X202556420Y-90320130D01*
X202747598Y-90240941D01*
X202919655Y-90125977D01*
X203065977Y-89979655D01*
X203180941Y-89807598D01*
X203260130Y-89616420D01*
X203300500Y-89413465D01*
X203300500Y-89206535D01*
X203298657Y-89197272D01*
X203279716Y-89102048D01*
X203260130Y-89003580D01*
X203180941Y-88812402D01*
X203065977Y-88640345D01*
X202919655Y-88494023D01*
X202747598Y-88379059D01*
X202747596Y-88379058D01*
X202556421Y-88299870D01*
X202353466Y-88259500D01*
X202353465Y-88259500D01*
X202146535Y-88259500D01*
X202146534Y-88259500D01*
X201943578Y-88299870D01*
X201752403Y-88379058D01*
X201580345Y-88494023D01*
X201580342Y-88494025D01*
X201434025Y-88640342D01*
X201434023Y-88640345D01*
X201319058Y-88812403D01*
X201239870Y-89003578D01*
X201199500Y-89206534D01*
X196074500Y-89206534D01*
X196074500Y-89131536D01*
X196092047Y-89083327D01*
X196096457Y-89078513D01*
X196294174Y-88880796D01*
X196340668Y-88859115D01*
X196361830Y-88860270D01*
X196438394Y-88875500D01*
X196438395Y-88875500D01*
X196561607Y-88875500D01*
X196585644Y-88870718D01*
X196682452Y-88851463D01*
X196796286Y-88804311D01*
X196898733Y-88735858D01*
X196946967Y-88687624D01*
X196993463Y-88665942D01*
X197043018Y-88679221D01*
X197053033Y-88687624D01*
X197101267Y-88735858D01*
X197203714Y-88804311D01*
X197317548Y-88851463D01*
X197408387Y-88869531D01*
X197438393Y-88875500D01*
X197438394Y-88875500D01*
X197561607Y-88875500D01*
X197585644Y-88870718D01*
X197682452Y-88851463D01*
X197796286Y-88804311D01*
X197898733Y-88735858D01*
X197946967Y-88687624D01*
X197993463Y-88665942D01*
X198043018Y-88679221D01*
X198053033Y-88687624D01*
X198101267Y-88735858D01*
X198203714Y-88804311D01*
X198317548Y-88851463D01*
X198408387Y-88869531D01*
X198438393Y-88875500D01*
X198438394Y-88875500D01*
X198561607Y-88875500D01*
X198585644Y-88870718D01*
X198682452Y-88851463D01*
X198796286Y-88804311D01*
X198898733Y-88735858D01*
X198985858Y-88648733D01*
X199038415Y-88570074D01*
X199079786Y-88539739D01*
X199081272Y-88539323D01*
X199115989Y-88530021D01*
X199184511Y-88490460D01*
X199240460Y-88434511D01*
X199466460Y-88208511D01*
X199489065Y-88169358D01*
X199506021Y-88139989D01*
X199526500Y-88063562D01*
X199526500Y-86666535D01*
X201199500Y-86666535D01*
X201199500Y-86873465D01*
X201239870Y-87076420D01*
X201319059Y-87267598D01*
X201434023Y-87439655D01*
X201580345Y-87585977D01*
X201752402Y-87700941D01*
X201943580Y-87780130D01*
X202096139Y-87810475D01*
X202146534Y-87820500D01*
X202146535Y-87820500D01*
X202353466Y-87820500D01*
X202393836Y-87812469D01*
X202556420Y-87780130D01*
X202747598Y-87700941D01*
X202919655Y-87585977D01*
X203065977Y-87439655D01*
X203180941Y-87267598D01*
X203260130Y-87076420D01*
X203300500Y-86873465D01*
X203300500Y-86666535D01*
X203260130Y-86463580D01*
X203180941Y-86272402D01*
X203065977Y-86100345D01*
X202919655Y-85954023D01*
X202747598Y-85839059D01*
X202747596Y-85839058D01*
X202556421Y-85759870D01*
X202353466Y-85719500D01*
X202353465Y-85719500D01*
X202146535Y-85719500D01*
X202146534Y-85719500D01*
X201943578Y-85759870D01*
X201752403Y-85839058D01*
X201580345Y-85954023D01*
X201580342Y-85954025D01*
X201434025Y-86100342D01*
X201434023Y-86100345D01*
X201319058Y-86272403D01*
X201239870Y-86463578D01*
X201207861Y-86624500D01*
X201199500Y-86666535D01*
X199526500Y-86666535D01*
X199526500Y-86484438D01*
X199506021Y-86408011D01*
X199466460Y-86339489D01*
X199410511Y-86283540D01*
X199391221Y-86272403D01*
X199341990Y-86243979D01*
X199341987Y-86243978D01*
X199265567Y-86223501D01*
X199265564Y-86223500D01*
X199265562Y-86223500D01*
X199265560Y-86223500D01*
X199155537Y-86223500D01*
X199107328Y-86205953D01*
X199102504Y-86201533D01*
X197027506Y-84126535D01*
X201199500Y-84126535D01*
X201199500Y-84333465D01*
X201239870Y-84536420D01*
X201319059Y-84727598D01*
X201434023Y-84899655D01*
X201580345Y-85045977D01*
X201752402Y-85160941D01*
X201943580Y-85240130D01*
X202096139Y-85270475D01*
X202146534Y-85280500D01*
X202146535Y-85280500D01*
X202353466Y-85280500D01*
X202393836Y-85272469D01*
X202556420Y-85240130D01*
X202747598Y-85160941D01*
X202919655Y-85045977D01*
X203065977Y-84899655D01*
X203180941Y-84727598D01*
X203260130Y-84536420D01*
X203300500Y-84333465D01*
X203300500Y-84126535D01*
X203260130Y-83923580D01*
X203180941Y-83732402D01*
X203065977Y-83560345D01*
X202919655Y-83414023D01*
X202747598Y-83299059D01*
X202739595Y-83295744D01*
X202556421Y-83219870D01*
X202353466Y-83179500D01*
X202353465Y-83179500D01*
X202146535Y-83179500D01*
X202146534Y-83179500D01*
X201943578Y-83219870D01*
X201752403Y-83299058D01*
X201580345Y-83414023D01*
X201580342Y-83414025D01*
X201434025Y-83560342D01*
X201434023Y-83560345D01*
X201319058Y-83732403D01*
X201239870Y-83923578D01*
X201239870Y-83923580D01*
X201199500Y-84126535D01*
X197027506Y-84126535D01*
X194490148Y-81589177D01*
X194488916Y-81586534D01*
X201199500Y-81586534D01*
X201199500Y-81793465D01*
X201239870Y-81996421D01*
X201313117Y-82173253D01*
X201319059Y-82187598D01*
X201434023Y-82359655D01*
X201580345Y-82505977D01*
X201752402Y-82620941D01*
X201943580Y-82700130D01*
X202096139Y-82730475D01*
X202146534Y-82740500D01*
X202146535Y-82740500D01*
X202353466Y-82740500D01*
X202393836Y-82732469D01*
X202556420Y-82700130D01*
X202747598Y-82620941D01*
X202919655Y-82505977D01*
X203065977Y-82359655D01*
X203180941Y-82187598D01*
X203260130Y-81996420D01*
X203300500Y-81793465D01*
X203300500Y-81586535D01*
X203260130Y-81383580D01*
X203180941Y-81192402D01*
X203065977Y-81020345D01*
X202919655Y-80874023D01*
X202747598Y-80759059D01*
X202695005Y-80737274D01*
X202556421Y-80679870D01*
X202353466Y-80639500D01*
X202353465Y-80639500D01*
X202146535Y-80639500D01*
X202146534Y-80639500D01*
X201943578Y-80679870D01*
X201752403Y-80759058D01*
X201580345Y-80874023D01*
X201580342Y-80874025D01*
X201434025Y-81020342D01*
X201434023Y-81020345D01*
X201319058Y-81192403D01*
X201239870Y-81383578D01*
X201199500Y-81586534D01*
X194488916Y-81586534D01*
X194468466Y-81542681D01*
X194481745Y-81493126D01*
X194523769Y-81463700D01*
X194578853Y-81448941D01*
X194670179Y-81396214D01*
X194744746Y-81321647D01*
X194797473Y-81230321D01*
X194824766Y-81128461D01*
X194824766Y-81126968D01*
X194825073Y-81126123D01*
X194825407Y-81123589D01*
X194825968Y-81123662D01*
X194842313Y-81078759D01*
X194886742Y-81053107D01*
X194899766Y-81051968D01*
X194901257Y-81051968D01*
X194901259Y-81051968D01*
X195003119Y-81024675D01*
X195094445Y-80971948D01*
X195169012Y-80897381D01*
X195194054Y-80854006D01*
X195233351Y-80821032D01*
X195278415Y-80819064D01*
X195357181Y-80840169D01*
X195357183Y-80840169D01*
X195462633Y-80840169D01*
X195462635Y-80840169D01*
X195564495Y-80812876D01*
X195655821Y-80760149D01*
X195730388Y-80685582D01*
X195783115Y-80594256D01*
X195810408Y-80492396D01*
X195810408Y-80386942D01*
X195783115Y-80285082D01*
X195783112Y-80285077D01*
X195783111Y-80285074D01*
X195768123Y-80259113D01*
X195759215Y-80208590D01*
X195780040Y-80168583D01*
X195850831Y-80097793D01*
X195903558Y-80006467D01*
X195930851Y-79904607D01*
X195930851Y-79799153D01*
X195930851Y-79794237D01*
X195933207Y-79794237D01*
X195942418Y-79752654D01*
X195983114Y-79721415D01*
X195986239Y-79720504D01*
X196002652Y-79716107D01*
X196093978Y-79663380D01*
X196168545Y-79588813D01*
X196221272Y-79497487D01*
X196248565Y-79395627D01*
X196248565Y-79290173D01*
X196243997Y-79273125D01*
X196221273Y-79188316D01*
X196221269Y-79188307D01*
X196213909Y-79175558D01*
X196205001Y-79125034D01*
X196227183Y-79083705D01*
X196233640Y-79077565D01*
X196245913Y-79070480D01*
X196269859Y-79046534D01*
X201199500Y-79046534D01*
X201199500Y-79253465D01*
X201239870Y-79456421D01*
X201308265Y-79621539D01*
X201319059Y-79647598D01*
X201434023Y-79819655D01*
X201580345Y-79965977D01*
X201752402Y-80080941D01*
X201943580Y-80160130D01*
X202096139Y-80190475D01*
X202146534Y-80200500D01*
X202146535Y-80200500D01*
X202353466Y-80200500D01*
X202393836Y-80192469D01*
X202556420Y-80160130D01*
X202747598Y-80080941D01*
X202919655Y-79965977D01*
X203065977Y-79819655D01*
X203180941Y-79647598D01*
X203260130Y-79456420D01*
X203300500Y-79253465D01*
X203300500Y-79046535D01*
X203260130Y-78843580D01*
X203180941Y-78652402D01*
X203065977Y-78480345D01*
X202919655Y-78334023D01*
X202747598Y-78219059D01*
X202747596Y-78219058D01*
X202556421Y-78139870D01*
X202353466Y-78099500D01*
X202353465Y-78099500D01*
X202146535Y-78099500D01*
X202146534Y-78099500D01*
X201943578Y-78139870D01*
X201752403Y-78219058D01*
X201580345Y-78334023D01*
X201580342Y-78334025D01*
X201434025Y-78480342D01*
X201434023Y-78480345D01*
X201319058Y-78652403D01*
X201239870Y-78843578D01*
X201199500Y-79046534D01*
X196269859Y-79046534D01*
X196320480Y-78995913D01*
X196373207Y-78904587D01*
X196385169Y-78859941D01*
X196414594Y-78817919D01*
X196464149Y-78804640D01*
X196499597Y-78818424D01*
X196499830Y-78818022D01*
X196502444Y-78819531D01*
X196503266Y-78819851D01*
X196504081Y-78820476D01*
X196504085Y-78820478D01*
X196504087Y-78820480D01*
X196595413Y-78873207D01*
X196595414Y-78873207D01*
X196595416Y-78873208D01*
X196697265Y-78900498D01*
X196697267Y-78900498D01*
X196697273Y-78900500D01*
X196697275Y-78900500D01*
X196802725Y-78900500D01*
X196802727Y-78900500D01*
X196904587Y-78873207D01*
X196995913Y-78820480D01*
X197070480Y-78745913D01*
X197123207Y-78654587D01*
X197150500Y-78552727D01*
X197150500Y-78447273D01*
X197149035Y-78441806D01*
X197123208Y-78345416D01*
X197123206Y-78345411D01*
X197070479Y-78254086D01*
X196995913Y-78179520D01*
X196904588Y-78126793D01*
X196904583Y-78126791D01*
X196802734Y-78099501D01*
X196802728Y-78099500D01*
X196802727Y-78099500D01*
X196697273Y-78099500D01*
X196697271Y-78099500D01*
X196697265Y-78099501D01*
X196595416Y-78126791D01*
X196595411Y-78126793D01*
X196504086Y-78179520D01*
X196429520Y-78254086D01*
X196376793Y-78345411D01*
X196376792Y-78345414D01*
X196364830Y-78390056D01*
X196335403Y-78432081D01*
X196285848Y-78445359D01*
X196250402Y-78431575D01*
X196250170Y-78431978D01*
X196247558Y-78430470D01*
X196246735Y-78430150D01*
X196245917Y-78429522D01*
X196154588Y-78376793D01*
X196154583Y-78376791D01*
X196052734Y-78349501D01*
X196052728Y-78349500D01*
X196052727Y-78349500D01*
X195947273Y-78349500D01*
X195947271Y-78349500D01*
X195947265Y-78349501D01*
X195845416Y-78376791D01*
X195845411Y-78376793D01*
X195754086Y-78429520D01*
X195679520Y-78504086D01*
X195626793Y-78595411D01*
X195626791Y-78595416D01*
X195599501Y-78697265D01*
X195599500Y-78697275D01*
X195599500Y-78802724D01*
X195599501Y-78802732D01*
X195626792Y-78904584D01*
X195626794Y-78904590D01*
X195634155Y-78917339D01*
X195643063Y-78967863D01*
X195617412Y-79012293D01*
X195606709Y-79019787D01*
X195602156Y-79022415D01*
X195527585Y-79096986D01*
X195474858Y-79188311D01*
X195474856Y-79188316D01*
X195447566Y-79290165D01*
X195447565Y-79290175D01*
X195447565Y-79400543D01*
X195445217Y-79400543D01*
X195435974Y-79442159D01*
X195395261Y-79473375D01*
X195392150Y-79474282D01*
X195375762Y-79478673D01*
X195284437Y-79531400D01*
X195209871Y-79605966D01*
X195157144Y-79697291D01*
X195157142Y-79697296D01*
X195129852Y-79799145D01*
X195129851Y-79799155D01*
X195129851Y-79904604D01*
X195129852Y-79904612D01*
X195146295Y-79965977D01*
X195157144Y-80006467D01*
X195172136Y-80032434D01*
X195181045Y-80082956D01*
X195160217Y-80122966D01*
X195089428Y-80193755D01*
X195064387Y-80237128D01*
X195025086Y-80270105D01*
X194980024Y-80272072D01*
X194901267Y-80250969D01*
X194901260Y-80250968D01*
X194901259Y-80250968D01*
X194795805Y-80250968D01*
X194795803Y-80250968D01*
X194795797Y-80250969D01*
X194693948Y-80278259D01*
X194693943Y-80278261D01*
X194602618Y-80330988D01*
X194528052Y-80405554D01*
X194475325Y-80496879D01*
X194475323Y-80496884D01*
X194448033Y-80598733D01*
X194448032Y-80598743D01*
X194448032Y-80600234D01*
X194447724Y-80601078D01*
X194447391Y-80603613D01*
X194446829Y-80603539D01*
X194430485Y-80648443D01*
X194389630Y-80673374D01*
X194381434Y-80675234D01*
X194371539Y-80675234D01*
X194316799Y-80689901D01*
X194315364Y-80690227D01*
X194291274Y-80687177D01*
X194267069Y-80685060D01*
X194265986Y-80683977D01*
X194264467Y-80683785D01*
X194247968Y-80665959D01*
X194230793Y-80648783D01*
X194230390Y-80646966D01*
X194229619Y-80646133D01*
X194229454Y-80642743D01*
X194223766Y-80617087D01*
X194223766Y-76934417D01*
X194223764Y-76934409D01*
X194215773Y-76904588D01*
X194203287Y-76857988D01*
X194163726Y-76789466D01*
X194107777Y-76733517D01*
X193223003Y-75848743D01*
X194250968Y-75848743D01*
X194250968Y-75954192D01*
X194250969Y-75954202D01*
X194278259Y-76056051D01*
X194278261Y-76056056D01*
X194320712Y-76129583D01*
X194330988Y-76147381D01*
X194405555Y-76221948D01*
X194496881Y-76274675D01*
X194496882Y-76274675D01*
X194496884Y-76274676D01*
X194598733Y-76301966D01*
X194598735Y-76301966D01*
X194598741Y-76301968D01*
X194600234Y-76301968D01*
X194601078Y-76302275D01*
X194603613Y-76302609D01*
X194603539Y-76303170D01*
X194648443Y-76319515D01*
X194674095Y-76363944D01*
X194675234Y-76376968D01*
X194675234Y-76378458D01*
X194675235Y-76378468D01*
X194702525Y-76480317D01*
X194702527Y-76480322D01*
X194744919Y-76553747D01*
X194755254Y-76571647D01*
X194829821Y-76646214D01*
X194864528Y-76666252D01*
X194917587Y-76696886D01*
X194921147Y-76698941D01*
X194921148Y-76698941D01*
X194921150Y-76698942D01*
X195022999Y-76726232D01*
X195023001Y-76726232D01*
X195023007Y-76726234D01*
X195024500Y-76726234D01*
X195025344Y-76726541D01*
X195027879Y-76726875D01*
X195027805Y-76727436D01*
X195072709Y-76743781D01*
X195098361Y-76788210D01*
X195099500Y-76801234D01*
X195099500Y-76802724D01*
X195099501Y-76802734D01*
X195126791Y-76904583D01*
X195126793Y-76904588D01*
X195144014Y-76934415D01*
X195179520Y-76995913D01*
X195254087Y-77070480D01*
X195302529Y-77098448D01*
X195345014Y-77122977D01*
X195345413Y-77123207D01*
X195345414Y-77123207D01*
X195345416Y-77123208D01*
X195447265Y-77150498D01*
X195447267Y-77150498D01*
X195447273Y-77150500D01*
X195447275Y-77150500D01*
X195552725Y-77150500D01*
X195552727Y-77150500D01*
X195654587Y-77123207D01*
X195745913Y-77070480D01*
X195820480Y-76995913D01*
X195873207Y-76904587D01*
X195900500Y-76802727D01*
X195900500Y-76697273D01*
X195896674Y-76682995D01*
X195873208Y-76595416D01*
X195873206Y-76595411D01*
X195851414Y-76557666D01*
X195839485Y-76537004D01*
X195820480Y-76504087D01*
X195745913Y-76429520D01*
X195724240Y-76417007D01*
X195654588Y-76376793D01*
X195654583Y-76376791D01*
X195552734Y-76349501D01*
X195552728Y-76349500D01*
X195552727Y-76349500D01*
X195552725Y-76349500D01*
X195551234Y-76349500D01*
X195550389Y-76349192D01*
X195547855Y-76348859D01*
X195547928Y-76348297D01*
X195503025Y-76331953D01*
X195477373Y-76287524D01*
X195476234Y-76274500D01*
X195476234Y-76273009D01*
X195476232Y-76272999D01*
X195448942Y-76171150D01*
X195448940Y-76171145D01*
X195407576Y-76099501D01*
X195396214Y-76079821D01*
X195321647Y-76005254D01*
X195230322Y-75952527D01*
X195230317Y-75952525D01*
X195128468Y-75925235D01*
X195128462Y-75925234D01*
X195128461Y-75925234D01*
X195128459Y-75925234D01*
X195126968Y-75925234D01*
X195126123Y-75924926D01*
X195123589Y-75924593D01*
X195123662Y-75924031D01*
X195078759Y-75907687D01*
X195053950Y-75867363D01*
X195051968Y-75858913D01*
X195051968Y-75848741D01*
X195024675Y-75746881D01*
X194971948Y-75655555D01*
X194897381Y-75580988D01*
X194886145Y-75574501D01*
X194806056Y-75528261D01*
X194806051Y-75528259D01*
X194704202Y-75500969D01*
X194704196Y-75500968D01*
X194704195Y-75500968D01*
X194598741Y-75500968D01*
X194598739Y-75500968D01*
X194598733Y-75500969D01*
X194496884Y-75528259D01*
X194496879Y-75528261D01*
X194405554Y-75580988D01*
X194330988Y-75655554D01*
X194278261Y-75746879D01*
X194278259Y-75746884D01*
X194250969Y-75848733D01*
X194250968Y-75848743D01*
X193223003Y-75848743D01*
X190255419Y-72881159D01*
X191214678Y-72881159D01*
X191214678Y-72986608D01*
X191214679Y-72986618D01*
X191241969Y-73088467D01*
X191241971Y-73088472D01*
X191271177Y-73139058D01*
X191294698Y-73179797D01*
X191369265Y-73254364D01*
X191460591Y-73307091D01*
X191460592Y-73307091D01*
X191460594Y-73307092D01*
X191562443Y-73334382D01*
X191562445Y-73334382D01*
X191562451Y-73334384D01*
X191562453Y-73334384D01*
X191667903Y-73334384D01*
X191667905Y-73334384D01*
X191700850Y-73325556D01*
X191751955Y-73330026D01*
X191785212Y-73360499D01*
X191833410Y-73443980D01*
X191907977Y-73518547D01*
X191999303Y-73571274D01*
X191999304Y-73571274D01*
X191999306Y-73571275D01*
X192101155Y-73598565D01*
X192101157Y-73598565D01*
X192101163Y-73598567D01*
X192101165Y-73598567D01*
X192206615Y-73598567D01*
X192206617Y-73598567D01*
X192299777Y-73573605D01*
X192350885Y-73578076D01*
X192377025Y-73598299D01*
X192381009Y-73603125D01*
X192401165Y-73638035D01*
X192450860Y-73687730D01*
X192453133Y-73690483D01*
X192460590Y-73711492D01*
X192470012Y-73731696D01*
X192469147Y-73735597D01*
X192470295Y-73738831D01*
X192465698Y-73751153D01*
X192460249Y-73775732D01*
X192427598Y-73832286D01*
X192427594Y-73832295D01*
X192400304Y-73934144D01*
X192400303Y-73934154D01*
X192400303Y-74039603D01*
X192400304Y-74039613D01*
X192427594Y-74141462D01*
X192427596Y-74141467D01*
X192480323Y-74232792D01*
X192554890Y-74307359D01*
X192646216Y-74360086D01*
X192646217Y-74360086D01*
X192646219Y-74360087D01*
X192706872Y-74376339D01*
X192748897Y-74405765D01*
X192762461Y-74448783D01*
X192762461Y-74517981D01*
X192762462Y-74517991D01*
X192789752Y-74619840D01*
X192789754Y-74619845D01*
X192831782Y-74692639D01*
X192842481Y-74711170D01*
X192917048Y-74785737D01*
X193008374Y-74838464D01*
X193008375Y-74838464D01*
X193008377Y-74838465D01*
X193110226Y-74865755D01*
X193110228Y-74865755D01*
X193110234Y-74865757D01*
X193110236Y-74865757D01*
X193215686Y-74865757D01*
X193215688Y-74865757D01*
X193285560Y-74847035D01*
X193336668Y-74851506D01*
X193369923Y-74881978D01*
X193399729Y-74933602D01*
X193399730Y-74933603D01*
X193474297Y-75008170D01*
X193553717Y-75054023D01*
X193586694Y-75093324D01*
X193588662Y-75138384D01*
X193578510Y-75176276D01*
X193578509Y-75176284D01*
X193578509Y-75281733D01*
X193578510Y-75281743D01*
X193605800Y-75383592D01*
X193605802Y-75383597D01*
X193642561Y-75447265D01*
X193658529Y-75474922D01*
X193733096Y-75549489D01*
X193824422Y-75602216D01*
X193824423Y-75602216D01*
X193824425Y-75602217D01*
X193926274Y-75629507D01*
X193926276Y-75629507D01*
X193926282Y-75629509D01*
X193926284Y-75629509D01*
X194031734Y-75629509D01*
X194031736Y-75629509D01*
X194133596Y-75602216D01*
X194224922Y-75549489D01*
X194299489Y-75474922D01*
X194352216Y-75383596D01*
X194379509Y-75281736D01*
X194379509Y-75176282D01*
X194379507Y-75176274D01*
X194352217Y-75074425D01*
X194352215Y-75074420D01*
X194313965Y-75008169D01*
X194299489Y-74983096D01*
X194224922Y-74908529D01*
X194145499Y-74862674D01*
X194112523Y-74823375D01*
X194110556Y-74778312D01*
X194120710Y-74740417D01*
X194120710Y-74634963D01*
X194093417Y-74533103D01*
X194040690Y-74441777D01*
X193966123Y-74367210D01*
X193919952Y-74340553D01*
X193874798Y-74314483D01*
X193874793Y-74314481D01*
X193772944Y-74287191D01*
X193772938Y-74287190D01*
X193772937Y-74287190D01*
X193667483Y-74287190D01*
X193667481Y-74287190D01*
X193667474Y-74287191D01*
X193597608Y-74305912D01*
X193546500Y-74301441D01*
X193513246Y-74270967D01*
X193483441Y-74219344D01*
X193408874Y-74144777D01*
X193365895Y-74119963D01*
X193317549Y-74092050D01*
X193317546Y-74092049D01*
X193256891Y-74075796D01*
X193248678Y-74070045D01*
X193238803Y-74068304D01*
X193228278Y-74055761D01*
X193214866Y-74046370D01*
X193211536Y-74035809D01*
X193205826Y-74029004D01*
X193201303Y-74003352D01*
X193201303Y-73966534D01*
X201199500Y-73966534D01*
X201199500Y-74173465D01*
X201239870Y-74376421D01*
X201304772Y-74533106D01*
X201319059Y-74567598D01*
X201434023Y-74739655D01*
X201580345Y-74885977D01*
X201752402Y-75000941D01*
X201943580Y-75080130D01*
X202096139Y-75110475D01*
X202146534Y-75120500D01*
X202146535Y-75120500D01*
X202353466Y-75120500D01*
X202393836Y-75112469D01*
X202556420Y-75080130D01*
X202747598Y-75000941D01*
X202919655Y-74885977D01*
X203065977Y-74739655D01*
X203180941Y-74567598D01*
X203260130Y-74376420D01*
X203300500Y-74173465D01*
X203300500Y-73966535D01*
X203260130Y-73763580D01*
X203180941Y-73572402D01*
X203065977Y-73400345D01*
X202919655Y-73254023D01*
X202747598Y-73139059D01*
X202747596Y-73139058D01*
X202556421Y-73059870D01*
X202353466Y-73019500D01*
X202353465Y-73019500D01*
X202146535Y-73019500D01*
X202146534Y-73019500D01*
X201943578Y-73059870D01*
X201752403Y-73139058D01*
X201580345Y-73254023D01*
X201580342Y-73254025D01*
X201434025Y-73400342D01*
X201434023Y-73400345D01*
X201319058Y-73572403D01*
X201239870Y-73763578D01*
X201199500Y-73966534D01*
X193201303Y-73966534D01*
X193201303Y-73934154D01*
X193201301Y-73934144D01*
X193174011Y-73832295D01*
X193174009Y-73832290D01*
X193154583Y-73798644D01*
X193121283Y-73740966D01*
X193074117Y-73693800D01*
X193052435Y-73647304D01*
X193062198Y-73603267D01*
X193062902Y-73602048D01*
X193094852Y-73546709D01*
X193122145Y-73444849D01*
X193122145Y-73339395D01*
X193099361Y-73254363D01*
X193094853Y-73237538D01*
X193094851Y-73237533D01*
X193053013Y-73165068D01*
X193042125Y-73146209D01*
X192967558Y-73071642D01*
X192940247Y-73055874D01*
X192876233Y-73018915D01*
X192876228Y-73018913D01*
X192774379Y-72991623D01*
X192774373Y-72991622D01*
X192774372Y-72991622D01*
X192668918Y-72991622D01*
X192668917Y-72991622D01*
X192575756Y-73016584D01*
X192524648Y-73012112D01*
X192491393Y-72981639D01*
X192474370Y-72952154D01*
X192399803Y-72877587D01*
X192308478Y-72824860D01*
X192308473Y-72824858D01*
X192206624Y-72797568D01*
X192206618Y-72797567D01*
X192206617Y-72797567D01*
X192101163Y-72797567D01*
X192101161Y-72797567D01*
X192101157Y-72797568D01*
X192068215Y-72806394D01*
X192017108Y-72801921D01*
X191983854Y-72771449D01*
X191935657Y-72687970D01*
X191861091Y-72613404D01*
X191769766Y-72560677D01*
X191769761Y-72560675D01*
X191667912Y-72533385D01*
X191667906Y-72533384D01*
X191667905Y-72533384D01*
X191562451Y-72533384D01*
X191562449Y-72533384D01*
X191562443Y-72533385D01*
X191460594Y-72560675D01*
X191460589Y-72560677D01*
X191369264Y-72613404D01*
X191294698Y-72687970D01*
X191241971Y-72779295D01*
X191241969Y-72779300D01*
X191214679Y-72881149D01*
X191214678Y-72881159D01*
X190255419Y-72881159D01*
X189124138Y-71749878D01*
X190652103Y-71749878D01*
X190652103Y-71855327D01*
X190652104Y-71855337D01*
X190679394Y-71957186D01*
X190679396Y-71957191D01*
X190707886Y-72006537D01*
X190732123Y-72048516D01*
X190806690Y-72123083D01*
X190898016Y-72175810D01*
X190898017Y-72175810D01*
X190898019Y-72175811D01*
X190999868Y-72203101D01*
X190999870Y-72203101D01*
X190999876Y-72203103D01*
X190999878Y-72203103D01*
X191105328Y-72203103D01*
X191105330Y-72203103D01*
X191207190Y-72175810D01*
X191298516Y-72123083D01*
X191373083Y-72048516D01*
X191425810Y-71957190D01*
X191453103Y-71855330D01*
X191453103Y-71749876D01*
X191449120Y-71735011D01*
X191425811Y-71648019D01*
X191425809Y-71648014D01*
X191404173Y-71610540D01*
X191373083Y-71556690D01*
X191298516Y-71482123D01*
X191207191Y-71429396D01*
X191207186Y-71429394D01*
X191105337Y-71402104D01*
X191105331Y-71402103D01*
X191105330Y-71402103D01*
X190999876Y-71402103D01*
X190999874Y-71402103D01*
X190999868Y-71402104D01*
X190898019Y-71429394D01*
X190898014Y-71429396D01*
X190806689Y-71482123D01*
X190732123Y-71556689D01*
X190679396Y-71648014D01*
X190679394Y-71648019D01*
X190652104Y-71749868D01*
X190652103Y-71749878D01*
X189124138Y-71749878D01*
X188673467Y-71299207D01*
X188666547Y-71284368D01*
X188656023Y-71271826D01*
X188653180Y-71255702D01*
X188651785Y-71252711D01*
X188651500Y-71246174D01*
X188651500Y-71149878D01*
X189099500Y-71149878D01*
X189099500Y-71255327D01*
X189099501Y-71255337D01*
X189126791Y-71357186D01*
X189126793Y-71357191D01*
X189175338Y-71441273D01*
X189179520Y-71448516D01*
X189254087Y-71523083D01*
X189345413Y-71575810D01*
X189345414Y-71575810D01*
X189345416Y-71575811D01*
X189447265Y-71603101D01*
X189447267Y-71603101D01*
X189447273Y-71603103D01*
X189447275Y-71603103D01*
X189552725Y-71603103D01*
X189552727Y-71603103D01*
X189654587Y-71575810D01*
X189745913Y-71523083D01*
X189820480Y-71448516D01*
X189873207Y-71357190D01*
X189900500Y-71255330D01*
X189900500Y-71149876D01*
X189873207Y-71048016D01*
X189820480Y-70956690D01*
X189745913Y-70882123D01*
X189730468Y-70873206D01*
X189654588Y-70829396D01*
X189654583Y-70829394D01*
X189552734Y-70802104D01*
X189552728Y-70802103D01*
X189552727Y-70802103D01*
X189447273Y-70802103D01*
X189447271Y-70802103D01*
X189447265Y-70802104D01*
X189345416Y-70829394D01*
X189345411Y-70829396D01*
X189254086Y-70882123D01*
X189179520Y-70956689D01*
X189126793Y-71048014D01*
X189126791Y-71048019D01*
X189099501Y-71149868D01*
X189099500Y-71149878D01*
X188651500Y-71149878D01*
X188651500Y-70447275D01*
X192599500Y-70447275D01*
X192599500Y-70552724D01*
X192599501Y-70552734D01*
X192626791Y-70654583D01*
X192626793Y-70654588D01*
X192655035Y-70703504D01*
X192679520Y-70745913D01*
X192754087Y-70820480D01*
X192845413Y-70873207D01*
X192845414Y-70873207D01*
X192845416Y-70873208D01*
X192947265Y-70900498D01*
X192947266Y-70900498D01*
X192947273Y-70900500D01*
X192947280Y-70900500D01*
X192952145Y-70901141D01*
X192951874Y-70903197D01*
X192992672Y-70918047D01*
X192997496Y-70922467D01*
X195051400Y-72976371D01*
X195107349Y-73032320D01*
X195175871Y-73071881D01*
X195252298Y-73092360D01*
X195812652Y-73092360D01*
X195859693Y-73109482D01*
X195859797Y-73109347D01*
X195860225Y-73109675D01*
X195860861Y-73109907D01*
X195862582Y-73111484D01*
X195863695Y-73112338D01*
X195863697Y-73112339D01*
X195863698Y-73112340D01*
X195955024Y-73165067D01*
X195955025Y-73165067D01*
X195955027Y-73165068D01*
X196056876Y-73192358D01*
X196056878Y-73192358D01*
X196056884Y-73192360D01*
X196056886Y-73192360D01*
X196162336Y-73192360D01*
X196162338Y-73192360D01*
X196264198Y-73165067D01*
X196355524Y-73112340D01*
X196430091Y-73037773D01*
X196482818Y-72946447D01*
X196510111Y-72844587D01*
X196510111Y-72739133D01*
X196510109Y-72739125D01*
X196482819Y-72637276D01*
X196482817Y-72637271D01*
X196430090Y-72545946D01*
X196355524Y-72471380D01*
X196264199Y-72418653D01*
X196264194Y-72418651D01*
X196162345Y-72391361D01*
X196162339Y-72391360D01*
X196162338Y-72391360D01*
X196056884Y-72391360D01*
X196056882Y-72391360D01*
X196056876Y-72391361D01*
X195955027Y-72418651D01*
X195955022Y-72418653D01*
X195863695Y-72471381D01*
X195859797Y-72474373D01*
X195858534Y-72472727D01*
X195819189Y-72491075D01*
X195812652Y-72491360D01*
X195447397Y-72491360D01*
X195399188Y-72473813D01*
X195394364Y-72469393D01*
X194351505Y-71426534D01*
X201199500Y-71426534D01*
X201199500Y-71633465D01*
X201239870Y-71836421D01*
X201288368Y-71953504D01*
X201319059Y-72027598D01*
X201434023Y-72199655D01*
X201580345Y-72345977D01*
X201752402Y-72460941D01*
X201943580Y-72540130D01*
X202096139Y-72570475D01*
X202146534Y-72580500D01*
X202146535Y-72580500D01*
X202353466Y-72580500D01*
X202393836Y-72572469D01*
X202556420Y-72540130D01*
X202747598Y-72460941D01*
X202919655Y-72345977D01*
X203065977Y-72199655D01*
X203180941Y-72027598D01*
X203260130Y-71836420D01*
X203300500Y-71633465D01*
X203300500Y-71426535D01*
X203295640Y-71402104D01*
X203286707Y-71357191D01*
X203260130Y-71223580D01*
X203180941Y-71032402D01*
X203065977Y-70860345D01*
X202919655Y-70714023D01*
X202747598Y-70599059D01*
X202747596Y-70599058D01*
X202556421Y-70519870D01*
X202353466Y-70479500D01*
X202353465Y-70479500D01*
X202146535Y-70479500D01*
X202146534Y-70479500D01*
X201943578Y-70519870D01*
X201752403Y-70599058D01*
X201580345Y-70714023D01*
X201580342Y-70714025D01*
X201434025Y-70860342D01*
X201434023Y-70860345D01*
X201319058Y-71032403D01*
X201239870Y-71223578D01*
X201199500Y-71426534D01*
X194351505Y-71426534D01*
X193422467Y-70497496D01*
X193401308Y-70452122D01*
X193401141Y-70452145D01*
X193401071Y-70451613D01*
X193400785Y-70451000D01*
X193400683Y-70448668D01*
X193400500Y-70447280D01*
X193400500Y-70447273D01*
X193373207Y-70345413D01*
X193320480Y-70254087D01*
X193245913Y-70179520D01*
X193233697Y-70172467D01*
X193154588Y-70126793D01*
X193154583Y-70126791D01*
X193052734Y-70099501D01*
X193052728Y-70099500D01*
X193052727Y-70099500D01*
X192947273Y-70099500D01*
X192947271Y-70099500D01*
X192947265Y-70099501D01*
X192845416Y-70126791D01*
X192845411Y-70126793D01*
X192754086Y-70179520D01*
X192679520Y-70254086D01*
X192626793Y-70345411D01*
X192626791Y-70345416D01*
X192599501Y-70447265D01*
X192599500Y-70447275D01*
X188651500Y-70447275D01*
X188651500Y-68886534D01*
X201199500Y-68886534D01*
X201199500Y-69093465D01*
X201239870Y-69296421D01*
X201295002Y-69429520D01*
X201319059Y-69487598D01*
X201434023Y-69659655D01*
X201580345Y-69805977D01*
X201752402Y-69920941D01*
X201943580Y-70000130D01*
X202096139Y-70030475D01*
X202146534Y-70040500D01*
X202146535Y-70040500D01*
X202353466Y-70040500D01*
X202393836Y-70032469D01*
X202556420Y-70000130D01*
X202747598Y-69920941D01*
X202919655Y-69805977D01*
X203065977Y-69659655D01*
X203180941Y-69487598D01*
X203260130Y-69296420D01*
X203300500Y-69093465D01*
X203300500Y-68886535D01*
X203260130Y-68683580D01*
X203180941Y-68492402D01*
X203065977Y-68320345D01*
X202919655Y-68174023D01*
X202747598Y-68059059D01*
X202747596Y-68059058D01*
X202556421Y-67979870D01*
X202353466Y-67939500D01*
X202353465Y-67939500D01*
X202146535Y-67939500D01*
X202146534Y-67939500D01*
X201943578Y-67979870D01*
X201752403Y-68059058D01*
X201580345Y-68174023D01*
X201580342Y-68174025D01*
X201434025Y-68320342D01*
X201434023Y-68320345D01*
X201319058Y-68492403D01*
X201239870Y-68683578D01*
X201199500Y-68886534D01*
X188651500Y-68886534D01*
X188651500Y-66697275D01*
X193099500Y-66697275D01*
X193099500Y-66802724D01*
X193099501Y-66802734D01*
X193126791Y-66904583D01*
X193126793Y-66904588D01*
X193151439Y-66947275D01*
X193179520Y-66995913D01*
X193254087Y-67070480D01*
X193345413Y-67123207D01*
X193345414Y-67123207D01*
X193345416Y-67123208D01*
X193447265Y-67150498D01*
X193447267Y-67150498D01*
X193447273Y-67150500D01*
X193447275Y-67150500D01*
X193552725Y-67150500D01*
X193552727Y-67150500D01*
X193654587Y-67123207D01*
X193745913Y-67070480D01*
X193820480Y-66995913D01*
X193848561Y-66947275D01*
X194599500Y-66947275D01*
X194599500Y-67052724D01*
X194599501Y-67052734D01*
X194626791Y-67154583D01*
X194626793Y-67154588D01*
X194679520Y-67245913D01*
X194754087Y-67320480D01*
X194845413Y-67373207D01*
X194845414Y-67373207D01*
X194845416Y-67373208D01*
X194947265Y-67400498D01*
X194947267Y-67400498D01*
X194947273Y-67400500D01*
X194947275Y-67400500D01*
X195052725Y-67400500D01*
X195052727Y-67400500D01*
X195154587Y-67373207D01*
X195245913Y-67320480D01*
X195320480Y-67245913D01*
X195373207Y-67154587D01*
X195400500Y-67052727D01*
X195400500Y-66947273D01*
X195400498Y-66947265D01*
X195373208Y-66845416D01*
X195373206Y-66845411D01*
X195348562Y-66802727D01*
X195320480Y-66754087D01*
X195245913Y-66679520D01*
X195231158Y-66671001D01*
X195154588Y-66626793D01*
X195154583Y-66626791D01*
X195052734Y-66599501D01*
X195052728Y-66599500D01*
X195052727Y-66599500D01*
X194947273Y-66599500D01*
X194947271Y-66599500D01*
X194947265Y-66599501D01*
X194845416Y-66626791D01*
X194845411Y-66626793D01*
X194754086Y-66679520D01*
X194679520Y-66754086D01*
X194626793Y-66845411D01*
X194626791Y-66845416D01*
X194599501Y-66947265D01*
X194599500Y-66947275D01*
X193848561Y-66947275D01*
X193873207Y-66904587D01*
X193900500Y-66802727D01*
X193900500Y-66697273D01*
X193881615Y-66626791D01*
X193873208Y-66595416D01*
X193873206Y-66595411D01*
X193820479Y-66504086D01*
X193745913Y-66429520D01*
X193708298Y-66407803D01*
X193654588Y-66376793D01*
X193654583Y-66376791D01*
X193552734Y-66349501D01*
X193552728Y-66349500D01*
X193552727Y-66349500D01*
X193447273Y-66349500D01*
X193447271Y-66349500D01*
X193447265Y-66349501D01*
X193345416Y-66376791D01*
X193345411Y-66376793D01*
X193254086Y-66429520D01*
X193179520Y-66504086D01*
X193126793Y-66595411D01*
X193126791Y-66595416D01*
X193099501Y-66697265D01*
X193099500Y-66697275D01*
X188651500Y-66697275D01*
X188651500Y-66346534D01*
X201199500Y-66346534D01*
X201199500Y-66553465D01*
X201239870Y-66756421D01*
X201301353Y-66904853D01*
X201319059Y-66947598D01*
X201434023Y-67119655D01*
X201580345Y-67265977D01*
X201752402Y-67380941D01*
X201943580Y-67460130D01*
X202096139Y-67490475D01*
X202146534Y-67500500D01*
X202146535Y-67500500D01*
X202353466Y-67500500D01*
X202393836Y-67492469D01*
X202556420Y-67460130D01*
X202747598Y-67380941D01*
X202919655Y-67265977D01*
X203065977Y-67119655D01*
X203180941Y-66947598D01*
X203260130Y-66756420D01*
X203300500Y-66553465D01*
X203300500Y-66346535D01*
X203260130Y-66143580D01*
X203180941Y-65952402D01*
X203065977Y-65780345D01*
X202919655Y-65634023D01*
X202747598Y-65519059D01*
X202747596Y-65519058D01*
X202556421Y-65439870D01*
X202353466Y-65399500D01*
X202353465Y-65399500D01*
X202146535Y-65399500D01*
X202146534Y-65399500D01*
X201943578Y-65439870D01*
X201752403Y-65519058D01*
X201580345Y-65634023D01*
X201580342Y-65634025D01*
X201434025Y-65780342D01*
X201434023Y-65780345D01*
X201319058Y-65952403D01*
X201239870Y-66143578D01*
X201199500Y-66346534D01*
X188651500Y-66346534D01*
X188651500Y-64447275D01*
X194849500Y-64447275D01*
X194849500Y-64552724D01*
X194849501Y-64552734D01*
X194876791Y-64654583D01*
X194876793Y-64654588D01*
X194918008Y-64725974D01*
X194929520Y-64745913D01*
X195004087Y-64820480D01*
X195095413Y-64873207D01*
X195095414Y-64873207D01*
X195095416Y-64873208D01*
X195197265Y-64900498D01*
X195197267Y-64900498D01*
X195197273Y-64900500D01*
X195197275Y-64900500D01*
X195302725Y-64900500D01*
X195302727Y-64900500D01*
X195404587Y-64873207D01*
X195495913Y-64820480D01*
X195570480Y-64745913D01*
X195623207Y-64654587D01*
X195650500Y-64552727D01*
X195650500Y-64447273D01*
X195623207Y-64345413D01*
X195570480Y-64254087D01*
X195495913Y-64179520D01*
X195445649Y-64150500D01*
X195404588Y-64126793D01*
X195404583Y-64126791D01*
X195302734Y-64099501D01*
X195302728Y-64099500D01*
X195302727Y-64099500D01*
X195197273Y-64099500D01*
X195197271Y-64099500D01*
X195197265Y-64099501D01*
X195095416Y-64126791D01*
X195095411Y-64126793D01*
X195004086Y-64179520D01*
X194929520Y-64254086D01*
X194876793Y-64345411D01*
X194876791Y-64345416D01*
X194849501Y-64447265D01*
X194849500Y-64447275D01*
X188651500Y-64447275D01*
X188651500Y-63697275D01*
X192849500Y-63697275D01*
X192849500Y-63802724D01*
X192849501Y-63802734D01*
X192876791Y-63904583D01*
X192876793Y-63904588D01*
X192929520Y-63995913D01*
X193004087Y-64070480D01*
X193095413Y-64123207D01*
X193095414Y-64123207D01*
X193095416Y-64123208D01*
X193197265Y-64150498D01*
X193197267Y-64150498D01*
X193197273Y-64150500D01*
X193197275Y-64150500D01*
X193302725Y-64150500D01*
X193302727Y-64150500D01*
X193404587Y-64123207D01*
X193495913Y-64070480D01*
X193570480Y-63995913D01*
X193623207Y-63904587D01*
X193649480Y-63806534D01*
X201199500Y-63806534D01*
X201199500Y-64013465D01*
X201239870Y-64216421D01*
X201255472Y-64254087D01*
X201319059Y-64407598D01*
X201434023Y-64579655D01*
X201580345Y-64725977D01*
X201752402Y-64840941D01*
X201943580Y-64920130D01*
X202096139Y-64950475D01*
X202146534Y-64960500D01*
X202146535Y-64960500D01*
X202353466Y-64960500D01*
X202393836Y-64952469D01*
X202556420Y-64920130D01*
X202747598Y-64840941D01*
X202919655Y-64725977D01*
X203065977Y-64579655D01*
X203180941Y-64407598D01*
X203260130Y-64216420D01*
X203300500Y-64013465D01*
X203300500Y-63806535D01*
X203260130Y-63603580D01*
X203180941Y-63412402D01*
X203065977Y-63240345D01*
X202919655Y-63094023D01*
X202747598Y-62979059D01*
X202720313Y-62967757D01*
X202556421Y-62899870D01*
X202353466Y-62859500D01*
X202353465Y-62859500D01*
X202146535Y-62859500D01*
X202146534Y-62859500D01*
X201943578Y-62899870D01*
X201752403Y-62979058D01*
X201580345Y-63094023D01*
X201580342Y-63094025D01*
X201434025Y-63240342D01*
X201434023Y-63240345D01*
X201319058Y-63412403D01*
X201239870Y-63603578D01*
X201199500Y-63806534D01*
X193649480Y-63806534D01*
X193650500Y-63802727D01*
X193650500Y-63697273D01*
X193639063Y-63654588D01*
X193623208Y-63595416D01*
X193623206Y-63595411D01*
X193598562Y-63552727D01*
X193570480Y-63504087D01*
X193495913Y-63429520D01*
X193404588Y-63376793D01*
X193404583Y-63376791D01*
X193302734Y-63349501D01*
X193302728Y-63349500D01*
X193302727Y-63349500D01*
X193197273Y-63349500D01*
X193197271Y-63349500D01*
X193197265Y-63349501D01*
X193095416Y-63376791D01*
X193095411Y-63376793D01*
X193004086Y-63429520D01*
X192929520Y-63504086D01*
X192876793Y-63595411D01*
X192876791Y-63595416D01*
X192849501Y-63697265D01*
X192849500Y-63697275D01*
X188651500Y-63697275D01*
X188651500Y-63197275D01*
X189062000Y-63197275D01*
X189062000Y-63302724D01*
X189062001Y-63302734D01*
X189089291Y-63404583D01*
X189089293Y-63404588D01*
X189130344Y-63475689D01*
X189142020Y-63495913D01*
X189216587Y-63570480D01*
X189307913Y-63623207D01*
X189307914Y-63623207D01*
X189307916Y-63623208D01*
X189409765Y-63650498D01*
X189409767Y-63650498D01*
X189409773Y-63650500D01*
X189409775Y-63650500D01*
X189515225Y-63650500D01*
X189515227Y-63650500D01*
X189554754Y-63639908D01*
X189617084Y-63623208D01*
X189617084Y-63623207D01*
X189617087Y-63623207D01*
X189708413Y-63570480D01*
X189782980Y-63495913D01*
X189835707Y-63404587D01*
X189863000Y-63302727D01*
X189863000Y-63197273D01*
X189837613Y-63102526D01*
X189835708Y-63095416D01*
X189835706Y-63095411D01*
X189782979Y-63004086D01*
X189708413Y-62929520D01*
X189617088Y-62876793D01*
X189617083Y-62876791D01*
X189515234Y-62849501D01*
X189515228Y-62849500D01*
X189515227Y-62849500D01*
X189409773Y-62849500D01*
X189409771Y-62849500D01*
X189409765Y-62849501D01*
X189307916Y-62876791D01*
X189307911Y-62876793D01*
X189216586Y-62929520D01*
X189142020Y-63004086D01*
X189089293Y-63095411D01*
X189089291Y-63095416D01*
X189062001Y-63197265D01*
X189062000Y-63197275D01*
X188651500Y-63197275D01*
X188651500Y-61947275D01*
X190762000Y-61947275D01*
X190762000Y-62052724D01*
X190762001Y-62052734D01*
X190789291Y-62154583D01*
X190789293Y-62154588D01*
X190813939Y-62197275D01*
X190842020Y-62245913D01*
X190916587Y-62320480D01*
X191007913Y-62373207D01*
X191007914Y-62373207D01*
X191007916Y-62373208D01*
X191109765Y-62400498D01*
X191109767Y-62400498D01*
X191109773Y-62400500D01*
X191109775Y-62400500D01*
X191215225Y-62400500D01*
X191215227Y-62400500D01*
X191317087Y-62373207D01*
X191408413Y-62320480D01*
X191482980Y-62245913D01*
X191511061Y-62197275D01*
X194599500Y-62197275D01*
X194599500Y-62302724D01*
X194599501Y-62302734D01*
X194626791Y-62404583D01*
X194626793Y-62404588D01*
X194635980Y-62420500D01*
X194679520Y-62495913D01*
X194754087Y-62570480D01*
X194845413Y-62623207D01*
X194845414Y-62623207D01*
X194845416Y-62623208D01*
X194947265Y-62650498D01*
X194947267Y-62650498D01*
X194947273Y-62650500D01*
X194947275Y-62650500D01*
X195052725Y-62650500D01*
X195052727Y-62650500D01*
X195154587Y-62623207D01*
X195245913Y-62570480D01*
X195320480Y-62495913D01*
X195373207Y-62404587D01*
X195400500Y-62302727D01*
X195400500Y-62197273D01*
X195397473Y-62185976D01*
X195373208Y-62095416D01*
X195373206Y-62095411D01*
X195348562Y-62052727D01*
X195320480Y-62004087D01*
X195245913Y-61929520D01*
X195154588Y-61876793D01*
X195154583Y-61876791D01*
X195052734Y-61849501D01*
X195052728Y-61849500D01*
X195052727Y-61849500D01*
X194947273Y-61849500D01*
X194947271Y-61849500D01*
X194947265Y-61849501D01*
X194845416Y-61876791D01*
X194845411Y-61876793D01*
X194754086Y-61929520D01*
X194679520Y-62004086D01*
X194626793Y-62095411D01*
X194626791Y-62095416D01*
X194599501Y-62197265D01*
X194599500Y-62197275D01*
X191511061Y-62197275D01*
X191535707Y-62154587D01*
X191563000Y-62052727D01*
X191563000Y-61947273D01*
X191544115Y-61876791D01*
X191535708Y-61845416D01*
X191535706Y-61845411D01*
X191521578Y-61820940D01*
X191482980Y-61754087D01*
X191408413Y-61679520D01*
X191355080Y-61648728D01*
X191317088Y-61626793D01*
X191317083Y-61626791D01*
X191215234Y-61599501D01*
X191215228Y-61599500D01*
X191215227Y-61599500D01*
X191109773Y-61599500D01*
X191109771Y-61599500D01*
X191109765Y-61599501D01*
X191007916Y-61626791D01*
X191007911Y-61626793D01*
X190916586Y-61679520D01*
X190842020Y-61754086D01*
X190789293Y-61845411D01*
X190789291Y-61845416D01*
X190762001Y-61947265D01*
X190762000Y-61947275D01*
X188651500Y-61947275D01*
X188651500Y-61461497D01*
X188651499Y-61461491D01*
X188642932Y-61429520D01*
X188640645Y-61420984D01*
X188640645Y-61420982D01*
X188635278Y-61400953D01*
X188631022Y-61385069D01*
X188591460Y-61316546D01*
X188541448Y-61266534D01*
X201199500Y-61266534D01*
X201199500Y-61473465D01*
X201239870Y-61676421D01*
X201319058Y-61867596D01*
X201319059Y-61867598D01*
X201434023Y-62039655D01*
X201580345Y-62185977D01*
X201752402Y-62300941D01*
X201943580Y-62380130D01*
X202096139Y-62410475D01*
X202146534Y-62420500D01*
X202146535Y-62420500D01*
X202353466Y-62420500D01*
X202393836Y-62412469D01*
X202556420Y-62380130D01*
X202747598Y-62300941D01*
X202919655Y-62185977D01*
X203065977Y-62039655D01*
X203180941Y-61867598D01*
X203260130Y-61676420D01*
X203300500Y-61473465D01*
X203300500Y-61266535D01*
X203260130Y-61063580D01*
X203180941Y-60872402D01*
X203065977Y-60700345D01*
X202919655Y-60554023D01*
X202747598Y-60439059D01*
X202736616Y-60434510D01*
X202556421Y-60359870D01*
X202353466Y-60319500D01*
X202353465Y-60319500D01*
X202146535Y-60319500D01*
X202146534Y-60319500D01*
X201943578Y-60359870D01*
X201752403Y-60439058D01*
X201580345Y-60554023D01*
X201580342Y-60554025D01*
X201434025Y-60700342D01*
X201434023Y-60700345D01*
X201319058Y-60872403D01*
X201239870Y-61063578D01*
X201199500Y-61266534D01*
X188541448Y-61266534D01*
X188134907Y-60859993D01*
X188066386Y-60820432D01*
X188066383Y-60820431D01*
X187989963Y-60799954D01*
X187989960Y-60799953D01*
X187989958Y-60799953D01*
X181519985Y-60799953D01*
X181519983Y-60799953D01*
X181519979Y-60799954D01*
X181443559Y-60820431D01*
X181443556Y-60820432D01*
X181375035Y-60859993D01*
X179288952Y-62946075D01*
X179242456Y-62967757D01*
X179207218Y-62962333D01*
X179056421Y-62899870D01*
X178853466Y-62859500D01*
X178853465Y-62859500D01*
X178646535Y-62859500D01*
X178646534Y-62859500D01*
X178443578Y-62899870D01*
X178252403Y-62979058D01*
X178080345Y-63094023D01*
X178080342Y-63094025D01*
X177934025Y-63240342D01*
X177934023Y-63240345D01*
X177819058Y-63412403D01*
X177739870Y-63603578D01*
X177699500Y-63806534D01*
X177699500Y-64013465D01*
X177739870Y-64216421D01*
X177755472Y-64254087D01*
X177819059Y-64407598D01*
X177934023Y-64579655D01*
X178080345Y-64725977D01*
X178252402Y-64840941D01*
X178443580Y-64920130D01*
X178596139Y-64950475D01*
X178646534Y-64960500D01*
X178646535Y-64960500D01*
X178853466Y-64960500D01*
X178893836Y-64952469D01*
X179056420Y-64920130D01*
X179247598Y-64840941D01*
X179419655Y-64725977D01*
X179565977Y-64579655D01*
X179680941Y-64407598D01*
X179760130Y-64216420D01*
X179800500Y-64013465D01*
X179800500Y-63806535D01*
X179760130Y-63603580D01*
X179697664Y-63452776D01*
X179697424Y-63447275D01*
X184349500Y-63447275D01*
X184349500Y-63552724D01*
X184349501Y-63552734D01*
X184376791Y-63654583D01*
X184376793Y-63654588D01*
X184401439Y-63697275D01*
X184429520Y-63745913D01*
X184504087Y-63820480D01*
X184595413Y-63873207D01*
X184595414Y-63873207D01*
X184595416Y-63873208D01*
X184697265Y-63900498D01*
X184697267Y-63900498D01*
X184697273Y-63900500D01*
X184697275Y-63900500D01*
X184802725Y-63900500D01*
X184802727Y-63900500D01*
X184904587Y-63873207D01*
X184995913Y-63820480D01*
X185070480Y-63745913D01*
X185123207Y-63654587D01*
X185150500Y-63552727D01*
X185150500Y-63447273D01*
X185141157Y-63412403D01*
X185123208Y-63345416D01*
X185123206Y-63345411D01*
X185098562Y-63302727D01*
X185070480Y-63254087D01*
X184995913Y-63179520D01*
X184904588Y-63126793D01*
X184904583Y-63126791D01*
X184802734Y-63099501D01*
X184802728Y-63099500D01*
X184802727Y-63099500D01*
X184697273Y-63099500D01*
X184697271Y-63099500D01*
X184697265Y-63099501D01*
X184595416Y-63126791D01*
X184595411Y-63126793D01*
X184504086Y-63179520D01*
X184429520Y-63254086D01*
X184376793Y-63345411D01*
X184376791Y-63345416D01*
X184349501Y-63447265D01*
X184349500Y-63447275D01*
X179697424Y-63447275D01*
X179695429Y-63401524D01*
X179713922Y-63371047D01*
X181662051Y-61422920D01*
X181708547Y-61401238D01*
X181715084Y-61400953D01*
X186091745Y-61400953D01*
X186139954Y-61418500D01*
X186165606Y-61462929D01*
X186156697Y-61513453D01*
X186137406Y-61546865D01*
X186137404Y-61546869D01*
X186110114Y-61648718D01*
X186110113Y-61648728D01*
X186110113Y-61754177D01*
X186110114Y-61754187D01*
X186137404Y-61856036D01*
X186137406Y-61856041D01*
X186179830Y-61929520D01*
X186190133Y-61947366D01*
X186264700Y-62021933D01*
X186356026Y-62074660D01*
X186356027Y-62074660D01*
X186356029Y-62074661D01*
X186457878Y-62101951D01*
X186457880Y-62101951D01*
X186457886Y-62101953D01*
X186457888Y-62101953D01*
X186563338Y-62101953D01*
X186563340Y-62101953D01*
X186578439Y-62097907D01*
X186629545Y-62102377D01*
X186665823Y-62138652D01*
X186670296Y-62189760D01*
X186650884Y-62223384D01*
X186258642Y-62615627D01*
X186202693Y-62671575D01*
X186163132Y-62740096D01*
X186163131Y-62740099D01*
X186142654Y-62816519D01*
X186142653Y-62816527D01*
X186142653Y-74453420D01*
X186142654Y-74453428D01*
X186159952Y-74517984D01*
X186163132Y-74529850D01*
X186182600Y-74563569D01*
X186199878Y-74593496D01*
X186202694Y-74598373D01*
X186354905Y-74750584D01*
X186376063Y-74795957D01*
X186376231Y-74795935D01*
X186376300Y-74796466D01*
X186376587Y-74797080D01*
X186376688Y-74799411D01*
X186376873Y-74800814D01*
X186404163Y-74902663D01*
X186404165Y-74902668D01*
X186450600Y-74983095D01*
X186456892Y-74993993D01*
X186531459Y-75068560D01*
X186622785Y-75121287D01*
X186622786Y-75121287D01*
X186622788Y-75121288D01*
X186724637Y-75148578D01*
X186724639Y-75148578D01*
X186724645Y-75148580D01*
X186724647Y-75148580D01*
X186830097Y-75148580D01*
X186830099Y-75148580D01*
X186931959Y-75121287D01*
X187023285Y-75068560D01*
X187097852Y-74993993D01*
X187150579Y-74902667D01*
X187177872Y-74800807D01*
X187177872Y-74695353D01*
X187177145Y-74692638D01*
X187150580Y-74593496D01*
X187150578Y-74593491D01*
X187133302Y-74563568D01*
X187097852Y-74502167D01*
X187023285Y-74427600D01*
X187001222Y-74414862D01*
X186931960Y-74374873D01*
X186931955Y-74374871D01*
X186830106Y-74347581D01*
X186830099Y-74347580D01*
X186830098Y-74347580D01*
X186825227Y-74346939D01*
X186825497Y-74344882D01*
X186817523Y-74341979D01*
X186801213Y-74340553D01*
X186787800Y-74331161D01*
X186784700Y-74330033D01*
X186779876Y-74325613D01*
X186765620Y-74311357D01*
X186743938Y-74264861D01*
X186743653Y-74258324D01*
X186743653Y-63523898D01*
X186761200Y-63475689D01*
X186805629Y-63450037D01*
X186856152Y-63458945D01*
X186889566Y-63478237D01*
X186889568Y-63478237D01*
X186889569Y-63478238D01*
X186963911Y-63498158D01*
X187005936Y-63527584D01*
X187019500Y-63570602D01*
X187019500Y-66219459D01*
X187002377Y-66266500D01*
X187002513Y-66266604D01*
X187002184Y-66267032D01*
X187001953Y-66267668D01*
X187000375Y-66269389D01*
X186999521Y-66270502D01*
X186946793Y-66361829D01*
X186946791Y-66361834D01*
X186919501Y-66463683D01*
X186919500Y-66463693D01*
X186919500Y-66569142D01*
X186919501Y-66569152D01*
X186946791Y-66671001D01*
X186946793Y-66671006D01*
X186961960Y-66697275D01*
X186999520Y-66762331D01*
X187074087Y-66836898D01*
X187165413Y-66889625D01*
X187165414Y-66889625D01*
X187165416Y-66889626D01*
X187267265Y-66916916D01*
X187267267Y-66916916D01*
X187267273Y-66916918D01*
X187267275Y-66916918D01*
X187372725Y-66916918D01*
X187372727Y-66916918D01*
X187474587Y-66889625D01*
X187565913Y-66836898D01*
X187640480Y-66762331D01*
X187693207Y-66671005D01*
X187720500Y-66569145D01*
X187720500Y-66463691D01*
X187697216Y-66376793D01*
X187693208Y-66361834D01*
X187693206Y-66361829D01*
X187640478Y-66270502D01*
X187637487Y-66266604D01*
X187639132Y-66265341D01*
X187620785Y-66225996D01*
X187620500Y-66219459D01*
X187620500Y-63341317D01*
X187620499Y-63341312D01*
X187616677Y-63327048D01*
X187616676Y-63327047D01*
X187600022Y-63264889D01*
X187593785Y-63254087D01*
X187583299Y-63235924D01*
X187560460Y-63196366D01*
X187466620Y-63102526D01*
X187445461Y-63057152D01*
X187445294Y-63057175D01*
X187445224Y-63056643D01*
X187444938Y-63056030D01*
X187444836Y-63053698D01*
X187444653Y-63052310D01*
X187444653Y-63052303D01*
X187431734Y-63004087D01*
X187417361Y-62950446D01*
X187417359Y-62950441D01*
X187364632Y-62859116D01*
X187290066Y-62784550D01*
X187198741Y-62731823D01*
X187198738Y-62731822D01*
X187161471Y-62721836D01*
X187119446Y-62692409D01*
X187106168Y-62642854D01*
X187127848Y-62596362D01*
X187569204Y-62155005D01*
X187615699Y-62133324D01*
X187641646Y-62135594D01*
X187697273Y-62150500D01*
X187697275Y-62150500D01*
X187802725Y-62150500D01*
X187802727Y-62150500D01*
X187904587Y-62123207D01*
X187938000Y-62103915D01*
X187988523Y-62095007D01*
X188032953Y-62120659D01*
X188050500Y-62168868D01*
X188050500Y-71441270D01*
X188050501Y-71441278D01*
X188070978Y-71517698D01*
X188070979Y-71517700D01*
X188104529Y-71575810D01*
X188104530Y-71575812D01*
X188110538Y-71586220D01*
X189462208Y-72937890D01*
X189483890Y-72984386D01*
X189470611Y-73033941D01*
X189446677Y-73055874D01*
X189398832Y-73083498D01*
X189324266Y-73158064D01*
X189271539Y-73249389D01*
X189271538Y-73249392D01*
X189246350Y-73343395D01*
X189216924Y-73385420D01*
X189173906Y-73398983D01*
X189117019Y-73398983D01*
X189117017Y-73398983D01*
X189117011Y-73398984D01*
X189015162Y-73426274D01*
X189015157Y-73426276D01*
X188923832Y-73479003D01*
X188849266Y-73553569D01*
X188796539Y-73644894D01*
X188796537Y-73644899D01*
X188769247Y-73746748D01*
X188769246Y-73746758D01*
X188769246Y-73784774D01*
X188751699Y-73832983D01*
X188707270Y-73858635D01*
X188694246Y-73859774D01*
X188656250Y-73859774D01*
X188656248Y-73859774D01*
X188656242Y-73859775D01*
X188554393Y-73887065D01*
X188554388Y-73887067D01*
X188463063Y-73939794D01*
X188388498Y-74014359D01*
X188334425Y-74108016D01*
X188295124Y-74140992D01*
X188250062Y-74142960D01*
X188229876Y-74137551D01*
X188229875Y-74137551D01*
X188124421Y-74137551D01*
X188124419Y-74137551D01*
X188124413Y-74137552D01*
X188022564Y-74164842D01*
X188022559Y-74164844D01*
X187931234Y-74217571D01*
X187856668Y-74292137D01*
X187803941Y-74383462D01*
X187803939Y-74383467D01*
X187776649Y-74485316D01*
X187776648Y-74485326D01*
X187776648Y-74590775D01*
X187776649Y-74590785D01*
X187803939Y-74692634D01*
X187803941Y-74692639D01*
X187831086Y-74739655D01*
X187856668Y-74783964D01*
X187931235Y-74858531D01*
X188022561Y-74911258D01*
X188022562Y-74911258D01*
X188022564Y-74911259D01*
X188124413Y-74938549D01*
X188124415Y-74938549D01*
X188124421Y-74938551D01*
X188124423Y-74938551D01*
X188229873Y-74938551D01*
X188229875Y-74938551D01*
X188331735Y-74911258D01*
X188423061Y-74858531D01*
X188497628Y-74783964D01*
X188550355Y-74692638D01*
X188550355Y-74692635D01*
X188551699Y-74690309D01*
X188590999Y-74657332D01*
X188636064Y-74655365D01*
X188656242Y-74660772D01*
X188656250Y-74660774D01*
X188656252Y-74660774D01*
X188761702Y-74660774D01*
X188761704Y-74660774D01*
X188863564Y-74633481D01*
X188954890Y-74580754D01*
X189029457Y-74506187D01*
X189082184Y-74414861D01*
X189109477Y-74313001D01*
X189109477Y-74274983D01*
X189127024Y-74226774D01*
X189171453Y-74201122D01*
X189184477Y-74199983D01*
X189222471Y-74199983D01*
X189222473Y-74199983D01*
X189324333Y-74172690D01*
X189415659Y-74119963D01*
X189490226Y-74045396D01*
X189542953Y-73954070D01*
X189551826Y-73920953D01*
X189568142Y-73860066D01*
X189597568Y-73818041D01*
X189640586Y-73804478D01*
X189697471Y-73804478D01*
X189697473Y-73804478D01*
X189799333Y-73777185D01*
X189890659Y-73724458D01*
X189965226Y-73649891D01*
X189992848Y-73602047D01*
X190032149Y-73569071D01*
X190083452Y-73569071D01*
X190110833Y-73586515D01*
X193600799Y-77076481D01*
X193622481Y-77122977D01*
X193622766Y-77129514D01*
X193622766Y-81486825D01*
X193622767Y-81486833D01*
X193644450Y-81567754D01*
X193639979Y-81618862D01*
X193603703Y-81655139D01*
X193591421Y-81659609D01*
X193577088Y-81663450D01*
X193577082Y-81663452D01*
X193485757Y-81716179D01*
X193411191Y-81790745D01*
X193398473Y-81812773D01*
X193359171Y-81845749D01*
X193307868Y-81845747D01*
X193296022Y-81840223D01*
X193229541Y-81801840D01*
X193229536Y-81801838D01*
X193127687Y-81774548D01*
X193127681Y-81774547D01*
X193127680Y-81774547D01*
X193022226Y-81774547D01*
X193022224Y-81774547D01*
X193022218Y-81774548D01*
X192920369Y-81801838D01*
X192920364Y-81801840D01*
X192829039Y-81854567D01*
X192754473Y-81929133D01*
X192701746Y-82020458D01*
X192701744Y-82020463D01*
X192674454Y-82122312D01*
X192674453Y-82122322D01*
X192674453Y-82227771D01*
X192674454Y-82227781D01*
X192701744Y-82329630D01*
X192701746Y-82329635D01*
X192722717Y-82365957D01*
X192754473Y-82420960D01*
X192829040Y-82495527D01*
X192920366Y-82548254D01*
X192920367Y-82548254D01*
X192920369Y-82548255D01*
X193022218Y-82575545D01*
X193022220Y-82575545D01*
X193022226Y-82575547D01*
X193022228Y-82575547D01*
X193127678Y-82575547D01*
X193127680Y-82575547D01*
X193229540Y-82548254D01*
X193320866Y-82495527D01*
X193395433Y-82420960D01*
X193408149Y-82398934D01*
X193447448Y-82365957D01*
X193498752Y-82365957D01*
X193510600Y-82371481D01*
X193577084Y-82409866D01*
X193577085Y-82409866D01*
X193577087Y-82409867D01*
X193678936Y-82437157D01*
X193678938Y-82437157D01*
X193678944Y-82437159D01*
X193678946Y-82437159D01*
X193784396Y-82437159D01*
X193784398Y-82437159D01*
X193886258Y-82409866D01*
X193977584Y-82357139D01*
X194052151Y-82282572D01*
X194104878Y-82191246D01*
X194104878Y-82191243D01*
X194106297Y-82188787D01*
X194145597Y-82155809D01*
X194196900Y-82155809D01*
X194224282Y-82173253D01*
X198547496Y-86496467D01*
X198569178Y-86542963D01*
X198555899Y-86592518D01*
X198513874Y-86621944D01*
X198494463Y-86624500D01*
X198055251Y-86624500D01*
X197996769Y-86636132D01*
X197930448Y-86680447D01*
X197930446Y-86680449D01*
X197923662Y-86690602D01*
X197882287Y-86720936D01*
X197831094Y-86717578D01*
X197819637Y-86711292D01*
X197796286Y-86695689D01*
X197725903Y-86666535D01*
X197682453Y-86648537D01*
X197561607Y-86624500D01*
X197561606Y-86624500D01*
X197438394Y-86624500D01*
X197438393Y-86624500D01*
X197317546Y-86648537D01*
X197203715Y-86695688D01*
X197101267Y-86764141D01*
X197101264Y-86764144D01*
X197053033Y-86812376D01*
X197006537Y-86834058D01*
X196956982Y-86820779D01*
X196946967Y-86812376D01*
X196898732Y-86764141D01*
X196829045Y-86717578D01*
X196796286Y-86695689D01*
X196759494Y-86680449D01*
X196682453Y-86648537D01*
X196561607Y-86624500D01*
X196561606Y-86624500D01*
X196438394Y-86624500D01*
X196438393Y-86624500D01*
X196317546Y-86648537D01*
X196203715Y-86695688D01*
X196101267Y-86764141D01*
X196014141Y-86851267D01*
X195945688Y-86953715D01*
X195898537Y-87067546D01*
X195874500Y-87188393D01*
X195874500Y-87311606D01*
X195898537Y-87432453D01*
X195945688Y-87546284D01*
X196014141Y-87648732D01*
X196062376Y-87696967D01*
X196084058Y-87743463D01*
X196070779Y-87793018D01*
X196062376Y-87803033D01*
X196014144Y-87851264D01*
X196014141Y-87851267D01*
X195945688Y-87953715D01*
X195898537Y-88067546D01*
X195874500Y-88188393D01*
X195874500Y-88311607D01*
X195889727Y-88388162D01*
X195881922Y-88438868D01*
X195869201Y-88455826D01*
X195589489Y-88735540D01*
X195533540Y-88791488D01*
X195493979Y-88860009D01*
X195493978Y-88860012D01*
X195473501Y-88936432D01*
X195473500Y-88936440D01*
X195473500Y-92035603D01*
X195455953Y-92083812D01*
X195411524Y-92109464D01*
X195361000Y-92100555D01*
X195345467Y-92088636D01*
X186289212Y-83032381D01*
X186267530Y-82985885D01*
X186267245Y-82979348D01*
X186267245Y-82051014D01*
X187451405Y-82051014D01*
X187451405Y-82156463D01*
X187451406Y-82156473D01*
X187478696Y-82258322D01*
X187478698Y-82258327D01*
X187519868Y-82329635D01*
X187531425Y-82349652D01*
X187605992Y-82424219D01*
X187672845Y-82462817D01*
X187680830Y-82467427D01*
X187697318Y-82476946D01*
X187697319Y-82476946D01*
X187697321Y-82476947D01*
X187799170Y-82504237D01*
X187799172Y-82504237D01*
X187799178Y-82504239D01*
X187799180Y-82504239D01*
X187904630Y-82504239D01*
X187904632Y-82504239D01*
X188006492Y-82476946D01*
X188057884Y-82447275D01*
X188599500Y-82447275D01*
X188599500Y-82552724D01*
X188599501Y-82552734D01*
X188626791Y-82654583D01*
X188626793Y-82654588D01*
X188653087Y-82700130D01*
X188679520Y-82745913D01*
X188754087Y-82820480D01*
X188840680Y-82870474D01*
X188873656Y-82909773D01*
X188875624Y-82954833D01*
X188867830Y-82983924D01*
X188867829Y-82983934D01*
X188867829Y-83089383D01*
X188867830Y-83089393D01*
X188895120Y-83191242D01*
X188895122Y-83191247D01*
X188931403Y-83254087D01*
X188947849Y-83282572D01*
X189022416Y-83357139D01*
X189089269Y-83395737D01*
X189104591Y-83404583D01*
X189113742Y-83409866D01*
X189113743Y-83409866D01*
X189113745Y-83409867D01*
X189215594Y-83437157D01*
X189215596Y-83437157D01*
X189215602Y-83437159D01*
X189215604Y-83437159D01*
X189274500Y-83437159D01*
X189322709Y-83454706D01*
X189348361Y-83499135D01*
X189349500Y-83512159D01*
X189349500Y-83552724D01*
X189349501Y-83552734D01*
X189376791Y-83654583D01*
X189376793Y-83654588D01*
X189421719Y-83732402D01*
X189429520Y-83745913D01*
X189504087Y-83820480D01*
X189595413Y-83873207D01*
X189595414Y-83873207D01*
X189595416Y-83873208D01*
X189697265Y-83900498D01*
X189697267Y-83900498D01*
X189697273Y-83900500D01*
X189697275Y-83900500D01*
X189802725Y-83900500D01*
X189802727Y-83900500D01*
X189904587Y-83873207D01*
X189995913Y-83820480D01*
X190070480Y-83745913D01*
X190123207Y-83654587D01*
X190150500Y-83552727D01*
X190150500Y-83447273D01*
X190147790Y-83437159D01*
X190123208Y-83345416D01*
X190123206Y-83345411D01*
X190098562Y-83302726D01*
X190070480Y-83254087D01*
X190013668Y-83197275D01*
X191599500Y-83197275D01*
X191599500Y-83302724D01*
X191599501Y-83302734D01*
X191626791Y-83404583D01*
X191626793Y-83404588D01*
X191655729Y-83454706D01*
X191679520Y-83495913D01*
X191754087Y-83570480D01*
X191845413Y-83623207D01*
X191845414Y-83623207D01*
X191845416Y-83623208D01*
X191947265Y-83650498D01*
X191947267Y-83650498D01*
X191947273Y-83650500D01*
X191947275Y-83650500D01*
X192052725Y-83650500D01*
X192052727Y-83650500D01*
X192154587Y-83623207D01*
X192245913Y-83570480D01*
X192320480Y-83495913D01*
X192326149Y-83486092D01*
X192365448Y-83453117D01*
X192416751Y-83453116D01*
X192456052Y-83486092D01*
X192466101Y-83523593D01*
X192466101Y-83552724D01*
X192466102Y-83552734D01*
X192493392Y-83654583D01*
X192493394Y-83654588D01*
X192538320Y-83732402D01*
X192546121Y-83745913D01*
X192620688Y-83820480D01*
X192712014Y-83873207D01*
X192712015Y-83873207D01*
X192712017Y-83873208D01*
X192813866Y-83900498D01*
X192813868Y-83900498D01*
X192813874Y-83900500D01*
X192813876Y-83900500D01*
X192919326Y-83900500D01*
X192919328Y-83900500D01*
X193021188Y-83873207D01*
X193112514Y-83820480D01*
X193187081Y-83745913D01*
X193239808Y-83654587D01*
X193267101Y-83552727D01*
X193267101Y-83447273D01*
X193264391Y-83437159D01*
X193239809Y-83345416D01*
X193239807Y-83345411D01*
X193215163Y-83302726D01*
X193187081Y-83254087D01*
X193112514Y-83179520D01*
X193103722Y-83174444D01*
X193021189Y-83126793D01*
X193021184Y-83126791D01*
X192919335Y-83099501D01*
X192919329Y-83099500D01*
X192919328Y-83099500D01*
X192813874Y-83099500D01*
X192813872Y-83099500D01*
X192813866Y-83099501D01*
X192712017Y-83126791D01*
X192712012Y-83126793D01*
X192620687Y-83179520D01*
X192546120Y-83254087D01*
X192540451Y-83263907D01*
X192539178Y-83264974D01*
X192538821Y-83266599D01*
X192519668Y-83281345D01*
X192501151Y-83296883D01*
X192499488Y-83296883D01*
X192498171Y-83297897D01*
X192474030Y-83296883D01*
X192449848Y-83296883D01*
X192448573Y-83295813D01*
X192446913Y-83295744D01*
X192429064Y-83279442D01*
X192410548Y-83263905D01*
X192409869Y-83261912D01*
X192409032Y-83261147D01*
X192407536Y-83255057D01*
X192401158Y-83236318D01*
X192400500Y-83231383D01*
X192400500Y-83197273D01*
X192391447Y-83163487D01*
X192390806Y-83158679D01*
X192395336Y-83138082D01*
X192397174Y-83117072D01*
X192400837Y-83113074D01*
X192401827Y-83108574D01*
X192412468Y-83100380D01*
X192427646Y-83083817D01*
X192514242Y-83033821D01*
X192588809Y-82959254D01*
X192641536Y-82867928D01*
X192668829Y-82766068D01*
X192668829Y-82660614D01*
X192668827Y-82660606D01*
X192641537Y-82558757D01*
X192641535Y-82558752D01*
X192611065Y-82505977D01*
X192588809Y-82467428D01*
X192514242Y-82392861D01*
X192508116Y-82389324D01*
X192422917Y-82340134D01*
X192422912Y-82340132D01*
X192321063Y-82312842D01*
X192321057Y-82312841D01*
X192321056Y-82312841D01*
X192215602Y-82312841D01*
X192215600Y-82312841D01*
X192215594Y-82312842D01*
X192113745Y-82340132D01*
X192113740Y-82340134D01*
X192022415Y-82392861D01*
X191947849Y-82467427D01*
X191895122Y-82558752D01*
X191895120Y-82558757D01*
X191867830Y-82660606D01*
X191867829Y-82660616D01*
X191867829Y-82766071D01*
X191875624Y-82795163D01*
X191871151Y-82846271D01*
X191840680Y-82879525D01*
X191754085Y-82929521D01*
X191679520Y-83004086D01*
X191626793Y-83095411D01*
X191626791Y-83095416D01*
X191599501Y-83197265D01*
X191599500Y-83197275D01*
X190013668Y-83197275D01*
X189995913Y-83179520D01*
X189987121Y-83174444D01*
X189904588Y-83126793D01*
X189904583Y-83126791D01*
X189802734Y-83099501D01*
X189802728Y-83099500D01*
X189802727Y-83099500D01*
X189743829Y-83099500D01*
X189695620Y-83081953D01*
X189669968Y-83037524D01*
X189668829Y-83024500D01*
X189668829Y-82983934D01*
X189668827Y-82983924D01*
X189641537Y-82882075D01*
X189641535Y-82882070D01*
X189588808Y-82790745D01*
X189514242Y-82716179D01*
X189427648Y-82666184D01*
X189394671Y-82626883D01*
X189392704Y-82581821D01*
X189400500Y-82552727D01*
X189400500Y-82447273D01*
X189397790Y-82437159D01*
X189373208Y-82345416D01*
X189373206Y-82345411D01*
X189320479Y-82254086D01*
X189245913Y-82179520D01*
X189154588Y-82126793D01*
X189154583Y-82126791D01*
X189052734Y-82099501D01*
X189052728Y-82099500D01*
X189052727Y-82099500D01*
X188947273Y-82099500D01*
X188947271Y-82099500D01*
X188947265Y-82099501D01*
X188845416Y-82126791D01*
X188845411Y-82126793D01*
X188754086Y-82179520D01*
X188679520Y-82254086D01*
X188626793Y-82345411D01*
X188626791Y-82345416D01*
X188599501Y-82447265D01*
X188599500Y-82447275D01*
X188057884Y-82447275D01*
X188097818Y-82424219D01*
X188172385Y-82349652D01*
X188225112Y-82258326D01*
X188252405Y-82156466D01*
X188252405Y-82051012D01*
X188225112Y-81949152D01*
X188224331Y-81946237D01*
X188228802Y-81895129D01*
X188259274Y-81861874D01*
X188277047Y-81851614D01*
X188351614Y-81777047D01*
X188404341Y-81685721D01*
X188431634Y-81583861D01*
X188431634Y-81478407D01*
X188423739Y-81448941D01*
X188404342Y-81376550D01*
X188404340Y-81376545D01*
X188390212Y-81352074D01*
X188351614Y-81285221D01*
X188277047Y-81210654D01*
X188264398Y-81203351D01*
X188185722Y-81157927D01*
X188185717Y-81157925D01*
X188083868Y-81130635D01*
X188083862Y-81130634D01*
X188083861Y-81130634D01*
X187978407Y-81130634D01*
X187978405Y-81130634D01*
X187978399Y-81130635D01*
X187876550Y-81157925D01*
X187876545Y-81157927D01*
X187785220Y-81210654D01*
X187710654Y-81285220D01*
X187657927Y-81376545D01*
X187657925Y-81376550D01*
X187630635Y-81478399D01*
X187630634Y-81478409D01*
X187630634Y-81583858D01*
X187630635Y-81583869D01*
X187658707Y-81688635D01*
X187654236Y-81739743D01*
X187623765Y-81772996D01*
X187605995Y-81783256D01*
X187605993Y-81783257D01*
X187531425Y-81857825D01*
X187478698Y-81949150D01*
X187478696Y-81949155D01*
X187451406Y-82051004D01*
X187451405Y-82051014D01*
X186267245Y-82051014D01*
X186267245Y-80499625D01*
X186284792Y-80451416D01*
X186329221Y-80425764D01*
X186379744Y-80434672D01*
X186443945Y-80471739D01*
X186443946Y-80471739D01*
X186443948Y-80471740D01*
X186545797Y-80499030D01*
X186545799Y-80499030D01*
X186545805Y-80499032D01*
X186547298Y-80499032D01*
X186548142Y-80499339D01*
X186550677Y-80499673D01*
X186550603Y-80500234D01*
X186595507Y-80516579D01*
X186621159Y-80561008D01*
X186622298Y-80574032D01*
X186622298Y-80575522D01*
X186622299Y-80575532D01*
X186649589Y-80677381D01*
X186649591Y-80677386D01*
X186690114Y-80747574D01*
X186699023Y-80798098D01*
X186678196Y-80838106D01*
X186642413Y-80873889D01*
X186589686Y-80965214D01*
X186589684Y-80965219D01*
X186562394Y-81067068D01*
X186562393Y-81067078D01*
X186562393Y-81172527D01*
X186562394Y-81172537D01*
X186589684Y-81274386D01*
X186589686Y-81274391D01*
X186601398Y-81294676D01*
X186642413Y-81365716D01*
X186716980Y-81440283D01*
X186808306Y-81493010D01*
X186808307Y-81493010D01*
X186808309Y-81493011D01*
X186910158Y-81520301D01*
X186910160Y-81520301D01*
X186910166Y-81520303D01*
X186910168Y-81520303D01*
X187015618Y-81520303D01*
X187015620Y-81520303D01*
X187117480Y-81493010D01*
X187208806Y-81440283D01*
X187283373Y-81365716D01*
X187336100Y-81274390D01*
X187363393Y-81172530D01*
X187363393Y-81067076D01*
X187336100Y-80965216D01*
X187324190Y-80944588D01*
X187295576Y-80895026D01*
X187286667Y-80844502D01*
X187307494Y-80804494D01*
X187343278Y-80768711D01*
X187396005Y-80677385D01*
X187423298Y-80575525D01*
X187423298Y-80470071D01*
X187423151Y-80469521D01*
X187396006Y-80368214D01*
X187396004Y-80368209D01*
X187354294Y-80295965D01*
X187343278Y-80276885D01*
X187268711Y-80202318D01*
X187253881Y-80193756D01*
X187177386Y-80149591D01*
X187177381Y-80149589D01*
X187075532Y-80122299D01*
X187075526Y-80122298D01*
X187075525Y-80122298D01*
X187075523Y-80122298D01*
X187074032Y-80122298D01*
X187073187Y-80121990D01*
X187070653Y-80121657D01*
X187070726Y-80121095D01*
X187025823Y-80104751D01*
X187000171Y-80060322D01*
X186999032Y-80047298D01*
X186999032Y-80045807D01*
X186999030Y-80045797D01*
X186971740Y-79943948D01*
X186971738Y-79943943D01*
X186949027Y-79904607D01*
X186919012Y-79852619D01*
X186844445Y-79778052D01*
X186753120Y-79725325D01*
X186753115Y-79725323D01*
X186651266Y-79698033D01*
X186651260Y-79698032D01*
X186651259Y-79698032D01*
X186651257Y-79698032D01*
X186649766Y-79698032D01*
X186648921Y-79697724D01*
X186646387Y-79697391D01*
X186646460Y-79696829D01*
X186601557Y-79680485D01*
X186575905Y-79636056D01*
X186574766Y-79623032D01*
X186574766Y-79621541D01*
X186574764Y-79621531D01*
X186547474Y-79519682D01*
X186547472Y-79519677D01*
X186494745Y-79428352D01*
X186420179Y-79353786D01*
X186328854Y-79301059D01*
X186328849Y-79301057D01*
X186227000Y-79273767D01*
X186226994Y-79273766D01*
X186226993Y-79273766D01*
X186226991Y-79273766D01*
X186225500Y-79273766D01*
X186224655Y-79273458D01*
X186222121Y-79273125D01*
X186222194Y-79272563D01*
X186177291Y-79256219D01*
X186151639Y-79211790D01*
X186150500Y-79198766D01*
X186150500Y-79197275D01*
X186150498Y-79197265D01*
X186123208Y-79095416D01*
X186123206Y-79095411D01*
X186094987Y-79046534D01*
X186070480Y-79004087D01*
X185995913Y-78929520D01*
X185952733Y-78904590D01*
X185904588Y-78876793D01*
X185904583Y-78876791D01*
X185802734Y-78849501D01*
X185802728Y-78849500D01*
X185802727Y-78849500D01*
X185697273Y-78849500D01*
X185697271Y-78849500D01*
X185697265Y-78849501D01*
X185595416Y-78876791D01*
X185595411Y-78876793D01*
X185504086Y-78929520D01*
X185429520Y-79004086D01*
X185376793Y-79095411D01*
X185376791Y-79095416D01*
X185349501Y-79197265D01*
X185349500Y-79197275D01*
X185349500Y-79216406D01*
X185331953Y-79264615D01*
X185287524Y-79290267D01*
X185237000Y-79281358D01*
X185221467Y-79269439D01*
X184923467Y-78971439D01*
X184901785Y-78924943D01*
X184901500Y-78918406D01*
X184901500Y-78536497D01*
X184901498Y-78536489D01*
X184886453Y-78480342D01*
X184881021Y-78460068D01*
X184876243Y-78451793D01*
X184841459Y-78391545D01*
X183878860Y-77428946D01*
X184812841Y-77428946D01*
X184812841Y-77534395D01*
X184812842Y-77534405D01*
X184840132Y-77636254D01*
X184840134Y-77636259D01*
X184869323Y-77686815D01*
X184892861Y-77727584D01*
X184967428Y-77802151D01*
X185058754Y-77854878D01*
X185058755Y-77854878D01*
X185058757Y-77854879D01*
X185160606Y-77882169D01*
X185160608Y-77882169D01*
X185160614Y-77882171D01*
X185160616Y-77882171D01*
X185266066Y-77882171D01*
X185266068Y-77882171D01*
X185295161Y-77874375D01*
X185346267Y-77878845D01*
X185379525Y-77909319D01*
X185429520Y-77995913D01*
X185504087Y-78070480D01*
X185595413Y-78123207D01*
X185595414Y-78123207D01*
X185595416Y-78123208D01*
X185697265Y-78150498D01*
X185697267Y-78150498D01*
X185697273Y-78150500D01*
X185697275Y-78150500D01*
X185802725Y-78150500D01*
X185802727Y-78150500D01*
X185904587Y-78123207D01*
X185995913Y-78070480D01*
X186070480Y-77995913D01*
X186123207Y-77904587D01*
X186150500Y-77802727D01*
X186150500Y-77697273D01*
X186123207Y-77595413D01*
X186070480Y-77504087D01*
X185995913Y-77429520D01*
X185994901Y-77428936D01*
X185904588Y-77376793D01*
X185904583Y-77376791D01*
X185802734Y-77349501D01*
X185802728Y-77349500D01*
X185802727Y-77349500D01*
X185697273Y-77349500D01*
X185697271Y-77349500D01*
X185697265Y-77349501D01*
X185668174Y-77357295D01*
X185617067Y-77352822D01*
X185583815Y-77322351D01*
X185533821Y-77235758D01*
X185459254Y-77161191D01*
X185404085Y-77129339D01*
X185367929Y-77108464D01*
X185367924Y-77108462D01*
X185266075Y-77081172D01*
X185266069Y-77081171D01*
X185266068Y-77081171D01*
X185160614Y-77081171D01*
X185160612Y-77081171D01*
X185160606Y-77081172D01*
X185058757Y-77108462D01*
X185058752Y-77108464D01*
X184967427Y-77161191D01*
X184892861Y-77235757D01*
X184840134Y-77327082D01*
X184840132Y-77327087D01*
X184812842Y-77428936D01*
X184812841Y-77428946D01*
X183878860Y-77428946D01*
X183709454Y-77259540D01*
X183668262Y-77235758D01*
X183640932Y-77219979D01*
X183640930Y-77219978D01*
X183564510Y-77199501D01*
X183564507Y-77199500D01*
X183564505Y-77199500D01*
X183564503Y-77199500D01*
X183546959Y-77199500D01*
X183499917Y-77182377D01*
X183499814Y-77182513D01*
X183499385Y-77182184D01*
X183498750Y-77181953D01*
X183497028Y-77180375D01*
X183495915Y-77179521D01*
X183404588Y-77126793D01*
X183404583Y-77126791D01*
X183302734Y-77099501D01*
X183302728Y-77099500D01*
X183302727Y-77099500D01*
X183197273Y-77099500D01*
X183197271Y-77099500D01*
X183197265Y-77099501D01*
X183095416Y-77126791D01*
X183095407Y-77126795D01*
X183061999Y-77146083D01*
X183011475Y-77154991D01*
X182967046Y-77129339D01*
X182949500Y-77081131D01*
X182949500Y-76447275D01*
X185599500Y-76447275D01*
X185599500Y-76552724D01*
X185599501Y-76552734D01*
X185626791Y-76654583D01*
X185626793Y-76654588D01*
X185668528Y-76726875D01*
X185679520Y-76745913D01*
X185754087Y-76820480D01*
X185819049Y-76857986D01*
X185837303Y-76868525D01*
X185845413Y-76873207D01*
X185845414Y-76873207D01*
X185845416Y-76873208D01*
X185947265Y-76900498D01*
X185947267Y-76900498D01*
X185947273Y-76900500D01*
X185947275Y-76900500D01*
X186052725Y-76900500D01*
X186052727Y-76900500D01*
X186154587Y-76873207D01*
X186245913Y-76820480D01*
X186320480Y-76745913D01*
X186373207Y-76654587D01*
X186400500Y-76552727D01*
X186400500Y-76449712D01*
X186418047Y-76401503D01*
X186462476Y-76375851D01*
X186485297Y-76375355D01*
X186486396Y-76375499D01*
X186486397Y-76375500D01*
X186486398Y-76375500D01*
X186591849Y-76375500D01*
X186591851Y-76375500D01*
X186693711Y-76348207D01*
X186785037Y-76295480D01*
X186859604Y-76220913D01*
X186912331Y-76129587D01*
X186939624Y-76027727D01*
X186939624Y-75922273D01*
X186933790Y-75900500D01*
X186912332Y-75820416D01*
X186912330Y-75820411D01*
X186869318Y-75745913D01*
X186859604Y-75729087D01*
X186785037Y-75654520D01*
X186741717Y-75629509D01*
X186693712Y-75601793D01*
X186693707Y-75601791D01*
X186591858Y-75574501D01*
X186591852Y-75574500D01*
X186591851Y-75574500D01*
X186486397Y-75574500D01*
X186486395Y-75574500D01*
X186486389Y-75574501D01*
X186384540Y-75601791D01*
X186384535Y-75601793D01*
X186293210Y-75654520D01*
X186218644Y-75729086D01*
X186165917Y-75820411D01*
X186165915Y-75820416D01*
X186138625Y-75922265D01*
X186138624Y-75922275D01*
X186138624Y-76025287D01*
X186121077Y-76073496D01*
X186076648Y-76099148D01*
X186053840Y-76099646D01*
X186052730Y-76099500D01*
X186052727Y-76099500D01*
X185947273Y-76099500D01*
X185947271Y-76099500D01*
X185947265Y-76099501D01*
X185845416Y-76126791D01*
X185845411Y-76126793D01*
X185754086Y-76179520D01*
X185679520Y-76254086D01*
X185626793Y-76345411D01*
X185626791Y-76345416D01*
X185599501Y-76447265D01*
X185599500Y-76447275D01*
X182949500Y-76447275D01*
X182949500Y-75447275D01*
X187099500Y-75447275D01*
X187099500Y-75552724D01*
X187099501Y-75552734D01*
X187126791Y-75654583D01*
X187126793Y-75654588D01*
X187170538Y-75730356D01*
X187179520Y-75745913D01*
X187254087Y-75820480D01*
X187345413Y-75873207D01*
X187345414Y-75873207D01*
X187345416Y-75873208D01*
X187447265Y-75900498D01*
X187447267Y-75900498D01*
X187447273Y-75900500D01*
X187447275Y-75900500D01*
X187552725Y-75900500D01*
X187552727Y-75900500D01*
X187654587Y-75873207D01*
X187745913Y-75820480D01*
X187820480Y-75745913D01*
X187873207Y-75654587D01*
X187900500Y-75552727D01*
X187900500Y-75447273D01*
X187873207Y-75345413D01*
X187820480Y-75254087D01*
X187745913Y-75179520D01*
X187740291Y-75176274D01*
X187654588Y-75126793D01*
X187654583Y-75126791D01*
X187552734Y-75099501D01*
X187552728Y-75099500D01*
X187552727Y-75099500D01*
X187447273Y-75099500D01*
X187447271Y-75099500D01*
X187447265Y-75099501D01*
X187345416Y-75126791D01*
X187345411Y-75126793D01*
X187254086Y-75179520D01*
X187179520Y-75254086D01*
X187126793Y-75345411D01*
X187126791Y-75345416D01*
X187099501Y-75447265D01*
X187099500Y-75447275D01*
X182949500Y-75447275D01*
X182949500Y-72006537D01*
X182967047Y-71958328D01*
X182971467Y-71953504D01*
X184752504Y-70172467D01*
X184797877Y-70151308D01*
X184797855Y-70151141D01*
X184798386Y-70151071D01*
X184799000Y-70150785D01*
X184801331Y-70150683D01*
X184802719Y-70150500D01*
X184802727Y-70150500D01*
X184904587Y-70123207D01*
X184995913Y-70070480D01*
X185070480Y-69995913D01*
X185123207Y-69904587D01*
X185150500Y-69802727D01*
X185150500Y-69697273D01*
X185140421Y-69659657D01*
X185123208Y-69595416D01*
X185123206Y-69595411D01*
X185070479Y-69504086D01*
X184995913Y-69429520D01*
X184904588Y-69376793D01*
X184904583Y-69376791D01*
X184802734Y-69349501D01*
X184802728Y-69349500D01*
X184802727Y-69349500D01*
X184697273Y-69349500D01*
X184697271Y-69349500D01*
X184697265Y-69349501D01*
X184595416Y-69376791D01*
X184595411Y-69376793D01*
X184504086Y-69429520D01*
X184429520Y-69504086D01*
X184376793Y-69595411D01*
X184376791Y-69595416D01*
X184349501Y-69697265D01*
X184348859Y-69702145D01*
X184346802Y-69701874D01*
X184331953Y-69742672D01*
X184327533Y-69747496D01*
X182408540Y-71666488D01*
X182368979Y-71735009D01*
X182368978Y-71735012D01*
X182348501Y-71811432D01*
X182348500Y-71811440D01*
X182348500Y-81290616D01*
X182348501Y-81290624D01*
X182368978Y-81367044D01*
X182368980Y-81367049D01*
X182378524Y-81383579D01*
X182378525Y-81383580D01*
X182408540Y-81435568D01*
X188973283Y-88000311D01*
X188994965Y-88046807D01*
X188981686Y-88096362D01*
X188939661Y-88125788D01*
X188900839Y-88125788D01*
X188802735Y-88099501D01*
X188802728Y-88099500D01*
X188802727Y-88099500D01*
X188697273Y-88099500D01*
X188697271Y-88099500D01*
X188697265Y-88099501D01*
X188595416Y-88126791D01*
X188595411Y-88126793D01*
X188504086Y-88179520D01*
X188429520Y-88254086D01*
X188376793Y-88345411D01*
X188376791Y-88345416D01*
X188349501Y-88447265D01*
X188349500Y-88447275D01*
X188349500Y-88552724D01*
X188349501Y-88552734D01*
X188376791Y-88654583D01*
X188376793Y-88654588D01*
X188401439Y-88697275D01*
X188429520Y-88745913D01*
X188504087Y-88820480D01*
X188595413Y-88873207D01*
X188595414Y-88873207D01*
X188595416Y-88873208D01*
X188697265Y-88900498D01*
X188697267Y-88900498D01*
X188697273Y-88900500D01*
X188697275Y-88900500D01*
X188802725Y-88900500D01*
X188802727Y-88900500D01*
X188904587Y-88873207D01*
X188995913Y-88820480D01*
X189070480Y-88745913D01*
X189123207Y-88654587D01*
X189150500Y-88552727D01*
X189150500Y-88447273D01*
X189124211Y-88349160D01*
X189128682Y-88298053D01*
X189164958Y-88261776D01*
X189216066Y-88257304D01*
X189249688Y-88276716D01*
X190076533Y-89103561D01*
X190098215Y-89150057D01*
X190098500Y-89156594D01*
X190098500Y-89538502D01*
X190098501Y-89538510D01*
X190118978Y-89614930D01*
X190118979Y-89614933D01*
X190158540Y-89683454D01*
X190205825Y-89730739D01*
X190227507Y-89777235D01*
X190214228Y-89826790D01*
X190172204Y-89856216D01*
X190095414Y-89876792D01*
X190095411Y-89876793D01*
X190004086Y-89929520D01*
X189929520Y-90004086D01*
X189876793Y-90095411D01*
X189876791Y-90095416D01*
X189849501Y-90197265D01*
X189849500Y-90197275D01*
X189849500Y-90302724D01*
X189849501Y-90302734D01*
X189876791Y-90404583D01*
X189876793Y-90404588D01*
X189916039Y-90472564D01*
X189929520Y-90495913D01*
X190004087Y-90570480D01*
X190095413Y-90623207D01*
X190095414Y-90623207D01*
X190095416Y-90623208D01*
X190197265Y-90650498D01*
X190197267Y-90650498D01*
X190197273Y-90650500D01*
X190197275Y-90650500D01*
X190302725Y-90650500D01*
X190302727Y-90650500D01*
X190404587Y-90623207D01*
X190495913Y-90570480D01*
X190570480Y-90495913D01*
X190623207Y-90404587D01*
X190643783Y-90327794D01*
X190673208Y-90285771D01*
X190722763Y-90272492D01*
X190769260Y-90294174D01*
X201571694Y-101096608D01*
X201593376Y-101143104D01*
X201580097Y-101192659D01*
X201571694Y-101202674D01*
X201434025Y-101340342D01*
X201434023Y-101340345D01*
X201319058Y-101512403D01*
X201239870Y-101703578D01*
X201239870Y-101703580D01*
X201199500Y-101906535D01*
X201199500Y-102113465D01*
X201239870Y-102316420D01*
X201319059Y-102507598D01*
X201434023Y-102679655D01*
X201580345Y-102825977D01*
X201752402Y-102940941D01*
X201943580Y-103020130D01*
X202096139Y-103050475D01*
X202146534Y-103060500D01*
X202146535Y-103060500D01*
X202353466Y-103060500D01*
X202393836Y-103052469D01*
X202556420Y-103020130D01*
X202747598Y-102940941D01*
X202919655Y-102825977D01*
X203065977Y-102679655D01*
X203180941Y-102507598D01*
X203260130Y-102316420D01*
X203300500Y-102113465D01*
X203300500Y-101906535D01*
X203260130Y-101703580D01*
X203180941Y-101512402D01*
X203065977Y-101340345D01*
X202919655Y-101194023D01*
X202747598Y-101079059D01*
X202747596Y-101079058D01*
X202556421Y-100999870D01*
X202353466Y-100959500D01*
X202353465Y-100959500D01*
X202315594Y-100959500D01*
X202267385Y-100941953D01*
X202262561Y-100937533D01*
X202012548Y-100687520D01*
X201990866Y-100641024D01*
X202004145Y-100591469D01*
X202046170Y-100562043D01*
X202077314Y-100560410D01*
X202163114Y-100574000D01*
X202336887Y-100574000D01*
X202508525Y-100546815D01*
X202673782Y-100493119D01*
X202828621Y-100414226D01*
X202917510Y-100349643D01*
X202917510Y-100349642D01*
X202481538Y-99913670D01*
X202557007Y-99870099D01*
X202650099Y-99777007D01*
X202693670Y-99701538D01*
X203129642Y-100137510D01*
X203129643Y-100137510D01*
X203194226Y-100048621D01*
X203273119Y-99893782D01*
X203326815Y-99728525D01*
X203350423Y-99579471D01*
X203375296Y-99534601D01*
X203423191Y-99516215D01*
X203471699Y-99532918D01*
X203498122Y-99576893D01*
X203499500Y-99591204D01*
X203499500Y-103490294D01*
X203481953Y-103538503D01*
X203474122Y-103546532D01*
X202154241Y-104711133D01*
X199630999Y-106937524D01*
X199582023Y-106980738D01*
X199534264Y-106999477D01*
X199532401Y-106999500D01*
X185421204Y-106999500D01*
X185372995Y-106981953D01*
X185347343Y-106937524D01*
X185356252Y-106887000D01*
X185395552Y-106854023D01*
X185409471Y-106850423D01*
X185558525Y-106826815D01*
X185723782Y-106773119D01*
X185878621Y-106694226D01*
X185967510Y-106629643D01*
X185967510Y-106629642D01*
X185531538Y-106193670D01*
X185607007Y-106150099D01*
X185700099Y-106057007D01*
X185743670Y-105981538D01*
X186179642Y-106417510D01*
X186179643Y-106417510D01*
X186244226Y-106328621D01*
X186323119Y-106173782D01*
X186376815Y-106008525D01*
X186404000Y-105836886D01*
X186404000Y-105663113D01*
X186402649Y-105654584D01*
X186401374Y-105646534D01*
X186789500Y-105646534D01*
X186789500Y-105853465D01*
X186829870Y-106056421D01*
X186909058Y-106247596D01*
X186909059Y-106247598D01*
X187024023Y-106419655D01*
X187170345Y-106565977D01*
X187342402Y-106680941D01*
X187533580Y-106760130D01*
X187678052Y-106788867D01*
X187736534Y-106800500D01*
X187736535Y-106800500D01*
X187943466Y-106800500D01*
X188001948Y-106788867D01*
X188146420Y-106760130D01*
X188337598Y-106680941D01*
X188509655Y-106565977D01*
X188655977Y-106419655D01*
X188770941Y-106247598D01*
X188850130Y-106056420D01*
X188890500Y-105853465D01*
X188890500Y-105646535D01*
X188890500Y-105646534D01*
X189329500Y-105646534D01*
X189329500Y-105853465D01*
X189369870Y-106056421D01*
X189449058Y-106247596D01*
X189449059Y-106247598D01*
X189564023Y-106419655D01*
X189710345Y-106565977D01*
X189882402Y-106680941D01*
X190073580Y-106760130D01*
X190218052Y-106788867D01*
X190276534Y-106800500D01*
X190276535Y-106800500D01*
X190483466Y-106800500D01*
X190541948Y-106788867D01*
X190686420Y-106760130D01*
X190877598Y-106680941D01*
X191049655Y-106565977D01*
X191195977Y-106419655D01*
X191310941Y-106247598D01*
X191390130Y-106056420D01*
X191430500Y-105853465D01*
X191430500Y-105646535D01*
X191430500Y-105646534D01*
X191869500Y-105646534D01*
X191869500Y-105853465D01*
X191909870Y-106056421D01*
X191989058Y-106247596D01*
X191989059Y-106247598D01*
X192104023Y-106419655D01*
X192250345Y-106565977D01*
X192422402Y-106680941D01*
X192613580Y-106760130D01*
X192758052Y-106788867D01*
X192816534Y-106800500D01*
X192816535Y-106800500D01*
X193023466Y-106800500D01*
X193081948Y-106788867D01*
X193226420Y-106760130D01*
X193417598Y-106680941D01*
X193589655Y-106565977D01*
X193735977Y-106419655D01*
X193850941Y-106247598D01*
X193930130Y-106056420D01*
X193970500Y-105853465D01*
X193970500Y-105646535D01*
X193970500Y-105646534D01*
X194409500Y-105646534D01*
X194409500Y-105853465D01*
X194449870Y-106056421D01*
X194529058Y-106247596D01*
X194529059Y-106247598D01*
X194644023Y-106419655D01*
X194790345Y-106565977D01*
X194962402Y-106680941D01*
X195153580Y-106760130D01*
X195298052Y-106788867D01*
X195356534Y-106800500D01*
X195356535Y-106800500D01*
X195563466Y-106800500D01*
X195621948Y-106788867D01*
X195766420Y-106760130D01*
X195957598Y-106680941D01*
X196129655Y-106565977D01*
X196275977Y-106419655D01*
X196390941Y-106247598D01*
X196470130Y-106056420D01*
X196510500Y-105853465D01*
X196510500Y-105646535D01*
X196510500Y-105646534D01*
X196949500Y-105646534D01*
X196949500Y-105853465D01*
X196989870Y-106056421D01*
X197069058Y-106247596D01*
X197069059Y-106247598D01*
X197184023Y-106419655D01*
X197330345Y-106565977D01*
X197502402Y-106680941D01*
X197693580Y-106760130D01*
X197838052Y-106788867D01*
X197896534Y-106800500D01*
X197896535Y-106800500D01*
X198103466Y-106800500D01*
X198161948Y-106788867D01*
X198306420Y-106760130D01*
X198497598Y-106680941D01*
X198669655Y-106565977D01*
X198815977Y-106419655D01*
X198930941Y-106247598D01*
X199010130Y-106056420D01*
X199050500Y-105853465D01*
X199050500Y-105646535D01*
X199010130Y-105443580D01*
X198930941Y-105252402D01*
X198815977Y-105080345D01*
X198669655Y-104934023D01*
X198497598Y-104819059D01*
X198465523Y-104805773D01*
X198306421Y-104739870D01*
X198103466Y-104699500D01*
X198103465Y-104699500D01*
X197896535Y-104699500D01*
X197896534Y-104699500D01*
X197693578Y-104739870D01*
X197502403Y-104819058D01*
X197330345Y-104934023D01*
X197330342Y-104934025D01*
X197184025Y-105080342D01*
X197184023Y-105080345D01*
X197069058Y-105252403D01*
X196989870Y-105443578D01*
X196949500Y-105646534D01*
X196510500Y-105646534D01*
X196470130Y-105443580D01*
X196390941Y-105252402D01*
X196275977Y-105080345D01*
X196129655Y-104934023D01*
X195957598Y-104819059D01*
X195925523Y-104805773D01*
X195766421Y-104739870D01*
X195563466Y-104699500D01*
X195563465Y-104699500D01*
X195356535Y-104699500D01*
X195356534Y-104699500D01*
X195153578Y-104739870D01*
X194962403Y-104819058D01*
X194790345Y-104934023D01*
X194790342Y-104934025D01*
X194644025Y-105080342D01*
X194644023Y-105080345D01*
X194529058Y-105252403D01*
X194449870Y-105443578D01*
X194409500Y-105646534D01*
X193970500Y-105646534D01*
X193930130Y-105443580D01*
X193850941Y-105252402D01*
X193735977Y-105080345D01*
X193589655Y-104934023D01*
X193417598Y-104819059D01*
X193385523Y-104805773D01*
X193226421Y-104739870D01*
X193023466Y-104699500D01*
X193023465Y-104699500D01*
X192816535Y-104699500D01*
X192816534Y-104699500D01*
X192613578Y-104739870D01*
X192422403Y-104819058D01*
X192250345Y-104934023D01*
X192250342Y-104934025D01*
X192104025Y-105080342D01*
X192104023Y-105080345D01*
X191989058Y-105252403D01*
X191909870Y-105443578D01*
X191869500Y-105646534D01*
X191430500Y-105646534D01*
X191390130Y-105443580D01*
X191310941Y-105252402D01*
X191195977Y-105080345D01*
X191049655Y-104934023D01*
X190877598Y-104819059D01*
X190845523Y-104805773D01*
X190686421Y-104739870D01*
X190483466Y-104699500D01*
X190483465Y-104699500D01*
X190276535Y-104699500D01*
X190276534Y-104699500D01*
X190073578Y-104739870D01*
X189882403Y-104819058D01*
X189710345Y-104934023D01*
X189710342Y-104934025D01*
X189564025Y-105080342D01*
X189564023Y-105080345D01*
X189449058Y-105252403D01*
X189369870Y-105443578D01*
X189329500Y-105646534D01*
X188890500Y-105646534D01*
X188850130Y-105443580D01*
X188770941Y-105252402D01*
X188655977Y-105080345D01*
X188509655Y-104934023D01*
X188337598Y-104819059D01*
X188305523Y-104805773D01*
X188146421Y-104739870D01*
X187943466Y-104699500D01*
X187943465Y-104699500D01*
X187736535Y-104699500D01*
X187736534Y-104699500D01*
X187533578Y-104739870D01*
X187342403Y-104819058D01*
X187170345Y-104934023D01*
X187170342Y-104934025D01*
X187024025Y-105080342D01*
X187024023Y-105080345D01*
X186909058Y-105252403D01*
X186829870Y-105443578D01*
X186789500Y-105646534D01*
X186401374Y-105646534D01*
X186376815Y-105491474D01*
X186323119Y-105326217D01*
X186244226Y-105171378D01*
X186179643Y-105082488D01*
X186179642Y-105082488D01*
X185743670Y-105518460D01*
X185700099Y-105442993D01*
X185607007Y-105349901D01*
X185531537Y-105306328D01*
X185967510Y-104870356D01*
X185878621Y-104805773D01*
X185723782Y-104726880D01*
X185558525Y-104673184D01*
X185386887Y-104646000D01*
X185213113Y-104646000D01*
X185041474Y-104673184D01*
X184876217Y-104726880D01*
X184721378Y-104805773D01*
X184632488Y-104870356D01*
X185068461Y-105306329D01*
X184992993Y-105349901D01*
X184899901Y-105442993D01*
X184856329Y-105518461D01*
X184420356Y-105082488D01*
X184355773Y-105171378D01*
X184276880Y-105326217D01*
X184223184Y-105491474D01*
X184196000Y-105663113D01*
X184196000Y-105836886D01*
X184223184Y-106008525D01*
X184276880Y-106173782D01*
X184355773Y-106328621D01*
X184420356Y-106417510D01*
X184856328Y-105981537D01*
X184899901Y-106057007D01*
X184992993Y-106150099D01*
X185068460Y-106193670D01*
X184632488Y-106629642D01*
X184632488Y-106629643D01*
X184721378Y-106694226D01*
X184876217Y-106773119D01*
X185041474Y-106826815D01*
X185190529Y-106850423D01*
X185235399Y-106875296D01*
X185253785Y-106923191D01*
X185237082Y-106971699D01*
X185193107Y-106998122D01*
X185178796Y-106999500D01*
X181227580Y-106999500D01*
X181179371Y-106981953D01*
X181176284Y-106979215D01*
X178991823Y-104931282D01*
X178937390Y-104880251D01*
X181709500Y-104880251D01*
X181709500Y-106619748D01*
X181721132Y-106678230D01*
X181765447Y-106744551D01*
X181765448Y-106744552D01*
X181831769Y-106788867D01*
X181890251Y-106800500D01*
X181890252Y-106800500D01*
X183629749Y-106800500D01*
X183658989Y-106794683D01*
X183688231Y-106788867D01*
X183754552Y-106744552D01*
X183798867Y-106678231D01*
X183810500Y-106619748D01*
X183810500Y-104880252D01*
X183798867Y-104821769D01*
X183754552Y-104755448D01*
X183731239Y-104739870D01*
X183688230Y-104711132D01*
X183629749Y-104699500D01*
X183629748Y-104699500D01*
X181890252Y-104699500D01*
X181890251Y-104699500D01*
X181831769Y-104711132D01*
X181765448Y-104755447D01*
X181765447Y-104755448D01*
X181721132Y-104821769D01*
X181709500Y-104880251D01*
X178937390Y-104880251D01*
X177524204Y-103555388D01*
X177501035Y-103509615D01*
X177500500Y-103500673D01*
X177500500Y-101906535D01*
X177699500Y-101906535D01*
X177699500Y-102113465D01*
X177739870Y-102316420D01*
X177819059Y-102507598D01*
X177934023Y-102679655D01*
X178080345Y-102825977D01*
X178252402Y-102940941D01*
X178443580Y-103020130D01*
X178596139Y-103050475D01*
X178646534Y-103060500D01*
X178646535Y-103060500D01*
X178853466Y-103060500D01*
X178893836Y-103052469D01*
X179056420Y-103020130D01*
X179247598Y-102940941D01*
X179419655Y-102825977D01*
X179565977Y-102679655D01*
X179680941Y-102507598D01*
X179760130Y-102316420D01*
X179800500Y-102113465D01*
X179800500Y-101906535D01*
X179760130Y-101703580D01*
X179680941Y-101512402D01*
X179565977Y-101340345D01*
X179419655Y-101194023D01*
X179247598Y-101079059D01*
X179247596Y-101079058D01*
X179056421Y-100999870D01*
X178853466Y-100959500D01*
X178853465Y-100959500D01*
X178646535Y-100959500D01*
X178646534Y-100959500D01*
X178443578Y-100999870D01*
X178252403Y-101079058D01*
X178080345Y-101194023D01*
X178080342Y-101194025D01*
X177934025Y-101340342D01*
X177934023Y-101340345D01*
X177819058Y-101512403D01*
X177739870Y-101703578D01*
X177739870Y-101703580D01*
X177699500Y-101906535D01*
X177500500Y-101906535D01*
X177500500Y-99366534D01*
X177699500Y-99366534D01*
X177699500Y-99573465D01*
X177739870Y-99776421D01*
X177819058Y-99967596D01*
X177819059Y-99967598D01*
X177934023Y-100139655D01*
X178080345Y-100285977D01*
X178252402Y-100400941D01*
X178443580Y-100480130D01*
X178596139Y-100510475D01*
X178646534Y-100520500D01*
X178646535Y-100520500D01*
X178853466Y-100520500D01*
X178893836Y-100512469D01*
X179056420Y-100480130D01*
X179135739Y-100447275D01*
X192199500Y-100447275D01*
X192199500Y-100552724D01*
X192199501Y-100552734D01*
X192226791Y-100654583D01*
X192226793Y-100654588D01*
X192279520Y-100745913D01*
X192354087Y-100820480D01*
X192445413Y-100873207D01*
X192445414Y-100873207D01*
X192445416Y-100873208D01*
X192547265Y-100900498D01*
X192547267Y-100900498D01*
X192547273Y-100900500D01*
X192547275Y-100900500D01*
X192652725Y-100900500D01*
X192652727Y-100900500D01*
X192754587Y-100873207D01*
X192845913Y-100820480D01*
X192920480Y-100745913D01*
X192973207Y-100654587D01*
X193000500Y-100552727D01*
X193000500Y-100447273D01*
X192988086Y-100400941D01*
X192973208Y-100345416D01*
X192973206Y-100345411D01*
X192959078Y-100320940D01*
X192920480Y-100254087D01*
X192845913Y-100179520D01*
X192754588Y-100126793D01*
X192754583Y-100126791D01*
X192652734Y-100099501D01*
X192652728Y-100099500D01*
X192652727Y-100099500D01*
X192547273Y-100099500D01*
X192547271Y-100099500D01*
X192547265Y-100099501D01*
X192445416Y-100126791D01*
X192445411Y-100126793D01*
X192354086Y-100179520D01*
X192279520Y-100254086D01*
X192226793Y-100345411D01*
X192226791Y-100345416D01*
X192199501Y-100447265D01*
X192199500Y-100447275D01*
X179135739Y-100447275D01*
X179247598Y-100400941D01*
X179419655Y-100285977D01*
X179565977Y-100139655D01*
X179680941Y-99967598D01*
X179760130Y-99776420D01*
X179800500Y-99573465D01*
X179800500Y-99366535D01*
X179760130Y-99163580D01*
X179680941Y-98972402D01*
X179565977Y-98800345D01*
X179462907Y-98697275D01*
X194099500Y-98697275D01*
X194099500Y-98802724D01*
X194099501Y-98802734D01*
X194126791Y-98904583D01*
X194126793Y-98904588D01*
X194179520Y-98995913D01*
X194254087Y-99070480D01*
X194345413Y-99123207D01*
X194345414Y-99123207D01*
X194345416Y-99123208D01*
X194447265Y-99150498D01*
X194447267Y-99150498D01*
X194447273Y-99150500D01*
X194447275Y-99150500D01*
X194552725Y-99150500D01*
X194552727Y-99150500D01*
X194654587Y-99123207D01*
X194745913Y-99070480D01*
X194820480Y-98995913D01*
X194873207Y-98904587D01*
X194900500Y-98802727D01*
X194900500Y-98697273D01*
X194873207Y-98595413D01*
X194820480Y-98504087D01*
X194745913Y-98429520D01*
X194728558Y-98419500D01*
X194654588Y-98376793D01*
X194654583Y-98376791D01*
X194552734Y-98349501D01*
X194552728Y-98349500D01*
X194552727Y-98349500D01*
X194447273Y-98349500D01*
X194447271Y-98349500D01*
X194447265Y-98349501D01*
X194345416Y-98376791D01*
X194345411Y-98376793D01*
X194254086Y-98429520D01*
X194179520Y-98504086D01*
X194126793Y-98595411D01*
X194126791Y-98595416D01*
X194099501Y-98697265D01*
X194099500Y-98697275D01*
X179462907Y-98697275D01*
X179419655Y-98654023D01*
X179247598Y-98539059D01*
X179163169Y-98504087D01*
X179056421Y-98459870D01*
X178853466Y-98419500D01*
X178853465Y-98419500D01*
X178646535Y-98419500D01*
X178646534Y-98419500D01*
X178443578Y-98459870D01*
X178252403Y-98539058D01*
X178080345Y-98654023D01*
X178080342Y-98654025D01*
X177934025Y-98800342D01*
X177934023Y-98800345D01*
X177819058Y-98972403D01*
X177739870Y-99163578D01*
X177699500Y-99366534D01*
X177500500Y-99366534D01*
X177500500Y-96826535D01*
X177699500Y-96826535D01*
X177699500Y-97033465D01*
X177739870Y-97236420D01*
X177819059Y-97427598D01*
X177934023Y-97599655D01*
X178080345Y-97745977D01*
X178252402Y-97860941D01*
X178443580Y-97940130D01*
X178596139Y-97970475D01*
X178646534Y-97980500D01*
X178646535Y-97980500D01*
X178853466Y-97980500D01*
X178893836Y-97972469D01*
X179056420Y-97940130D01*
X179247598Y-97860941D01*
X179419655Y-97745977D01*
X179565977Y-97599655D01*
X179680941Y-97427598D01*
X179760130Y-97236420D01*
X179800500Y-97033465D01*
X179800500Y-96826535D01*
X179764843Y-96647275D01*
X188199500Y-96647275D01*
X188199500Y-96752724D01*
X188199501Y-96752734D01*
X188226791Y-96854583D01*
X188226793Y-96854588D01*
X188279520Y-96945913D01*
X188354087Y-97020480D01*
X188445413Y-97073207D01*
X188445414Y-97073207D01*
X188445416Y-97073208D01*
X188547265Y-97100498D01*
X188547267Y-97100498D01*
X188547273Y-97100500D01*
X188547275Y-97100500D01*
X188652725Y-97100500D01*
X188652727Y-97100500D01*
X188754587Y-97073207D01*
X188845913Y-97020480D01*
X188920480Y-96945913D01*
X188973207Y-96854587D01*
X189000500Y-96752727D01*
X189000500Y-96647275D01*
X192299500Y-96647275D01*
X192299500Y-96752724D01*
X192299501Y-96752734D01*
X192326791Y-96854583D01*
X192326793Y-96854588D01*
X192379520Y-96945913D01*
X192454087Y-97020480D01*
X192545413Y-97073207D01*
X192545414Y-97073207D01*
X192545416Y-97073208D01*
X192647265Y-97100498D01*
X192647267Y-97100498D01*
X192647273Y-97100500D01*
X192647275Y-97100500D01*
X192752725Y-97100500D01*
X192752727Y-97100500D01*
X192854587Y-97073207D01*
X192945913Y-97020480D01*
X193020480Y-96945913D01*
X193073207Y-96854587D01*
X193100500Y-96752727D01*
X193100500Y-96647273D01*
X193094151Y-96623578D01*
X193073208Y-96545416D01*
X193073206Y-96545411D01*
X193020479Y-96454086D01*
X192945913Y-96379520D01*
X192854588Y-96326793D01*
X192854583Y-96326791D01*
X192752734Y-96299501D01*
X192752728Y-96299500D01*
X192752727Y-96299500D01*
X192647273Y-96299500D01*
X192647271Y-96299500D01*
X192647265Y-96299501D01*
X192545416Y-96326791D01*
X192545411Y-96326793D01*
X192454086Y-96379520D01*
X192379520Y-96454086D01*
X192326793Y-96545411D01*
X192326791Y-96545416D01*
X192299501Y-96647265D01*
X192299500Y-96647275D01*
X189000500Y-96647275D01*
X189000500Y-96647273D01*
X188994151Y-96623578D01*
X188973208Y-96545416D01*
X188973206Y-96545411D01*
X188920479Y-96454086D01*
X188845913Y-96379520D01*
X188754588Y-96326793D01*
X188754583Y-96326791D01*
X188652734Y-96299501D01*
X188652728Y-96299500D01*
X188652727Y-96299500D01*
X188547273Y-96299500D01*
X188547271Y-96299500D01*
X188547265Y-96299501D01*
X188445416Y-96326791D01*
X188445411Y-96326793D01*
X188354086Y-96379520D01*
X188279520Y-96454086D01*
X188226793Y-96545411D01*
X188226791Y-96545416D01*
X188199501Y-96647265D01*
X188199500Y-96647275D01*
X179764843Y-96647275D01*
X179760130Y-96623580D01*
X179680941Y-96432402D01*
X179565977Y-96260345D01*
X179452907Y-96147275D01*
X186999500Y-96147275D01*
X186999500Y-96252724D01*
X186999501Y-96252734D01*
X187026791Y-96354583D01*
X187026793Y-96354588D01*
X187068822Y-96427383D01*
X187079520Y-96445913D01*
X187154087Y-96520480D01*
X187245413Y-96573207D01*
X187245414Y-96573207D01*
X187245416Y-96573208D01*
X187347265Y-96600498D01*
X187347267Y-96600498D01*
X187347273Y-96600500D01*
X187347275Y-96600500D01*
X187452725Y-96600500D01*
X187452727Y-96600500D01*
X187492254Y-96589908D01*
X187554584Y-96573208D01*
X187554584Y-96573207D01*
X187554587Y-96573207D01*
X187645913Y-96520480D01*
X187720480Y-96445913D01*
X187773207Y-96354587D01*
X187800500Y-96252727D01*
X187800500Y-96147273D01*
X187773207Y-96045413D01*
X187720480Y-95954087D01*
X187645913Y-95879520D01*
X187645878Y-95879500D01*
X187554588Y-95826793D01*
X187554583Y-95826791D01*
X187452734Y-95799501D01*
X187452728Y-95799500D01*
X187452727Y-95799500D01*
X187347273Y-95799500D01*
X187347271Y-95799500D01*
X187347265Y-95799501D01*
X187245416Y-95826791D01*
X187245411Y-95826793D01*
X187154086Y-95879520D01*
X187079520Y-95954086D01*
X187026793Y-96045411D01*
X187026791Y-96045416D01*
X186999501Y-96147265D01*
X186999500Y-96147275D01*
X179452907Y-96147275D01*
X179419655Y-96114023D01*
X179247598Y-95999059D01*
X179247596Y-95999058D01*
X179056421Y-95919870D01*
X178853466Y-95879500D01*
X178853465Y-95879500D01*
X178646535Y-95879500D01*
X178646534Y-95879500D01*
X178443578Y-95919870D01*
X178252403Y-95999058D01*
X178080345Y-96114023D01*
X178080342Y-96114025D01*
X177934025Y-96260342D01*
X177934023Y-96260345D01*
X177819058Y-96432403D01*
X177739870Y-96623578D01*
X177714182Y-96752724D01*
X177699500Y-96826535D01*
X177500500Y-96826535D01*
X177500500Y-94286534D01*
X177699500Y-94286534D01*
X177699500Y-94493465D01*
X177739870Y-94696421D01*
X177814583Y-94876793D01*
X177819059Y-94887598D01*
X177934023Y-95059655D01*
X178080345Y-95205977D01*
X178252402Y-95320941D01*
X178443580Y-95400130D01*
X178596139Y-95430475D01*
X178646534Y-95440500D01*
X178646535Y-95440500D01*
X178853466Y-95440500D01*
X178893836Y-95432469D01*
X179056420Y-95400130D01*
X179247598Y-95320941D01*
X179419655Y-95205977D01*
X179428357Y-95197275D01*
X192099500Y-95197275D01*
X192099500Y-95302724D01*
X192099501Y-95302734D01*
X192126791Y-95404583D01*
X192126793Y-95404588D01*
X192147527Y-95440500D01*
X192179520Y-95495913D01*
X192254087Y-95570480D01*
X192345413Y-95623207D01*
X192345414Y-95623207D01*
X192345416Y-95623208D01*
X192447265Y-95650498D01*
X192447267Y-95650498D01*
X192447273Y-95650500D01*
X192447275Y-95650500D01*
X192552725Y-95650500D01*
X192552727Y-95650500D01*
X192654587Y-95623207D01*
X192745913Y-95570480D01*
X192820480Y-95495913D01*
X192873207Y-95404587D01*
X192900500Y-95302727D01*
X192900500Y-95197273D01*
X192873207Y-95095413D01*
X192820480Y-95004087D01*
X192745913Y-94929520D01*
X192654588Y-94876793D01*
X192654583Y-94876791D01*
X192552734Y-94849501D01*
X192552728Y-94849500D01*
X192552727Y-94849500D01*
X192447273Y-94849500D01*
X192447271Y-94849500D01*
X192447265Y-94849501D01*
X192345416Y-94876791D01*
X192345411Y-94876793D01*
X192254086Y-94929520D01*
X192179520Y-95004086D01*
X192126793Y-95095411D01*
X192126791Y-95095416D01*
X192099501Y-95197265D01*
X192099500Y-95197275D01*
X179428357Y-95197275D01*
X179565977Y-95059655D01*
X179680941Y-94887598D01*
X179760130Y-94696420D01*
X179800500Y-94493465D01*
X179800500Y-94286535D01*
X179760130Y-94083580D01*
X179680941Y-93892402D01*
X179565977Y-93720345D01*
X179419655Y-93574023D01*
X179247598Y-93459059D01*
X179247596Y-93459058D01*
X179056421Y-93379870D01*
X178853466Y-93339500D01*
X178853465Y-93339500D01*
X178646535Y-93339500D01*
X178646534Y-93339500D01*
X178443578Y-93379870D01*
X178252403Y-93459058D01*
X178080345Y-93574023D01*
X178080342Y-93574025D01*
X177934025Y-93720342D01*
X177934023Y-93720345D01*
X177819058Y-93892403D01*
X177739870Y-94083578D01*
X177699500Y-94286534D01*
X177500500Y-94286534D01*
X177500500Y-91746535D01*
X177699500Y-91746535D01*
X177699500Y-91953465D01*
X177739870Y-92156420D01*
X177819059Y-92347598D01*
X177934023Y-92519655D01*
X178080345Y-92665977D01*
X178252402Y-92780941D01*
X178443580Y-92860130D01*
X178596139Y-92890475D01*
X178646534Y-92900500D01*
X178646535Y-92900500D01*
X178853466Y-92900500D01*
X178893836Y-92892469D01*
X179056420Y-92860130D01*
X179247598Y-92780941D01*
X179419655Y-92665977D01*
X179565977Y-92519655D01*
X179680941Y-92347598D01*
X179760130Y-92156420D01*
X179800500Y-91953465D01*
X179800500Y-91746535D01*
X179760130Y-91543580D01*
X179680941Y-91352402D01*
X179565977Y-91180345D01*
X179419655Y-91034023D01*
X179247598Y-90919059D01*
X179247596Y-90919058D01*
X179056421Y-90839870D01*
X178853466Y-90799500D01*
X178853465Y-90799500D01*
X178646535Y-90799500D01*
X178646534Y-90799500D01*
X178443578Y-90839870D01*
X178252403Y-90919058D01*
X178080345Y-91034023D01*
X178080342Y-91034025D01*
X177934025Y-91180342D01*
X177934023Y-91180345D01*
X177819058Y-91352403D01*
X177739870Y-91543578D01*
X177739870Y-91543580D01*
X177699500Y-91746535D01*
X177500500Y-91746535D01*
X177500500Y-89206534D01*
X177699500Y-89206534D01*
X177699500Y-89413465D01*
X177739870Y-89616421D01*
X177798792Y-89758670D01*
X177819059Y-89807598D01*
X177934023Y-89979655D01*
X178080345Y-90125977D01*
X178252402Y-90240941D01*
X178443580Y-90320130D01*
X178596139Y-90350475D01*
X178646534Y-90360500D01*
X178646535Y-90360500D01*
X178853466Y-90360500D01*
X178893836Y-90352469D01*
X179056420Y-90320130D01*
X179247598Y-90240941D01*
X179419655Y-90125977D01*
X179565977Y-89979655D01*
X179680941Y-89807598D01*
X179760130Y-89616420D01*
X179800500Y-89413465D01*
X179800500Y-89206535D01*
X179798657Y-89197272D01*
X179779716Y-89102048D01*
X179760130Y-89003580D01*
X179680941Y-88812402D01*
X179604016Y-88697275D01*
X181599500Y-88697275D01*
X181599500Y-88802724D01*
X181599501Y-88802734D01*
X181626791Y-88904583D01*
X181626793Y-88904588D01*
X181645182Y-88936438D01*
X181679520Y-88995913D01*
X181754087Y-89070480D01*
X181811385Y-89103561D01*
X181834639Y-89116987D01*
X181845413Y-89123207D01*
X181845414Y-89123207D01*
X181845416Y-89123208D01*
X181947265Y-89150498D01*
X181947267Y-89150498D01*
X181947273Y-89150500D01*
X181947275Y-89150500D01*
X182052725Y-89150500D01*
X182052727Y-89150500D01*
X182154587Y-89123207D01*
X182245913Y-89070480D01*
X182320480Y-88995913D01*
X182373207Y-88904587D01*
X182400500Y-88802727D01*
X182400500Y-88697273D01*
X182389063Y-88654588D01*
X182373208Y-88595416D01*
X182373206Y-88595411D01*
X182348562Y-88552727D01*
X182320480Y-88504087D01*
X182245913Y-88429520D01*
X182195649Y-88400500D01*
X182154588Y-88376793D01*
X182154583Y-88376791D01*
X182052734Y-88349501D01*
X182052728Y-88349500D01*
X182052727Y-88349500D01*
X181947273Y-88349500D01*
X181947271Y-88349500D01*
X181947265Y-88349501D01*
X181845416Y-88376791D01*
X181845411Y-88376793D01*
X181754086Y-88429520D01*
X181679520Y-88504086D01*
X181626793Y-88595411D01*
X181626791Y-88595416D01*
X181599501Y-88697265D01*
X181599500Y-88697275D01*
X179604016Y-88697275D01*
X179575493Y-88654587D01*
X179565980Y-88640349D01*
X179565974Y-88640342D01*
X179419657Y-88494025D01*
X179419655Y-88494023D01*
X179247598Y-88379059D01*
X179247596Y-88379058D01*
X179056421Y-88299870D01*
X178853466Y-88259500D01*
X178853465Y-88259500D01*
X178646535Y-88259500D01*
X178646534Y-88259500D01*
X178443578Y-88299870D01*
X178252403Y-88379058D01*
X178080345Y-88494023D01*
X178080342Y-88494025D01*
X177934025Y-88640342D01*
X177934023Y-88640345D01*
X177819058Y-88812403D01*
X177739870Y-89003578D01*
X177699500Y-89206534D01*
X177500500Y-89206534D01*
X177500500Y-87962046D01*
X183652149Y-87962046D01*
X183652149Y-88067495D01*
X183652150Y-88067505D01*
X183679440Y-88169354D01*
X183679442Y-88169358D01*
X183732169Y-88260684D01*
X183806736Y-88335251D01*
X183830829Y-88349161D01*
X183878685Y-88376791D01*
X183898062Y-88387978D01*
X183898063Y-88387978D01*
X183898065Y-88387979D01*
X183999914Y-88415269D01*
X183999916Y-88415269D01*
X183999922Y-88415271D01*
X183999924Y-88415271D01*
X184105374Y-88415271D01*
X184105376Y-88415271D01*
X184207236Y-88387978D01*
X184298562Y-88335251D01*
X184373129Y-88260684D01*
X184425856Y-88169358D01*
X184453149Y-88067498D01*
X184453149Y-87962044D01*
X184453075Y-87961766D01*
X184453075Y-87961765D01*
X184449192Y-87947275D01*
X186849500Y-87947275D01*
X186849500Y-88052724D01*
X186849501Y-88052734D01*
X186876791Y-88154583D01*
X186876793Y-88154588D01*
X186885321Y-88169358D01*
X186929520Y-88245913D01*
X187004087Y-88320480D01*
X187095413Y-88373207D01*
X187095414Y-88373207D01*
X187095416Y-88373208D01*
X187197265Y-88400498D01*
X187197267Y-88400498D01*
X187197273Y-88400500D01*
X187197275Y-88400500D01*
X187302725Y-88400500D01*
X187302727Y-88400500D01*
X187404587Y-88373207D01*
X187495913Y-88320480D01*
X187570480Y-88245913D01*
X187623207Y-88154587D01*
X187650500Y-88052727D01*
X187650500Y-87947273D01*
X187650498Y-87947265D01*
X187623208Y-87845416D01*
X187623206Y-87845411D01*
X187570479Y-87754086D01*
X187495913Y-87679520D01*
X187404588Y-87626793D01*
X187404583Y-87626791D01*
X187302734Y-87599501D01*
X187302728Y-87599500D01*
X187302727Y-87599500D01*
X187197273Y-87599500D01*
X187197271Y-87599500D01*
X187197265Y-87599501D01*
X187095416Y-87626791D01*
X187095411Y-87626793D01*
X187004086Y-87679520D01*
X186929520Y-87754086D01*
X186876793Y-87845411D01*
X186876791Y-87845416D01*
X186849501Y-87947265D01*
X186849500Y-87947275D01*
X184449192Y-87947275D01*
X184432971Y-87886740D01*
X184425856Y-87860184D01*
X184373129Y-87768858D01*
X184298562Y-87694291D01*
X184272978Y-87679520D01*
X184207237Y-87641564D01*
X184207232Y-87641562D01*
X184105383Y-87614272D01*
X184105377Y-87614271D01*
X184105376Y-87614271D01*
X183999922Y-87614271D01*
X183999920Y-87614271D01*
X183999914Y-87614272D01*
X183898065Y-87641562D01*
X183898060Y-87641564D01*
X183806735Y-87694291D01*
X183732169Y-87768857D01*
X183679442Y-87860182D01*
X183679440Y-87860187D01*
X183652150Y-87962036D01*
X183652149Y-87962046D01*
X177500500Y-87962046D01*
X177500500Y-86666535D01*
X177699500Y-86666535D01*
X177699500Y-86873465D01*
X177739870Y-87076420D01*
X177819059Y-87267598D01*
X177934023Y-87439655D01*
X178080345Y-87585977D01*
X178252402Y-87700941D01*
X178443580Y-87780130D01*
X178596139Y-87810475D01*
X178646534Y-87820500D01*
X178646535Y-87820500D01*
X178853466Y-87820500D01*
X178893836Y-87812469D01*
X179056420Y-87780130D01*
X179247598Y-87700941D01*
X179419655Y-87585977D01*
X179565977Y-87439655D01*
X179680941Y-87267598D01*
X179760130Y-87076420D01*
X179800500Y-86873465D01*
X179800500Y-86666535D01*
X179760130Y-86463580D01*
X179680941Y-86272402D01*
X179565977Y-86100345D01*
X179419655Y-85954023D01*
X179247598Y-85839059D01*
X179247596Y-85839058D01*
X179056421Y-85759870D01*
X178853466Y-85719500D01*
X178853465Y-85719500D01*
X178646535Y-85719500D01*
X178646534Y-85719500D01*
X178443578Y-85759870D01*
X178252403Y-85839058D01*
X178080345Y-85954023D01*
X178080342Y-85954025D01*
X177934025Y-86100342D01*
X177934023Y-86100345D01*
X177819058Y-86272403D01*
X177739870Y-86463578D01*
X177707861Y-86624500D01*
X177699500Y-86666535D01*
X177500500Y-86666535D01*
X177500500Y-84126535D01*
X177699500Y-84126535D01*
X177699500Y-84333465D01*
X177739870Y-84536420D01*
X177819059Y-84727598D01*
X177934023Y-84899655D01*
X178080345Y-85045977D01*
X178252402Y-85160941D01*
X178443580Y-85240130D01*
X178596139Y-85270475D01*
X178646534Y-85280500D01*
X178646535Y-85280500D01*
X178853466Y-85280500D01*
X178893836Y-85272469D01*
X179056420Y-85240130D01*
X179247598Y-85160941D01*
X179419655Y-85045977D01*
X179565977Y-84899655D01*
X179680941Y-84727598D01*
X179760130Y-84536420D01*
X179800500Y-84333465D01*
X179800500Y-84126535D01*
X179760130Y-83923580D01*
X179680941Y-83732402D01*
X179565977Y-83560345D01*
X179419655Y-83414023D01*
X179247598Y-83299059D01*
X179239595Y-83295744D01*
X179056421Y-83219870D01*
X178853466Y-83179500D01*
X178853465Y-83179500D01*
X178646535Y-83179500D01*
X178646534Y-83179500D01*
X178443578Y-83219870D01*
X178252403Y-83299058D01*
X178080345Y-83414023D01*
X178080342Y-83414025D01*
X177934025Y-83560342D01*
X177934023Y-83560345D01*
X177819058Y-83732403D01*
X177739870Y-83923578D01*
X177739870Y-83923580D01*
X177699500Y-84126535D01*
X177500500Y-84126535D01*
X177500500Y-81586534D01*
X177699500Y-81586534D01*
X177699500Y-81793465D01*
X177739870Y-81996421D01*
X177813117Y-82173253D01*
X177819059Y-82187598D01*
X177934023Y-82359655D01*
X178080345Y-82505977D01*
X178252402Y-82620941D01*
X178443580Y-82700130D01*
X178596139Y-82730475D01*
X178646534Y-82740500D01*
X178646535Y-82740500D01*
X178853466Y-82740500D01*
X178893836Y-82732469D01*
X179056420Y-82700130D01*
X179247598Y-82620941D01*
X179419655Y-82505977D01*
X179565977Y-82359655D01*
X179680941Y-82187598D01*
X179760130Y-81996420D01*
X179800500Y-81793465D01*
X179800500Y-81586535D01*
X179760130Y-81383580D01*
X179680941Y-81192402D01*
X179565977Y-81020345D01*
X179419655Y-80874023D01*
X179247598Y-80759059D01*
X179195005Y-80737274D01*
X179056421Y-80679870D01*
X178853466Y-80639500D01*
X178853465Y-80639500D01*
X178646535Y-80639500D01*
X178646534Y-80639500D01*
X178443578Y-80679870D01*
X178252403Y-80759058D01*
X178080345Y-80874023D01*
X178080342Y-80874025D01*
X177934025Y-81020342D01*
X177934023Y-81020345D01*
X177819058Y-81192403D01*
X177739870Y-81383578D01*
X177699500Y-81586534D01*
X177500500Y-81586534D01*
X177500500Y-79046534D01*
X177699500Y-79046534D01*
X177699500Y-79253465D01*
X177739870Y-79456421D01*
X177808265Y-79621539D01*
X177819059Y-79647598D01*
X177934023Y-79819655D01*
X178080345Y-79965977D01*
X178252402Y-80080941D01*
X178443580Y-80160130D01*
X178596139Y-80190475D01*
X178646534Y-80200500D01*
X178646535Y-80200500D01*
X178853466Y-80200500D01*
X178893836Y-80192469D01*
X179056420Y-80160130D01*
X179247598Y-80080941D01*
X179419655Y-79965977D01*
X179565977Y-79819655D01*
X179680941Y-79647598D01*
X179760130Y-79456420D01*
X179800500Y-79253465D01*
X179800500Y-79046535D01*
X179760130Y-78843580D01*
X179680941Y-78652402D01*
X179565977Y-78480345D01*
X179419655Y-78334023D01*
X179247598Y-78219059D01*
X179247596Y-78219058D01*
X179056421Y-78139870D01*
X178853466Y-78099500D01*
X178853465Y-78099500D01*
X178646535Y-78099500D01*
X178646534Y-78099500D01*
X178443578Y-78139870D01*
X178252403Y-78219058D01*
X178080345Y-78334023D01*
X178080342Y-78334025D01*
X177934025Y-78480342D01*
X177934023Y-78480345D01*
X177819058Y-78652403D01*
X177739870Y-78843578D01*
X177699500Y-79046534D01*
X177500500Y-79046534D01*
X177500500Y-76731204D01*
X177518047Y-76682995D01*
X177562476Y-76657343D01*
X177613000Y-76666252D01*
X177645977Y-76705552D01*
X177649577Y-76719471D01*
X177673184Y-76868525D01*
X177726880Y-77033782D01*
X177805773Y-77188621D01*
X177870356Y-77277510D01*
X178306328Y-76841537D01*
X178349901Y-76917007D01*
X178442993Y-77010099D01*
X178518460Y-77053670D01*
X178082488Y-77489642D01*
X178082488Y-77489643D01*
X178171378Y-77554226D01*
X178326217Y-77633119D01*
X178491474Y-77686815D01*
X178663113Y-77714000D01*
X178836887Y-77714000D01*
X179008525Y-77686815D01*
X179173782Y-77633119D01*
X179328621Y-77554226D01*
X179417510Y-77489643D01*
X179417510Y-77489642D01*
X178981538Y-77053670D01*
X179057007Y-77010099D01*
X179150099Y-76917007D01*
X179193670Y-76841538D01*
X179629642Y-77277510D01*
X179629643Y-77277510D01*
X179694226Y-77188621D01*
X179773119Y-77033782D01*
X179826815Y-76868525D01*
X179854000Y-76696886D01*
X179854000Y-76523113D01*
X179826815Y-76351474D01*
X179773119Y-76186217D01*
X179694226Y-76031378D01*
X179629643Y-75942488D01*
X179629642Y-75942488D01*
X179193670Y-76378460D01*
X179150099Y-76302993D01*
X179057007Y-76209901D01*
X178981537Y-76166328D01*
X179417510Y-75730356D01*
X179328621Y-75665773D01*
X179173782Y-75586880D01*
X179008525Y-75533184D01*
X178836887Y-75506000D01*
X178663113Y-75506000D01*
X178491474Y-75533184D01*
X178326217Y-75586880D01*
X178171378Y-75665773D01*
X178082488Y-75730356D01*
X178518461Y-76166329D01*
X178442993Y-76209901D01*
X178349901Y-76302993D01*
X178306329Y-76378461D01*
X177870356Y-75942488D01*
X177805773Y-76031378D01*
X177726880Y-76186217D01*
X177673184Y-76351474D01*
X177649577Y-76500528D01*
X177624704Y-76545398D01*
X177576809Y-76563784D01*
X177528301Y-76547081D01*
X177501878Y-76503106D01*
X177500500Y-76488795D01*
X177500500Y-73966534D01*
X177699500Y-73966534D01*
X177699500Y-74173465D01*
X177739870Y-74376421D01*
X177804772Y-74533106D01*
X177819059Y-74567598D01*
X177934023Y-74739655D01*
X178080345Y-74885977D01*
X178252402Y-75000941D01*
X178443580Y-75080130D01*
X178596139Y-75110475D01*
X178646534Y-75120500D01*
X178646535Y-75120500D01*
X178853466Y-75120500D01*
X178893836Y-75112469D01*
X179056420Y-75080130D01*
X179247598Y-75000941D01*
X179419655Y-74885977D01*
X179565977Y-74739655D01*
X179680941Y-74567598D01*
X179760130Y-74376420D01*
X179800500Y-74173465D01*
X179800500Y-73966535D01*
X179760130Y-73763580D01*
X179680941Y-73572402D01*
X179565977Y-73400345D01*
X179419655Y-73254023D01*
X179247598Y-73139059D01*
X179247596Y-73139058D01*
X179056421Y-73059870D01*
X178853466Y-73019500D01*
X178853465Y-73019500D01*
X178646535Y-73019500D01*
X178646534Y-73019500D01*
X178443578Y-73059870D01*
X178252403Y-73139058D01*
X178080345Y-73254023D01*
X178080342Y-73254025D01*
X177934025Y-73400342D01*
X177934023Y-73400345D01*
X177819058Y-73572403D01*
X177739870Y-73763578D01*
X177699500Y-73966534D01*
X177500500Y-73966534D01*
X177500500Y-71426534D01*
X177699500Y-71426534D01*
X177699500Y-71633465D01*
X177739870Y-71836421D01*
X177788368Y-71953504D01*
X177819059Y-72027598D01*
X177934023Y-72199655D01*
X178080345Y-72345977D01*
X178252402Y-72460941D01*
X178443580Y-72540130D01*
X178596139Y-72570475D01*
X178646534Y-72580500D01*
X178646535Y-72580500D01*
X178853466Y-72580500D01*
X178893836Y-72572469D01*
X179056420Y-72540130D01*
X179247598Y-72460941D01*
X179419655Y-72345977D01*
X179565977Y-72199655D01*
X179680941Y-72027598D01*
X179760130Y-71836420D01*
X179800500Y-71633465D01*
X179800500Y-71426535D01*
X179795640Y-71402104D01*
X179786707Y-71357191D01*
X179760130Y-71223580D01*
X179680941Y-71032402D01*
X179565977Y-70860345D01*
X179419655Y-70714023D01*
X179247598Y-70599059D01*
X179247596Y-70599058D01*
X179156779Y-70561440D01*
X181098500Y-70561440D01*
X181098500Y-81788502D01*
X181098501Y-81788510D01*
X181118978Y-81864930D01*
X181118979Y-81864933D01*
X181156046Y-81929134D01*
X181156047Y-81929136D01*
X181158538Y-81933452D01*
X182365878Y-83140792D01*
X182377794Y-83156322D01*
X182429520Y-83245913D01*
X182504087Y-83320480D01*
X182595413Y-83373207D01*
X182595414Y-83373207D01*
X182595416Y-83373208D01*
X182697265Y-83400498D01*
X182697267Y-83400498D01*
X182697273Y-83400500D01*
X182697275Y-83400500D01*
X182802725Y-83400500D01*
X182802727Y-83400500D01*
X182904587Y-83373207D01*
X182995913Y-83320480D01*
X183070480Y-83245913D01*
X183123207Y-83154587D01*
X183150500Y-83052727D01*
X183150500Y-82947273D01*
X183150498Y-82947265D01*
X183123208Y-82845416D01*
X183123206Y-82845411D01*
X183070479Y-82754086D01*
X182995913Y-82679520D01*
X182904588Y-82626793D01*
X182904583Y-82626791D01*
X182802734Y-82599501D01*
X182802728Y-82599500D01*
X182802727Y-82599500D01*
X182705594Y-82599500D01*
X182657385Y-82581953D01*
X182652561Y-82577533D01*
X181721467Y-81646439D01*
X181699785Y-81599943D01*
X181699500Y-81593406D01*
X181699500Y-70756537D01*
X181717047Y-70708328D01*
X181721467Y-70703504D01*
X183502504Y-68922467D01*
X183547877Y-68901308D01*
X183547855Y-68901141D01*
X183548386Y-68901071D01*
X183549000Y-68900785D01*
X183551331Y-68900683D01*
X183552719Y-68900500D01*
X183552727Y-68900500D01*
X183654587Y-68873207D01*
X183745913Y-68820480D01*
X183820480Y-68745913D01*
X183873207Y-68654587D01*
X183900500Y-68552727D01*
X183900500Y-68447273D01*
X183873207Y-68345413D01*
X183820480Y-68254087D01*
X183745913Y-68179520D01*
X183736392Y-68174023D01*
X183654588Y-68126793D01*
X183654583Y-68126791D01*
X183552734Y-68099501D01*
X183552728Y-68099500D01*
X183552727Y-68099500D01*
X183447273Y-68099500D01*
X183447271Y-68099500D01*
X183447265Y-68099501D01*
X183345416Y-68126791D01*
X183345411Y-68126793D01*
X183254086Y-68179520D01*
X183179520Y-68254086D01*
X183126793Y-68345411D01*
X183126791Y-68345416D01*
X183099501Y-68447265D01*
X183098859Y-68452145D01*
X183096802Y-68451874D01*
X183081953Y-68492672D01*
X183077533Y-68497496D01*
X181158540Y-70416488D01*
X181118979Y-70485009D01*
X181118978Y-70485012D01*
X181098501Y-70561432D01*
X181098500Y-70561440D01*
X179156779Y-70561440D01*
X179056421Y-70519870D01*
X178853466Y-70479500D01*
X178853465Y-70479500D01*
X178646535Y-70479500D01*
X178646534Y-70479500D01*
X178443578Y-70519870D01*
X178252403Y-70599058D01*
X178080345Y-70714023D01*
X178080342Y-70714025D01*
X177934025Y-70860342D01*
X177934023Y-70860345D01*
X177819058Y-71032403D01*
X177739870Y-71223578D01*
X177699500Y-71426534D01*
X177500500Y-71426534D01*
X177500500Y-68886534D01*
X177699500Y-68886534D01*
X177699500Y-69093465D01*
X177739870Y-69296421D01*
X177795002Y-69429520D01*
X177819059Y-69487598D01*
X177934023Y-69659655D01*
X178080345Y-69805977D01*
X178252402Y-69920941D01*
X178443580Y-70000130D01*
X178596139Y-70030475D01*
X178646534Y-70040500D01*
X178646535Y-70040500D01*
X178853466Y-70040500D01*
X178893836Y-70032469D01*
X179056420Y-70000130D01*
X179247598Y-69920941D01*
X179419655Y-69805977D01*
X179565977Y-69659655D01*
X179680941Y-69487598D01*
X179760130Y-69296420D01*
X179800500Y-69093465D01*
X179800500Y-68886535D01*
X179760130Y-68683580D01*
X179680941Y-68492402D01*
X179565977Y-68320345D01*
X179419655Y-68174023D01*
X179247598Y-68059059D01*
X179247596Y-68059058D01*
X179056421Y-67979870D01*
X178853466Y-67939500D01*
X178853465Y-67939500D01*
X178646535Y-67939500D01*
X178646534Y-67939500D01*
X178443578Y-67979870D01*
X178252403Y-68059058D01*
X178080345Y-68174023D01*
X178080342Y-68174025D01*
X177934025Y-68320342D01*
X177934023Y-68320345D01*
X177819058Y-68492403D01*
X177739870Y-68683578D01*
X177699500Y-68886534D01*
X177500500Y-68886534D01*
X177500500Y-66346534D01*
X177699500Y-66346534D01*
X177699500Y-66553465D01*
X177739870Y-66756421D01*
X177801353Y-66904853D01*
X177819059Y-66947598D01*
X177934023Y-67119655D01*
X178080345Y-67265977D01*
X178252402Y-67380941D01*
X178443580Y-67460130D01*
X178596139Y-67490475D01*
X178646534Y-67500500D01*
X178646535Y-67500500D01*
X178853466Y-67500500D01*
X178893836Y-67492469D01*
X179056420Y-67460130D01*
X179247598Y-67380941D01*
X179419655Y-67265977D01*
X179565977Y-67119655D01*
X179680941Y-66947598D01*
X179760130Y-66756420D01*
X179800500Y-66553465D01*
X179800500Y-66346535D01*
X179760130Y-66143580D01*
X179680941Y-65952402D01*
X179565977Y-65780345D01*
X179419655Y-65634023D01*
X179247598Y-65519059D01*
X179247596Y-65519058D01*
X179056421Y-65439870D01*
X178853466Y-65399500D01*
X178853465Y-65399500D01*
X178646535Y-65399500D01*
X178646534Y-65399500D01*
X178443578Y-65439870D01*
X178252403Y-65519058D01*
X178080345Y-65634023D01*
X178080342Y-65634025D01*
X177934025Y-65780342D01*
X177934023Y-65780345D01*
X177819058Y-65952403D01*
X177739870Y-66143578D01*
X177699500Y-66346534D01*
X177500500Y-66346534D01*
X177500500Y-61266534D01*
X177699500Y-61266534D01*
X177699500Y-61473465D01*
X177739870Y-61676421D01*
X177819058Y-61867596D01*
X177819059Y-61867598D01*
X177934023Y-62039655D01*
X178080345Y-62185977D01*
X178252402Y-62300941D01*
X178443580Y-62380130D01*
X178596139Y-62410475D01*
X178646534Y-62420500D01*
X178646535Y-62420500D01*
X178853466Y-62420500D01*
X178893836Y-62412469D01*
X179056420Y-62380130D01*
X179247598Y-62300941D01*
X179419655Y-62185977D01*
X179565977Y-62039655D01*
X179680941Y-61867598D01*
X179760130Y-61676420D01*
X179800500Y-61473465D01*
X179800500Y-61266535D01*
X179760130Y-61063580D01*
X179680941Y-60872402D01*
X179565977Y-60700345D01*
X179419655Y-60554023D01*
X179247598Y-60439059D01*
X179236616Y-60434510D01*
X179056421Y-60359870D01*
X178853466Y-60319500D01*
X178853465Y-60319500D01*
X178646535Y-60319500D01*
X178646534Y-60319500D01*
X178443578Y-60359870D01*
X178252403Y-60439058D01*
X178080345Y-60554023D01*
X178080342Y-60554025D01*
X177934025Y-60700342D01*
X177934023Y-60700345D01*
X177819058Y-60872403D01*
X177739870Y-61063578D01*
X177699500Y-61266534D01*
X177500500Y-61266534D01*
X177500500Y-59981287D01*
X187633860Y-59981287D01*
X187633860Y-60086736D01*
X187633861Y-60086746D01*
X187661151Y-60188595D01*
X187661153Y-60188600D01*
X187694243Y-60245913D01*
X187713880Y-60279925D01*
X187788447Y-60354492D01*
X187879773Y-60407219D01*
X187879774Y-60407219D01*
X187879776Y-60407220D01*
X187981625Y-60434510D01*
X187981627Y-60434510D01*
X187981633Y-60434512D01*
X187981635Y-60434512D01*
X188087085Y-60434512D01*
X188087087Y-60434512D01*
X188188947Y-60407219D01*
X188280273Y-60354492D01*
X188354840Y-60279925D01*
X188407567Y-60188599D01*
X188434860Y-60086739D01*
X188434860Y-59981285D01*
X188429631Y-59961769D01*
X188429631Y-59961768D01*
X188425748Y-59947275D01*
X195849500Y-59947275D01*
X195849500Y-60052724D01*
X195849501Y-60052734D01*
X195876791Y-60154583D01*
X195876793Y-60154588D01*
X195896430Y-60188600D01*
X195929520Y-60245913D01*
X196004087Y-60320480D01*
X196095413Y-60373207D01*
X196095414Y-60373207D01*
X196095416Y-60373208D01*
X196197265Y-60400498D01*
X196197267Y-60400498D01*
X196197273Y-60400500D01*
X196197275Y-60400500D01*
X196302725Y-60400500D01*
X196302727Y-60400500D01*
X196404587Y-60373207D01*
X196495913Y-60320480D01*
X196570480Y-60245913D01*
X196623207Y-60154587D01*
X196650500Y-60052727D01*
X196650500Y-59947273D01*
X196650498Y-59947265D01*
X196623208Y-59845416D01*
X196623206Y-59845411D01*
X196570479Y-59754086D01*
X196495913Y-59679520D01*
X196404588Y-59626793D01*
X196404583Y-59626791D01*
X196302734Y-59599501D01*
X196302728Y-59599500D01*
X196302727Y-59599500D01*
X196197273Y-59599500D01*
X196197271Y-59599500D01*
X196197265Y-59599501D01*
X196095416Y-59626791D01*
X196095411Y-59626793D01*
X196004086Y-59679520D01*
X195929520Y-59754086D01*
X195876793Y-59845411D01*
X195876791Y-59845416D01*
X195849501Y-59947265D01*
X195849500Y-59947275D01*
X188425748Y-59947275D01*
X188407568Y-59879428D01*
X188407566Y-59879423D01*
X188373535Y-59820480D01*
X188354840Y-59788099D01*
X188280273Y-59713532D01*
X188188948Y-59660805D01*
X188188943Y-59660803D01*
X188087094Y-59633513D01*
X188087088Y-59633512D01*
X188087087Y-59633512D01*
X187981633Y-59633512D01*
X187981631Y-59633512D01*
X187981625Y-59633513D01*
X187879776Y-59660803D01*
X187879771Y-59660805D01*
X187788446Y-59713532D01*
X187713880Y-59788098D01*
X187661153Y-59879423D01*
X187661151Y-59879428D01*
X187633861Y-59981277D01*
X187633860Y-59981287D01*
X177500500Y-59981287D01*
X177500500Y-58726534D01*
X177699500Y-58726534D01*
X177699500Y-58933465D01*
X177739870Y-59136421D01*
X177819058Y-59327596D01*
X177819059Y-59327598D01*
X177934023Y-59499655D01*
X178080345Y-59645977D01*
X178252402Y-59760941D01*
X178443580Y-59840130D01*
X178596139Y-59870475D01*
X178646534Y-59880500D01*
X178646535Y-59880500D01*
X178853466Y-59880500D01*
X178893836Y-59872469D01*
X179056420Y-59840130D01*
X179247598Y-59760941D01*
X179419655Y-59645977D01*
X179565977Y-59499655D01*
X179600976Y-59447275D01*
X197849500Y-59447275D01*
X197849500Y-59552724D01*
X197849501Y-59552734D01*
X197876791Y-59654583D01*
X197876793Y-59654588D01*
X197891188Y-59679520D01*
X197929520Y-59745913D01*
X198004087Y-59820480D01*
X198095413Y-59873207D01*
X198095414Y-59873207D01*
X198095416Y-59873208D01*
X198197265Y-59900498D01*
X198197267Y-59900498D01*
X198197273Y-59900500D01*
X198197275Y-59900500D01*
X198302725Y-59900500D01*
X198302727Y-59900500D01*
X198404587Y-59873207D01*
X198495913Y-59820480D01*
X198570480Y-59745913D01*
X198623207Y-59654587D01*
X198650500Y-59552727D01*
X198650500Y-59447273D01*
X198623207Y-59345413D01*
X198570480Y-59254087D01*
X198495913Y-59179520D01*
X198404588Y-59126793D01*
X198404583Y-59126791D01*
X198302734Y-59099501D01*
X198302728Y-59099500D01*
X198302727Y-59099500D01*
X198197273Y-59099500D01*
X198197271Y-59099500D01*
X198197265Y-59099501D01*
X198095416Y-59126791D01*
X198095411Y-59126793D01*
X198004086Y-59179520D01*
X197929520Y-59254086D01*
X197876793Y-59345411D01*
X197876791Y-59345416D01*
X197849501Y-59447265D01*
X197849500Y-59447275D01*
X179600976Y-59447275D01*
X179680941Y-59327598D01*
X179760130Y-59136420D01*
X179800500Y-58933465D01*
X179800500Y-58726535D01*
X179760130Y-58523580D01*
X179680941Y-58332402D01*
X179565977Y-58160345D01*
X179419655Y-58014023D01*
X179247598Y-57899059D01*
X179247596Y-57899058D01*
X179056421Y-57819870D01*
X178853466Y-57779500D01*
X178853465Y-57779500D01*
X178646535Y-57779500D01*
X178646534Y-57779500D01*
X178443578Y-57819870D01*
X178252403Y-57899058D01*
X178080345Y-58014023D01*
X178080342Y-58014025D01*
X177934025Y-58160342D01*
X177934023Y-58160345D01*
X177819058Y-58332403D01*
X177739870Y-58523578D01*
X177699500Y-58726534D01*
X177500500Y-58726534D01*
X177500500Y-56411204D01*
X177518047Y-56362995D01*
X177562476Y-56337343D01*
X177613000Y-56346252D01*
X177645977Y-56385552D01*
X177649577Y-56399471D01*
X177673184Y-56548525D01*
X177726880Y-56713782D01*
X177805773Y-56868621D01*
X177870356Y-56957510D01*
X178306328Y-56521537D01*
X178349901Y-56597007D01*
X178442993Y-56690099D01*
X178518460Y-56733670D01*
X178082488Y-57169642D01*
X178082488Y-57169643D01*
X178171378Y-57234226D01*
X178326217Y-57313119D01*
X178491474Y-57366815D01*
X178663113Y-57394000D01*
X178836887Y-57394000D01*
X179008525Y-57366815D01*
X179173782Y-57313119D01*
X179328621Y-57234226D01*
X179417510Y-57169643D01*
X179417510Y-57169642D01*
X178981538Y-56733670D01*
X179057007Y-56690099D01*
X179150099Y-56597007D01*
X179193670Y-56521538D01*
X179629642Y-56957510D01*
X179629643Y-56957510D01*
X179667259Y-56905737D01*
X185536000Y-56905737D01*
X185536000Y-57380000D01*
X185990000Y-57380000D01*
X185990000Y-57680000D01*
X185536000Y-57680000D01*
X185536000Y-58154262D01*
X185564976Y-58299934D01*
X185621813Y-58437151D01*
X185704330Y-58560646D01*
X185704332Y-58560649D01*
X185809350Y-58665667D01*
X185809353Y-58665669D01*
X185932848Y-58748186D01*
X186070065Y-58805023D01*
X186140000Y-58818933D01*
X186140000Y-58339808D01*
X186174204Y-58359556D01*
X186250504Y-58380000D01*
X186329496Y-58380000D01*
X186405796Y-58359556D01*
X186440000Y-58339808D01*
X186440000Y-58818933D01*
X186509934Y-58805023D01*
X186647151Y-58748186D01*
X186770646Y-58665669D01*
X186770649Y-58665667D01*
X186875667Y-58560649D01*
X186875669Y-58560646D01*
X186958185Y-58437153D01*
X186976775Y-58392275D01*
X189459500Y-58392275D01*
X189459500Y-58497724D01*
X189459501Y-58497734D01*
X189486791Y-58599583D01*
X189486793Y-58599588D01*
X189524944Y-58665666D01*
X189539520Y-58690913D01*
X189614087Y-58765480D01*
X189705413Y-58818207D01*
X189705414Y-58818207D01*
X189705416Y-58818208D01*
X189807265Y-58845498D01*
X189807267Y-58845498D01*
X189807273Y-58845500D01*
X189807275Y-58845500D01*
X189912725Y-58845500D01*
X189912727Y-58845500D01*
X190014587Y-58818207D01*
X190105913Y-58765480D01*
X190180480Y-58690913D01*
X190233207Y-58599587D01*
X190260500Y-58497727D01*
X190260500Y-58392275D01*
X190459500Y-58392275D01*
X190459500Y-58497724D01*
X190459501Y-58497734D01*
X190486791Y-58599583D01*
X190486793Y-58599588D01*
X190524944Y-58665666D01*
X190539520Y-58690913D01*
X190614087Y-58765480D01*
X190705413Y-58818207D01*
X190705414Y-58818207D01*
X190705416Y-58818208D01*
X190807265Y-58845498D01*
X190807267Y-58845498D01*
X190807273Y-58845500D01*
X190807275Y-58845500D01*
X190912725Y-58845500D01*
X190912727Y-58845500D01*
X191014587Y-58818207D01*
X191105913Y-58765480D01*
X191180480Y-58690913D01*
X191233207Y-58599587D01*
X191260500Y-58497727D01*
X191260500Y-58392273D01*
X191260498Y-58392265D01*
X191233208Y-58290416D01*
X191233206Y-58290411D01*
X191180479Y-58199086D01*
X191105913Y-58124520D01*
X191014588Y-58071793D01*
X191014583Y-58071791D01*
X190912734Y-58044501D01*
X190912728Y-58044500D01*
X190912727Y-58044500D01*
X190807273Y-58044500D01*
X190807271Y-58044500D01*
X190807265Y-58044501D01*
X190705416Y-58071791D01*
X190705411Y-58071793D01*
X190614086Y-58124520D01*
X190539520Y-58199086D01*
X190486793Y-58290411D01*
X190486791Y-58290416D01*
X190459501Y-58392265D01*
X190459500Y-58392275D01*
X190260500Y-58392275D01*
X190260500Y-58392273D01*
X190260498Y-58392265D01*
X190233208Y-58290416D01*
X190233206Y-58290411D01*
X190180479Y-58199086D01*
X190105913Y-58124520D01*
X190014588Y-58071793D01*
X190014583Y-58071791D01*
X189912734Y-58044501D01*
X189912728Y-58044500D01*
X189912727Y-58044500D01*
X189807273Y-58044500D01*
X189807271Y-58044500D01*
X189807265Y-58044501D01*
X189705416Y-58071791D01*
X189705411Y-58071793D01*
X189614086Y-58124520D01*
X189539520Y-58199086D01*
X189486793Y-58290411D01*
X189486791Y-58290416D01*
X189459501Y-58392265D01*
X189459500Y-58392275D01*
X186976775Y-58392275D01*
X186990701Y-58358655D01*
X186990701Y-58358654D01*
X187015023Y-58299934D01*
X187044000Y-58154262D01*
X187044000Y-57680000D01*
X186590000Y-57680000D01*
X186590000Y-57380000D01*
X187044000Y-57380000D01*
X187044000Y-57260038D01*
X187061547Y-57211829D01*
X187105976Y-57186177D01*
X187156500Y-57195086D01*
X187183951Y-57222537D01*
X187259485Y-57353365D01*
X187366635Y-57460515D01*
X187497865Y-57536281D01*
X187497867Y-57536281D01*
X187497868Y-57536282D01*
X187644226Y-57575498D01*
X187644228Y-57575498D01*
X187644234Y-57575500D01*
X187644236Y-57575500D01*
X187795764Y-57575500D01*
X187795766Y-57575500D01*
X187942135Y-57536281D01*
X188073365Y-57460515D01*
X188180515Y-57353365D01*
X188256281Y-57222135D01*
X188295500Y-57075766D01*
X188295500Y-56924236D01*
X192924500Y-56924236D01*
X192924500Y-57075763D01*
X192924501Y-57075773D01*
X192963717Y-57222131D01*
X192963719Y-57222135D01*
X193039485Y-57353365D01*
X193146635Y-57460515D01*
X193277865Y-57536281D01*
X193277867Y-57536281D01*
X193277868Y-57536282D01*
X193424226Y-57575498D01*
X193424228Y-57575498D01*
X193424234Y-57575500D01*
X193424236Y-57575500D01*
X193575764Y-57575500D01*
X193575766Y-57575500D01*
X193722135Y-57536281D01*
X193853365Y-57460515D01*
X193960515Y-57353365D01*
X194036048Y-57222537D01*
X194075349Y-57189561D01*
X194126652Y-57189561D01*
X194165952Y-57222538D01*
X194176000Y-57260038D01*
X194176000Y-57380000D01*
X194630000Y-57380000D01*
X194630000Y-57680000D01*
X194176000Y-57680000D01*
X194176000Y-58154262D01*
X194204976Y-58299934D01*
X194261813Y-58437151D01*
X194344330Y-58560646D01*
X194344332Y-58560649D01*
X194449350Y-58665667D01*
X194449353Y-58665669D01*
X194572848Y-58748186D01*
X194710065Y-58805023D01*
X194780000Y-58818933D01*
X194780000Y-58339808D01*
X194814204Y-58359556D01*
X194890504Y-58380000D01*
X194969496Y-58380000D01*
X195045796Y-58359556D01*
X195080000Y-58339808D01*
X195080000Y-58818933D01*
X195149934Y-58805023D01*
X195287151Y-58748186D01*
X195319556Y-58726534D01*
X201199500Y-58726534D01*
X201199500Y-58933465D01*
X201239870Y-59136421D01*
X201319058Y-59327596D01*
X201319059Y-59327598D01*
X201434023Y-59499655D01*
X201580345Y-59645977D01*
X201752402Y-59760941D01*
X201943580Y-59840130D01*
X202096139Y-59870475D01*
X202146534Y-59880500D01*
X202146535Y-59880500D01*
X202353466Y-59880500D01*
X202393836Y-59872469D01*
X202556420Y-59840130D01*
X202747598Y-59760941D01*
X202919655Y-59645977D01*
X203065977Y-59499655D01*
X203180941Y-59327598D01*
X203260130Y-59136420D01*
X203300500Y-58933465D01*
X203300500Y-58726535D01*
X203260130Y-58523580D01*
X203180941Y-58332402D01*
X203065977Y-58160345D01*
X202919655Y-58014023D01*
X202747598Y-57899059D01*
X202747596Y-57899058D01*
X202556421Y-57819870D01*
X202353466Y-57779500D01*
X202353465Y-57779500D01*
X202146535Y-57779500D01*
X202146534Y-57779500D01*
X201943578Y-57819870D01*
X201752403Y-57899058D01*
X201580345Y-58014023D01*
X201580342Y-58014025D01*
X201434025Y-58160342D01*
X201434023Y-58160345D01*
X201319058Y-58332403D01*
X201239870Y-58523578D01*
X201199500Y-58726534D01*
X195319556Y-58726534D01*
X195410645Y-58665670D01*
X195410650Y-58665666D01*
X195515667Y-58560649D01*
X195515669Y-58560646D01*
X195598186Y-58437151D01*
X195655023Y-58299934D01*
X195684000Y-58154262D01*
X195684000Y-57680000D01*
X195230000Y-57680000D01*
X195230000Y-57380000D01*
X195684000Y-57380000D01*
X195684000Y-56905737D01*
X195655023Y-56760065D01*
X195598186Y-56622848D01*
X195515669Y-56499353D01*
X195515667Y-56499350D01*
X195410649Y-56394332D01*
X195410646Y-56394330D01*
X195287151Y-56311813D01*
X195184894Y-56269457D01*
X195149934Y-56254976D01*
X195080000Y-56241065D01*
X195080000Y-56720191D01*
X195045796Y-56700444D01*
X194969496Y-56680000D01*
X194890504Y-56680000D01*
X194814204Y-56700444D01*
X194780000Y-56720191D01*
X194780000Y-56241065D01*
X194779999Y-56241065D01*
X194710065Y-56254976D01*
X194572848Y-56311813D01*
X194449353Y-56394330D01*
X194449350Y-56394332D01*
X194344332Y-56499350D01*
X194344330Y-56499353D01*
X194261813Y-56622848D01*
X194204976Y-56760064D01*
X194193821Y-56816144D01*
X194167206Y-56860003D01*
X194118625Y-56876493D01*
X194070810Y-56857898D01*
X194047818Y-56820923D01*
X194036281Y-56777865D01*
X193960515Y-56646635D01*
X193853365Y-56539485D01*
X193722135Y-56463719D01*
X193722131Y-56463717D01*
X193575773Y-56424501D01*
X193575767Y-56424500D01*
X193575766Y-56424500D01*
X193424234Y-56424500D01*
X193424232Y-56424500D01*
X193424226Y-56424501D01*
X193277868Y-56463717D01*
X193277864Y-56463719D01*
X193146634Y-56539485D01*
X193039485Y-56646634D01*
X192963719Y-56777864D01*
X192963717Y-56777868D01*
X192924501Y-56924226D01*
X192924500Y-56924236D01*
X188295500Y-56924236D01*
X188295500Y-56924234D01*
X188282708Y-56876493D01*
X188256282Y-56777868D01*
X188256281Y-56777866D01*
X188256281Y-56777865D01*
X188180515Y-56646635D01*
X188073365Y-56539485D01*
X187942135Y-56463719D01*
X187942131Y-56463717D01*
X187795773Y-56424501D01*
X187795767Y-56424500D01*
X187795766Y-56424500D01*
X187644234Y-56424500D01*
X187644232Y-56424500D01*
X187644226Y-56424501D01*
X187497868Y-56463717D01*
X187497864Y-56463719D01*
X187366634Y-56539485D01*
X187259485Y-56646634D01*
X187183719Y-56777864D01*
X187183718Y-56777866D01*
X187172181Y-56820923D01*
X187142755Y-56862948D01*
X187093200Y-56876226D01*
X187046704Y-56854544D01*
X187026178Y-56816142D01*
X187015024Y-56760066D01*
X186958186Y-56622848D01*
X186875669Y-56499353D01*
X186875667Y-56499350D01*
X186770649Y-56394332D01*
X186770646Y-56394330D01*
X186647151Y-56311813D01*
X186509934Y-56254976D01*
X186440000Y-56241065D01*
X186440000Y-56720191D01*
X186405796Y-56700444D01*
X186329496Y-56680000D01*
X186250504Y-56680000D01*
X186174204Y-56700444D01*
X186140000Y-56720191D01*
X186140000Y-56241065D01*
X186139999Y-56241065D01*
X186070065Y-56254976D01*
X185932848Y-56311813D01*
X185809353Y-56394330D01*
X185809350Y-56394332D01*
X185704332Y-56499350D01*
X185704330Y-56499353D01*
X185621813Y-56622848D01*
X185564976Y-56760065D01*
X185536000Y-56905737D01*
X179667259Y-56905737D01*
X179694226Y-56868621D01*
X179694542Y-56868002D01*
X179694542Y-56868001D01*
X179773119Y-56713782D01*
X179826815Y-56548525D01*
X179854000Y-56376886D01*
X179854000Y-56203113D01*
X179826815Y-56031474D01*
X179773119Y-55866217D01*
X179694226Y-55711378D01*
X179629643Y-55622488D01*
X179629642Y-55622488D01*
X179193670Y-56058460D01*
X179150099Y-55982993D01*
X179057007Y-55889901D01*
X178981537Y-55846328D01*
X179417510Y-55410356D01*
X179328621Y-55345773D01*
X179173782Y-55266880D01*
X179008525Y-55213184D01*
X178836887Y-55186000D01*
X178663113Y-55186000D01*
X178491474Y-55213184D01*
X178326217Y-55266880D01*
X178171378Y-55345773D01*
X178082488Y-55410356D01*
X178518461Y-55846329D01*
X178442993Y-55889901D01*
X178349901Y-55982993D01*
X178306329Y-56058461D01*
X177870356Y-55622488D01*
X177805773Y-55711378D01*
X177726880Y-55866217D01*
X177673184Y-56031474D01*
X177649577Y-56180528D01*
X177624704Y-56225398D01*
X177576809Y-56243784D01*
X177528301Y-56227081D01*
X177501878Y-56183106D01*
X177500500Y-56168795D01*
X177500500Y-52880251D01*
X177699500Y-52880251D01*
X177699500Y-54619748D01*
X177711132Y-54678230D01*
X177755447Y-54744551D01*
X177755448Y-54744552D01*
X177821769Y-54788867D01*
X177880251Y-54800500D01*
X177880252Y-54800500D01*
X179619749Y-54800500D01*
X179648989Y-54794683D01*
X179678231Y-54788867D01*
X179744552Y-54744552D01*
X179788867Y-54678231D01*
X179800500Y-54619748D01*
X179800500Y-54297959D01*
X179818047Y-54249750D01*
X179862476Y-54224098D01*
X179913000Y-54233007D01*
X179928533Y-54244926D01*
X179929520Y-54245913D01*
X180004087Y-54320480D01*
X180095413Y-54373207D01*
X180095414Y-54373207D01*
X180095416Y-54373208D01*
X180197265Y-54400498D01*
X180197267Y-54400498D01*
X180197273Y-54400500D01*
X180197275Y-54400500D01*
X180302725Y-54400500D01*
X180302727Y-54400500D01*
X180404587Y-54373207D01*
X180495913Y-54320480D01*
X180570480Y-54245913D01*
X180623207Y-54154587D01*
X180650500Y-54052727D01*
X180650500Y-53947273D01*
X180623207Y-53845413D01*
X180570480Y-53754087D01*
X180495913Y-53679520D01*
X180404588Y-53626793D01*
X180404583Y-53626791D01*
X180302734Y-53599501D01*
X180302728Y-53599500D01*
X180302727Y-53599500D01*
X180197273Y-53599500D01*
X180197271Y-53599500D01*
X180197265Y-53599501D01*
X180095416Y-53626791D01*
X180095411Y-53626793D01*
X180004086Y-53679520D01*
X179928533Y-53755074D01*
X179882037Y-53776756D01*
X179832482Y-53763477D01*
X179803056Y-53721452D01*
X179800500Y-53702041D01*
X179800500Y-52880251D01*
X179788867Y-52821769D01*
X179744552Y-52755448D01*
X179744551Y-52755447D01*
X179678230Y-52711132D01*
X179619749Y-52699500D01*
X179619748Y-52699500D01*
X177880252Y-52699500D01*
X177880251Y-52699500D01*
X177821769Y-52711132D01*
X177755448Y-52755447D01*
X177755447Y-52755448D01*
X177711132Y-52821769D01*
X177699500Y-52880251D01*
X177500500Y-52880251D01*
X177500500Y-52575500D01*
X177518047Y-52527291D01*
X177562476Y-52501639D01*
X177575500Y-52500500D01*
X185610021Y-52500500D01*
X185658230Y-52518047D01*
G37*
%TD.AperFunction*%
%TD*%
M02*
